<svg xmlns="http://www.w3.org/2000/svg" width="218" height="199" fill="none" viewBox="0 0 218 199"><g opacity=".5"><path fill="#2F3676" fill-rule="evenodd" d="M95.5729 15.4938C95.58 15.9613 95.5867 16.4011 95.5968 16.8054C95.8168 25.6329 95.6892 34.913 94.9659 43.7198C94.7166 46.7605 92.4863 50.6146 89.9421 46.423C88.8234 44.5799 88.9801 40.7952 89.0954 38.011C89.1263 37.2646 89.1542 36.5901 89.1538 36.0442C89.1515 32.9377 89.316 29.7994 89.481 26.6527C89.8035 20.5008 90.1278 14.3167 89.2099 8.27469C89.1914 8.1524 89.1737 8.03476 89.1567 7.92161C88.7579 5.26463 88.7303 5.08106 85.7845 5.14146C84.5565 5.16676 83.3285 5.19969 82.1005 5.23262C80.8926 5.26501 79.6847 5.2974 78.4768 5.32253C77.2773 5.34751 76.0777 5.3704 74.8781 5.39328C71.1163 5.46504 67.3543 5.53681 63.5945 5.67335C62.9667 5.69631 61.7958 5.84197 60.3183 6.02578C57.3643 6.39326 53.1844 6.91325 49.6665 6.9103C49.6673 6.9253 49.6685 6.9403 49.6696 6.95535C49.6717 6.98225 49.6738 7.0093 49.6744 7.03675C49.7139 8.96285 49.2137 11.1129 48.7112 13.2729C48.2904 15.0819 47.868 16.8978 47.7595 18.5949C47.5015 22.6334 47.4987 26.7145 47.4959 30.7956C47.4925 35.7649 47.4891 40.7343 47.0249 45.6269C47.0023 45.8654 46.9887 46.1176 46.9749 46.3727C46.973 46.4066 46.9712 46.4406 46.9694 46.4746C47.1284 46.4506 47.2834 46.4336 47.4323 46.4242C49.9675 46.2647 52.5241 46.2505 55.0767 46.2364C56.4846 46.2286 57.8914 46.2207 59.2925 46.1886C61.8086 46.1307 64.3555 46.1334 66.9127 46.1362C72.5579 46.1422 78.2529 46.1483 83.7749 45.5032C85.4057 45.2936 85.9759 47.3684 85.2442 48.444C84.5895 49.4068 82.7862 49.5628 81.4655 49.677C81.1299 49.706 80.8255 49.7324 80.579 49.7686C77.0175 50.2916 73.4089 50.4741 69.8156 50.6321C66.0415 50.7979 62.2644 50.9219 58.4878 51.0262C57.5892 51.0508 56.3897 51.171 55.0596 51.3044C51.5481 51.6564 47.127 52.0997 44.9323 51.1147C42.5742 50.0565 42.6293 48.8815 43.5918 47.9712C43.1694 47.0506 43.1031 45.7052 43.0512 44.653C43.0314 44.2512 43.0137 43.8922 42.9791 43.616C42.4556 39.4264 42.1401 35.2904 42.1327 31.0649C42.1178 22.788 42.1347 14.1918 44.4429 6.18013C43.5185 5.77864 42.9607 5.18673 42.9632 4.33356C42.9737 0.0352216 56.462 0.253935 62.8738 0.357901C64.0202 0.376491 64.9404 0.391411 65.5168 0.376187C70.1875 0.255148 74.8592 0.239403 79.5308 0.264497C80.5181 0.269689 81.6166 0.205644 82.7548 0.139285C85.1759 -0.00186281 87.7765 -0.15348 89.8676 0.32846C95.3613 1.5934 95.4934 10.2713 95.5729 15.4938Z" clip-rule="evenodd"/><path fill="#2F3676" fill-rule="evenodd" d="M129.933 1.2706C135.033 1.00294 140.137 0.941433 145.244 0.922736C150.651 0.895674 156.066 0.992111 161.47 1.15694L161.595 1.16069C163.99 1.23203 177.301 1.62857 171.186 4.91848C170.829 5.11043 170.427 5.27081 169.989 5.40394C170.248 6.9273 170.28 8.50013 170.238 9.2578C170.08 12.1311 169.976 15.0076 169.872 17.8839L169.872 17.8844L169.872 17.8853C169.801 19.8345 169.731 21.7836 169.643 23.7317C169.403 29.1155 169.174 34.4988 168.987 39.885C168.964 40.5461 168.999 41.4106 169.038 42.3742L169.038 42.3745C169.168 45.5609 169.342 49.8304 167.598 51.4087C166.067 52.7945 165.021 52.5168 164.316 51.5757C159.934 52.8376 150.936 52.4273 146.411 52.221C145.321 52.1713 144.491 52.1334 144.047 52.1336C143.254 52.1339 141.78 52.2321 139.919 52.3561C132.171 52.8722 117.709 53.8357 117.679 50.0474C117.676 49.6829 117.796 49.3562 118.02 49.0636C117.407 48.4424 116.854 47.5302 116.499 46.3921C115.226 42.3063 115.106 37.8973 115.012 33.6604C114.879 27.6777 114.877 21.6881 114.876 15.6997C114.875 12.6243 114.874 9.54918 114.855 6.47554C114.027 5.37235 114.519 4.11064 115.552 3.23034C117.753 1.35739 123.214 1.33476 127.164 1.31839C128.227 1.31399 129.181 1.31004 129.933 1.2706ZM121.633 47.402C126.549 46.3608 134.833 46.6959 139.27 46.8755C140.433 46.9225 141.331 46.9588 141.836 46.957C146.369 46.9393 150.903 47.0018 155.432 47.1814C155.901 47.1999 156.596 47.1826 157.415 47.1621C159.059 47.121 161.203 47.0674 163.024 47.2675C162.999 47.0227 162.983 46.7989 162.973 46.6056C162.769 42.6071 162.916 38.5742 163.063 34.5637V34.5636C163.094 33.7111 163.125 32.8596 163.153 32.0096C163.25 29.011 163.379 26.0138 163.508 23.0165L163.508 23.0152C163.589 21.1283 163.671 19.2414 163.744 17.3541C163.776 16.5259 163.728 15.401 163.674 14.1353C163.565 11.5605 163.43 8.40349 163.895 5.9787C162.218 5.94709 160.5 5.82922 158.924 5.72111C157.405 5.61694 156.019 5.52184 154.929 5.52171C153.547 5.52158 152.164 5.51736 150.782 5.51315C146.953 5.50148 143.124 5.4898 139.294 5.56501C138.93 5.57215 138.567 5.5791 138.203 5.58606C132.93 5.68695 127.613 5.78868 122.383 6.47772C122.077 6.51815 121.709 6.59611 121.301 6.69064C121.874 9.06708 121.594 12.4163 121.348 15.3496C121.228 16.7743 121.117 18.1009 121.116 19.1702C121.108 25.8201 121.285 32.4439 121.462 39.061C121.529 41.5642 121.596 44.0664 121.653 46.5687C121.66 46.8675 121.653 47.145 121.633 47.402Z" clip-rule="evenodd"/><path fill="#000DFF" fill-rule="evenodd" d="M65.6807 50.8335C62.3289 52.7756 64.1364 60.5442 65.2978 63.2311C67.2067 67.649 71.0801 71.106 75.2595 73.3993C83.7073 78.0342 95.8844 76.8032 102.273 84.839C102.339 84.9221 104.548 87.0905 105.05 84.2825C105.463 81.9778 101.34 78.4584 99.7429 77.3031C95.1999 74.0183 89.3734 72.959 84.1185 71.3181C78.5145 69.5679 72.3646 66.3417 70.0151 60.6116C69.1831 58.582 70.7692 47.871 65.6807 50.8335Z" clip-rule="evenodd"/><path fill="#000DFF" fill-rule="evenodd" d="M142.306 54.5683C139.234 55.4081 141.265 59.6002 141.261 61.6992C141.255 64.3178 140.411 67.0584 138.783 69.148C134.657 74.4476 126.577 75.2417 120.52 76.7611C116.121 77.8652 105.598 80.2324 105.186 86.1323C104.726 92.721 114.017 84.7029 114.802 84.3742C123.485 81.2149 134.72 80.6048 141.422 73.6505C144.189 70.78 145.824 66.9486 146.084 62.9942C146.23 60.7678 146.255 53.4981 142.306 54.5683Z" clip-rule="evenodd"/><path fill="#2F3676" fill-rule="evenodd" d="M78.8385 113.01C78.7669 100.82 90.5293 93.4456 101.166 90.6715C113.95 87.3312 125.859 96.2157 127.366 108.997C128.956 122.485 118.707 133.343 105.19 133.938C93.3 134.462 78.9145 126.018 78.8385 113.01ZM107.396 96.5329C108.088 97.4653 108.712 98.9532 107.318 99.7635C105.979 100.538 105.309 99.6068 104.636 98.6698C104.21 98.0775 103.783 97.4829 103.183 97.3152C101.629 96.8812 99.1315 98.5025 97.837 99.4476C97.3116 99.8314 96.5638 100.658 95.6897 101.623C92.9072 104.697 88.8448 109.185 86.5992 105.323C77.6438 120.661 99.9705 132.139 112.666 126.335C126.61 119.96 123.896 96.6544 107.396 96.5329Z" clip-rule="evenodd"/><path fill="#000DFF" fill-rule="evenodd" d="M95.9873 134.871C96.1815 141.524 96.0881 148.173 97.3602 154.734C97.6021 155.98 97.77 160.5 98.763 161.425C101.205 163.702 101.246 159.338 101.34 157.666C101.679 151.675 101.045 145.498 100.905 139.496C100.875 138.203 101.22 135.527 100.605 134.277C99.6298 132.291 95.8924 131.702 95.9873 134.871Z" clip-rule="evenodd"/><path fill="#000DFF" fill-rule="evenodd" d="M91.2119 129.477C81.4235 140.373 67.9445 139.571 54.3651 140.525C47.1905 141.029 39.9359 142.064 34.1625 146.667C31.4772 148.808 29.162 151.49 27.6063 154.547C26.9263 155.883 23.7005 163.593 28.5451 161.764C30.2632 161.115 31.9546 156.017 33.0657 154.509C35.1823 151.636 37.8904 149.265 41.1389 147.723C47.4056 144.75 54.8882 144.801 61.6828 144.423C68.7854 144.029 76.4091 143.661 82.938 140.597C86.0093 139.156 88.8907 137.359 91.3624 135.043C92.2456 134.215 94.1396 132.809 94.2807 131.543C94.4421 130.096 93.0399 127.447 91.2119 129.477Z" clip-rule="evenodd"/><path fill="#2F3676" fill-rule="evenodd" d="M41.7978 162.921C32.603 163.226 23.4201 163.595 14.2382 164.172C12.3567 164.29 6.08308 163.913 7.68103 167.737C8.96158 170.802 16.6126 168.775 19.1434 168.626C28.7112 168.063 38.3183 167.867 47.8658 167.013C50.0106 166.822 59.7051 166.898 55.7021 163.128C53.7976 161.334 44.429 162.832 41.7978 162.921Z" clip-rule="evenodd"/><path fill="#2F3676" fill-rule="evenodd" d="M1.84284 167.32C-1.05553 171.095 0.276185 180.271 0.495239 184.809C0.707339 189.208 -0.153976 197.249 5.63432 197.931C3.79645 197.692 7.02961 198.042 7.55563 198.07C8.73088 198.132 9.91158 198.153 11.0883 198.165C13.8069 198.195 16.5269 198.159 19.245 198.105C25.4023 197.983 31.5756 197.805 37.725 197.468C40.3099 197.325 54.3329 197.444 54.8882 194.781C55.5975 191.377 42.1523 193.303 39.7457 193.411C33.8838 193.678 28.0131 193.734 22.1463 193.81C19.2385 193.848 16.3277 193.877 13.4199 193.82C12.2193 193.797 7.46424 194.286 6.73455 193.492C6.11216 192.815 6.59796 186.597 6.58454 185.646C6.54183 182.545 6.5453 179.437 6.65657 176.338C6.73157 174.251 7.86907 170.281 6.94218 168.321C6.04063 166.415 3.41298 165.764 1.84284 167.32Z" clip-rule="evenodd"/><path fill="#2F3676" fill-rule="evenodd" d="M49.1876 167.496C49.3555 174.403 49.4076 181.449 51.0523 188.204C51.5997 190.452 52.3666 195.087 54.6436 196.251C57.0333 197.472 59.0967 195.729 59.2526 193.38C59.4493 190.428 57.8554 186.551 57.5285 183.522C57.1465 179.987 56.9245 176.449 56.7939 172.897C56.695 170.226 57.5136 166.221 54.9461 164.498C52.6398 162.951 49.1126 164.509 49.1876 167.496Z" clip-rule="evenodd"/><path fill="#2F3676" fill-rule="evenodd" d="M67.4855 165.81C64.6259 168.635 65.904 177.58 66.2616 181.211C66.5234 183.87 69.4575 196.949 73.854 190.129C75.7986 187.112 73.3279 179.134 73.3453 175.616C73.3568 173.375 74.1565 170.542 73.7705 168.389C73.2604 165.545 70.0794 163.241 67.4855 165.81Z" clip-rule="evenodd"/><path fill="#2F3676" fill-rule="evenodd" d="M87.2857 163.478C95.875 162.599 104.475 161.94 113.111 161.858C113.526 161.855 113.962 161.849 114.415 161.844C120.334 161.769 129.23 161.657 133.213 166.066C135.384 168.468 136.367 172.18 137.224 175.417C137.384 176.021 137.539 176.608 137.697 177.167C137.832 177.644 138.007 178.189 138.197 178.778C139.092 181.556 140.302 185.316 139.075 187.643C138.402 188.92 137.318 190.008 135.673 189.556C135.289 189.45 134.987 189.315 134.751 189.155C135.382 189.832 135.661 190.795 135.252 191.738C134.461 193.56 131.962 193.599 129.993 193.629C129.515 193.637 129.069 193.643 128.686 193.675C122.128 194.217 115.54 194.579 108.959 194.636C105.826 194.663 102.693 194.638 99.5589 194.613C96.3331 194.586 93.1074 194.56 89.8823 194.592C87.5412 194.615 85.1569 194.835 82.7719 195.056C79.7607 195.335 76.7483 195.614 73.8199 195.495C71.6288 195.405 69.2893 194.694 69.8446 191.885C70.2974 189.593 72.473 189.393 74.4229 189.213C74.5926 189.198 74.7606 189.182 74.9256 189.166C81.1336 188.539 87.3451 188.317 93.5849 188.339C106.693 188.384 119.791 188.317 132.899 188.249C133.438 188.293 133.946 188.497 134.364 188.809C133.892 188.241 133.901 187.484 133.911 186.678C133.915 186.314 133.919 185.939 133.88 185.567C133.8 184.82 133.726 184.076 133.653 183.334C133.411 180.879 133.17 178.443 132.698 175.974C132.627 175.601 132.558 175.191 132.485 174.757C132.056 172.194 131.488 168.798 129.433 167.414C127.367 166.023 123.316 166.09 120.158 166.142C119.306 166.156 118.519 166.169 117.853 166.152C109.428 165.936 100.954 166.529 92.5673 167.286C91.9234 167.344 91.2781 167.4 90.6322 167.455C87.4414 167.731 84.234 168.008 81.0891 168.574C80.5138 168.678 79.6346 168.982 78.6261 169.331C75.9433 170.26 72.3458 171.505 71.1234 170.134C67.0736 165.591 84.8696 163.725 87.2857 163.478Z" clip-rule="evenodd"/><path fill="#000DFF" fill-rule="evenodd" d="M178.667 153.136C179.041 153.612 179.041 153.612 178.667 153.136V153.136ZM120.542 124.992C115.325 128.033 124.981 136.957 127.44 138.337C132.975 141.442 140.58 141.911 146.76 142.784C154.582 143.89 163.094 144.297 170.61 146.839C173.814 147.923 175.849 149.613 177.946 152.211C179.008 153.527 181.567 159.201 183.897 157.857C188.589 155.153 175.947 143.802 173.161 142.582C166.829 139.807 159.344 139.031 152.574 137.953C146.278 136.951 139.847 136.206 133.707 134.44C130.331 133.469 127.932 131.902 125.985 128.904C124.772 127.035 123.777 123.114 120.542 124.992Z" clip-rule="evenodd"/><path fill="#2F3676" fill-rule="evenodd" d="M200.514 159.852C194.499 159.984 188.496 160.443 182.494 160.902C179.127 161.159 175.761 161.417 172.393 161.616C171.34 161.679 170.285 161.735 169.23 161.791L169.23 161.791L169.23 161.791C166.263 161.95 163.292 162.109 160.339 162.404C159.891 162.449 159.371 162.492 158.805 162.538C156.297 162.742 152.878 163.02 150.692 163.928C148.689 162.425 145.598 163.703 145.549 166.381C145.467 171.261 145.512 176.053 146.112 180.903C146.251 182.028 146.969 187.728 148.529 190.694C147.974 193.496 150.382 194.281 152.623 194.496C161.303 195.327 170.406 194.682 179.386 194.045C183.953 193.722 188.489 193.4 192.92 193.276C194.394 193.235 195.887 193.218 197.388 193.202C202.288 193.147 207.282 193.092 212.026 192.173C212.217 192.136 212.422 192.099 212.636 192.061C214.511 191.728 217.098 191.268 217.295 189.221C217.413 187.992 216.714 186.867 215.544 186.709C215.625 185.685 215.495 184.568 215.4 183.747C215.377 183.556 215.357 183.381 215.342 183.227C215.057 180.38 214.342 177.551 213.636 174.759L213.636 174.759L213.636 174.758C213.478 174.131 213.319 173.505 213.167 172.881C212.997 172.19 212.841 171.368 212.672 170.482C212.075 167.354 211.326 163.424 209.332 161.599C207.242 159.685 203.839 159.77 201.113 159.838C200.909 159.843 200.709 159.848 200.514 159.852ZM211.097 187.015C210.384 185.164 210.175 182.66 209.977 180.28V180.28C209.852 178.786 209.732 177.341 209.493 176.137C209.314 175.233 209.167 174.28 209.018 173.312C208.656 170.96 208.279 168.515 207.389 166.454C206.197 163.694 205.136 163.8 202.626 164.049C202.159 164.096 201.642 164.147 201.065 164.186C198.507 164.358 195.951 164.578 193.396 164.797C192.169 164.902 190.943 165.008 189.717 165.108C184.47 165.536 179.22 165.864 173.969 166.193L173.969 166.193C170.902 166.385 167.834 166.577 164.767 166.789C162.359 166.956 160.009 167.409 157.67 167.861C155.816 168.219 153.969 168.576 152.104 168.788C152.077 169.421 152.023 170.056 151.972 170.66L151.972 170.66C151.903 171.484 151.838 172.251 151.852 172.88C151.913 175.666 152.161 178.436 152.409 181.21C152.448 181.636 152.486 182.063 152.523 182.49C152.568 183.001 152.679 183.659 152.802 184.388C152.992 185.515 153.212 186.814 153.261 188.01C153.488 188.009 153.713 188.01 153.936 188.01C154.223 188.011 154.505 188.012 154.775 188.008C161.387 187.893 167.993 187.694 174.6 187.442C175.443 187.41 176.287 187.378 177.13 187.345C183.025 187.118 188.92 186.89 194.819 186.823C197.163 186.797 199.538 186.869 201.919 186.942C204.984 187.036 208.059 187.131 211.097 187.015Z" clip-rule="evenodd"/></g></svg>