<svg width="306" height="197" viewBox="0 0 306 197" fill="none" xmlns="http://www.w3.org/2000/svg">
<rect x="149.976" y="107.105" width="12.2927" height="57.8947" rx="3.5" fill="#E3D7D7"/>
<rect x="178.659" y="70.0527" width="12.2927" height="94.9474" rx="3.5" fill="#E3D7D7"/>
<rect x="207.341" y="51.5264" width="12.2927" height="113.474" rx="3.5" fill="#E3D7D7"/>
<rect x="236.024" y="70.0527" width="12.2927" height="94.9474" rx="3.5" fill="#E3D7D7"/>
<rect x="264.707" y="33" width="12.2927" height="132" rx="3.5" fill="#000DFF" fill-opacity="0.6"/>
<path fill-rule="evenodd" clip-rule="evenodd" d="M84.5194 124.483C81.491 128.105 77.201 130.379 72.4296 130.379C63.2615 130.379 55.8292 122.033 55.8292 111.737C55.8292 101.441 63.2615 93.0947 72.4296 93.0947V58.4736C46.3481 58.4736 25 82.4474 25 111.737C25 141.026 46.3481 165 72.4296 165C86.1296 165 98.5111 158.491 106.951 148.137L84.5194 124.483Z" fill="#E3D7D7"/>
<path fill-rule="evenodd" clip-rule="evenodd" d="M72.1219 58.4736V93.0947C81.2306 93.0947 88.6146 101.441 88.6146 111.737H119.244C119.244 82.4474 98.0343 58.4736 72.1219 58.4736Z" fill="#000DFF" fill-opacity="0.6"/>
<path fill-rule="evenodd" clip-rule="evenodd" d="M88.6612 111.737C88.6612 117.654 86.1957 122.914 82.3659 126.31L101.207 153.421C112.175 143.715 119.244 128.67 119.244 111.737H88.6612Z" fill="#000DFF" fill-opacity="0.3"/>
</svg>
