<svg width="292" height="246" viewBox="0 0 292 246" fill="none" xmlns="http://www.w3.org/2000/svg">
<g clip-path="url(#clip0)">
<path d="M148.108 135.005V218.061" stroke="#A4A4A4" stroke-width="3" stroke-linecap="round" stroke-linejoin="round"/>
<path d="M192.164 176.865L178.571 241.599" stroke="#979797" stroke-opacity="0.55" stroke-width="2" stroke-linecap="round" stroke-linejoin="round"/>
<path d="M242.257 71.2344H273L243.845 176.865H187.5V169.989L219.048 150.624L242.257 71.2344Z" fill="#989898" fill-opacity="0.55"/>
<path d="M240.597 176.865L254.19 241.599" stroke="#989898" stroke-opacity="0.55" stroke-width="2" stroke-linecap="round" stroke-linejoin="round"/>
<path fill-rule="evenodd" clip-rule="evenodd" d="M202.072 57.6451C197.787 60.2722 193.576 61.5415 191.6 61.0233C186.644 59.724 186.188 41.2831 190.023 34.0131C193.858 26.7431 213.572 23.5744 214.565 37.9785C214.91 42.9777 212.846 47.4392 209.797 51.0797L215.265 76.9998H199.382L202.072 57.6451Z" fill="#B28B67"/>
<path fill-rule="evenodd" clip-rule="evenodd" d="M196.87 34.9805C199.109 36.1831 200.672 38.5187 202.563 41.6055C203.012 41.4258 203.502 41.327 204.015 41.327C206.208 41.327 207.985 43.1351 207.985 45.3655C207.985 46.4978 207.527 47.5212 206.789 48.2545C207.708 49.5734 208.737 50.9513 209.917 52.373C214.35 49.6683 217.639 41.7504 213.306 34.1441C212.108 30.418 209.396 28.4277 206.194 27.5035C203.599 26.3998 200.906 26.2754 198.633 26.937C194.177 27.3258 190.198 28.7078 189.07 29.5286C189.07 33.8196 189.887 35.0928 196.87 34.9805Z" fill="#191847"/>
<path fill-rule="evenodd" clip-rule="evenodd" d="M170.561 128.768L154.22 150.234C149.041 153.408 144.891 156.688 141.771 160.075C141.114 161.158 140.509 163.138 144.117 161.775C147.725 160.411 151.58 159.142 152.45 160.272C153.319 161.401 151.518 163.58 153.033 165.005C154.044 165.954 156.471 162.127 160.317 153.523L178.376 138.919L170.561 128.768Z" fill="#B28B67"/>
<path fill-rule="evenodd" clip-rule="evenodd" d="M207.048 65.5507L201.13 65.3703C194.667 92.0376 180.464 117.459 158.521 141.636L180.449 162.074C201.181 129.153 212.275 96.6602 207.048 65.5507Z" fill="#5551FA"/>
<path fill-rule="evenodd" clip-rule="evenodd" d="M226.082 143.07L190.968 143.07C190.968 143.07 202.752 96.3487 198.488 65.4792L213.686 60.9103C228.639 79.094 219.126 110.496 226.082 143.07Z" fill="#DDE3E9"/>
<path fill-rule="evenodd" clip-rule="evenodd" d="M243.089 150.153C241.694 138.066 239.079 126.904 235.909 116.917C236.669 129.196 236.769 144.089 233.705 151.495L243.089 150.153Z" fill="black" fill-opacity="0.1"/>
<path fill-rule="evenodd" clip-rule="evenodd" d="M232.729 130.176L215.01 124.7L216.095 132.555L232.729 130.176Z" fill="white" fill-opacity="0.2"/>
<path fill-rule="evenodd" clip-rule="evenodd" d="M254.96 119.397C254.96 119.397 267.062 157.774 269.578 161.53C270.808 163.366 278.722 168.346 284.113 171.068C286.276 172.16 285.702 174.036 285.021 174.61C279.483 179.277 274.87 175.354 269.279 173.625C263.154 171.73 264.699 179.332 259.855 177.912C260.815 174.527 263.268 168.13 261.184 164.459C259.795 162.011 241.001 121.45 241.001 121.45L254.96 119.397Z" fill="#B28B67"/>
<path fill-rule="evenodd" clip-rule="evenodd" d="M110.525 241.167C122.826 226.402 131.149 215.456 135.494 208.329C142.934 196.126 149.023 185.268 150.945 181.12C155.527 171.229 140.395 166.597 136.971 171.211C131.787 178.194 120.717 200.167 103.761 237.13L110.525 241.167Z" fill="#B28B67"/>
<path fill-rule="evenodd" clip-rule="evenodd" d="M135.731 236.874L158.624 180.232C163.52 169.907 139.875 163.12 136.277 167.925C128.107 178.834 108.69 221.87 106.257 225.12L135.731 236.874Z" fill="#496FA8"/>
<path fill-rule="evenodd" clip-rule="evenodd" d="M196.702 225.515C192.243 219.121 176.022 197.611 167.188 188.71C164.649 186.153 162.172 183.698 159.829 181.41C152.865 174.611 138.997 186.039 145.948 192.232C163.259 207.656 188.518 228.477 190.628 230.333C193.586 232.935 199.505 229.533 196.702 225.515Z" fill="#B28B67"/>
<path fill-rule="evenodd" clip-rule="evenodd" d="M193.32 223.523C194.043 222.616 195.385 222.394 196.27 223.161C197.191 223.957 198.23 224.945 198.657 225.672C199.501 227.109 200.633 230.141 200.633 230.141C198.937 231.103 170.158 247.435 170.158 247.435C170.158 247.435 166.703 244.249 169.081 242.489C171.46 240.729 173.007 239.52 173.007 239.52L183.299 225.583C183.63 225.134 184.273 225.045 184.722 225.385L186.597 226.804C186.597 226.804 189.604 226.546 191.086 225.705C191.801 225.3 192.641 224.373 193.32 223.523Z" fill="#AFB9C5"/>
<path fill-rule="evenodd" clip-rule="evenodd" d="M113.353 238.579C114.432 238.152 115.694 238.619 116.071 239.716C116.464 240.86 116.863 242.229 116.863 243.071C116.863 244.73 116.301 247.912 116.301 247.912C114.343 247.912 81.1113 247.912 81.1113 247.912C81.1113 247.912 79.7396 243.455 82.6949 243.1C85.6502 242.744 87.6049 242.458 87.6049 242.458L103.616 235.442C104.128 235.218 104.724 235.456 104.94 235.971L105.843 238.124C105.843 238.124 108.579 239.379 110.289 239.379C111.12 239.379 112.329 238.985 113.353 238.579Z" fill="#AFB9C5"/>
<path fill-rule="evenodd" clip-rule="evenodd" d="M166.861 183.062C166.861 183.062 195.402 178.491 205.095 176.811C223.515 173.619 228.886 163.876 225.71 142.619L191.772 142.619C185.036 144.531 135.476 166.272 135.476 166.272C129.531 169.172 130.638 177.725 131.725 180.542C131.791 180.715 161.789 231.179 161.789 231.179L189.551 213.795L166.809 185.11C166.809 185.11 165.908 183.326 166.861 183.062Z" fill="#6984AC"/>
<path fill-rule="evenodd" clip-rule="evenodd" d="M214.017 60.8751L214.028 60.8624C214.028 60.8624 254.38 91.0839 268.915 154.767L243.832 158.354C243.644 155.484 243.383 152.66 243.058 149.885L209.374 154.702C209.374 154.702 207.395 93.4508 205.24 73.4544L207.487 62.0307C207.487 62.0307 211.186 61.333 212.996 61.0093L214.009 60.8644C214.012 60.8679 214.014 60.8715 214.017 60.8751Z" fill="#4E53B7"/>
<path d="M186.347 130.178H0V135.008H186.347V130.178Z" fill="#A4A4A4"/>
<path d="M170.317 122.333H93.1715H92.9774H15.8316L0 130.135H92.9774H93.1715H186.153L170.317 122.333Z" fill="#E0E0E0"/>
<path d="M23.4672 135.005V236.304" stroke="#A4A4A4" stroke-width="3" stroke-linecap="round" stroke-linejoin="round"/>
<path d="M38.2352 135.005V218.061" stroke="#A4A4A4" stroke-width="3" stroke-linecap="round" stroke-linejoin="round"/>
<path d="M162.879 135.005V236.304" stroke="#A4A4A4" stroke-width="3" stroke-linecap="round" stroke-linejoin="round"/>
<path d="M142.937 122.874H109.898V124.967H142.937V122.874Z" fill="#A4A4A4"/>
<path d="M74.8785 120.27H68.5545V127.229H74.8785V120.27Z" fill="#A4A4A4"/>
<path d="M134.382 129.225C138.474 129.225 141.791 127.791 141.791 126.023C141.791 124.254 138.474 122.821 134.382 122.821C130.29 122.821 126.973 124.254 126.973 126.023C126.973 127.791 130.29 129.225 134.382 129.225Z" fill="#F2F2F2"/>
<path d="M66.2225 33.9082H63.1935V124.05H66.2225V33.9082Z" fill="#E0E0E0"/>
<path d="M66.2189 33.9082V78.9773V124.05L80.5414 119.207V78.9773V38.7479L66.2189 33.9082Z" fill="#A4A4A4"/>
</g>
<defs>
<clipPath id="clip0">
<rect width="292" height="246" fill="white"/>
</clipPath>
</defs>
</svg>
