<svg xmlns="http://www.w3.org/2000/svg" width="75" height="75" fill="none" viewBox="0 0 75 75"><path fill="#2F367F" d="M37.5 0C16.7906 0 0 16.7906 0 37.5C0 58.2094 16.7906 75 37.5 75C58.2094 75 75 58.2094 75 37.5C75 16.7906 58.2094 0 37.5 0ZM31.25 50H25V31.25H31.25V50ZM28.125 28.4656C26.2281 28.4656 24.6875 26.9156 24.6875 25C24.6875 23.0875 26.225 21.5344 28.125 21.5344C30.025 21.5344 31.5625 23.0875 31.5625 25C31.5625 26.9156 30.0219 28.4656 28.125 28.4656ZM53.125 50H46.8812V41.0594C46.8812 35.1813 40.625 35.6781 40.625 41.0594V50H34.375V31.25H40.625V34.6656C43.35 29.6156 53.125 29.2406 53.125 39.5031V50Z"/></svg>