<svg xmlns="http://www.w3.org/2000/svg" width="222" height="347" fill="none" viewBox="0 0 222 347"><g opacity=".7"><path fill="#69A1AC" fill-rule="evenodd" d="M23.1777 107.741C34.9187 107.08 49.439 114.521 50.6916 128.378C51.6015 138.447 51.3198 148.486 52.7279 158.54C53.854 166.574 56.2354 174.287 59.4834 181.606C62.6065 188.644 69.0851 194.635 70.7701 202.154C71.8441 206.944 71.2429 213.683 69.7619 218.37C67.9607 224.067 68.918 223.617 72.5069 228.397C79.5394 237.766 85.8718 247.374 90.3499 258.563C96.8002 274.68 101.029 293.519 98.6351 311.16C98.3305 313.401 97.9694 321.44 95.1282 322.002C91.955 322.631 93.4388 318.033 93.6082 316.547C94.6879 307.07 95.6472 298.786 94.3448 289.161C89.3195 252.025 64.7831 227.557 48.8066 196.039C47.9283 194.414 46.0742 190.543 44.7851 187.99C42.7498 183.959 40.7036 176.288 37.9484 173.299C32.7593 167.667 37.5299 178.988 38.541 181.149C39.8194 183.883 41.2258 186.789 42.5359 189.184C48.5301 200.288 55.2207 212.409 61.4115 223.856C34.6371 230.479 15.7808 195.53 8.59578 172.552C2.67587 153.621 -4.40706 109.361 23.1777 107.741Z" clip-rule="evenodd"/><path fill="#89C5CC" fill-rule="evenodd" d="M180.542 72.5861C160.915 74.277 148.314 88.3393 142.449 108.008C139.288 118.607 138.925 129.496 137.168 140.389C134.526 156.777 128.84 169.197 117.727 180.872C114.285 184.488 111.749 188.201 109.946 192.173C106.366 196.139 103.251 200.627 100.961 206.114C98.0374 213.121 97.21 221.528 100.586 228.514C101.494 230.392 103.758 234.162 106.105 235.875C97.3185 256.194 92.4872 278.447 93.0318 300.672C93.3609 314.088 93.9641 327.51 94.6678 340.909C94.8573 344.507 95.9364 350.448 97.5572 344.414C99.0405 338.895 97.1804 330.231 97.0082 324.465C96.1707 296.377 95.4547 270.838 106.104 244.595C107.22 241.844 108.404 239.116 109.637 236.409C109.71 236.364 109.777 236.309 109.845 236.255C109.892 236.295 109.935 236.337 109.982 236.376C110.061 236.223 110.168 236.041 110.294 235.839C110.648 235.442 110.957 234.942 111.25 234.383C112.195 232.962 113.264 231.292 113.27 230.378C113.27 230.371 113.266 230.36 113.266 230.353C119.858 218.668 127.409 207.628 135.122 196.803C135.064 196.882 143.487 184.429 142.185 191.316C141.557 194.634 135.361 200.955 132.859 204.47C127.323 212.291 120.822 222.2 115.421 231.782C114.694 232.236 113.667 234.463 112.924 236.122C112.514 236.962 112.131 237.809 111.755 238.548C130.896 245.414 145.785 231.583 155.938 215.496C155.95 215.477 155.961 215.457 155.973 215.438C159.063 210.993 162.227 206.579 166.181 203.065C172.778 197.202 179.843 196.167 187.62 193.282C208.831 185.413 217.849 155.566 220.713 133.42C223.945 108.435 208.138 70.1225 180.542 72.5861Z" clip-rule="evenodd"/><path fill="#89C5CC" fill-rule="evenodd" d="M141.771 2.61849C121.627 25.3826 111.895 56.9569 104.189 86.6398C95.5819 119.793 89.897 153.457 89.6788 187.926C89.5358 210.572 88.9684 233.36 90.1857 255.979C90.6176 264.013 91.3552 272.06 92.5279 280.007C92.6244 280.661 95.2482 298.405 97.7586 294.27C99.1864 291.919 95.0692 275.863 94.758 273.189C93.008 258.126 92.6014 242.953 92.6867 227.782C92.827 202.803 92.1487 177.953 94.4804 153.066C94.828 149.35 95.1031 145.447 95.916 141.812C96.779 137.948 95.6798 139.635 98.4911 138.105C101.223 136.618 104.598 136.83 107.433 134.964C118.675 127.562 124.426 108.549 128.902 96.0743C134.021 81.8085 137.133 66.596 139.618 51.5832C141.443 40.5529 142.748 29.5897 143.486 18.4174C143.719 14.8963 143.732 11.2142 144.37 7.75196C144.541 6.81804 145.403 5.16593 145.372 4.33887C145.305 2.58846 144.332 1.55901 144.253 0.0881759C143.409 0.912158 142.582 1.7562 141.771 2.61849Z" clip-rule="evenodd"/><path fill="#69A1AC" fill-rule="evenodd" d="M137.734 246.233C153.271 244.989 170.623 258.599 178.118 272.762C184.159 284.182 183.142 299.177 179.41 311.309C176.911 319.432 171.457 331.012 162.361 331.125C150.982 331.266 150.433 315.996 150.213 307.068C149.921 295.2 148.54 284.861 139.926 276.771C138.863 275.772 137.747 274.838 136.631 273.903C135.641 273.073 134.651 272.244 133.697 271.37C133.545 271.23 133.391 271.09 133.238 270.95C130.192 268.171 126.993 265.251 126.604 260.67C126.039 254.03 129.491 252.836 134.761 254.069C134.931 254.109 135.393 254.299 136.021 254.557C138.713 255.665 144.456 258.029 143.369 255.203C142.96 254.139 141.466 253.295 139.58 252.663C134.7 252.087 128.881 251.418 127.207 251.818C109.151 256.119 102.121 283.275 100.254 300.529C100.053 302.392 99.8896 304.26 99.7475 306.131H96.4302C96.6604 301.612 96.9644 297.101 97.6602 292.633C100.321 275.542 108.642 250.44 126.891 247.666C127.565 247.563 130.041 247.546 133.041 247.737C134.463 246.874 136.056 246.352 137.734 246.233Z" clip-rule="evenodd"/></g></svg>