<svg width="171" height="146" viewBox="0 0 171 146" fill="none" xmlns="http://www.w3.org/2000/svg">
<g opacity="0.7">
<path fill-rule="evenodd" clip-rule="evenodd" d="M149.076 4.14506C138.086 3.72764 124.493 8.42395 123.32 17.1695C122.469 23.524 122.733 29.8602 121.414 36.2051C120.36 41.276 118.131 46.1439 115.091 50.763C112.167 55.2048 106.102 58.9858 104.525 63.731C103.52 66.7545 104.082 71.0077 105.469 73.9652C107.155 77.5611 106.259 77.2769 102.899 80.2941C96.316 86.2069 90.3881 92.2703 86.1962 99.3323C80.1581 109.504 76.1994 121.394 78.4404 132.528C78.7255 133.942 79.0635 139.016 81.7232 139.37C84.6936 139.767 83.3047 136.865 83.1461 135.928C82.1354 129.946 81.2374 124.718 82.4565 118.644C87.1608 95.206 110.129 79.7639 125.085 59.8718C125.907 58.846 127.643 56.4033 128.85 54.7918C130.755 52.2476 132.67 47.4064 135.25 45.5199C140.107 41.9658 135.641 49.1107 134.695 50.4748C133.498 52.2001 132.181 54.0339 130.955 55.5457C125.344 62.5537 119.081 70.2036 113.286 77.4276C138.349 81.608 156.001 59.5504 162.727 45.0488C168.268 33.1012 174.899 5.16737 149.076 4.14506" fill="#69A1AC"/>
<path fill-rule="evenodd" clip-rule="evenodd" d="M41.8401 91.55C27.2954 90.765 11.0524 99.3548 4.03651 108.294C-1.61929 115.501 -0.666492 124.965 2.82688 132.622C5.16618 137.748 10.2717 145.056 18.7859 145.128C29.4382 145.217 29.9518 135.579 30.1578 129.945C30.4316 122.454 31.7246 115.929 39.7875 110.823C40.783 110.193 41.8276 109.603 42.872 109.013C43.7992 108.49 44.7262 107.966 45.6188 107.415C45.7615 107.326 45.9049 107.238 46.0486 107.15C48.8997 105.396 51.8941 103.553 52.2586 100.662C52.7872 96.4714 49.556 95.7174 44.6226 96.4958C44.4635 96.5209 44.0311 96.6409 43.4431 96.8041C40.9237 97.5031 35.5475 98.9948 36.5645 97.2116C36.9474 96.5397 38.3461 96.0072 40.1114 95.6083C44.6796 95.2447 50.1273 94.8228 51.6941 95.0748C68.5964 97.7893 75.1773 114.929 76.925 125.818C77.1136 126.993 77.2661 128.172 77.3991 129.354H80.5044C80.2889 126.501 80.0043 123.654 79.353 120.834C76.8619 110.048 69.0728 94.2057 51.9895 92.455C51.3593 92.3897 49.041 92.3788 46.2328 92.4993C44.9018 91.9549 43.411 91.6257 41.8401 91.55Z" fill="#69A1AC"/>
</g>
</svg>
