<svg xmlns="http://www.w3.org/2000/svg" width="289" height="263" fill="none" viewBox="0 0 289 263"><g clip-path="url(#clip0)"><rect width="289" height="263" fill="#F2F2F2" rx="8"/><path fill="#fff" fill-rule="evenodd" d="M144 264C152.284 264 159 257.284 159 249C159 240.716 152.284 234 144 234C135.716 234 129 240.716 129 249C129 257.284 135.716 264 144 264Z" clip-rule="evenodd"/><path fill="#fff" fill-rule="evenodd" d="M131 1C132.105 1 133 0.104569 133 -1C133 -2.10457 132.105 -3 131 -3C129.895 -3 129 -2.10457 129 -1C129 0.104569 129.895 1 131 1Z" clip-rule="evenodd"/><rect width="21" height="4" x="138" y="-3" fill="#fff" rx="2"/><rect width="261" height="54" x="14" y="28" fill="#fff" rx="4"/><g clip-path="url(#clip1)"><rect width="203" height="8.1" x="53" y="44.2" fill="#000DFF" fill-opacity=".6" rx="3"/><rect width="136.26" height="8.1" x="53" y="57.7" fill="#000DFF" fill-opacity=".6" rx="3"/></g><path fill="#C5CFD6" fill-rule="evenodd" d="M35 67C41.6274 67 47 61.6274 47 55C47 48.3726 41.6274 43 35 43C28.3726 43 23 48.3726 23 55C23 61.6274 28.3726 67 35 67Z" clip-rule="evenodd"/><rect width="261" height="42" x="14" y="90" fill="#fff" rx="4"/><g clip-path="url(#clip2)"><rect width="203" height="6.3" x="53" y="102.6" fill="#000DFF" fill-opacity=".6" rx="3"/><rect width="136.26" height="6.3" x="53" y="113.1" fill="#000DFF" fill-opacity=".6" rx="3"/></g><path fill="#C5CFD6" fill-rule="evenodd" d="M35 123C41.6274 123 47 117.627 47 111C47 104.373 41.6274 99 35 99C28.3726 99 23 104.373 23 111C23 117.627 28.3726 123 35 123Z" clip-rule="evenodd"/><rect width="261" height="42" x="14" y="140" fill="#fff" rx="4"/><g clip-path="url(#clip3)"><rect width="203" height="6.3" x="53" y="152.6" fill="#000DFF" fill-opacity=".6" rx="3"/><rect width="136.26" height="6.3" x="53" y="163.1" fill="#000DFF" fill-opacity=".6" rx="3"/></g><path fill="#AFB9C5" fill-rule="evenodd" d="M35 173C41.6274 173 47 167.627 47 161C47 154.373 41.6274 149 35 149C28.3726 149 23 154.373 23 161C23 167.627 28.3726 173 35 173Z" clip-rule="evenodd"/><rect width="261" height="42" x="14" y="190" fill="#fff" rx="4"/><g clip-path="url(#clip4)"><rect width="203" height="6.3" x="53" y="202.6" fill="#000DFF" fill-opacity=".6" rx="3"/><rect width="136.26" height="6.3" x="53" y="213.1" fill="#000DFF" fill-opacity=".6" rx="3"/></g><path fill="#C5CFD6" fill-rule="evenodd" d="M35 223C41.6274 223 47 217.627 47 211C47 204.373 41.6274 199 35 199C28.3726 199 23 204.373 23 211C23 217.627 28.3726 223 35 223Z" clip-rule="evenodd"/></g><defs><clipPath id="clip0"><rect width="289" height="263" fill="#fff"/></clipPath><clipPath id="clip1"><rect width="203" height="21.6" fill="#fff" transform="translate(53 44.2)"/></clipPath><clipPath id="clip2"><rect width="203" height="16.8" fill="#fff" transform="translate(53 102.6)"/></clipPath><clipPath id="clip3"><rect width="203" height="16.8" fill="#fff" transform="translate(53 152.6)"/></clipPath><clipPath id="clip4"><rect width="203" height="16.8" fill="#fff" transform="translate(53 202.6)"/></clipPath></defs></svg>