<svg xmlns="http://www.w3.org/2000/svg" width="254" height="241" fill="none" viewBox="0 0 254 241"><g clip-path="url(#clip0)"><rect width="254" height="241" fill="#F2F2F2" rx="8"/><rect width="53.075" height="56.419" x="188.794" y="29.951" fill="#fff" rx="8"/><path fill="#DDE3E9" fill-rule="evenodd" d="M215.331 62.6879C222.031 62.6879 227.463 57.6984 227.463 51.5434C227.463 45.3885 222.031 40.3989 215.331 40.3989C208.631 40.3989 203.2 45.3885 203.2 51.5434C203.2 57.6984 208.631 62.6879 215.331 62.6879Z" clip-rule="evenodd"/><rect width="37.91" height="4.179" x="196.376" y="65.474" fill="#DDE3E9" rx="2.09"/><rect width="25.779" height="4.179" x="202.442" y="72.439" fill="#DDE3E9" rx="2.09"/><path fill="#000DFF" fill-opacity=".6" d="M0 8C0 3.58172 3.58172 0 8 0H246C250.418 0 254 3.58172 254 8V27H0V8Z"/><path fill="#F2F2F2" fill-rule="evenodd" d="M13 18C15.2091 18 17 16.2091 17 14C17 11.7909 15.2091 10 13 10C10.7909 10 9 11.7909 9 14C9 16.2091 10.7909 18 13 18Z" clip-rule="evenodd"/><path fill="#F2F2F2" fill-rule="evenodd" d="M25 18C27.2091 18 29 16.2091 29 14C29 11.7909 27.2091 10 25 10C22.7909 10 21 11.7909 21 14C21 16.2091 22.7909 18 25 18Z" clip-rule="evenodd"/><path fill="#F2F2F2" fill-rule="evenodd" d="M37 18C39.2091 18 41 16.2091 41 14C41 11.7909 39.2091 10 37 10C34.7909 10 33 11.7909 33 14C33 16.2091 34.7909 18 37 18Z" clip-rule="evenodd"/><g clip-path="url(#clip1)"><rect width="53.075" height="135.127" x="188.794" y="91.942" fill="#fff" rx="8"/><g clip-path="url(#clip2)"><rect width="17" height="26" x="206.794" y="109.942" fill="#DDE3E9" rx="4"/><rect width="17" height="25" x="206.794" y="143.942" fill="#000DFF" fill-opacity=".69" rx="4"/><rect width="17" height="25" x="206.794" y="176.942" fill="#1F28CF" fill-opacity=".33" rx="4"/><rect width="17" height="25" x="206.794" y="209.942" fill="#000DFF" fill-opacity=".64" rx="4"/></g></g><g clip-path="url(#clip3)"><rect width="144" height="47" x="16" y="44" fill="#fff" rx="4"/><g clip-path="url(#clip4)"><rect width="86" height="7.05" x="25" y="58.1" fill="#DDE3E9" rx="3"/><rect width="57.726" height="7.05" x="25" y="69.85" fill="#DDE3E9" rx="3"/></g></g><g clip-path="url(#clip5)"><rect width="144" height="39" x="16" y="99" fill="#fff" rx="4"/><g clip-path="url(#clip6)"><rect width="86" height="5.85" x="25" y="110.7" fill="#DDE3E9" rx="2.925"/><rect width="57.726" height="5.85" x="25" y="120.45" fill="#DDE3E9" rx="2.925"/></g></g><g clip-path="url(#clip7)"><rect width="144" height="39" x="16" y="146" fill="#fff" rx="4"/><g clip-path="url(#clip8)"><rect width="86" height="5.85" x="25" y="157.7" fill="#DDE3E9" rx="2.925"/><rect width="57.726" height="5.85" x="25" y="167.45" fill="#DDE3E9" rx="2.925"/></g></g><g clip-path="url(#clip9)"><rect width="144" height="39" x="16" y="240" fill="#fff" rx="4"/></g><g clip-path="url(#clip10)"><rect width="144" height="39" x="16" y="193" fill="#fff" rx="4"/><g clip-path="url(#clip11)"><rect width="86" height="5.85" x="25" y="204.7" fill="#DDE3E9" rx="2.925"/><rect width="57.726" height="5.85" x="25" y="214.45" fill="#DDE3E9" rx="2.925"/></g></g></g><defs><clipPath id="clip0"><rect width="254" height="241" fill="#fff"/></clipPath><clipPath id="clip1"><rect width="53.075" height="135.127" fill="#fff" transform="translate(188.794 91.9424)"/></clipPath><clipPath id="clip2"><rect width="17" height="158" fill="#fff" transform="translate(206.794 109.942)"/></clipPath><clipPath id="clip3"><rect width="144" height="47" fill="#fff" transform="translate(16 44)"/></clipPath><clipPath id="clip4"><rect width="86" height="18.8" fill="#fff" transform="translate(25 58.1001)"/></clipPath><clipPath id="clip5"><rect width="144" height="39" fill="#fff" transform="translate(16 99)"/></clipPath><clipPath id="clip6"><rect width="86" height="15.6" fill="#fff" transform="translate(25 110.7)"/></clipPath><clipPath id="clip7"><rect width="144" height="39" fill="#fff" transform="translate(16 146)"/></clipPath><clipPath id="clip8"><rect width="86" height="15.6" fill="#fff" transform="translate(25 157.7)"/></clipPath><clipPath id="clip9"><rect width="144" height="39" fill="#fff" transform="translate(16 240)"/></clipPath><clipPath id="clip10"><rect width="144" height="39" fill="#fff" transform="translate(16 193)"/></clipPath><clipPath id="clip11"><rect width="86" height="15.6" fill="#fff" transform="translate(25 204.7)"/></clipPath></defs></svg>