<svg width="254" height="241" viewBox="0 0 254 241" fill="none" xmlns="http://www.w3.org/2000/svg">
<g clip-path="url(#clip0)">
<rect width="254" height="241" rx="8" fill="#F2F2F2"/>
<rect x="188.794" y="29.9507" width="53.0746" height="56.4191" rx="8" fill="white"/>
<path fill-rule="evenodd" clip-rule="evenodd" d="M215.331 62.6879C222.031 62.6879 227.463 57.6984 227.463 51.5434C227.463 45.3885 222.031 40.3989 215.331 40.3989C208.631 40.3989 203.2 45.3885 203.2 51.5434C203.2 57.6984 208.631 62.6879 215.331 62.6879Z" fill="#DDE3E9"/>
<rect x="196.376" y="65.4741" width="37.9104" height="4.17919" rx="2.0896" fill="#DDE3E9"/>
<rect x="202.442" y="72.4395" width="25.7791" height="4.17919" rx="2.0896" fill="#DDE3E9"/>
<path d="M0 8C0 3.58172 3.58172 0 8 0H246C250.418 0 254 3.58172 254 8V27H0V8Z" fill="#000DFF" fill-opacity="0.6"/>
<path fill-rule="evenodd" clip-rule="evenodd" d="M13 18C15.2091 18 17 16.2091 17 14C17 11.7909 15.2091 10 13 10C10.7909 10 9 11.7909 9 14C9 16.2091 10.7909 18 13 18Z" fill="#F2F2F2"/>
<path fill-rule="evenodd" clip-rule="evenodd" d="M25 18C27.2091 18 29 16.2091 29 14C29 11.7909 27.2091 10 25 10C22.7909 10 21 11.7909 21 14C21 16.2091 22.7909 18 25 18Z" fill="#F2F2F2"/>
<path fill-rule="evenodd" clip-rule="evenodd" d="M37 18C39.2091 18 41 16.2091 41 14C41 11.7909 39.2091 10 37 10C34.7909 10 33 11.7909 33 14C33 16.2091 34.7909 18 37 18Z" fill="#F2F2F2"/>
<g clip-path="url(#clip1)">
<rect x="188.794" y="91.9424" width="53.0746" height="135.127" rx="8" fill="white"/>
<g clip-path="url(#clip2)">
<rect x="206.794" y="109.942" width="17" height="26" rx="4" fill="#DDE3E9"/>
<rect x="206.794" y="143.942" width="17" height="25" rx="4" fill="#000DFF" fill-opacity="0.69"/>
<rect x="206.794" y="176.942" width="17" height="25" rx="4" fill="#1F28CF" fill-opacity="0.33"/>
<rect x="206.794" y="209.942" width="17" height="25" rx="4" fill="#000DFF" fill-opacity="0.64"/>
</g>
</g>
<g clip-path="url(#clip3)">
<rect x="16" y="44" width="144" height="47" rx="4" fill="white"/>
<g clip-path="url(#clip4)">
<rect x="25" y="58.1001" width="86" height="7.05" rx="3" fill="#DDE3E9"/>
<rect x="25" y="69.8501" width="57.726" height="7.05" rx="3" fill="#DDE3E9"/>
</g>
</g>
<g clip-path="url(#clip5)">
<rect x="16" y="99" width="144" height="39" rx="4" fill="white"/>
<g clip-path="url(#clip6)">
<rect x="25" y="110.7" width="86" height="5.85" rx="2.925" fill="#DDE3E9"/>
<rect x="25" y="120.45" width="57.726" height="5.85" rx="2.925" fill="#DDE3E9"/>
</g>
</g>
<g clip-path="url(#clip7)">
<rect x="16" y="146" width="144" height="39" rx="4" fill="white"/>
<g clip-path="url(#clip8)">
<rect x="25" y="157.7" width="86" height="5.85" rx="2.925" fill="#DDE3E9"/>
<rect x="25" y="167.45" width="57.726" height="5.85" rx="2.925" fill="#DDE3E9"/>
</g>
</g>
<g clip-path="url(#clip9)">
<rect x="16" y="240" width="144" height="39" rx="4" fill="white"/>
</g>
<g clip-path="url(#clip10)">
<rect x="16" y="193" width="144" height="39" rx="4" fill="white"/>
<g clip-path="url(#clip11)">
<rect x="25" y="204.7" width="86" height="5.85" rx="2.925" fill="#DDE3E9"/>
<rect x="25" y="214.45" width="57.726" height="5.85" rx="2.925" fill="#DDE3E9"/>
</g>
</g>
</g>
<defs>
<clipPath id="clip0">
<rect width="254" height="241" fill="white"/>
</clipPath>
<clipPath id="clip1">
<rect width="53.0746" height="135.127" fill="white" transform="translate(188.794 91.9424)"/>
</clipPath>
<clipPath id="clip2">
<rect width="17" height="158" fill="white" transform="translate(206.794 109.942)"/>
</clipPath>
<clipPath id="clip3">
<rect width="144" height="47" fill="white" transform="translate(16 44)"/>
</clipPath>
<clipPath id="clip4">
<rect width="86" height="18.8" fill="white" transform="translate(25 58.1001)"/>
</clipPath>
<clipPath id="clip5">
<rect width="144" height="39" fill="white" transform="translate(16 99)"/>
</clipPath>
<clipPath id="clip6">
<rect width="86" height="15.6" fill="white" transform="translate(25 110.7)"/>
</clipPath>
<clipPath id="clip7">
<rect width="144" height="39" fill="white" transform="translate(16 146)"/>
</clipPath>
<clipPath id="clip8">
<rect width="86" height="15.6" fill="white" transform="translate(25 157.7)"/>
</clipPath>
<clipPath id="clip9">
<rect width="144" height="39" fill="white" transform="translate(16 240)"/>
</clipPath>
<clipPath id="clip10">
<rect width="144" height="39" fill="white" transform="translate(16 193)"/>
</clipPath>
<clipPath id="clip11">
<rect width="86" height="15.6" fill="white" transform="translate(25 204.7)"/>
</clipPath>
</defs>
</svg>
