<svg width="993" height="786" viewBox="0 0 993 786" fill="none" xmlns="http://www.w3.org/2000/svg">
<g clip-path="url(#clip0)">
<path fill-rule="evenodd" clip-rule="evenodd" d="M690 265C719.271 265 743 241.271 743 212C743 182.729 719.271 159 690 159C660.729 159 637 182.729 637 212C637 241.271 660.729 265 690 265Z" fill="#F2F2F2"/>
<path fill-rule="evenodd" clip-rule="evenodd" d="M690 173C691.657 173 693 171.657 693 170C693 168.343 691.657 167 690 167C688.343 167 687 168.343 687 170C687 171.657 688.343 173 690 173Z" fill="black" fill-opacity="0.1"/>
<path fill-rule="evenodd" clip-rule="evenodd" d="M648 215C649.657 215 651 213.657 651 212C651 210.343 649.657 209 648 209C646.343 209 645 210.343 645 212C645 213.657 646.343 215 648 215Z" fill="black" fill-opacity="0.1"/>
<path fill-rule="evenodd" clip-rule="evenodd" d="M732 215C733.657 215 735 213.657 735 212C735 210.343 733.657 209 732 209C730.343 209 729 210.343 729 212C729 213.657 730.343 215 732 215Z" fill="black" fill-opacity="0.1"/>
<path fill-rule="evenodd" clip-rule="evenodd" d="M690 257C691.657 257 693 255.657 693 254C693 252.343 691.657 251 690 251C688.343 251 687 252.343 687 254C687 255.657 688.343 257 690 257Z" fill="black" fill-opacity="0.1"/>
<path fill-rule="evenodd" clip-rule="evenodd" d="M690 176L692 211H688L690 176Z" fill="#AFB9C5"/>
<path fill-rule="evenodd" clip-rule="evenodd" d="M707.698 229.698L689.314 214.142L692.142 211.314L707.698 229.698Z" fill="#AFB9C5"/>
<path fill-rule="evenodd" clip-rule="evenodd" d="M690 216C692.209 216 694 214.209 694 212C694 209.791 692.209 208 690 208C687.791 208 686 209.791 686 212C686 214.209 687.791 216 690 216Z" fill="#C5CFD6"/>
<g opacity="0.345889" clip-path="url(#clip1)">
<path fill-rule="evenodd" clip-rule="evenodd" d="M772.663 506.397C761.687 412.693 172.764 231.833 63.4324 320.588C-45.8992 409.343 59.2095 575.914 288.328 618.568C517.447 661.223 783.64 600.102 772.663 506.397Z" fill="#F2F2F2"/>
<path fill-rule="evenodd" clip-rule="evenodd" d="M264.229 567.283C274.39 487.677 819.55 334.029 920.757 409.43C1021.96 484.831 996.347 643.429 784.254 679.665C572.161 715.902 254.069 646.889 264.229 567.283Z" fill="#DDE3E9"/>
</g>
<path fill-rule="evenodd" clip-rule="evenodd" d="M206.5 209.673C229.972 209.673 249 199.6 249 187.173C249 174.747 229.972 164.673 206.5 164.673C183.028 164.673 164 174.747 164 187.173C164 199.6 183.028 209.673 206.5 209.673Z" fill="#F2F2F2"/>
<path fill-rule="evenodd" clip-rule="evenodd" d="M256 202.673C256 175.059 233.838 152.673 206.5 152.673C179.162 152.673 157 175.059 157 202.673" fill="#DDE3E9"/>
<rect x="204" width="5" height="160" fill="#DDE3E9"/>
<g opacity="0.7">
<path fill-rule="evenodd" clip-rule="evenodd" d="M284 159C301.545 159 315.768 150.87 315.768 140.842C315.768 130.814 301.545 122.684 284 122.684C266.455 122.684 252.232 130.814 252.232 140.842C252.232 150.87 266.455 159 284 159Z" fill="#F2F2F2"/>
<path fill-rule="evenodd" clip-rule="evenodd" d="M321 153.351C321 131.066 304.435 113 284 113C263.565 113 247 131.066 247 153.351" fill="#DDE3E9"/>
<rect x="282" width="5" height="136" fill="#DDE3E9"/>
</g>
<g clip-path="url(#clip2)">
<path d="M779.681 381.236L820.878 359.044C823.246 357.768 826.097 357.768 828.466 359.044L927.269 412.268C932.45 415.059 935.681 420.469 935.681 426.354V751" stroke="#CBCBCB" stroke-width="8"/>
<rect x="905.681" y="750" width="59" height="7" rx="3" fill="#AFB9C5"/>
<path d="M744.18 370.335C757.067 357.447 777.962 357.447 790.849 370.335C803.736 383.222 803.736 404.116 790.849 417.004L771.05 436.803L724.381 390.134L744.18 370.335Z" fill="#C5CFD6"/>
<path fill-rule="evenodd" clip-rule="evenodd" d="M743.909 417.527C756.796 430.414 769.301 438.804 771.84 436.265C774.378 433.727 765.989 421.222 753.101 408.335C740.214 395.447 727.709 387.058 725.171 389.596C722.632 392.135 731.022 404.64 743.909 417.527Z" fill="#F2F2F2"/>
</g>
<path fill-rule="evenodd" clip-rule="evenodd" d="M195.258 519.173C198.123 518.823 201.18 518.947 203.844 520.077C209.509 522.482 211.119 529.174 211.041 534.614C210.957 540.468 209.714 546.863 214.165 551.58C216.211 553.748 218.756 555.408 220.765 557.617C222.912 559.977 224.597 562.677 225.844 565.577C228.134 570.903 229.258 577.167 227.164 582.754C225.32 587.674 220.681 592.114 221.683 597.708C222.729 603.543 228.612 608.004 232.29 612.351C236.453 617.269 240.286 623.556 240.916 630.006C241.519 636.188 238.828 642.44 234.699 647.113C226.448 656.451 214.045 661.028 201.54 661C196.23 660.988 190.219 660.748 185.637 657.895C184.22 657.013 183.473 656.023 182.631 654.648C181.877 653.414 180.88 652.612 179.725 651.739C177.19 649.822 175.359 647.239 174.19 644.347C169.652 633.114 173.279 619.218 179.631 609.243C181.136 606.88 182.369 604.605 181.637 601.789C180.874 598.848 178.999 596.196 177.34 593.669C175.701 591.17 173.83 588.787 172.549 586.087C171.207 583.257 170.829 580.294 171.066 577.198C171.512 571.381 174.023 566.013 177.578 561.336C181.002 556.83 185.022 552.518 185.031 546.615C185.041 540.357 180.858 534.791 182.64 528.429C183.378 525.795 184.86 523.092 187.249 521.513C189.539 519.998 192.564 519.502 195.258 519.173Z" fill="#DDE3E9"/>
<path fill-rule="evenodd" clip-rule="evenodd" d="M193.386 529.176C193.44 528.336 194.437 527.832 195.222 528.051C196.254 528.34 196.235 529.305 196.207 530.165C196.124 532.808 196.506 535.377 197.142 537.942C198.462 543.274 200.903 548.186 202.836 553.308C204.768 558.425 205.675 563.709 204.542 569.124C203.473 574.23 201.795 579.203 200.701 584.315C199.738 588.821 198.712 593.573 200.18 598.067C201.592 602.393 204.714 605.916 206.962 609.825C211.617 617.918 213.681 626.896 213.957 636.135C214.085 640.425 213.97 644.755 212.975 648.963C212.402 651.386 211.632 654.66 209.556 656.333C208.599 657.105 206.961 657.371 206.155 656.229C205.399 655.158 206.062 653.499 206.303 652.357C207.343 647.413 207.552 642.361 207.303 637.342C207.062 632.48 206.487 627.626 204.957 622.982C203.537 618.673 201.379 614.802 198.84 611.032C196.252 607.191 193.562 603.341 192.493 598.789C191.406 594.166 192.289 589.462 193.469 584.927C194.717 580.131 196.352 575.472 198.042 570.805C199.689 566.258 200.272 561.955 199.363 557.196C197.567 547.794 192.76 538.968 193.386 529.176Z" fill="#C5CFD6"/>
<path fill-rule="evenodd" clip-rule="evenodd" d="M270.892 530.582C274.437 531.659 277.958 533.395 280.485 536.118C285.858 541.909 284.209 550.661 281.243 557.053C278.05 563.933 273.212 570.849 275.94 578.743C277.193 582.372 279.301 585.659 280.49 589.316C281.761 593.224 282.309 597.294 282.239 601.372C282.11 608.862 280.118 616.855 274.708 622.373C269.945 627.232 262.158 630.07 260.377 637.206C258.518 644.651 263.061 652.988 265.078 660.041C267.36 668.024 268.533 677.453 265.862 685.409C263.303 693.034 256.842 699.028 249.528 702.406C234.915 709.156 217.949 708.117 203.296 701.578C197.075 698.801 190.151 695.391 186.285 689.633C185.09 687.853 184.736 686.294 184.476 684.23C184.243 682.378 183.497 680.911 182.605 679.278C180.644 675.692 179.862 671.684 180.02 667.656C180.634 652.011 192.234 637.464 204.956 628.972C207.971 626.96 210.618 624.912 211.249 621.2C211.909 617.325 211.111 613.213 210.501 609.361C209.899 605.554 208.964 601.763 208.889 597.902C208.811 593.858 209.933 590.157 211.848 586.619C215.445 579.972 221.227 574.93 227.87 571.247C234.267 567.7 241.262 564.692 244.393 557.715C247.712 550.32 245.747 541.561 251.2 534.964C253.458 532.233 256.625 529.807 260.262 529.182C263.749 528.583 267.558 529.57 270.892 530.582Z" fill="#DDE3E9"/>
<path fill-rule="evenodd" clip-rule="evenodd" d="M263.651 542.811C264.154 541.844 265.584 541.769 266.387 542.44C267.443 543.324 266.914 544.456 266.432 545.46C264.95 548.547 264.052 551.789 263.452 555.159C262.204 562.166 262.485 569.262 262.063 576.341C261.642 583.414 259.935 590.147 255.774 595.965C251.85 601.452 247.283 606.462 243.327 611.943C239.841 616.773 236.153 621.863 235.516 627.954C234.901 633.817 236.707 639.626 237.288 645.434C238.492 657.457 236.204 669.171 231.688 680.257C229.591 685.405 227.189 690.472 223.821 694.933C221.882 697.503 219.267 700.977 215.963 701.869C214.44 702.281 212.385 701.739 212.042 699.964C211.718 698.298 213.363 696.682 214.242 695.455C218.047 690.146 220.938 684.273 223.275 678.198C225.54 672.314 227.41 666.265 228.053 659.963C228.649 654.116 228.153 648.401 227.158 642.606C226.144 636.701 225.015 630.731 226.149 624.781C227.3 618.736 230.795 613.628 234.55 608.876C238.521 603.85 242.873 599.19 247.293 594.549C251.6 590.027 254.536 585.238 255.966 579.126C258.79 567.049 257.791 554.078 263.651 542.811Z" fill="#C5CFD6"/>
<path fill-rule="evenodd" clip-rule="evenodd" d="M161.306 575C167.2 575 172.382 578.124 175.953 582.558C180.133 587.748 180.977 594.086 182.675 600.272C183.519 603.35 184.972 606.406 187.517 608.498C189.833 610.4 192.772 610.78 195.543 611.71C201.082 613.567 205.555 618.041 207.321 623.499C209.476 630.158 207.193 636.873 207.586 643.622C207.947 649.819 214.058 653.685 218.974 656.656C223.821 659.586 228.189 662.328 229.649 668.035C231.197 674.088 231.716 680.844 229.572 686.823C226.002 696.779 215.552 701.163 205.456 701.842C196.293 702.459 184.772 701.491 177.891 694.84C173.773 690.86 172.282 685.293 172.467 679.755C172.582 676.311 173.264 672.899 174.146 669.571C174.771 667.213 175.616 664.864 175.856 662.427C176.496 655.942 170.503 654.697 165.401 652.916C158.918 650.654 154.38 646.38 151.224 640.425C148.285 634.881 147.052 628.658 148.814 622.554C149.714 619.437 151.346 616.61 153.559 614.205C154.533 613.146 155.907 612.263 156.786 611.151C157.607 610.112 157.428 608.766 157.145 607.55C155.837 601.931 151.762 597.278 150.305 591.668C148.989 586.605 149.767 580.304 154.395 577.038C156.395 575.627 158.862 575.016 161.306 575Z" fill="#C5CFD6"/>
<path fill-rule="evenodd" clip-rule="evenodd" d="M169.338 589.641C175.585 596.296 177.283 605.325 177.781 614.076C178.061 618.983 177.77 624.159 179.212 628.919C180.445 632.993 183.337 636.107 186.318 639.051C192.319 644.975 199.011 650.999 200.766 659.574C201.796 664.606 201.101 669.804 202.524 674.78C203.817 679.304 206.096 683.748 208.867 687.568C211.098 690.645 214.004 693 216.443 695.867C217.187 696.743 218.253 698.031 217.946 699.267C217.586 700.714 215.743 701.172 214.435 700.945C211.386 700.415 208.819 697.503 206.825 695.386C203.91 692.291 201.432 688.962 199.419 685.227C197.183 681.08 195.383 676.679 194.614 672.026C193.816 667.199 194.213 662.168 192.391 657.535C189.324 649.74 181.886 645.14 176.508 639.064C169.808 631.494 170.807 622.072 171.493 612.759C171.87 607.641 172.245 601.862 169.659 597.189C168.672 595.406 166.471 593.743 166.047 591.715C165.658 589.858 167.78 587.981 169.338 589.641Z" fill="#AFB9C5"/>
<path fill-rule="evenodd" clip-rule="evenodd" d="M176 699C176 737.058 182.211 757 215 757C247.789 757 254 737.058 254 699H176Z" fill="#89C5CC"/>
<rect x="311" y="644" width="38" height="9" rx="2" fill="#AFB9C5"/>
<path fill-rule="evenodd" clip-rule="evenodd" d="M328.217 571H330H331H332.783C333.301 586.419 335.707 601.085 340 615H346.5C355.06 615 362 621.94 362 630.5C362 639.06 355.06 646 346.5 646H313.5C304.94 646 298 639.06 298 630.5C298 621.94 304.94 615 313.5 615H321C327.44 594.128 328.217 571 328.217 571Z" fill="#DDE3E9"/>
<path fill-rule="evenodd" clip-rule="evenodd" d="M294.622 501.679C294.622 501.679 311.811 500 329 500C346.189 500 363.378 501.679 363.378 501.679L368 581.133C368 581.133 348.5 583 329 583C309.5 583 290 581.133 290 581.133L294.622 501.679Z" fill="#C5CFD6"/>
<path fill-rule="evenodd" clip-rule="evenodd" d="M267 757V675V653H288H371H392V675V757H371V675H288V757H267Z" fill="#F2F2F2"/>
<path fill-rule="evenodd" clip-rule="evenodd" d="M685.381 475.208C694.214 496.197 709.229 510.781 717.182 532.605C721.898 545.547 723.864 559.62 723.983 574.032C724.048 581.86 723.911 589.694 723.875 597.522C723.839 605.156 723.632 612.741 722.984 620.327C722.332 627.952 721.603 635.487 721.282 643.159C721.031 649.137 720.917 656.091 718.891 661.544C717.279 665.881 713.183 666.516 712.097 661.256C711.493 658.333 711.569 655.068 711.636 652.063C711.721 648.208 711.945 644.359 712.06 640.504C712.519 625.036 711.923 609.566 712.235 594.092C712.539 578.973 714.482 563.871 712.332 548.853C710.556 536.452 706.046 525.802 700.862 515.593C695.874 505.771 690.445 496.187 687.075 485.014C686.107 481.806 685.359 478.481 685 475.03C685.157 474.957 685.284 475.016 685.381 475.208Z" fill="#C1DEE2"/>
<path fill-rule="evenodd" clip-rule="evenodd" d="M682.974 516.617C684.723 517.88 685.7 519.728 686.882 521.551C688.352 523.817 690.081 525.863 691.551 528.131C694.615 532.86 697.308 537.879 700.102 542.799C705.406 552.137 709.433 562.091 711.427 572.895C713.495 584.092 714.052 595.648 714.919 607.012C715.839 619.056 716.765 631.188 716.887 643.279C716.942 648.696 717.235 654.446 716.584 659.825C716.179 663.173 714.668 666.027 711.261 666C704.025 665.942 700.627 657.927 699.208 651.354C697.119 641.674 696.702 631.393 697.033 621.494C697.432 609.558 699.504 597.802 700.4 585.912C701.35 573.325 700.814 560.96 696.486 549.109C694.3 543.12 691.763 537.274 689.484 531.325C688.514 528.792 687.719 526.19 686.409 523.831C684.951 521.208 683.142 518.826 682 516C682.324 516.206 682.649 516.411 682.974 516.617Z" fill="#89C5CC"/>
<path fill-rule="evenodd" clip-rule="evenodd" d="M766.334 491.518C766.556 491.345 766.778 491.173 767 491C766.361 493.693 765.207 495.88 764.324 498.341C763.531 500.554 763.129 503.058 762.595 505.477C761.34 511.158 759.89 516.711 758.706 522.44C756.36 533.777 756.804 545.99 758.342 558.568C759.795 570.45 762.092 582.313 763.187 594.192C764.095 604.043 764.485 614.202 763.619 623.601C763.031 629.984 761.103 637.606 755.848 636.962C753.374 636.659 752.084 633.681 751.564 630.32C750.729 624.922 750.554 619.246 750.229 613.878C749.502 601.896 749.358 589.951 749.214 578.092C749.078 566.904 748.705 555.494 749.452 544.587C750.173 534.063 752.428 524.58 755.653 515.83C757.351 511.22 758.97 506.502 760.878 502.108C761.793 500.001 762.911 498.139 763.827 496.033C764.563 494.339 765.148 492.601 766.334 491.518Z" fill="#C1DEE2"/>
<path fill-rule="evenodd" clip-rule="evenodd" d="M685.209 551.302C686.166 549.695 688.272 554.993 688.593 555.66C688.457 555.328 688.321 554.997 688.184 554.667C690.083 557.825 691.821 561.113 692.901 564.734C693.97 568.319 694.888 571.977 695.891 575.587C697.774 582.361 700.202 588.943 701.907 595.778C703.569 602.438 703.988 608.986 703.585 615.875C703.167 623.035 702.911 630.306 703.399 637.462C703.632 640.88 704.743 644.064 705.504 647.354C706.266 650.648 706.866 653.986 707.767 657.239C707.974 656.815 708 658.232 708 658.339C707.994 659.152 707.881 659.833 707.619 660.604C706.948 662.586 705.691 664.269 703.778 664.816C700.322 665.803 697.112 662.659 695.998 659.339C694.399 654.575 693.517 649.311 692.755 644.304C692.057 639.713 691.891 635.094 692.099 630.44C692.508 621.261 694.169 612.202 694.618 603.026C695.107 593.036 693.128 583.649 691.471 573.925C690.673 569.239 689.91 564.598 688.356 560.134C687.727 558.326 686.907 556.731 686.048 555.061C685.558 554.112 684.569 552.418 685.209 551.302Z" fill="#C1DEE2"/>
<path fill-rule="evenodd" clip-rule="evenodd" d="M713.252 535.697C712.856 547.142 712.172 558.5 710.646 569.824C709.089 581.38 707.3 592.897 705.802 604.463C704.343 615.722 702.815 627.168 703.018 638.585C703.168 646.993 701.774 661.219 711.113 665.369C720.572 669.572 722.601 651.623 723.222 645.699C724.412 634.333 724.027 622.847 723.449 611.419C722.856 599.689 721.866 588.02 720.64 576.334C719.277 563.353 718.208 550.314 717.349 537.296C716.925 530.857 716.82 524.429 716.937 517.988C717.048 511.911 716.817 505.77 714.656 500C714.543 500.082 714.431 500.164 714.318 500.246" fill="#69A1AC"/>
<path fill-rule="evenodd" clip-rule="evenodd" d="M762.083 571.955C760.382 574.433 758.667 576.887 757.061 579.512C754.186 584.209 751.587 589.432 750.805 596.147C749.169 610.2 750.481 625.379 750.798 639.863C750.863 642.822 750.489 645.693 751.655 648.51C752.713 651.064 754.691 653.01 756.576 653C760.611 652.977 759.995 643.095 760.002 638.746C760.014 631.123 759.159 623.422 759.233 615.806C759.306 608.26 759.765 600.694 760.859 593.528C761.967 586.275 763.589 579.309 765.729 572.81C766.026 571.908 768.158 564.937 766.144 566.139" fill="#89C5CC"/>
<path fill-rule="evenodd" clip-rule="evenodd" d="M744.262 497C741.609 497 741.625 510.226 741.546 511.925C741.257 518.055 741.325 524.188 741.143 530.319C740.744 543.701 740.254 557.2 738.243 570.426C737.161 577.547 735.907 584.636 734.557 591.702C733.204 598.789 731.387 605.867 730.497 613.044C729.642 619.943 730.125 626.977 730.242 633.91C730.359 640.885 730.57 647.874 731.484 654.788C731.709 656.494 731.974 658.195 732.257 659.891C732.492 661.305 732.355 663.058 732.754 664.401C733.393 666.552 736.133 667.256 737.978 666.92C742.97 666.009 746.159 659.74 747.865 655.16C750.043 649.311 751.199 642.967 752.339 636.804C753.631 629.821 754.388 622.732 754.743 615.623C755.466 601.175 754.539 586.712 753.504 572.31C752.928 564.301 752.263 556.327 751.246 548.367C750.232 540.441 748.932 532.55 748.086 524.601C747.471 518.825 746.865 513.04 746.467 507.241C746.371 505.859 746.291 497 744.262 497Z" fill="#69A1AC"/>
<path fill-rule="evenodd" clip-rule="evenodd" d="M740.941 593.139C740.508 579.253 734.927 518.259 733.657 501.467C733.339 497.264 730.282 479.765 729.885 475C728.81 476.347 728.901 497.309 728.913 502.126C728.926 506.891 728.335 511.576 728.031 516.315C727.721 521.151 720.572 583.601 719.645 588.247C717.799 597.491 716.564 606.976 715.611 616.428C714.683 625.639 713.24 635.358 714.482 644.618C714.767 646.75 715.219 648.848 715.955 650.806C716.749 652.922 717.294 654.879 717.932 657.093C718.958 660.659 720.815 663.789 723.668 665.262C729.517 668.281 732.658 661.447 734.251 655.497C736.793 645.995 738.426 636.338 739.191 626.359C740.037 615.318 741.287 604.255 740.941 593.139Z" fill="#89C5CC"/>
<rect x="679" y="634" width="91" height="91" rx="2" fill="white"/>
<rect x="669" y="644" width="10" height="113" rx="2" fill="#C5CFD6"/>
<rect x="719" y="644" width="10" height="113" rx="2" fill="#C5CFD6"/>
<rect x="770" y="644" width="10" height="113" rx="2" fill="#C5CFD6"/>
<path fill-rule="evenodd" clip-rule="evenodd" d="M645.823 383.65C638.538 388.041 631.38 390.162 628.02 389.296C619.594 387.125 618.82 356.302 625.339 344.151C631.858 331.999 665.372 326.703 667.061 350.779C667.647 359.134 664.139 366.592 658.955 372.676L668.25 416H641.25L645.823 383.65Z" fill="#B28B67"/>
<path fill-rule="evenodd" clip-rule="evenodd" d="M636.979 345.767C640.785 347.777 643.442 351.681 646.657 356.84C647.421 356.54 648.254 356.375 649.125 356.375C652.853 356.375 655.875 359.397 655.875 363.125C655.875 365.017 655.096 366.728 653.842 367.954C655.403 370.158 657.154 372.461 659.16 374.838C666.695 370.317 672.286 357.083 664.919 344.369C662.883 338.141 658.273 334.815 652.829 333.27C648.419 331.425 643.841 331.217 639.976 332.323C632.401 332.973 625.636 335.283 623.719 336.655C623.719 343.827 625.109 345.955 636.979 345.767Z" fill="#191847"/>
<path fill-rule="evenodd" clip-rule="evenodd" d="M691.213 511L648.941 649.467L628.464 767.223H612.408L634.046 511H691.213Z" fill="#997659"/>
<path fill-rule="evenodd" clip-rule="evenodd" d="M706.336 511C703.465 587.026 706.844 626.241 707.486 633.148C708.129 640.055 716.928 684.842 737.76 769.542L720.651 763.655C687.729 685.973 679.776 646.201 676 636C672.224 625.799 658.929 583.732 642.648 511H706.336Z" fill="#B28B67"/>
<path fill-rule="evenodd" clip-rule="evenodd" d="M734.761 762.204C735.831 761.725 737.106 762.203 737.509 763.303C738.334 765.556 739.517 769.132 739.517 771.115C739.517 774.159 738.504 780 738.504 780C734.979 780 675.146 780 675.146 780C675.146 780 672.677 771.819 677.998 771.167C683.318 770.515 686.838 769.989 686.838 769.989L716.401 756.784C716.916 756.554 717.519 756.795 717.734 757.317L719.675 762.035C719.675 762.035 724.601 764.338 727.68 764.338C729.632 764.338 732.744 763.106 734.761 762.204Z" fill="#E4E4E4"/>
<path fill-rule="evenodd" clip-rule="evenodd" d="M629.168 762.204C630.238 761.725 631.513 762.203 631.916 763.303C632.74 765.556 633.923 769.132 633.923 771.115C633.923 774.159 632.911 780 632.911 780C629.386 780 569.553 780 569.553 780C569.553 780 567.083 771.819 572.404 771.167C577.725 770.515 581.245 769.989 581.245 769.989L610.808 756.784C611.323 756.554 611.926 756.795 612.14 757.317L614.082 762.035C614.082 762.035 619.007 764.338 622.087 764.338C624.039 764.338 627.15 763.106 629.168 762.204Z" fill="#E4E4E4"/>
<path fill-rule="evenodd" clip-rule="evenodd" d="M697 511L637 751.5L611 746L632.2 511H697Z" fill="#69A1AC"/>
<path fill-rule="evenodd" clip-rule="evenodd" d="M706.564 511C715.371 588.796 739 747 739 747H706.564L639 511H706.564Z" fill="#89C5CC"/>
<path fill-rule="evenodd" clip-rule="evenodd" d="M563.499 537.64L590.739 502.473L603.765 519.104L573.663 543.029C567.253 557.125 563.205 563.395 561.521 561.839C560.102 560.527 560.429 558.825 560.73 557.257C560.964 556.035 561.183 554.895 560.549 554.085C559.099 552.235 552.673 554.314 546.659 556.548C540.644 558.782 541.653 555.537 542.748 553.764C547.949 548.215 554.866 542.84 563.499 537.64ZM755.793 556.147C751.599 549.994 731.425 487.12 731.425 487.12L708.157 490.483C708.157 490.483 739.484 556.935 741.8 560.945C744.809 566.154 742.145 574.711 740.338 580.514C740.058 581.412 739.799 582.243 739.585 582.986C743.377 584.079 744.82 581.912 746.342 579.627C748.06 577.046 749.879 574.315 755.294 575.962C757.386 576.598 759.397 577.415 761.36 578.213C768.144 580.971 774.376 583.505 781.535 577.575C782.67 576.635 783.627 573.562 780.021 571.772C771.035 567.314 757.843 559.155 755.793 556.147Z" fill="#B28B67"/>
<path fill-rule="evenodd" clip-rule="evenodd" d="M651.56 398.904L641.695 398.608C630.922 442.297 607.247 483.946 570.669 523.554L607.221 557.038C641.78 503.104 660.273 449.87 651.56 398.904Z" fill="#191847"/>
<path fill-rule="evenodd" clip-rule="evenodd" d="M710.538 513.848L624.756 525.904C624.756 525.904 644.398 449.36 637.29 398.787L662.626 391.302C687.55 421.092 698.943 460.482 710.538 513.848Z" fill="#DDE3E9"/>
<path fill-rule="evenodd" clip-rule="evenodd" d="M754.687 545.066C730.458 440.734 663.194 391.222 663.194 391.222L663.176 391.243C663.172 391.237 663.167 391.232 663.163 391.226L661.474 391.464C658.457 391.994 652.292 393.137 652.292 393.137L648.546 411.852C652.138 444.612 655.437 544.959 655.437 544.959L711.586 537.068C712.128 541.614 712.562 546.241 712.876 550.942L754.687 545.066Z" fill="#2F3676"/>
<path fill-rule="evenodd" clip-rule="evenodd" d="M711.638 537.508C709.312 517.706 704.953 499.418 699.67 483.057C700.936 503.175 701.103 527.573 695.995 539.706L711.638 537.508Z" fill="black" fill-opacity="0.1"/>
<path fill-rule="evenodd" clip-rule="evenodd" d="M694.369 504.78L664.833 495.809L666.641 508.677L694.369 504.78Z" fill="white" fill-opacity="0.2"/>
</g>
<defs>
<clipPath id="clip0">
<rect width="993" height="786" fill="white"/>
</clipPath>
<clipPath id="clip1">
<rect width="958.362" height="392.825" fill="white" transform="translate(19.9919 296.747)"/>
</clipPath>
<clipPath id="clip2">
<rect width="244.538" height="412" fill="white" transform="translate(719.681 345)"/>
</clipPath>
</defs>
</svg>
