<svg xmlns="http://www.w3.org/2000/svg" width="749" height="653" fill="none" viewBox="0 0 749 653"><path fill="#F1E8E8" fill-opacity=".5" fill-rule="evenodd" d="M14.9059 478.675C33.1142 398.853 217.36 444.327 338.15 419.649C458.939 394.972 601.843 280.045 696.42 336.342C790.996 392.639 690.368 528.725 473.45 559.436C256.532 590.146 -3.30235 558.498 14.9059 478.675Z" clip-rule="evenodd"/><g opacity=".5"><path fill="#2F3676" fill-opacity=".7" fill-rule="evenodd" d="M75.8264 82.3623C74.1406 84.0317 74.7954 89.9648 74.7601 92.1605C74.7058 95.5786 74.9203 98.9662 75.2084 102.372C75.4015 104.652 76.4897 126.414 79.5181 124.743C81.2253 123.801 80.155 117.506 80.152 115.515C80.1451 111.088 79.9595 106.672 79.6619 102.255C79.3852 98.1546 79.2116 94.1019 79.3708 89.9934C79.4096 88.9907 80.3555 77.8622 75.8264 82.3623Z" clip-rule="evenodd"/><path fill="#2F3676" fill-opacity=".7" fill-rule="evenodd" d="M149.242 79.6799C134.759 79.7942 120.282 80.5028 105.806 80.9369C98.8405 81.1458 91.8791 81.4114 84.9208 81.7942C82.5497 81.9248 77.4643 81.1719 75.4888 82.4249C71.1035 85.2069 78.1759 85.8574 80.0613 85.7894C108.709 84.759 137.367 83.402 166.04 83.338C180.105 83.3069 194.163 83.7041 208.229 83.6149C213.606 83.5809 219.561 81.2833 220.919 87.4908C222.451 94.4956 220.69 102.295 220.211 109.333C219.891 114.032 220.005 118.633 220.218 123.328C220.355 126.336 219.999 129.725 220.535 132.676C221.051 135.519 223.111 137.223 224.999 134.039C226.127 132.137 225.566 127.44 225.641 125.236C225.742 122.267 225.647 119.3 225.647 116.331C225.646 109.085 226.678 101.867 226.541 94.6227C226.454 89.951 226.203 81.4818 220.263 80.3594C213.721 79.1231 205.68 80.3663 198.985 80.2904C182.397 80.1027 165.836 79.5513 149.242 79.6799Z" clip-rule="evenodd"/><path fill="#2F3676" fill-opacity=".7" fill-rule="evenodd" d="M109.335 125.003C103.874 125.003 98.4125 125.036 92.9519 125.125C88.2685 125.202 80.9051 124.234 76.5462 125.896C73.5621 127.034 72.7694 130.338 76.5462 131.218C80.6653 132.178 86.8733 130.609 91.1829 130.533C112.793 130.155 134.612 129.662 156.192 131.017C176.414 132.287 197.024 133.518 217.276 132.178C218.979 132.065 227.669 131.722 223.704 128.491C221.391 126.606 212.014 127.846 209.008 127.756C198.404 127.438 187.789 127.368 177.188 126.969C166.726 126.576 156.31 125.409 145.844 125.12C133.685 124.784 121.498 125.003 109.335 125.003Z" clip-rule="evenodd"/><path fill="#2F3676" fill-opacity=".7" fill-rule="evenodd" d="M103.871 94.1952C112.383 94.5638 120.804 106.807 112.192 112.725C104.112 118.277 88.9701 112.192 93.4629 101.426C92.817 102.982 94.2794 99.7346 94.2978 99.7129C95.1522 98.7146 96.6863 97.6094 97.7392 96.8225C98.9444 95.9218 100.199 94.9304 101.652 94.479C102.606 94.1829 102.456 95.2975 103.871 94.1952ZM99.7256 89.7792C95.7419 91.322 93.9237 93.0623 91.1859 96.2114C89.2916 98.3908 86.8767 99.5374 86.8981 102.483C86.9026 103.134 87.747 103.851 87.8928 104.479C88.0943 105.346 87.861 106.458 88.0207 107.38C89.6687 116.893 101.112 120.1 109.489 118.304C116.786 116.739 122.243 109.792 120.552 102.238C118.851 94.6337 107.481 86.7705 99.7256 89.7792Z" clip-rule="evenodd"/><path fill="#2F3676" fill-opacity=".7" fill-rule="evenodd" d="M96.177 103.059C96.177 106.481 101.627 106.481 101.627 103.059C101.627 99.6758 96.177 99.5304 96.177 103.059Z" clip-rule="evenodd"/><path fill="#2F3676" fill-opacity=".7" fill-rule="evenodd" d="M102.996 102.367C102.996 105.086 107.326 105.086 107.326 102.367C107.326 99.6783 102.996 99.5635 102.996 102.367Z" clip-rule="evenodd"/><path fill="#2F3676" fill-opacity=".7" fill-rule="evenodd" d="M104.337 107.975C102.95 108.503 101.191 107.407 100.052 108.129C98.036 109.409 100.057 110.568 101.138 111.082C106.004 113.398 106.87 107.012 104.337 107.975Z" clip-rule="evenodd"/><path fill="#2F3676" fill-opacity=".7" fill-rule="evenodd" d="M178.651 100.39C178.506 100.452 177.99 100.668 178.651 100.39V100.39ZM157.461 97.3186C153.819 98.1341 150.744 101.507 146.787 101.056C143.754 100.71 141.701 97.8079 138.708 97.3861C134.878 96.8461 124.456 105.51 129.936 106.997C133.133 107.865 134.906 102.07 137.73 101.762C139.965 101.519 143.003 104.236 145.318 104.623C149.637 105.345 152.604 102.985 156.395 101.464C160.515 99.8099 162.86 101.299 166.443 103.137C169.271 104.587 171.935 105.532 175.171 104.933C178.208 104.372 182.024 101.274 185.081 101.592C188.076 101.904 190.213 105.003 193.293 105.291C194.563 105.409 196.453 105.838 196.24 103.895C196.069 102.339 194.318 102.602 193.223 102.037C190.407 100.582 187.773 98.0055 184.374 98.2252C181.817 98.3908 179.489 100.173 177.133 101.025C169.416 103.816 165.078 95.6241 157.461 97.3186Z" clip-rule="evenodd"/><path fill="#191847" fill-opacity=".6" fill-rule="evenodd" d="M163.907 146.609C149.022 146.744 134.087 146.963 119.243 148.147C115.724 148.427 79.7922 151.792 79.8603 152.035C79.9862 152.483 84.6079 153.168 84.579 153.274C84.2675 152.508 83.5555 152.19 82.4433 152.323C116.522 152.323 150.493 149.297 184.617 149.841C193.191 149.978 201.797 149.92 210.365 150.188C212.504 150.255 217.804 151.776 219.484 150.818C223.893 148.304 215.883 148.013 214.557 147.908C197.764 146.576 180.747 146.442 163.907 146.609Z" clip-rule="evenodd"/><path fill="#191847" fill-opacity=".6" fill-rule="evenodd" d="M75.4489 153.781C73.2237 155.994 75.2728 163.955 75.3603 166.947C75.4872 171.273 75.3827 175.629 75.7654 179.943C76.2023 184.872 76.88 190.122 78.1837 194.904C78.9017 197.538 81.422 201.725 82.4207 196.938C83.1338 193.519 82.051 188.984 81.6743 185.502C81.1703 180.843 81.0484 176.245 81.0294 171.563C81.0125 167.484 80.9334 163.388 80.596 159.321C80.4209 157.21 79.3501 149.933 75.4489 153.781Z" clip-rule="evenodd"/><path fill="#191847" fill-opacity=".6" fill-rule="evenodd" d="M131.435 194.322C120.872 194.502 110.286 194.749 99.7411 195.404C95.419 195.672 91.1004 196.072 86.7942 196.525C85.9154 196.617 76.1894 197.009 80.5354 200.569C82.4969 202.176 90.5659 199.954 93.2311 199.722C97.7134 199.333 102.195 199.079 106.69 198.891C117.106 198.452 127.553 198.065 137.979 198.244C157.02 198.572 175.939 198.718 194.985 198.297C197.691 198.237 218.891 198.799 219.611 196.007C220.191 193.756 212.61 194.789 211.228 194.829C206.157 194.98 201.085 194.945 196.012 194.919C174.523 194.81 152.908 193.962 131.435 194.322Z" clip-rule="evenodd"/><path fill="#191847" fill-opacity=".6" fill-rule="evenodd" d="M216.022 150.047C216.357 159.375 217.959 168.693 218.471 178.049C218.705 182.326 218.981 186.599 219.192 190.877C219.26 192.257 218.699 195.583 220.345 196.377C222.602 197.466 222.906 195.272 223.328 193.787C224.549 189.501 223.723 183.932 223.612 179.529C223.505 175.265 223.498 170.993 223.181 166.737C222.856 162.389 221.973 158.122 221.564 153.789C221.391 151.957 221.996 148.907 220.035 147.77C218.339 146.787 215.949 148.026 216.022 150.047Z" clip-rule="evenodd"/><path fill="#191847" fill-opacity=".6" fill-rule="evenodd" d="M112.198 165.565C112.238 165.595 112.278 165.626 112.318 165.657C112.278 165.626 112.238 165.596 112.198 165.565ZM103.221 162.801C106.568 163.75 109.318 163.396 112.515 165.813C115.166 167.817 117.885 170.748 118.764 173.989C120.795 181.475 113.909 185.577 107.453 185.658C100.841 185.74 91.053 184.219 91.3918 175.813C91.6516 169.354 96.4066 163.052 103.221 162.801ZM103.457 158.57C94.7769 158.999 87.7753 168.667 87.8504 176.805C87.941 186.668 99.209 189.209 107.213 189.278C116.247 189.355 125.256 183.168 122.835 173.092C120.895 165.019 111.804 158.14 103.457 158.57Z" clip-rule="evenodd"/><path fill="#191847" fill-opacity=".6" fill-rule="evenodd" d="M94.7258 171.813C94.7258 174.563 99.1072 174.563 99.1072 171.813C99.1072 169.094 94.7258 168.977 94.7258 171.813Z" clip-rule="evenodd"/><path fill="#191847" fill-opacity=".6" fill-rule="evenodd" d="M103.916 170.606C103.916 173.378 108.332 173.378 108.332 170.606C108.332 167.866 103.916 167.748 103.916 170.606Z" clip-rule="evenodd"/><path fill="#191847" fill-opacity=".6" fill-rule="evenodd" d="M98.8494 176.88C95.9977 179.703 106.016 184.654 108.378 180.725C110.319 177.499 106.094 178.569 104.596 178.394C102.969 178.204 100.178 175.565 98.8494 176.88Z" clip-rule="evenodd"/><path fill="#191847" fill-opacity=".6" fill-rule="evenodd" d="M178.946 170.663C178.671 170.777 178.671 170.777 178.946 170.663V170.663ZM141.325 166.066C138.438 166.603 128.961 169.774 128.833 173.172C128.6 179.348 137.88 173.022 139.895 172.209C145.37 170.003 148.247 174.504 153.746 174.741C158.522 174.948 162.914 170.894 167.413 171.373C172.128 171.875 174.395 176.849 179.837 174.208C182.717 172.811 182.644 170.658 179.412 170.455C177.458 170.332 176.116 171.133 174.08 170.299C170.895 168.996 169.612 166.874 165.8 167.211C162.924 167.466 160.325 169.073 157.517 169.696C151.089 171.12 147.523 164.914 141.325 166.066Z" clip-rule="evenodd"/><path fill="#191847" fill-opacity=".6" fill-rule="evenodd" d="M201.123 173.344C200.925 173.427 200.925 173.427 201.123 173.344V173.344ZM201.852 170.773C201.884 170.786 202.102 171.086 201.852 170.773V170.773ZM198.542 168.809C198.418 168.904 198.418 168.904 198.542 168.809V168.809ZM198.614 168.785C199.256 169.166 204.417 172.666 200.668 173.491C198.765 173.909 197.191 170.111 198.614 168.785ZM196.905 164.908C188.639 168.646 197.534 182.024 204.022 176.589C206.752 174.302 207.111 169.679 204.455 167.296C202.864 165.868 199.065 163.929 196.905 164.908Z" clip-rule="evenodd"/><path fill="#2F3676" fill-opacity=".7" fill-rule="evenodd" d="M119.306 217.626C108.991 217.629 98.5849 217.414 88.2837 218.021C86.5501 218.123 79.946 217.796 79.0528 219.593C77.4187 222.881 84.2139 221.249 85.2011 221.15C105.712 219.114 127.137 220.286 147.716 220.866C164.546 221.341 181.286 221.635 198.096 222.496C202.515 222.722 206.93 222.972 211.345 223.236C212.784 223.322 216.406 224.268 216.71 221.988C216.991 219.878 212.473 220.355 211.344 220.296C202.368 219.827 193.399 219.336 184.426 218.835C162.827 217.627 140.938 217.622 119.306 217.626Z" clip-rule="evenodd"/><path fill="#2F3676" fill-opacity=".7" fill-rule="evenodd" d="M78.7216 221.282C76.7949 223.181 77.6981 230.435 77.6443 232.833C77.5503 237.026 77.3508 241.216 77.2612 245.408C77.1681 249.789 77.2975 254.191 77.5588 258.566C77.6682 260.403 79.1884 269.281 81.5818 264.2C82.6511 261.93 81.5559 255.606 81.5724 253.033C81.6017 248.351 81.856 243.689 82.0909 239.014C82.2929 234.994 82.3003 230.971 82.4775 226.951C82.5337 225.669 82.6865 217.337 78.7216 221.282Z" clip-rule="evenodd"/><path fill="#2F3676" fill-opacity=".7" fill-rule="evenodd" d="M218.445 258.737C208.407 259.757 198.207 259.275 188.13 260.029C179.446 260.678 170.769 260.944 162.062 261.126C142.346 261.539 122.597 261.942 102.938 263.571C98.4572 263.942 93.9823 264.337 89.49 264.536C87.2434 264.635 77.8159 263.621 77.1138 265.97C75.9181 269.971 85.9999 268.387 88.1744 268.325C92.9563 268.188 97.7158 267.845 102.484 267.485C122.529 265.97 142.651 265.517 162.739 264.887C173.664 264.546 184.513 263.753 195.414 263.031C200.847 262.672 206.296 262.66 211.728 262.312C213.15 262.221 218.182 262.401 219.204 261.266C219.907 260.487 220.084 258.585 218.445 258.737Z" clip-rule="evenodd"/><path fill="#2F3676" fill-opacity=".7" fill-rule="evenodd" d="M215.043 221.962C215.387 231.511 215.931 241.051 216.256 250.599C216.354 253.47 215.479 258.616 217.091 261.149C219.683 265.22 221.706 260.911 222.181 258.374C223.679 250.366 222.069 241.521 221.65 233.464C221.491 230.39 222.453 223.549 220.955 220.798C219.529 218.178 214.915 218.441 215.043 221.962Z" clip-rule="evenodd"/><path fill="#2F3676" fill-opacity=".7" fill-rule="evenodd" d="M198.189 235.562C202.035 236.595 202.597 244.888 198.257 245.502C191.798 246.415 194.623 237.271 198.189 235.562ZM197.112 232.264C195.938 232.227 193.23 231.907 192.507 232.854C191.902 233.647 192.514 235.318 192.443 236.073C192.189 238.772 189.977 240.33 190.966 243.515C191.637 245.677 193.434 247.709 195.625 248.46C207.184 252.422 207.043 230.271 197.112 232.264Z" clip-rule="evenodd"/><path fill="#2F3676" fill-opacity=".7" fill-rule="evenodd" d="M92.7534 233.751C92.7245 233.788 92.6957 233.824 92.6673 233.861C92.6957 233.824 92.7245 233.788 92.7534 233.751ZM101.832 228.96C101.787 228.577 101.741 228.193 101.696 227.809C107.963 230.744 112.95 236.202 110.869 243.528C109.282 249.117 103.545 251.099 98.2001 249.719C92.2837 248.192 89.4563 243.355 91.0516 237.415C91.7876 234.675 94.0477 230.993 96.969 230.112C98.329 229.702 101.336 230.747 101.832 228.96ZM98.1672 226.64C96.5819 226.746 95.0388 227.401 93.7451 228.297C94.9562 227.281 96.5704 226.676 98.1672 226.64ZM98.2125 223.03C94.2964 223.149 91.7303 225.501 89.4076 228.324C88.6786 229.211 86.214 231.561 86.519 232.755C86.7603 233.699 87.3918 235.08 88.7214 234.027C81.7575 247.793 99.7476 259.534 110.73 249.962C120.979 241.028 110.811 222.612 98.2125 223.03Z" clip-rule="evenodd"/><path fill="#2F3676" fill-opacity=".7" fill-rule="evenodd" d="M94.6544 235.818C94.6544 237.651 97.5235 237.651 97.5235 235.818C97.5235 233.985 94.6544 233.985 94.6544 235.818Z" clip-rule="evenodd"/><path fill="#2F3676" fill-opacity=".7" fill-rule="evenodd" d="M99.5507 236.131C99.5507 237.994 102.466 237.994 102.466 236.131C102.466 234.268 99.5507 234.268 99.5507 236.131Z" clip-rule="evenodd"/><path fill="#2F3676" fill-opacity=".7" fill-rule="evenodd" d="M101.773 242.673C100.409 242.783 95.4163 242.323 94.5401 243.508C93.0756 245.488 95.4128 245.557 96.5608 245.771C97.5948 245.964 102.09 245.855 102.723 244.944C103.283 244.139 103.152 242.557 101.773 242.673Z" clip-rule="evenodd"/><path fill="#2F3676" fill-opacity=".7" fill-rule="evenodd" d="M161.923 237.538C161.688 237.634 161.688 237.634 161.923 237.538V237.538ZM143.059 236.17C139.986 236.394 137.383 238.147 134.445 238.847C131.308 239.594 129.951 238.22 127.099 237.321C124.133 236.386 122.022 236.755 119.638 238.764C118.287 239.903 115.323 242.524 116.167 244.547C118.101 249.177 122.478 241.644 124.536 241.294C127.748 240.747 130.605 243.532 134.308 242.735C137.664 242.014 140.641 239.729 144.146 239.704C147.077 239.683 149.839 241.274 152.733 241.659C157.15 242.247 160.05 240.691 164.134 239.536C167.675 238.535 170.158 239.855 173.488 240.966C175.01 241.474 180.089 243.319 179.154 239.973C178.89 239.028 172.197 237.337 171.159 237.012C167.5 235.866 165.183 236.313 161.697 237.631C158.79 238.73 156.345 239.266 153.228 238.661C149.794 237.994 146.671 235.898 143.059 236.17Z" clip-rule="evenodd"/></g><g opacity=".5"><path fill="#191847" fill-opacity=".6" fill-rule="evenodd" d="M284.459 82.7233C284.955 72.1397 285.637 61.5709 285.997 50.9808C286.175 45.7332 286.315 40.485 286.449 35.2363C286.479 34.0676 286.51 32.8994 286.536 31.7306C286.624 27.7601 286.149 27.4353 290.178 27.0828C308.15 25.5094 326.193 24.9879 344.187 23.5643C365.888 21.8475 387.702 20.662 409.465 20.1306C419.136 19.894 428.848 19.404 438.52 19.7023C440.664 19.7683 444.87 19.2153 445.714 20.8675C446.078 21.5813 445.314 24.0375 445.217 24.8612C444.913 27.4343 444.63 30.0162 444.456 32.6021C443.427 47.8532 444.04 63.4888 447.018 78.5088C440.033 74.6023 431.208 71.2421 423.067 71.909C414.767 72.5887 408.559 77.345 401.916 81.7226C398.157 84.1986 396.892 84.8497 393.143 82.4512C389.912 80.3838 386.855 78.0203 383.807 75.7006C379.103 72.1204 374.664 68.2387 370.103 64.4855C361.716 57.5846 350.161 47.762 338.578 50.654C330.302 52.7204 322.66 57.2316 315.477 61.6468C304.805 68.2061 295.144 76.2388 284.459 82.7233ZM428.291 15.0023C387.058 15.0023 346.134 18.9668 305.017 21.1116C300.723 21.3354 296.443 21.6651 292.164 22.0747C289.312 22.3478 282.338 21.2013 280.469 23.6181C279.223 25.2305 280.294 25.4725 280.469 27.0045C280.691 28.9353 280.559 31.2229 280.502 33.2666C280.365 38.1909 280.221 43.1148 280.108 48.0396C279.682 66.6525 279.416 85.2619 280.176 103.87C280.342 107.928 281.833 113.547 281.017 117.49C280.427 120.345 278.452 122.083 283.005 122.61C287.485 123.13 292.963 121.809 297.447 121.386C301.957 120.96 306.466 120.498 310.981 120.129C330.612 118.524 350.434 118.767 370.117 118.234C389.978 117.696 409.845 117.661 429.712 117.651C438.025 117.646 447.523 118.109 455.634 115.84C458.488 115.042 458.949 114.649 458.245 111.84C458.112 111.308 457.25 111.111 456.997 110.148C456.653 108.837 456.83 107.244 456.749 105.879C456.487 101.423 456.395 96.9595 456.184 92.5005C455.83 85.0504 454.536 77.8202 453.578 70.445C452.473 61.9278 452.529 53.2799 452.507 44.7069C452.494 39.9517 452.617 35.2122 453.002 30.4702C453.249 27.4289 454.759 22.8881 453.994 20.0518C453.612 18.6395 452.988 17.5196 451.506 16.9118C450.567 16.5264 449.778 16.828 448.849 16.7304C447.749 16.6146 447.062 16.4613 445.743 16.1651C440.092 14.8948 434.05 15.0023 428.291 15.0023Z" clip-rule="evenodd"/><path fill="#2F3676" fill-opacity=".7" fill-rule="evenodd" d="M405.473 35.2508C405.47 38.2147 405.003 42.5885 406.381 45.3794C408.128 48.9196 410.314 47.813 410.894 44.4862C411.225 42.5801 411.217 36.9391 410.6 35.2508C409.726 32.8611 405.473 31.2334 405.473 35.2508Z" clip-rule="evenodd"/><path fill="#2F3676" fill-opacity=".7" fill-rule="evenodd" d="M410.486 36.3953C407.681 36.4934 399.51 35.8255 397.612 38.0629C394.356 41.9003 400.025 42.5801 402.458 42.3651C405.275 42.1167 413.978 42.723 415.864 40.4832C419.019 36.7359 412.692 36.3155 410.486 36.3953Z" clip-rule="evenodd"/><path fill="#2F3676" fill-opacity=".7" fill-rule="evenodd" d="M301.616 135.413C313.95 137.538 310.113 156.19 298.442 151.87C294.376 150.364 288.384 146.015 290.631 140.89C292.31 137.061 297.782 135.049 301.616 135.413ZM296.51 129.614C288.488 130.953 283.004 139.563 285.755 147.072C288.408 154.317 298.471 159.623 305.892 157.019C312.977 154.533 316.511 145.184 314.123 138.345C311.627 131.199 303.497 128.447 296.51 129.614Z" clip-rule="evenodd"/><path fill="#2F3676" fill-opacity=".7" fill-rule="evenodd" d="M371.529 137.594C368.459 137.847 365.805 139.98 362.715 140.357C359.826 140.71 357.432 139.73 354.727 138.946C351.457 137.999 348.458 137.582 345.116 138.424C342.563 139.067 340.044 140.79 337.392 140.998C332.173 141.407 326.107 135.501 322.032 142.181C320.078 145.384 322.915 147.446 325.837 145.953C328.883 144.396 327.387 143.839 331.166 144.759C334.318 145.525 336.866 145.942 340.024 144.867C342.885 143.894 345.396 142.113 348.505 141.913C351.549 141.717 354.198 143.092 357.108 143.686C360.686 144.415 363.853 143.863 367.243 142.751C370.469 141.693 371.755 141.114 375.01 142.058C377.07 142.656 381.572 144.555 383.578 143.024C387.046 140.378 382.403 139.991 380.574 139.615C377.631 139.011 374.585 137.346 371.529 137.594Z" clip-rule="evenodd"/><path fill="#2F3676" fill-opacity=".7" fill-rule="evenodd" d="M441.801 135.817C441.826 135.836 441.85 135.855 441.874 135.873C441.85 135.855 441.825 135.836 441.801 135.817ZM438.787 135.191C443.27 135.478 448.117 143.577 442.177 143.865C437.996 144.067 433.319 136.975 438.787 135.191ZM438.158 128.564C423.982 132.49 430.462 152.312 444.136 150.022C450.346 148.982 452.451 141.846 450.397 136.563C449.516 134.294 447.797 132.381 445.742 131.075C444.226 130.112 439.89 128.085 438.158 128.564Z" clip-rule="evenodd"/><path fill="#191847" fill-opacity=".6" fill-rule="evenodd" d="M372.022 169.945C384.496 169.52 396.971 169.096 409.458 168.981C416.225 168.919 422.956 169.036 429.713 169.421C432.71 169.591 435.706 169.756 438.704 169.882C439.221 169.903 439.936 169.868 440.725 169.83C442.582 169.739 444.848 169.629 445.914 170.188C451.88 173.318 439.727 173.661 438.249 173.637C434.941 173.581 431.636 173.419 428.331 173.257C425.442 173.116 422.554 172.974 419.662 172.904C401.113 172.452 382.452 173.278 363.872 174.101L363.872 174.101L363.872 174.101C359.612 174.29 355.357 174.478 351.109 174.651C346.599 174.835 342.089 174.954 337.58 175.072C331.134 175.242 324.689 175.412 318.243 175.771C315.782 175.908 313.321 176.054 310.86 176.199L310.86 176.199L310.86 176.199C307.335 176.407 303.81 176.615 300.283 176.799C297.522 176.944 294.76 177.084 291.996 177.153C291.498 177.165 290.849 177.234 290.141 177.309C288.427 177.49 286.365 177.708 285.251 177.257C283.911 176.713 282.827 175.953 283.564 174.342C284.187 172.98 286.452 173.144 288.103 173.263C288.554 173.295 288.959 173.324 289.272 173.318C294.549 173.217 299.815 172.923 305.082 172.603C307.009 172.486 308.936 172.366 310.862 172.246C320.89 171.62 330.909 170.995 340.962 170.825C351.32 170.65 361.67 170.297 372.022 169.945ZM437.172 251.374L440.758 251.33C442.61 251.49 443.439 253.418 442.25 254.9C441.339 256.035 437.836 256.087 435.552 256.12H435.551H435.551C434.919 256.129 434.38 256.137 434.015 256.166C428.053 256.642 422.103 256.855 416.123 256.912C403.529 257.031 390.984 257.566 378.411 258.278C365.541 259.005 352.661 259.279 339.78 259.553H339.779H339.779L339.778 259.553C330.301 259.754 320.825 259.955 311.351 260.338C305.926 260.556 300.501 260.72 295.073 260.861C294.49 260.876 293.714 260.959 292.837 261.053C289.408 261.421 284.427 261.954 283.298 259.254C282.296 256.857 283.688 255.754 285.725 255.252C285.403 253.833 285.462 251.838 285.497 250.696C285.507 250.353 285.515 250.086 285.509 249.936C285.458 248.503 285.422 247.07 285.387 245.638C285.346 244.014 285.306 242.391 285.243 240.768C285.186 239.296 285.133 237.821 285.079 236.346C284.869 230.529 284.659 224.698 284.207 218.904C283.999 216.23 283.669 213.587 283.339 210.949C282.812 206.736 282.287 202.535 282.262 198.234C282.258 197.461 282.219 196.493 282.175 195.402C281.95 189.818 281.594 180.992 285.088 178.304C291.249 174.738 290.031 185.03 289.488 189.624C289.398 190.382 289.326 190.985 289.31 191.345C288.956 198.983 289.436 206.285 290.211 213.875C290.734 219.001 290.429 224.11 290.123 229.227C290.013 231.054 289.904 232.883 289.832 234.714C289.797 235.62 289.765 236.525 289.734 237.431C289.637 240.216 289.54 243 289.328 245.783C289.305 246.084 289.298 246.661 289.288 247.399C289.26 249.48 289.216 252.836 288.767 254.873C289.723 254.833 290.651 254.843 291.417 254.851H291.417H291.417C291.906 254.856 292.329 254.861 292.652 254.851C294.122 254.807 295.592 254.764 297.063 254.722L297.066 254.722L297.068 254.721C301.412 254.595 305.755 254.469 310.098 254.307C320.353 253.925 330.61 253.797 340.867 253.669H340.868H340.868C352.983 253.518 365.098 253.367 377.209 252.797C397.166 251.856 417.193 251.614 437.172 251.374ZM440.874 176.701C440.864 189.785 441.884 202.51 443.075 215.542C443.813 223.603 444.404 231.694 444.874 239.776C444.896 240.15 444.893 240.774 444.888 241.557C444.865 246.025 444.813 255.654 449.266 253.351C452.628 251.611 451.336 241.527 450.621 235.947V235.947V235.947C450.464 234.723 450.335 233.715 450.289 233.06C450.191 231.665 450.094 230.27 449.998 228.875C449.55 222.396 449.103 215.923 448.514 209.452L448.39 208.088C447.707 200.615 447.026 193.146 446.905 185.638C446.895 185.017 446.955 184.152 447.023 183.175L447.023 183.175C447.22 180.348 447.482 176.584 446.298 175.083C444.633 172.97 440.878 173.595 440.874 176.701Z" clip-rule="evenodd"/><path fill="#2F3676" fill-opacity=".7" fill-rule="evenodd" d="M372.592 208.776C388.525 201.626 404.644 194.393 421.213 189.243C422.41 188.871 423.167 190.096 422.895 191.124C422.615 192.183 420.023 193.086 418.305 193.685C417.79 193.865 417.354 194.017 417.082 194.138C414.767 195.163 412.447 196.175 410.127 197.188C407.751 198.225 405.375 199.262 403.005 200.312C398.077 202.496 393.145 204.67 388.213 206.843C382.931 209.172 377.649 211.5 372.372 213.84C372.172 213.929 371.972 214.018 371.773 214.106C378.947 216.635 386.08 219.277 393.182 221.998C395.61 222.928 398.028 223.878 400.447 224.827C401.816 225.364 403.185 225.901 404.555 226.435C405.001 226.608 405.777 226.844 406.711 227.126C409.752 228.048 414.458 229.473 414.806 230.912C415.372 233.257 408.876 230.989 406.425 230.133C406.099 230.019 405.846 229.931 405.689 229.881C402.072 228.734 398.499 227.457 394.927 226.18L394.433 226.003C391.602 224.992 388.776 223.97 385.949 222.947C380.428 220.951 374.907 218.954 369.356 217.038C368.571 216.767 367.786 216.497 367 216.228C358.092 220.197 349.201 224.204 340.339 228.274C335.587 230.457 330.861 232.69 326.148 234.954C325.12 235.448 323.846 236.212 322.462 237.041C319.145 239.029 315.197 241.396 312.481 241.337C311.025 241.305 310.043 240.996 309.891 239.245C309.735 237.438 312.072 236.491 313.752 235.809C314.154 235.646 314.519 235.498 314.803 235.357C319.84 232.859 324.909 230.423 329.992 228.018C340.087 223.242 350.277 218.657 360.504 214.163C360.563 214.137 360.621 214.111 360.68 214.085C355.009 212.182 349.321 210.323 343.622 208.504C343.052 208.322 341.886 208.002 340.352 207.581C333.106 205.59 317.671 201.35 318.358 198.873C319.145 196.041 333.617 201.219 340.024 203.511C341.224 203.941 342.142 204.269 342.633 204.424C350.292 206.845 357.931 209.335 365.53 211.938C367.88 210.89 370.234 209.834 372.592 208.776Z" clip-rule="evenodd"/><path fill="#2F3676" fill-opacity=".7" fill-rule="evenodd" d="M304.322 271.001C308.986 271.812 312.275 276.249 311.764 280.897C311.072 287.176 304.763 290.053 298.934 289.234C292.32 288.304 290.929 282.759 294.133 277.424C294.843 276.243 295.659 274.83 296.948 274.208C297.835 273.78 298.964 274.158 299.678 273.814C302.181 272.606 300.676 270.68 304.322 271.001ZM302.198 266.9C296.507 267.621 285.992 274.153 286.524 280.688C286.986 281.446 287.68 281.756 288.608 281.618C288.384 283.034 288.457 284.434 288.826 285.82C289.366 287.619 290.445 289.093 291.89 290.264C294.866 292.676 298.934 293.268 302.64 292.846C309.56 292.056 315.014 287.366 315.403 280.227C315.782 273.259 309.65 265.966 302.198 266.9Z" clip-rule="evenodd"/><path fill="#2F3676" fill-opacity=".7" fill-rule="evenodd" d="M329.763 275.403C327.209 276.746 323.17 278.808 321.672 281.357C320.09 284.049 321.729 286.995 325.062 285.721C327.708 284.71 329.391 281.498 332.213 280.468C334.704 279.559 335.708 280.022 338.34 280.927C341.053 281.859 343.424 282.76 346.356 282.532C350.041 282.244 353.233 280.125 356.841 279.643C359.878 279.236 362.383 280.409 365.292 280.875C368.666 281.416 370.873 280.149 374.03 279.489C376.178 279.04 379.964 280.867 381.53 280.183C385.053 278.647 381.326 276.769 379.376 276.149C376.092 275.104 374.07 276.026 370.946 276.893C367.554 277.834 366.089 277.126 362.846 276.262C356.286 274.514 351.218 278.741 345 277.973C339.242 277.261 335.798 272.234 329.763 275.403Z" clip-rule="evenodd"/><path fill="#2F3676" fill-opacity=".7" fill-rule="evenodd" d="M437.033 272.28C443.348 278.152 436.254 286.506 429.291 281.813C426.841 280.162 426.802 277.509 428.709 275.135C430.453 272.964 434.285 272.118 437.033 272.28ZM434.693 267.535C428.793 268.673 423.228 271.358 422.694 278.111C422.173 284.7 428.987 287.76 434.712 287.328C447.563 286.357 446.634 265.245 434.693 267.535Z" clip-rule="evenodd"/></g><path fill="#C1DEE2" fill-opacity=".55" fill-rule="evenodd" d="M582.186 75.0057C577.257 75.0908 565.086 76.6923 563.276 81.9008C561.903 85.8545 565.983 84.9864 568.17 83.5478C571.128 81.6023 573.722 80.438 577.387 79.8461C591.35 77.5899 604.766 85.6807 618.595 86.7039C623.834 87.0915 630.155 87.344 635.157 85.8285C638.719 84.7493 639.184 82.3962 635.119 82.0377C631.665 81.7333 627.843 82.6929 624.303 82.6656C609.651 82.5537 596.627 74.7596 582.186 75.0057Z" clip-rule="evenodd" opacity=".5"/><g opacity=".5"><path fill="#2F3676" fill-opacity=".7" fill-rule="evenodd" d="M78.6141 311.637C69.5855 311.738 60.5613 312.068 51.5506 312.634C42.9816 313.172 33.6842 312.764 25.2548 314.411C22.8613 314.879 19.6279 317.042 22.8106 319.422C25.0476 321.095 33.232 319.171 35.9033 319.008C45.7409 318.408 55.5834 317.69 65.4349 317.345C74.7612 317.018 84.0869 316.902 93.4176 316.81C94.8423 316.796 97.207 316.343 98.6256 316.753C100.664 317.343 100.18 317.503 100.333 320.07C100.61 324.719 100.533 329.385 100.44 334.039C100.35 338.543 100.182 343.046 100.199 347.552C100.21 350.766 99.1742 357.154 100.801 359.946C103.141 363.964 105.57 359.6 105.745 356.929C106.08 351.822 105.93 346.652 105.931 341.539C105.932 336.739 105.967 331.939 105.796 327.141C105.673 323.676 106.172 317.626 104.29 314.476C102.373 311.267 97.7571 311.959 94.3891 311.806C89.1354 311.566 83.8723 311.583 78.6141 311.637Z" clip-rule="evenodd"/><path fill="#2F3676" fill-opacity=".7" fill-rule="evenodd" d="M21.1693 317.429C21.1793 326.448 20.1273 335.406 19.8327 344.414C19.6975 348.556 19.4232 353.104 20.4796 357.17C21.546 361.275 24.9328 362.164 25.3229 357.581C26.113 348.301 25.9192 338.678 26.5343 329.323C26.7515 326.02 28.1647 319.967 26.8454 316.874C25.6836 314.15 21.1644 313.628 21.1693 317.429Z" clip-rule="evenodd"/><path fill="#2F3676" fill-opacity=".7" fill-rule="evenodd" d="M105.833 357.182C90.1535 359.241 73.7619 358.491 57.9705 358.814C50.3943 358.969 42.8196 358.979 35.2424 359.058C32.598 359.085 25.8824 358.087 23.5947 359.562C19.9529 361.909 23.9042 363.72 26.3152 363.772C41.2683 364.097 56.3879 363.415 71.338 362.928C78.0551 362.71 84.794 362.603 91.4932 362.036C95.6174 361.688 100.124 361.35 104.129 360.251C104.982 360.016 106.84 360.065 107.032 358.911C107.149 358.197 106.936 357.031 105.833 357.182Z" clip-rule="evenodd"/><path fill="#2F3676" fill-opacity=".7" fill-rule="evenodd" d="M40.6328 370.291C36.275 370.317 23.143 368.309 21.3383 372.524C18.9323 378.145 28.3182 376.833 30.8425 376.769C36.5757 376.623 42.3049 376.607 48.0396 376.609C53.6664 376.612 59.2928 376.576 64.9187 376.443C66.5485 376.404 70.3423 377.075 71.2799 375.128C71.9925 373.649 71.4295 372.482 70.1152 371.699C66.953 369.814 58.7378 370.907 55.0354 370.737C50.2418 370.518 45.4324 370.291 40.6328 370.291Z" clip-rule="evenodd"/><path fill="#2F3676" fill-opacity=".7" fill-rule="evenodd" d="M93.6482 371.332C91.1577 371.479 86.1202 370.461 83.8891 371.591C81.3535 372.876 82.2469 374.888 84.4362 375.772C85.9522 376.384 92.1714 376.063 93.6482 375.354C95.1876 374.614 96.9282 371.132 93.6482 371.332Z" clip-rule="evenodd"/><path fill="#2F3676" fill-opacity=".7" fill-rule="evenodd" d="M120.952 318.314C118.292 319.038 119.099 334.015 119.031 336.39C118.843 342.895 118.105 351.077 120.285 357.342C121.675 361.335 124.344 360.794 123.889 356.589C123.49 352.899 122.805 349.251 122.508 345.536C121.837 337.131 120.924 328.166 121.558 319.754C121.828 320.242 124.351 324.776 124.945 324.438C124.765 324.543 122.034 318.031 120.952 318.314Z" clip-rule="evenodd"/><path fill="#2F3676" fill-opacity=".7" fill-rule="evenodd" d="M150.872 312.798C145.489 312.877 140.106 312.971 134.725 313.119C130.446 313.238 123.723 312.54 119.799 314.325C115.126 316.451 117.343 321.187 121.732 321.287C125.614 321.376 129.754 320.507 133.672 320.374C144.253 320.015 154.853 319.938 165.44 319.848C175.014 319.766 184.995 320.779 194.485 319.353C195.893 331.751 192.086 344.2 193.381 356.74C193.581 358.686 193.492 361.437 195.99 361.88C199.144 362.44 199.274 359.341 199.394 357.123C199.735 350.788 199.55 344.449 200.018 338.106C200.451 332.228 201.304 326.22 200.583 320.333C199.697 313.088 196.197 313.669 190.009 313.368C176.941 312.732 163.954 312.607 150.872 312.798Z" clip-rule="evenodd"/><path fill="#2F3676" fill-opacity=".7" fill-rule="evenodd" d="M132.832 356.82C130.089 356.888 125.534 356.05 123.776 358.658C121.948 361.373 124.117 363.74 126.776 364.297C129.923 364.957 134.027 364.053 137.294 364.043C140.696 364.033 144.098 364.07 147.5 364.084C162.085 364.14 176.732 364.359 191.306 363.761C193.341 363.678 199.117 364.355 200.526 362.418C201.776 360.701 200.902 359.16 199.255 358.286C196.554 356.85 191.006 357.396 188.002 357.282C184.292 357.142 180.577 357.096 176.865 357.039C162.212 356.815 147.483 356.46 132.832 356.82Z" clip-rule="evenodd"/><path fill="#2F3676" fill-opacity=".7" fill-rule="evenodd" d="M145.169 369.367C139.712 369.459 133.888 369.221 128.485 370.042C123.733 370.764 123.148 375.32 128.263 375.853C132.963 376.343 138.662 375.427 143.385 375.126C145.062 375.019 147.013 375.171 147.817 373.332C148.656 371.41 147.052 369.567 145.169 369.367Z" clip-rule="evenodd"/><path fill="#2F3676" fill-opacity=".7" fill-rule="evenodd" d="M186.431 369.845C183.518 369.917 175.009 368.675 173.566 371.975C171.164 377.469 182.683 375.382 184.892 375.301C187.678 375.199 198.532 376.812 198.535 372.414C198.537 368.102 189.098 369.779 186.431 369.845Z" clip-rule="evenodd"/><path fill="#191847" fill-opacity=".6" fill-rule="evenodd" d="M20.6983 397.146C20.7052 407.141 20.0781 417.23 20.9974 427.199C21.3775 431.323 21.3124 439.221 23.7204 442.717C25.4297 445.198 27.8004 445.024 28.7341 442.045C29.3582 440.053 28.3599 436.07 28.2486 433.939C28.1413 431.894 28.0161 429.85 27.9207 427.805C27.6757 422.535 27.6951 417.274 27.7681 412.001C27.8307 407.479 28.9284 401.496 27.8933 397.146C26.9284 393.093 20.6983 392.145 20.6983 397.146Z" clip-rule="evenodd"/><path fill="#191847" fill-opacity=".6" fill-rule="evenodd" d="M121.974 388.353C104.491 388.788 86.9685 388.4 69.5006 389.258C60.8859 389.681 52.305 390.611 43.7335 391.537C39.5223 391.993 35.3136 392.462 31.1099 392.976C29.8413 393.131 19.3001 393.536 23.2649 397.512C24.996 399.249 30.5051 397.435 32.685 397.179C36.9057 396.685 41.1348 396.254 45.3614 395.811C53.4041 394.967 61.4569 394.168 69.5339 393.724C88.5566 392.679 107.658 392.993 126.699 392.296C131.85 392.107 136.986 391.972 142.139 392.173C143.492 392.226 153.434 392.727 149.117 389.085C147.076 387.362 139.38 388.251 136.829 388.199C131.878 388.098 126.924 388.23 121.974 388.353Z" clip-rule="evenodd"/><path fill="#191847" fill-opacity=".6" fill-rule="evenodd" d="M145.808 405.192C145.722 400.574 145.636 395.956 145.423 391.343C145.2 386.484 151.874 385.747 153.853 389.68C155.278 392.512 155.027 397.33 154.812 401.459C154.726 403.124 154.645 404.676 154.682 405.941C154.767 408.842 154.982 411.841 155.2 414.879C155.749 422.526 156.315 430.425 154.874 437.644C154.173 441.152 151.19 442.995 149.204 441.083C149.201 441.087 149.199 441.091 149.196 441.095C148.449 442.187 146.124 442.185 144.412 442.183C143.94 442.182 143.515 442.182 143.182 442.204C138.491 442.52 133.887 443.054 129.237 443.745C119.973 445.123 110.789 445.969 101.425 446.199C95.0709 446.355 88.708 446.407 82.3434 446.46C70.1559 446.56 57.9623 446.66 45.8136 447.487C41.7177 447.766 37.6839 448.244 33.6551 449.009C33.3121 449.074 32.9313 449.158 32.5259 449.248C29.5303 449.909 25.1936 450.865 24.8973 446.713C24.5451 441.785 35.314 441.139 40.8558 440.807C41.7019 440.756 42.4262 440.713 42.9704 440.663C59.7974 439.11 76.8884 439.351 93.7868 439.589C94.6055 439.6 95.4239 439.612 96.2417 439.623C97.5604 439.641 98.8788 439.663 100.197 439.684C107.432 439.802 114.659 439.92 121.892 439.481C125.183 439.282 128.517 439.179 131.858 439.076C137.188 438.912 142.533 438.748 147.745 438.188C146.959 435.165 146.822 431.597 146.692 428.235C146.642 426.926 146.593 425.648 146.507 424.445C146.049 418.036 145.929 411.614 145.808 405.192Z" clip-rule="evenodd"/><path fill="#C1DEE2" fill-opacity=".55" fill-rule="evenodd" d="M159.958 394.903C157.596 395.221 155.626 397.226 156.681 399.769C158.009 402.971 161.965 401.72 164.578 401.517C172.884 400.872 181.556 402.161 189.762 401.188C192.003 400.922 195.254 399.712 193.242 396.725C191.73 394.48 186.219 394.874 183.877 394.659C175.865 393.924 167.959 394.12 159.958 394.903Z" clip-rule="evenodd"/><path fill="#C1DEE2" fill-opacity=".55" fill-rule="evenodd" d="M173.977 408.871C170.756 409.086 163.257 408.917 161.9 412.552C159.465 419.074 169.002 416.776 171.906 416.405C175.279 415.974 183.232 417.128 185.028 413.883C188.24 408.081 176.802 408.678 173.977 408.871Z" clip-rule="evenodd"/><path fill="#C1DEE2" fill-opacity=".55" fill-rule="evenodd" d="M165.693 423.183C164.165 424.699 164.163 427.407 165.693 428.923C167.567 430.78 171.65 430.394 174.112 430.53C177.546 430.72 187.409 432.522 189.114 428.511C191.415 423.1 182.484 423.213 179.546 422.906C176.151 422.551 168.507 420.391 165.693 423.183Z" clip-rule="evenodd"/><path fill="#2F3676" fill-opacity=".7" fill-rule="evenodd" d="M45.313 330.555C45.313 336.373 54.4743 336.373 54.4743 330.555C54.4743 324.769 45.313 324.68 45.313 330.555Z" clip-rule="evenodd"/><path fill="#2F3676" fill-opacity=".7" fill-rule="evenodd" d="M62.6904 330.621C62.6904 337.272 73.1253 337.259 73.1253 330.621C73.1253 323.993 62.6904 323.926 62.6904 330.621Z" clip-rule="evenodd"/><path fill="#2F3676" fill-opacity=".7" fill-rule="evenodd" d="M52.1779 339.464C47.1056 340.854 51.7784 345.117 54.1337 346.091C57.8768 347.639 62.9854 348.78 66.7295 346.459C68.2192 345.536 69.4287 344.308 68.337 342.516C67.1738 340.608 65.5812 341.456 63.8103 341.632C61.5668 341.856 59.7536 341.822 57.5871 341.108C55.9702 340.575 53.9414 338.983 52.1779 339.464Z" clip-rule="evenodd"/><path fill="#2F3676" fill-opacity=".7" fill-rule="evenodd" d="M144.184 330.923C144.184 334.859 150.345 334.859 150.345 330.923C150.345 326.988 144.184 326.988 144.184 330.923Z" clip-rule="evenodd"/><path fill="#2F3676" fill-opacity=".7" fill-rule="evenodd" d="M157.809 331.516C157.809 335.888 164.652 335.888 164.652 331.516C164.652 327.144 157.809 327.144 157.809 331.516Z" clip-rule="evenodd"/><path fill="#2F3676" fill-opacity=".7" fill-rule="evenodd" d="M157.302 341.004C153.707 341.464 143.309 342.509 142.727 346.904C141.83 353.685 153.223 348.197 155.823 347.665C159.135 346.987 162.092 347.164 165.399 347.295C167.214 347.367 169.628 347.659 169.438 344.916C169.126 340.413 160.444 340.605 157.302 341.004Z" clip-rule="evenodd"/><path fill="#191847" fill-opacity=".6" fill-rule="evenodd" d="M66.9136 403.536C64.3078 404.225 60.8991 408.693 62.6919 411.428C65.6316 415.912 66.928 409.027 68.1583 408.364C70.3968 407.158 72.214 411.565 74.5533 409.253C78.2448 405.605 69.2375 402.918 66.9136 403.536Z" clip-rule="evenodd"/><path fill="#191847" fill-opacity=".6" fill-rule="evenodd" d="M96.7709 400.22C93.6807 400.249 87.1569 404.588 86.6948 407.792C86.4205 409.696 87.6931 411.525 89.7621 411.55C92.5795 411.584 93.475 407.951 95.9172 407.191C98.5517 406.372 98.1607 408.259 100.436 409.237C102.101 409.954 104.184 409.654 104.762 407.623C105.853 403.793 99.946 400.16 96.7709 400.22Z" clip-rule="evenodd"/><path fill="#191847" fill-opacity=".6" fill-rule="evenodd" d="M73.1168 418.565C68.1741 421.438 76.3068 427.596 79.1262 428.366C83.3826 429.528 91.9491 427.359 92.9578 422.202C93.3593 420.15 92.0649 418.291 89.7812 418.658C87.9009 418.961 86.695 421.3 84.9533 422.138C82.6025 423.269 80.5126 423.192 78.515 421.489C76.8877 420.103 76.0161 416.888 73.1168 418.565Z" clip-rule="evenodd"/><path fill="#C1DEE2" fill-opacity=".55" fill-rule="evenodd" d="M76.6991 461.012C72.2831 461.946 67.7942 461.32 63.3569 462.198C58.8321 463.094 56.128 464.789 51.9243 463.081C51.7265 462.998 51.5293 462.915 51.332 462.833C48.0783 461.443 44.6681 461.031 41.2624 463.247C39.247 464.557 33.1287 469.092 33.8661 471.858C35.4641 477.857 42.3486 468.451 44.1041 467.534C47.4517 465.786 49.7469 468.02 53.1934 468.65C57.3216 469.405 60.6433 467.241 64.5321 466.38C69.0802 465.372 74.1967 465.02 78.8238 464.481C80.6519 464.268 87.5761 465.702 88.2012 463.445C89.275 459.569 78.4347 460.647 76.6991 461.012Z" clip-rule="evenodd"/><path fill="#C1DEE2" fill-opacity=".55" fill-rule="evenodd" d="M108.559 473.092C108.848 473.309 108.616 473.135 108.559 473.092V473.092ZM120.927 460.777C124.707 460.397 136.803 457.719 139.286 461.593C140.904 464.117 138.337 473.431 135.888 474.636C133.931 475.598 129.372 474.534 127.224 474.459C123.228 474.319 119.223 474.257 115.232 474.01C113.893 473.927 109.586 474.171 108.536 472.996C107.297 471.609 107.352 464.211 107.06 462.377C110.536 463.493 117.292 461.144 120.927 460.777ZM128.999 456.979C124.158 457.187 119.317 457.548 114.511 458.192C111.833 458.551 109.118 459.506 106.644 459.958C105.847 460.104 104.553 459.699 103.575 460.168C100.717 461.537 103.219 470.795 103.909 473.268C104.967 477.068 107.631 477.683 111.363 478.041C116.279 478.514 121.296 478.365 126.228 478.305C130.982 478.247 137.392 479.292 140.059 474.561C141.784 471.503 143.633 464.379 142.159 460.97C140.22 456.485 132.981 456.813 128.999 456.979Z" clip-rule="evenodd"/><path fill="#2F3676" fill-opacity=".7" fill-rule="evenodd" d="M183.218 475.637C182.959 475.967 182.959 475.967 183.218 475.637V475.637ZM184.279 474.369C184.199 474.489 183.827 474.878 184.279 474.369V474.369ZM172.733 474.021C174.867 473.622 177.002 473.228 179.139 472.842C177.115 475.651 174.985 474.49 171.528 474.245C171.93 474.17 172.331 474.096 172.733 474.021ZM162.55 473.027C163.091 472.847 163.632 472.668 164.173 472.488C164.157 472.896 164.245 473.279 164.439 473.635C163.512 473.536 162.587 473.429 161.663 473.317C161.959 473.22 162.255 473.123 162.55 473.027ZM157.832 469.571C157.802 468.833 158.919 469.339 159.56 469.29C158.325 470.368 157.749 470.462 157.832 469.571ZM174.707 461.211C174.869 461.005 175.085 461.016 175.352 461.242C175.06 461.339 173.935 461.812 174.707 461.211ZM185.651 459.934C185.679 459.934 186.287 460.747 185.651 459.934V459.934ZM185.343 459.668C185.503 459.788 185.503 459.788 185.343 459.668V459.668ZM183.978 459.51C186.215 459.884 186.045 462.488 183.978 459.51V459.51ZM157.689 459.332C157.235 459.707 157.39 459.344 157.689 459.332V459.332ZM166.246 453.787C162.447 454.006 155.475 453.785 152.302 455.793C148.162 458.413 150.34 467.433 150.711 471.388C151.258 477.233 154.031 478.897 159.581 479.51C166.204 480.243 173.009 480.379 179.666 480.206C185.662 480.049 189.077 478.004 190.175 471.743C190.511 469.827 191.365 466.863 191.338 465.028C191.32 463.756 190.68 463.175 190.438 462.093C189.061 455.931 186.759 455.2 180.391 454.931C175.704 454.734 170.845 453.548 166.246 453.787Z" clip-rule="evenodd"/></g><g opacity=".5"><path fill="#2F3676" fill-opacity=".7" fill-rule="evenodd" d="M367.474 312.224C377.132 312.428 388.09 317.73 386.563 328.962C385.444 337.189 378.261 343.869 369.943 344.445C361.003 345.063 351.55 338.258 350.335 329.229C348.969 319.074 358.029 312.021 367.474 312.224ZM362.737 307.652C358.822 308.232 355.08 310.271 351.632 312.098C350.317 312.796 343.644 317.049 348.877 318.105C336.269 338.274 365.943 357.008 382.626 343.9C390.118 338.013 394.062 326.853 389.22 318.118C384.211 309.083 372.333 306.223 362.737 307.652Z" clip-rule="evenodd"/><path fill="#2F3676" fill-opacity=".7" fill-rule="evenodd" d="M360.429 324.82C360.429 328.587 366.324 328.587 366.324 324.82C366.324 321.053 360.429 321.053 360.429 324.82Z" clip-rule="evenodd"/><path fill="#2F3676" fill-opacity=".7" fill-rule="evenodd" d="M371.359 325.423C371.359 329.507 377.75 329.507 377.75 325.423C377.75 321.339 371.359 321.339 371.359 325.423Z" clip-rule="evenodd"/><path fill="#2F3676" fill-opacity=".7" fill-rule="evenodd" d="M363.983 333.499C363.123 336.598 372.93 338.187 373.256 334.601C373.412 332.887 364.581 331.338 363.983 333.499Z" clip-rule="evenodd"/><path fill="#2F3676" fill-opacity=".7" fill-rule="evenodd" d="M392.732 331.585C404.016 330.242 415.652 330.862 426.991 331.184C429.829 331.266 432.666 331.344 435.505 331.391C437.309 331.421 441.206 332.28 442.78 331.443C449.229 328.012 436.579 326.354 434.788 326.196C423.509 325.276 406.102 324.947 394.79 325.382C391.444 325.51 390.721 331.824 392.732 331.585Z" clip-rule="evenodd"/><path fill="#C1DEE2" fill-opacity=".55" fill-rule="evenodd" d="M443.512 387.224C443.609 375.497 444.032 363.691 444.941 351.999C445.311 347.233 445.755 342.474 446.124 337.708C446.297 335.463 447.101 332.319 445.771 330.349C444.4 328.32 441.393 327.898 439.58 329.696C437.411 332.482 438.041 337.156 437.772 340.525C437.357 345.706 436.856 350.882 436.607 356.073C436.126 366.122 436.013 376.344 436.827 386.378C437.211 391.113 438.045 395.733 439.154 400.351C439.659 402.453 443.675 411.816 442.831 413.107C441.522 415.11 431.85 414.353 429.752 414.408C424.368 414.552 418.981 414.645 413.596 414.747C408.985 414.834 404.375 414.897 399.763 414.938C397.932 414.954 387.174 414.63 389.561 417.323C362.875 419.167 335.679 416.088 309.156 415.032C307.816 414.978 305.624 414.601 303.601 414.493C303.359 413.523 303.159 412.657 303.11 412.055C302.762 407.827 302.671 403.585 302.293 399.358C301.601 391.625 300.26 383.969 299.463 376.249C298.667 368.537 298.747 360.802 298.283 353.071C298.204 351.746 298.016 340.895 295.255 338.259C296.564 338.751 298.675 338.815 299.89 338.718C309.729 337.93 319.496 336.235 329.251 334.779C332.042 334.363 338.375 334.658 340.689 333.274C342.693 332.076 343.486 327.877 340.001 328.217C330.274 329.25 320.6 330.854 310.949 332.433C308.368 332.855 305.794 333.307 303.22 333.768C301.5 334.077 296.963 334.053 295.629 335.081C294.01 336.329 293.838 337.178 294.387 337.742C293.624 337.534 292.709 337.861 291.611 338.951C289.535 341.632 291.487 348.234 291.734 351.377C292.032 355.147 292.178 358.924 292.351 362.701C292.686 370.011 293.457 377.219 294.643 384.44C295.972 392.53 297.102 400.653 298.434 408.74C298.781 410.846 299.233 412.9 299.81 414.934C296.221 416.755 298.661 419.65 301.507 420.164C301.528 420.167 301.549 420.17 301.569 420.174C302.457 422.32 303.697 424.308 304.667 421.432C304.741 421.212 304.775 420.94 304.784 420.635C312.136 421.461 320.216 420.948 327.454 421.241C343.131 421.877 358.905 422.83 374.598 422.347C380.811 422.156 387.043 421.608 393.203 420.786C396.813 420.304 400.436 419.73 403.988 418.931C404.242 418.874 404.629 418.814 405.076 418.741C405.149 418.739 405.223 418.737 405.292 418.736C410.73 418.655 416.164 418.511 421.598 418.286C426.159 418.098 430.74 418.002 435.287 417.575C438.111 417.31 444.079 417.359 445.813 414.543C447.39 411.981 444.754 405.384 444.379 402.507C443.721 397.441 443.469 392.328 443.512 387.224Z" clip-rule="evenodd"/><path fill="#2F3676" fill-opacity=".7" fill-rule="evenodd" d="M388.398 353.363C384.052 353.732 380.034 355.756 375.648 355.781C371.968 355.802 368.343 354.711 364.642 354.872C360.301 355.06 357.912 357.844 354.109 358.776C351.081 359.518 349.173 357.219 346.51 356.202C343.148 354.918 340.664 355.581 337.782 357.523C335.665 358.95 330.726 362.153 330.764 365.04C330.877 373.784 341.163 361.705 343.236 361.559C345.991 361.364 349.069 364.479 352 364.656C355.876 364.892 358.361 362.413 361.929 361.511C365.538 360.598 369.439 361.716 373.057 362.063C377.185 362.459 380.797 361.547 384.791 360.569C388.661 359.622 391.959 359.673 395.891 360.468C398.545 361.005 405.157 364.126 406.317 360.113C407.899 354.648 391.436 353.106 388.398 353.363Z" clip-rule="evenodd"/><path fill="#2F3676" fill-opacity=".7" fill-rule="evenodd" d="M389.721 370.039C380.817 370.896 371.858 371.648 362.914 371.889C359.039 371.993 344.146 370.347 345.467 375.229C346.599 379.416 366.866 376.78 370.994 376.461C375.551 376.11 380.101 375.619 384.636 375.05C386.243 374.848 390.124 375.057 391.258 373.72C392.339 372.445 391.806 369.832 389.721 370.039Z" clip-rule="evenodd"/><path fill="#2F3676" fill-opacity=".7" fill-rule="evenodd" d="M328.294 392.276C328.092 392.361 328.092 392.361 328.294 392.276V392.276ZM330.172 392.251C332.392 392.181 331.917 391.02 334.131 391.625C335.152 391.904 335.257 391.49 336.049 392.458C337.594 394.347 336.139 398.46 334.616 399.982C328.977 405.618 322.211 392.501 330.172 392.251ZM330.172 386.721C314.736 387.235 321.195 410.886 334.63 406.058C340.178 404.064 343.666 395.082 340.402 390.034C338.815 387.578 336.791 387.142 334.131 386.972C333.514 386.932 332.737 387.822 332.351 387.782C331.435 387.685 331.521 386.671 330.172 386.721Z" clip-rule="evenodd"/><path fill="#2F3676" fill-opacity=".7" fill-rule="evenodd" d="M367.086 393.086C366.811 393.002 371.961 394.487 371.397 393.906C372.599 395.146 370.983 398.078 369.623 398.59C366.329 399.831 364.481 394.751 367.086 393.086ZM369.371 386.673C364.538 387.352 360.808 389.349 360.147 394.68C359.538 399.6 362.89 404.583 368.177 404.679C379.702 404.888 380.053 385.195 369.371 386.673Z" clip-rule="evenodd"/><path fill="#2F3676" fill-opacity=".7" fill-rule="evenodd" d="M421.983 393.301C422.658 402.038 413.523 394.041 421.983 393.301V393.301ZM418.063 383.953C417.264 385.308 417.945 386.745 419.151 387.532C408.375 389.791 410.816 405.874 421.781 403.498C427.357 402.289 428.382 396.474 427.551 391.672C427.156 389.389 421.419 378.262 418.063 383.953Z" clip-rule="evenodd"/></g><path fill="#C1DEE2" fill-opacity=".55" fill-rule="evenodd" d="M446.11 383.257C442.787 383.737 434.932 386.716 435 389.916C435.107 394.91 441.783 389.455 443.268 388.721C451.246 384.78 461.579 389.887 469.886 390.974C473.694 391.472 481.145 392.393 484.509 390.321C490.491 386.636 476.656 387.558 474.894 387.41C465.316 386.607 455.788 381.854 446.11 383.257Z" clip-rule="evenodd" opacity=".5"/><g opacity=".5"><path fill="#C1DEE2" fill-opacity=".55" fill-rule="evenodd" d="M595.277 350.869C595.274 356.905 594.966 363.066 596.088 369.029C596.428 370.835 596.695 374.293 598.616 375.23C600.545 376.171 602.415 375.113 602.894 373.152C603.453 370.871 602.227 367.456 602.103 365.06C601.932 361.788 601.921 358.512 601.919 355.235C601.918 352.869 602.703 349.063 599.887 347.846C597.793 346.94 595.277 348.624 595.277 350.869Z" clip-rule="evenodd"/><path fill="#C1DEE2" fill-opacity=".55" fill-rule="evenodd" d="M691.485 341.322C671.322 343.33 650.869 343.747 630.634 344.794C621.28 345.277 609.976 344.66 601.164 348.251C599.528 348.918 593.667 352.63 598.425 354.141C599.908 354.613 601.414 353.028 602.632 352.497C604.66 351.614 607.008 351.34 609.171 350.996C627.558 348.067 646.791 348.577 665.367 347.208C670.127 346.858 674.889 346.497 679.639 346.033C683.032 345.702 690.165 343.276 693.297 344.517C698.648 346.637 698.523 360.413 698.629 365.151C698.684 367.601 696.286 376.397 701.052 375.505C704.867 374.791 703.486 365.654 703.189 363.155C702.409 356.603 701.078 340.358 691.485 341.322Z" clip-rule="evenodd"/><path fill="#2F3676" fill-opacity=".7" fill-rule="evenodd" d="M698.92 375.187C681.407 376.756 663.49 375.217 645.905 375.834C636.687 376.158 627.478 376.673 618.26 376.975C614.273 377.106 610.282 377.111 606.293 377.139C604.385 377.152 595.702 378.299 601.073 382.051C603.452 383.712 611.031 382.374 613.76 382.342C617.858 382.294 621.955 382.125 626.051 381.966C635.538 381.598 645.02 381.088 654.512 380.833C663.593 380.589 672.677 380.537 681.757 380.293C686.275 380.172 690.854 380.034 695.332 379.38C696.342 379.232 699.624 379.115 700.326 377.997C700.989 376.941 700.523 375.034 698.92 375.187Z" clip-rule="evenodd"/><path fill="#C1DEE2" fill-opacity=".55" fill-rule="evenodd" d="M612.846 362.146C612.751 362.367 612.751 362.367 612.846 362.146V362.146ZM620.43 359.859C620.707 359.976 620.707 359.976 620.43 359.859V359.859ZM620.075 359.796C624.162 363.928 617.876 368.86 614.048 364.827C609.984 360.548 617.444 359.81 620.075 359.796ZM615.74 353.545C601.662 356.029 606.646 374.638 619.795 371.949C625.567 370.769 628.869 365.001 626.882 359.46C626.105 357.296 624.414 354.92 622.057 354.238C620.883 353.898 619.843 354.433 618.724 354.308C617.657 354.189 617.065 353.308 615.74 353.545Z" clip-rule="evenodd"/><path fill="#C1DEE2" fill-opacity=".55" fill-rule="evenodd" d="M669.618 358.782C661.129 358.809 652.637 359.167 644.15 359.326C641.546 359.375 634.855 358.219 634.844 362.29C634.833 366.64 642.287 365.034 644.767 364.975C653.186 364.775 661.627 364.409 670.013 363.614C672.131 363.413 679.464 363.76 679.457 360.903C679.449 357.876 671.328 358.782 669.618 358.782Z" clip-rule="evenodd"/><path fill="#2F3676" fill-opacity=".7" fill-rule="evenodd" d="M689.894 387.173C668.898 387.732 647.934 387.927 626.955 388.993C619.108 389.391 611.272 389.688 603.413 389.688C601.9 389.688 598.852 389.106 597.428 390.052C593.562 392.616 597.964 394.817 600.484 394.955C617.718 395.904 635.201 393.543 652.426 393.01C662.509 392.698 672.595 392.606 682.673 392.097C685.422 391.958 688.172 391.797 690.916 391.586C692.495 391.465 696.669 391.797 697.945 390.881C703.515 386.882 691.772 387.123 689.894 387.173Z" clip-rule="evenodd"/><path fill="#2F3676" fill-opacity=".7" fill-rule="evenodd" d="M593.562 397.356C593.364 402.755 593.344 408.059 594.056 413.429C594.336 415.542 594.465 417.939 596.962 418.476C599.23 418.963 600.379 417.262 600.849 415.376C601.996 410.77 600.987 404.141 600.973 399.357C600.967 396.991 600.965 394.343 598.018 393.808C595.769 393.4 593.648 395.012 593.562 397.356Z" clip-rule="evenodd"/><path fill="#2F3676" fill-opacity=".7" fill-rule="evenodd" d="M712.148 410.371C678.161 412.148 644.219 413.698 610.208 415.124C607.556 415.236 586.95 415.013 594.154 422.14C596.379 424.341 602.111 422.85 604.989 422.71C609.313 422.5 613.639 422.339 617.963 422.12C635.108 421.255 652.296 421.021 669.428 420.05C678.856 419.515 688.262 418.679 697.64 417.59C702.101 417.072 707.638 417.126 711.816 415.392C713.966 414.5 716.285 410.153 712.148 410.371Z" clip-rule="evenodd"/><path fill="#2F3676" fill-opacity=".7" fill-rule="evenodd" d="M692.606 382.983C690.021 385.536 691.35 390.573 691.545 393.729C691.813 398.072 692.139 402.417 692.685 406.736C693.041 409.541 692.853 413.907 694.362 416.331C696.129 419.169 700.02 418.855 701.617 416.113C703.031 413.688 702.316 408.586 702.279 405.899C702.228 402.184 701.995 398.462 701.773 394.754C701.587 391.654 702.295 386.687 700.576 384.034C698.829 381.339 695.028 380.594 692.606 382.983Z" clip-rule="evenodd"/><path fill="#2F3676" fill-opacity=".7" fill-rule="evenodd" d="M614.923 402.797C614.62 403.028 614.62 403.028 614.923 402.797V402.797ZM620.96 402.046C626.592 403.17 617.484 409.692 614.606 405.216C614.156 404.516 613.923 403.656 614.644 403.049C615.303 402.493 615.717 403.476 616.339 403.212C617.411 402.757 619.816 402.004 620.96 402.046ZM620.183 396.691C616.337 396.993 611.05 397.228 609.146 401.052C606.589 406.187 610.962 411.217 616.022 411.998C620.89 412.75 628.16 410.076 628.549 404.444C628.863 399.903 624.509 396.343 620.183 396.691Z" clip-rule="evenodd"/><path fill="#2F3676" fill-opacity=".7" fill-rule="evenodd" d="M652.288 399.407C648.307 399.471 640.482 398.303 637.014 400.228C633.582 402.132 635.112 405.523 638.243 406.334C640.313 406.87 643.695 406.005 645.85 405.918C648.684 405.804 651.52 405.779 654.356 405.74C659.126 405.677 663.893 405.731 668.663 405.731C673.535 405.731 678.49 405.863 683.353 405.507C689.506 405.058 689.341 400.488 683.323 399.917C673.1 398.946 662.544 399.247 652.288 399.407Z" clip-rule="evenodd"/><path fill="#2F3676" fill-opacity=".7" fill-rule="evenodd" d="M642.119 450.59C642.119 452.761 644.062 450.59 644.048 450.59C644.062 450.59 642.119 448.418 642.119 450.59Z" clip-rule="evenodd"/><path fill="#2F3676" fill-opacity=".7" fill-rule="evenodd" d="M598.183 433.111C598.308 439.423 598.39 445.74 598.662 452.046C598.748 454.04 598.172 457.934 600.609 458.951C603.322 460.083 604.165 457.262 604.478 455.351C605.467 449.295 604.497 442.382 604.402 436.255C604.37 434.198 604.819 431.334 602.463 430.308C600.541 429.471 598.144 431.025 598.183 433.111Z" clip-rule="evenodd"/><path fill="#2F3676" fill-opacity=".7" fill-rule="evenodd" d="M702.826 433.21C702.986 433.586 702.986 433.586 702.826 433.21V433.21ZM703.053 433.146C703.183 433.2 703.71 433.42 703.053 433.146V433.146ZM651.648 428.045C641.879 428.197 632.104 428.312 622.342 428.727C618.175 428.904 613.961 429.047 609.809 429.437C606.868 429.713 599.562 429.827 597.655 432.211C593.719 437.131 602.066 435.789 603.864 435.39C607.135 434.662 610.475 434.429 613.818 434.254C621.071 433.875 628.327 433.672 635.589 433.527C655.281 433.134 674.989 433.194 694.685 433.106C696.592 433.097 700.039 432.337 701.8 433.102C703.564 433.869 703.465 435.754 703.648 437.943C703.892 440.855 701.955 446.405 703.431 448.855C705.72 452.655 709.049 449.429 709.558 446.658C710.261 442.83 709.147 438.234 708.056 434.575C706.517 429.412 704.38 429.207 699.345 428.803C693.463 428.332 687.602 428.046 681.7 427.992C671.685 427.901 661.663 427.891 651.648 428.045Z" clip-rule="evenodd"/><path fill="#2F3676" fill-opacity=".7" fill-rule="evenodd" d="M690.285 454.134C669.097 456.574 647.306 455.136 626.005 455.223C620.825 455.244 615.641 455.285 610.466 455.534C607.733 455.665 601.254 454.918 599.381 457.009C595.434 461.418 602.544 462.059 605.14 461.876C610.388 461.506 615.649 461.337 620.911 461.297C639.444 461.155 658.082 462.013 676.6 461.106C684.358 460.726 691.943 459.41 699.558 457.939C701.245 457.613 712.793 455.436 706.208 452.826C702.316 451.283 694.373 453.661 690.285 454.134Z" clip-rule="evenodd"/><path fill="#2F3676" fill-opacity=".7" fill-rule="evenodd" d="M628.422 446.064C628.274 446.252 628.274 446.252 628.422 446.064V446.064ZM628.28 446.031C628.229 446.166 628.074 446.5 628.28 446.031V446.031ZM626.943 444.322C626.974 444.361 627.1 444.521 626.943 444.322V444.322ZM626.892 444.309C627.402 444.913 627.746 445.586 627.922 446.33C623.532 447.509 621.841 443.987 626.892 444.309ZM626.614 444.143C626.616 444.144 627.233 444.402 626.614 444.143V444.143ZM619.403 438.896C616.562 442.405 614.216 446.495 617.758 450.503C620.926 454.087 627.298 454.549 631.317 452.157C635.458 449.691 635.1 444.501 632.212 441.114C630.352 438.932 628.845 438.993 626.146 438.637C624.309 438.394 620.962 436.978 619.403 438.896Z" clip-rule="evenodd"/><path fill="#2F3676" fill-opacity=".7" fill-rule="evenodd" d="M648.772 445.391C648.772 450.064 669.115 448.052 672.734 448.047C675.766 448.043 694.096 449.702 692.781 444.893C691.7 440.942 673.644 442.906 669.798 442.9C666.475 442.895 648.772 440.632 648.772 445.391Z" clip-rule="evenodd"/></g><g opacity=".5"><path fill="#2F3676" fill-opacity=".7" fill-rule="evenodd" d="M383.194 489.172C393.382 490.639 403.979 495.391 403.89 507.153C403.816 517.042 395.453 527.567 384.715 526.976C375.051 526.445 365.952 515.964 364.742 506.982C364.115 502.328 365.288 497.317 368.048 493.489C371.664 488.473 377.403 488.481 383.194 489.172ZM378.381 482.779C371.013 482.819 365.622 485.463 361.061 491.043C359.426 493.044 357.523 495.197 356.278 497.464C355.116 499.581 355.319 504.965 359.31 502.442C358.327 512.865 364.469 522.982 373.299 528.322C382.896 534.129 393.744 532.997 401.732 524.859C409.044 517.409 411.617 504.827 406.268 495.614C400.922 486.406 388.534 482.68 378.381 482.779Z" clip-rule="evenodd"/><path fill="#2F3676" fill-opacity=".7" fill-rule="evenodd" d="M400.477 479.985C395.759 483.415 391.452 487.93 387.874 492.511C384.377 496.988 382.065 502.578 377.864 506.482C375.743 504.19 373.257 498 369.025 500.456C365.514 502.493 367.775 505.998 369.485 508.299C373.902 514.24 378.806 516.631 384.471 510.761C389.615 505.43 392.536 498.318 397.346 492.681C399.456 490.207 402.715 487.752 404.396 485.021C405.919 482.545 404.035 477.392 400.477 479.985Z" clip-rule="evenodd"/></g><g opacity=".5"><path fill="#2F3676" fill-opacity=".7" fill-rule="evenodd" d="M578.761 108.092C578.768 108.56 578.774 109 578.784 109.404C579.004 118.232 578.877 127.512 578.154 136.318C577.904 139.359 575.674 143.213 573.13 139.022C572.011 137.179 572.168 133.394 572.283 130.61C572.314 129.863 572.342 129.189 572.341 128.643C572.339 125.536 572.504 122.398 572.669 119.251C572.991 113.099 573.315 106.915 572.398 100.873C572.379 100.751 572.361 100.633 572.344 100.52C571.946 97.8633 571.918 97.6797 568.972 97.7401C567.744 97.7654 566.516 97.7983 565.288 97.8313C564.08 97.8636 562.872 97.896 561.664 97.9212C560.465 97.9461 559.265 97.969 558.066 97.9919C554.304 98.0637 550.542 98.1354 546.782 98.272C546.154 98.2949 544.983 98.4406 543.506 98.6244C540.552 98.9919 536.372 99.5119 532.854 99.5089C532.855 99.5239 532.856 99.5389 532.857 99.554C532.859 99.5809 532.861 99.6079 532.862 99.6354C532.902 101.561 532.401 103.712 531.899 105.872C531.478 107.681 531.056 109.496 530.947 111.194C530.689 115.232 530.686 119.313 530.684 123.394C530.68 128.364 530.677 133.333 530.213 138.226C530.19 138.464 530.176 138.716 530.163 138.971C530.161 139.005 530.159 139.039 530.157 139.073C530.316 139.049 530.471 139.032 530.62 139.023C533.155 138.863 535.712 138.849 538.264 138.835C539.672 138.827 541.079 138.819 542.48 138.787C544.996 138.729 547.543 138.732 550.1 138.735C555.746 138.741 561.441 138.747 566.963 138.102C568.593 137.892 569.164 139.967 568.432 141.043C567.777 142.005 565.974 142.161 564.653 142.276C564.318 142.305 564.013 142.331 563.767 142.367C560.205 142.89 556.597 143.073 553.003 143.231C549.229 143.397 545.452 143.52 541.675 143.625C540.777 143.649 539.577 143.77 538.247 143.903C534.736 144.255 530.315 144.698 528.12 143.713C525.762 142.655 525.817 141.48 526.779 140.57C526.357 139.649 526.291 138.304 526.239 137.252C526.219 136.85 526.201 136.491 526.167 136.215C525.643 132.025 525.328 127.889 525.32 123.664C525.305 115.387 525.322 106.79 527.631 98.7788C526.706 98.3773 526.148 97.7854 526.151 96.9322C526.161 92.6339 539.65 92.8526 546.061 92.9565C547.208 92.9751 548.128 92.99 548.704 92.9748C553.375 92.8538 558.047 92.838 562.718 92.8631C563.706 92.8683 564.804 92.8043 565.942 92.7379C568.364 92.5968 570.964 92.4452 573.055 92.9271C578.549 94.192 578.681 102.87 578.761 108.092Z" clip-rule="evenodd"/><path fill="#2F3676" fill-opacity=".7" fill-rule="evenodd" d="M613.12 93.869C618.22 93.6013 623.324 93.5398 628.431 93.5211C633.838 93.4941 639.253 93.5905 644.658 93.7553L644.783 93.7591C647.178 93.8304 660.489 94.227 654.373 97.5169C654.017 97.7088 653.615 97.8692 653.177 98.0023C653.436 99.5257 653.467 101.099 653.426 101.856C653.268 104.73 653.164 107.606 653.06 110.482L653.06 110.483L653.06 110.484C652.989 112.433 652.918 114.382 652.831 116.33C652.591 121.714 652.361 127.097 652.174 132.483C652.151 133.144 652.187 134.009 652.226 134.973L652.226 134.973C652.356 138.159 652.53 142.429 650.786 144.007C649.255 145.393 648.208 145.115 647.503 144.174C643.122 145.436 634.124 145.026 629.599 144.819C628.509 144.77 627.678 144.732 627.235 144.732C626.442 144.732 624.968 144.83 623.107 144.954C615.359 145.471 600.896 146.434 600.867 142.646C600.864 142.281 600.983 141.955 601.208 141.662C600.594 141.041 600.042 140.129 599.687 138.99C598.414 134.905 598.294 130.496 598.199 126.259C598.066 120.276 598.065 114.286 598.063 108.298C598.062 105.223 598.062 102.148 598.043 99.0739C597.215 97.9707 597.707 96.709 598.74 95.8287C600.94 93.9558 606.401 93.9332 610.352 93.9168C611.415 93.9124 612.369 93.9084 613.12 93.869ZM604.821 140C609.737 138.959 618.02 139.294 622.458 139.474C623.62 139.521 624.519 139.557 625.024 139.555C629.556 139.538 634.091 139.6 638.62 139.78C639.089 139.798 639.784 139.781 640.602 139.76C642.247 139.719 644.391 139.666 646.211 139.866C646.187 139.621 646.17 139.397 646.161 139.204C645.957 135.206 646.104 131.173 646.25 127.162V127.162C646.282 126.309 646.313 125.458 646.34 124.608C646.438 121.609 646.567 118.612 646.696 115.615L646.696 115.614C646.777 113.727 646.858 111.84 646.932 109.952C646.964 109.124 646.916 107.999 646.862 106.734C646.752 104.159 646.618 101.002 647.083 98.5771C645.406 98.5455 643.688 98.4276 642.112 98.3195C640.593 98.2153 639.206 98.1202 638.117 98.1201C636.734 98.12 635.352 98.1158 633.97 98.1115C630.14 98.0999 626.312 98.0882 622.481 98.1634C622.118 98.1705 621.755 98.1775 621.391 98.1845C616.118 98.2853 610.8 98.3871 605.571 99.0761C605.265 99.1165 604.896 99.1945 604.489 99.289C605.062 101.665 604.781 105.015 604.535 107.948C604.416 109.373 604.305 110.699 604.304 111.769C604.296 118.419 604.473 125.042 604.65 131.659C604.717 134.163 604.784 136.665 604.84 139.167C604.847 139.466 604.84 139.743 604.821 140Z" clip-rule="evenodd"/><path fill="#C1DEE2" fill-opacity=".55" fill-rule="evenodd" d="M548.868 143.432C545.517 145.374 547.324 153.143 548.485 155.83C550.394 160.247 554.268 163.704 558.447 165.998C566.895 170.633 579.072 169.402 585.461 177.437C585.527 177.521 587.735 179.689 588.238 176.881C588.651 174.576 584.528 171.057 582.931 169.901C578.388 166.617 572.561 165.557 567.306 163.916C561.702 162.166 555.552 158.94 553.203 153.21C552.371 151.18 553.957 140.469 548.868 143.432Z" clip-rule="evenodd"/><path fill="#C1DEE2" fill-opacity=".55" fill-rule="evenodd" d="M625.493 147.167C622.422 148.007 624.453 152.199 624.448 154.298C624.442 156.916 623.598 159.657 621.971 161.747C617.845 167.046 609.765 167.84 603.708 169.36C599.309 170.464 588.786 172.831 588.374 178.731C587.914 185.32 597.204 177.302 597.989 176.973C606.673 173.814 617.907 173.203 624.61 166.249C627.376 163.379 629.012 159.547 629.271 155.593C629.418 153.366 629.443 146.097 625.493 147.167Z" clip-rule="evenodd"/><path fill="#2F3676" fill-opacity=".7" fill-rule="evenodd" d="M562.026 205.609C561.955 193.418 573.717 186.044 584.353 183.27C597.138 179.93 609.046 188.815 610.553 201.595C612.144 215.083 601.894 225.942 588.378 226.537C576.488 227.061 562.102 218.617 562.026 205.609ZM590.584 189.132C591.276 190.064 591.899 191.552 590.506 192.362C589.166 193.137 588.497 192.206 587.823 191.269C587.398 190.676 586.97 190.082 586.371 189.914C584.817 189.48 582.319 191.101 581.025 192.047C580.499 192.43 579.751 193.256 578.877 194.222C576.095 197.296 572.032 201.783 569.787 197.922C560.831 213.26 583.158 224.738 595.854 218.934C609.797 212.559 607.083 189.253 590.584 189.132Z" clip-rule="evenodd"/><path fill="#2F3676" fill-opacity=".7" fill-rule="evenodd" d="M578.882 201.528C578.882 204.326 583.337 204.326 583.337 201.528C583.337 198.762 578.882 198.643 578.882 201.528Z" clip-rule="evenodd"/><path fill="#2F3676" fill-opacity=".7" fill-rule="evenodd" d="M586.721 201.003C586.721 204.43 592.181 204.43 592.181 201.003C592.181 197.614 586.721 197.469 586.721 201.003Z" clip-rule="evenodd"/><path fill="#2F3676" fill-opacity=".7" fill-rule="evenodd" d="M581.112 208.99C576.647 211.594 589.415 216.77 589.919 211.481C590.137 209.199 587.909 209.815 586.424 209.647C585.002 209.486 582.46 208.211 581.112 208.99Z" clip-rule="evenodd"/><path fill="#C1DEE2" fill-opacity=".55" fill-rule="evenodd" d="M579.175 227.47C579.369 234.123 579.276 240.772 580.548 247.333C580.79 248.579 580.958 253.099 581.951 254.024C584.393 256.301 584.433 251.937 584.528 250.264C584.867 244.274 584.233 238.097 584.093 232.094C584.063 230.802 584.408 228.126 583.793 226.875C582.817 224.89 579.08 224.301 579.175 227.47Z" clip-rule="evenodd"/><path fill="#C1DEE2" fill-opacity=".55" fill-rule="evenodd" d="M574.4 222.075C564.611 232.972 551.132 232.169 537.553 233.123C530.378 233.628 523.123 234.663 517.35 239.266C514.665 241.407 512.35 244.089 510.794 247.146C510.114 248.482 506.888 256.192 511.733 254.363C513.451 253.714 515.142 248.615 516.253 247.107C518.37 244.235 521.078 241.864 524.327 240.322C530.593 237.349 538.076 237.399 544.87 237.022C551.973 236.628 559.597 236.259 566.126 233.196C569.197 231.755 572.078 229.958 574.55 227.642C575.433 226.814 577.327 225.407 577.468 224.141C577.63 222.694 576.227 220.045 574.4 222.075Z" clip-rule="evenodd"/><path fill="#2F3676" fill-opacity=".7" fill-rule="evenodd" d="M524.985 255.52C515.791 255.825 506.608 256.194 497.426 256.77C495.544 256.888 489.271 256.511 490.869 260.335C492.149 263.401 499.8 261.373 502.331 261.225C511.899 260.661 521.506 260.465 531.053 259.612C533.198 259.42 542.893 259.497 538.89 255.727C536.985 253.932 527.617 255.431 524.985 255.52Z" clip-rule="evenodd"/><path fill="#2F3676" fill-opacity=".7" fill-rule="evenodd" d="M485.03 259.919C482.132 263.694 483.464 272.87 483.683 277.408C483.895 281.806 483.034 289.848 488.822 290.53C486.984 290.291 490.217 290.641 490.743 290.669C491.918 290.731 493.099 290.751 494.276 290.764C496.994 290.794 499.715 290.758 502.433 290.704C508.59 290.582 514.763 290.404 520.913 290.067C523.498 289.924 537.52 290.043 538.076 287.38C538.785 283.976 525.34 285.902 522.933 286.01C517.071 286.277 511.201 286.333 505.334 286.409C502.426 286.447 499.515 286.476 496.608 286.419C495.407 286.396 490.652 286.885 489.922 286.09C489.3 285.414 489.786 279.196 489.772 278.245C489.729 275.144 489.733 272.036 489.844 268.936C489.919 266.85 491.057 262.88 490.13 260.919C489.228 259.014 486.601 258.363 485.03 259.919Z" clip-rule="evenodd"/><path fill="#2F3676" fill-opacity=".7" fill-rule="evenodd" d="M532.375 260.095C532.543 267.001 532.595 274.048 534.24 280.802C534.787 283.05 535.554 287.686 537.831 288.849C540.221 290.071 542.284 288.327 542.44 285.979C542.637 283.026 541.043 279.15 540.716 276.121C540.334 272.586 540.112 269.048 539.981 265.496C539.883 262.825 540.701 258.82 538.134 257.097C535.827 255.55 532.3 257.108 532.375 260.095Z" clip-rule="evenodd"/><path fill="#2F3676" fill-opacity=".7" fill-rule="evenodd" d="M550.673 258.409C547.814 261.234 549.092 270.179 549.449 273.809C549.711 276.468 552.645 289.548 557.042 282.727C558.986 279.71 556.516 271.732 556.533 268.214C556.544 265.974 557.344 263.141 556.958 260.988C556.448 258.143 553.267 255.839 550.673 258.409Z" clip-rule="evenodd"/><path fill="#2F3676" fill-opacity=".7" fill-rule="evenodd" d="M570.473 256.077C579.063 255.198 587.662 254.538 596.299 254.457C596.714 254.454 597.149 254.448 597.602 254.442C603.522 254.368 612.417 254.256 616.401 258.665C618.571 261.066 619.554 264.779 620.411 268.016C620.571 268.619 620.727 269.206 620.885 269.765C621.02 270.243 621.195 270.788 621.385 271.376C622.279 274.155 623.49 277.914 622.262 280.242C621.589 281.518 620.506 282.607 618.861 282.154C618.476 282.049 618.175 281.914 617.939 281.754C618.57 282.43 618.849 283.394 618.439 284.337C617.648 286.159 615.15 286.197 613.18 286.228C612.703 286.235 612.257 286.242 611.874 286.274C605.316 286.816 598.728 287.178 592.147 287.235C589.014 287.262 585.88 287.237 582.746 287.211C579.521 287.185 576.295 287.159 573.07 287.19C570.729 287.213 568.345 287.434 565.96 287.655C562.948 287.933 559.936 288.212 557.007 288.093C554.816 288.004 552.477 287.292 553.032 284.484C553.485 282.192 555.661 281.991 557.611 281.812C557.78 281.796 557.948 281.781 558.113 281.764C564.321 281.137 570.533 280.916 576.773 280.938C589.881 280.983 602.979 280.916 616.087 280.848C616.626 280.892 617.134 281.096 617.552 281.407C617.079 280.839 617.088 280.083 617.098 279.277C617.103 278.912 617.107 278.538 617.067 278.166C616.987 277.419 616.914 276.675 616.84 275.932C616.598 273.478 616.358 271.041 615.886 268.573C615.814 268.2 615.746 267.79 615.673 267.356C615.244 264.793 614.675 261.397 612.621 260.013C610.554 258.621 606.503 258.688 603.346 258.74C602.494 258.754 601.706 258.767 601.041 258.75C592.616 258.535 584.142 259.128 575.755 259.884C575.111 259.942 574.466 259.998 573.82 260.054C570.629 260.33 567.422 260.607 564.277 261.173C563.701 261.277 562.822 261.581 561.814 261.93C559.131 262.858 555.533 264.103 554.311 262.732C550.261 258.189 568.057 256.324 570.473 256.077Z" clip-rule="evenodd"/><path fill="#C1DEE2" fill-opacity=".55" fill-rule="evenodd" d="M661.855 245.734C662.228 246.211 662.228 246.211 661.855 245.734V245.734ZM603.729 217.59C598.513 220.631 608.168 229.555 610.627 230.935C616.162 234.041 623.768 234.509 629.948 235.383C637.769 236.489 646.282 236.896 653.798 239.438C657.001 240.522 659.036 242.212 661.134 244.81C662.196 246.126 664.755 251.799 667.085 250.456C671.776 247.751 659.135 236.401 656.349 235.181C650.017 232.406 642.532 231.629 635.762 230.552C629.466 229.55 623.035 228.805 616.895 227.039C613.519 226.067 611.119 224.501 609.173 221.502C607.96 219.634 606.965 215.713 603.729 217.59Z" clip-rule="evenodd"/><path fill="#2F3676" fill-opacity=".7" fill-rule="evenodd" d="M683.701 252.45C677.687 252.583 671.684 253.042 665.682 253.5C662.315 253.758 658.948 254.015 655.58 254.215C654.527 254.277 653.473 254.334 652.418 254.39L652.418 254.39L652.418 254.39C649.45 254.548 646.479 254.707 643.527 255.003C643.078 255.048 642.559 255.09 641.992 255.136C639.484 255.341 636.065 255.619 633.88 256.527C631.877 255.024 628.785 256.302 628.737 258.98C628.654 263.859 628.7 268.652 629.3 273.501C629.439 274.627 630.156 280.326 631.716 283.293C631.161 286.094 633.569 286.88 635.811 287.094C644.491 287.925 653.594 287.28 662.573 286.644C667.141 286.32 671.676 285.999 676.108 285.875C677.582 285.834 679.074 285.817 680.576 285.8C685.476 285.746 690.47 285.69 695.214 284.771C695.405 284.734 695.609 284.698 695.823 284.66C697.699 284.326 700.286 283.866 700.482 281.819C700.601 280.591 699.902 279.466 698.732 279.308C698.812 278.284 698.683 277.167 698.587 276.346C698.565 276.155 698.545 275.98 698.529 275.826C698.245 272.978 697.53 270.15 696.824 267.357L696.824 267.357L696.824 267.357C696.665 266.729 696.507 266.104 696.354 265.48C696.185 264.789 696.028 263.967 695.859 263.081C695.263 259.953 694.513 256.023 692.52 254.198C690.43 252.284 687.027 252.369 684.3 252.436C684.097 252.441 683.897 252.446 683.701 252.45ZM694.284 279.613C693.572 277.762 693.363 275.258 693.165 272.879V272.879C693.04 271.384 692.92 269.939 692.681 268.735C692.502 267.832 692.355 266.879 692.206 265.91C691.843 263.558 691.467 261.114 690.577 259.053C689.385 256.293 688.324 256.398 685.814 256.648C685.347 256.694 684.83 256.746 684.253 256.785C681.694 256.957 679.139 257.176 676.583 257.396C675.357 257.501 674.131 257.606 672.905 257.706C667.658 258.134 662.408 258.463 657.157 258.792L657.157 258.792C654.09 258.984 651.022 259.176 647.954 259.388C645.547 259.554 643.197 260.008 640.857 260.46C639.004 260.818 637.156 261.175 635.291 261.387C635.264 262.019 635.211 262.654 635.16 263.259L635.16 263.259C635.09 264.082 635.026 264.85 635.039 265.478C635.1 268.265 635.349 271.035 635.597 273.808C635.635 274.235 635.673 274.662 635.711 275.089C635.756 275.6 635.867 276.257 635.99 276.986C636.18 278.114 636.399 279.412 636.448 280.609C636.675 280.607 636.901 280.608 637.123 280.609C637.411 280.61 637.692 280.611 637.963 280.606C644.574 280.492 651.181 280.293 657.787 280.041C658.631 280.009 659.474 279.976 660.317 279.944C666.212 279.716 672.107 279.489 678.007 279.422C680.351 279.395 682.725 279.468 685.107 279.541C688.171 279.635 691.247 279.729 694.284 279.613Z" clip-rule="evenodd"/></g><path fill="#B28B67" fill-rule="evenodd" d="M357.454 239.203C350.311 243.519 343.294 245.604 340 244.753C331.739 242.618 330.98 212.322 337.371 200.379C343.763 188.435 376.619 183.23 378.276 206.893C378.85 215.107 375.411 222.436 370.328 228.417L379.441 271H352.971L357.454 239.203Z" clip-rule="evenodd"/><path fill="#191847" fill-rule="evenodd" d="M348.783 201.968C352.514 203.944 355.12 207.781 358.271 212.852C359.021 212.556 359.837 212.394 360.691 212.394C364.346 212.394 367.309 215.365 367.309 219.029C367.309 220.889 366.545 222.57 365.315 223.775C366.846 225.942 368.562 228.206 370.529 230.541C377.916 226.098 383.398 213.09 376.176 200.594C374.18 194.472 369.66 191.202 364.323 189.684C359.999 187.871 355.511 187.667 351.722 188.754C344.295 189.392 337.663 191.663 335.783 193.011C335.783 200.061 337.146 202.152 348.783 201.968Z" clip-rule="evenodd"/><path fill="#B5BABE" fill-rule="evenodd" d="M404.343 551.068C367.703 551.068 338 520.832 338 483.534C338 446.236 367.703 416 404.343 416C440.983 416 470.685 446.236 470.685 483.534C470.685 520.832 440.983 551.068 404.343 551.068Z" clip-rule="evenodd"/><path fill="#B28B67" fill-rule="evenodd" d="M304.951 355.492L277.711 390.659C269.078 395.859 262.161 401.234 256.96 406.783C255.865 408.556 254.856 411.801 260.87 409.567C266.885 407.333 273.311 405.254 274.761 407.104C276.21 408.955 273.207 412.525 275.733 414.858C277.417 416.414 281.464 410.144 287.874 396.049L317.977 372.123L304.951 355.492Z" clip-rule="evenodd"/><path fill="#191847" fill-rule="evenodd" d="M365.772 251.923L355.907 251.627C345.134 295.316 321.458 336.965 284.881 376.573L321.433 410.057C355.992 356.123 374.485 302.889 365.772 251.923Z" clip-rule="evenodd"/><path fill="#DDE3E9" fill-rule="evenodd" d="M397.5 378.923L338.968 378.923C338.968 378.923 358.61 302.379 351.502 251.806L376.837 244.321C401.762 274.111 385.905 325.557 397.5 378.923Z" clip-rule="evenodd"/><path fill="#000" fill-opacity=".1" fill-rule="evenodd" d="M425.85 390.527C423.524 370.725 419.165 352.437 413.881 336.076C415.148 356.194 415.315 380.592 410.207 392.725L425.85 390.527Z" clip-rule="evenodd"/><path fill="#fff" fill-opacity=".2" fill-rule="evenodd" d="M408.581 357.799L379.044 348.829L380.853 361.696L408.581 357.799Z" clip-rule="evenodd"/><path fill="#B28B67" fill-rule="evenodd" d="M445.637 340.139C445.637 340.139 465.811 403.013 470.004 409.166C472.055 412.173 485.247 420.333 494.232 424.791C497.839 426.581 496.882 429.654 495.747 430.594C486.515 438.24 478.825 431.814 469.506 428.981C459.296 425.876 461.872 438.331 453.797 436.005C455.396 430.458 459.486 419.979 456.012 413.964C453.696 409.954 422.369 343.502 422.369 343.502L445.637 340.139Z" clip-rule="evenodd"/><path fill="#B28B67" fill-rule="evenodd" d="M204.875 539.634C225.379 515.446 239.253 497.514 246.496 485.837C258.898 465.845 269.049 448.056 272.252 441.26C279.891 425.055 254.667 417.468 248.958 425.026C240.318 436.466 221.865 472.464 193.6 533.021L204.875 539.634Z" clip-rule="evenodd"/><path fill="#69A1AC" fill-rule="evenodd" d="M246.892 532.602L285.052 439.806C293.214 422.89 253.8 411.77 247.801 419.643C234.184 437.516 201.817 508.021 197.76 513.346L246.892 532.602Z" clip-rule="evenodd"/><path fill="#B28B67" fill-rule="evenodd" d="M348.526 513.992C341.092 503.517 314.054 468.276 299.327 453.695C295.096 449.505 290.966 445.483 287.061 441.735C275.452 430.596 252.335 449.319 263.923 459.465C292.779 484.733 334.883 518.844 338.401 521.886C343.331 526.148 353.197 520.575 348.526 513.992Z" clip-rule="evenodd"/><path fill="#E4E4E4" fill-rule="evenodd" d="M343.763 509.609C344.455 508.694 345.797 508.485 346.707 509.223C348.408 510.603 350.893 512.759 351.785 514.25C353.191 516.603 355.078 521.571 355.078 521.571C352.252 523.147 304.279 549.904 304.279 549.904C304.279 549.904 298.519 544.685 302.484 541.801C306.449 538.917 309.028 536.937 309.028 536.937L326.587 513.566C326.918 513.125 327.561 513.039 328.014 513.376L331.681 516.104C331.681 516.104 336.694 515.681 339.164 514.304C340.689 513.453 342.558 511.204 343.763 509.609Z" clip-rule="evenodd"/><path fill="#E4E4E4" fill-rule="evenodd" d="M210.931 534.846C211.988 534.393 213.234 534.859 213.639 535.935C214.399 537.952 215.44 541.029 215.44 542.754C215.44 545.472 214.503 550.686 214.503 550.686C211.239 550.686 155.845 550.686 155.845 550.686C155.845 550.686 153.558 543.383 158.485 542.801C163.411 542.219 166.669 541.75 166.669 541.75L193.989 529.984C194.497 529.765 195.087 530.001 195.304 530.51L197.07 534.65C197.07 534.65 201.631 536.705 204.482 536.705C206.255 536.705 209.061 535.647 210.931 534.846Z" clip-rule="evenodd"/><path fill="#89C5CC" fill-rule="evenodd" d="M298.783 444.441C298.783 444.441 346.359 436.953 362.516 434.201C393.22 428.971 402.174 413.01 396.88 378.184L340.308 378.184C329.079 381.317 246.466 416.934 246.466 416.934C236.557 421.686 238.402 435.697 240.213 440.314C240.324 440.596 290.328 523.271 290.328 523.271L336.606 494.791L298.697 447.797C298.697 447.797 297.195 444.875 298.783 444.441Z" clip-rule="evenodd"/><path fill="#2F3676" fill-rule="evenodd" d="M468.899 398.085C444.67 293.753 377.406 244.241 377.406 244.241L377.388 244.262C377.384 244.257 377.379 244.251 377.375 244.245L375.686 244.483C372.669 245.013 366.503 246.156 366.503 246.156L362.758 264.872C366.35 297.632 369.648 397.979 369.648 397.979L425.798 390.087C426.339 394.633 426.774 399.26 427.088 403.961L468.899 398.085Z" clip-rule="evenodd"/></svg>