<svg width="885" height="687" viewBox="0 0 885 687" fill="none" xmlns="http://www.w3.org/2000/svg">
<g clip-path="url(#clip0)">
<path fill-rule="evenodd" clip-rule="evenodd" d="M769.225 186.334C768.692 185.946 767.426 185.809 766.838 185.692C764.39 185.21 761.869 185 759.374 185C751.681 185.012 743.863 185.767 736.298 187.074C731.494 187.903 725.687 190.696 720.909 189.179C712.585 186.537 704.172 186.667 696.274 190.439C689.053 193.888 683.572 200.439 680.373 207.517C679.89 208.586 677.932 212.519 677.378 215.17C677.141 215.712 676.913 216.257 676.708 216.811C676.126 218.384 675.603 219.984 675.118 221.588C674.91 222.272 674.389 223.782 675.008 224.074C674.019 225.901 673.141 227.783 672.411 229.726C670.286 235.378 667.962 241.578 667.215 247.568C666.939 249.786 666.928 252.017 667.185 254.239C667.312 255.338 667.26 257.546 668.004 258.382C669.585 260.154 670.396 257.673 670.218 256.491C668.858 247.485 671.485 239.027 674.598 230.561C676.612 225.087 679.92 220.078 683.626 215.543C686.625 211.871 689.842 208.98 693.953 206.546C698.981 203.569 704.356 201.163 709.681 198.749C713.184 197.161 716.691 195.615 720.291 194.247C721.092 193.942 722.351 193.161 723.239 193.158C725.116 193.152 727.777 194.537 729.59 195.052C735.554 196.748 741.594 198.919 747.758 199.785C751.712 200.341 755.416 199.715 759.113 198.398C759.491 198.264 760.125 197.918 760.901 197.424C763.646 196.368 766.243 195.039 768.504 193.121C769.806 192.017 770.989 190.589 772.067 189.282C772.389 188.892 772.532 188.444 772.537 188.018C772.781 187.891 772.943 187.741 772.98 187.567C773.249 186.281 770.796 186.258 769.225 186.334Z" fill="#89C5CC"/>
<path fill-rule="evenodd" clip-rule="evenodd" d="M144.273 293.541C142.764 294.763 141.284 296.011 139.84 297.31C138.739 298.3 136.791 299.485 136.396 300.985C135.985 302.544 137.282 304.003 138.306 304.945C143.723 309.929 149.823 313.298 157.329 313.859C168.887 314.722 178.946 311.77 188.974 305.963C196.018 301.883 200.684 295.849 201.703 287.701C210.092 291.187 218.205 295.993 225.1 301.891C228.502 304.801 231.432 308.025 234.142 311.599C235.878 313.889 237.557 316.215 239.115 318.631C239.792 319.68 240.481 321.542 241.599 322.146C242.912 322.856 244.499 321.743 244.434 320.284C244.379 319.069 243.068 317.66 242.454 316.667C241.436 315.018 240.402 313.379 239.313 311.776C237.551 309.179 235.73 306.62 233.744 304.19C229.28 298.73 223.601 294.221 217.714 290.375C206.42 282.997 194.025 278.349 180.283 277.955C171.833 277.713 164.725 280.6 157.499 284.911C153 287.595 148.356 290.235 144.273 293.541Z" fill="#DDE3E9"/>
<path fill-rule="evenodd" clip-rule="evenodd" d="M253.883 257.856C245.077 248.787 236.241 239.832 226.403 231.847C220.605 227.141 214.495 222.863 208.511 218.401C209.201 219.006 209.878 219.628 210.539 220.266C208.671 218.998 206.226 218.281 204.246 217.107C202.037 215.798 199.925 214.301 197.854 212.791C193.811 209.845 189.829 206.843 185.673 204.051C181.043 200.94 176.245 198.066 171.536 195.072C167.539 192.532 163.494 189.751 159.218 187.674C156.888 186.542 154.553 185.201 152.213 184.02C151.43 183.625 143.484 178.608 143.504 178.593C143.943 178.262 147.942 180.14 148.56 180.393C150.366 181.131 152.094 182.013 153.83 182.893C152.877 181.013 152.123 179.038 151.712 176.958C151.585 176.317 150.569 171.644 151.089 171.252C151.348 171.057 153.883 179.416 154.013 180.22C154.119 180.872 154.103 181.812 154.317 182.431C154.662 183.429 154.645 183.127 155.405 183.69C156.798 184.721 158.647 185.365 160.154 186.227C160.968 186.68 163.485 188.48 165.001 188.993C169.588 191.221 174.238 194.649 178.597 197.495C177.453 195.345 176.582 193.097 175.948 190.741C175.797 190.182 174.167 185.165 174.563 184.867C175.008 184.532 178.112 192.195 178.296 192.92C178.637 194.268 178.708 195.768 179.136 197.079C179.605 198.518 181.07 199.028 182.39 199.867C187.247 202.953 191.938 206.232 196.55 209.662C201.583 200.711 195.78 189.903 190.89 182.393C187.364 176.98 182.619 172.34 177.608 168.289C170.92 162.882 163.269 158.563 155.627 154.612C146.723 150.009 137.099 147.156 127.093 145.839C121.86 145.149 116.507 145.169 111.221 145.39C108.639 145.498 106.16 145.84 103.686 146.682C102.57 147.062 101.492 147.541 100.442 148.077C99.644 148.484 97.7134 148.914 97.2545 149.521C93.4772 154.438 91.5448 159.337 91.8399 165.515C92.1189 171.363 93.9659 177.214 96.4725 182.431C99.264 188.24 102.854 193.512 107.55 197.936C111.132 201.312 115.137 204.25 119.116 207.15C133.267 217.463 151.208 226.433 169.536 224.128C175.469 223.383 181.112 221.308 186.385 218.489C187.628 217.824 188.863 217.152 190.036 216.368C190.827 215.839 192.941 213.456 193.736 213.37C194.827 213.251 197.175 215.469 198.198 216.144C205.972 221.275 213.542 226.685 220.953 232.313C228.839 238.301 236.337 244.697 243.615 251.393C246.71 254.242 249.786 257.096 252.791 260.04C253.491 260.725 255.202 263.247 256.471 263.361C257.273 263.434 257.814 262.749 257.7 262.006C257.501 260.715 254.785 258.784 253.883 257.856Z" fill="#C1DEE2"/>
<path fill-rule="evenodd" clip-rule="evenodd" d="M759.98 222.66C756.57 221.915 752.803 221.972 749.329 222.033C730.695 222.287 712.397 231.109 700.489 245.205C690.351 257.205 687.563 272.125 685.56 287.207C685.362 288.704 685.277 290.192 685.165 291.693C685.141 292.015 685.105 292.302 685.066 292.573C684.279 293.277 683.865 294.098 684.332 295C682.597 298.797 681.129 302.69 679.869 306.706C676.162 318.526 672.392 330.571 674.714 343C675.257 336.16 676.399 329.166 677.764 322.438C677.842 322.052 677.927 321.669 678.015 321.287C678.025 321.247 678.033 321.206 678.042 321.166C678.525 319.106 679.153 317.108 679.917 315.141C679.925 315.119 679.933 315.098 679.941 315.077C680.042 314.818 680.149 314.56 680.255 314.303C680.474 313.77 680.699 313.238 680.937 312.709C681.018 312.528 681.095 312.346 681.17 312.163C682.282 309.437 682.751 306.365 683.748 303.545C683.986 302.904 684.235 302.265 684.496 301.629C684.512 301.592 684.527 301.555 684.543 301.518C685.249 299.807 686.028 298.118 686.853 296.446C687.301 296.109 687.54 295.274 687.927 294.515C688.006 294.365 688.631 293.368 688.817 292.793C689.303 291.854 689.786 290.915 690.275 289.977C690.261 289.983 690.246 289.988 690.231 289.994C690.72 289.093 691.211 288.197 691.698 287.304C691.805 287.108 691.913 286.912 692.021 286.715C692.196 286.402 692.371 286.089 692.545 285.777C694.177 282.856 695.908 279.994 697.705 277.167C698.347 276.158 699.879 274.711 700.173 273.579C700.184 273.536 700.186 273.497 700.193 273.457C704.093 267.979 708.582 262.927 713.967 258.924C713.316 259.628 711.932 262.015 711.567 262.488C710.447 263.935 709.232 265.282 708.013 266.646C705.828 269.089 703.696 271.609 701.801 274.274C698.335 279.148 695.346 284.277 692.519 289.51C692.493 289.54 692.463 289.569 692.438 289.601C691.017 291.352 690.123 293.998 689.101 296.001C693.147 294.127 697.622 292.906 701.774 291.242C705.916 289.583 709.944 287.735 713.834 285.566C719.003 282.682 724.366 279.427 729.25 275.743C734.847 272.271 739.551 267.492 743.703 262.477C748.615 256.543 753.117 250.558 755.901 243.353C757.269 239.813 758.345 236.121 758.983 232.386C759.011 232.224 759.046 232.047 759.085 231.864C759.738 230.574 760.321 229.255 760.811 227.906C761.588 225.766 763.425 223.412 759.98 222.66Z" fill="#69A1AC"/>
<path fill-rule="evenodd" clip-rule="evenodd" d="M111.292 234.013C109.94 232.666 108.422 231.45 106.64 230.583C106.189 230.364 102.833 228.895 102.614 229.218C102.105 229.968 110.886 233.583 111.292 234.013ZM127.205 225.012C127.194 225.069 128.358 226.887 128.675 227.446C129.349 228.635 129.972 229.847 130.558 231.061C129.691 228.916 128.8 226.927 127.205 225.012ZM45.8182 239.814C44.6973 240.146 43.3496 238.836 44.8035 238.513C45.9799 238.254 45.9222 238.193 46.4505 237.321C46.8794 236.612 47.1437 235.748 47.5201 235.005C48.3184 233.427 49.2241 231.923 50.3357 230.514C52.7182 227.493 55.621 224.889 58.8767 222.696C64.5586 218.867 70.9293 215.369 77.6873 213.611C88.4325 210.816 100.662 210.643 111.424 212.581C118.089 213.781 124.181 215.867 128.606 220.809C130.819 223.278 132.555 226.172 133.314 229.358C133.512 230.19 133.475 231.116 133.723 231.932C134.104 233.185 133.936 232.851 135.528 233.095C137.267 233.361 139.004 233.633 140.74 233.91C145.287 234.634 149.861 235.403 154.291 236.578C155.75 236.965 157.176 237.437 158.569 237.987C159.623 238.401 163.818 239.704 164.328 240.965C165.177 243.062 162.333 242.111 161.45 241.655C160.676 241.254 159.881 240.881 159.075 240.538C157.045 239.673 154.93 239.004 152.767 238.471C150.43 237.895 148.045 237.466 145.669 237.035C143.454 236.634 141.23 236.269 139.003 235.921C137.766 235.727 136.528 235.539 135.29 235.35C134.867 235.286 134.122 234.949 134.178 235.455C131.575 234.993 128.76 235.06 126.109 234.932C122.862 234.777 119.602 234.649 116.344 234.742C113.994 234.81 111.642 234.952 109.304 235.242C107.938 235.412 106.594 235.661 105.253 235.976C104.517 236.149 101.614 236.515 101.213 237.106C101.385 236.852 104.589 237.099 104.997 237.084C106.628 237.028 108.247 236.879 109.872 236.712C112.888 236.402 115.906 236.24 118.931 236.263C118.92 236.752 116.853 237.623 116.348 237.947C115.217 238.674 114.134 239.467 113.123 240.337C111.343 241.869 109.211 243.766 107.979 245.581C108.342 245.046 110.133 244.35 110.768 243.942C111.786 243.287 112.783 242.588 113.727 241.841C114.598 241.152 115.411 240.407 116.21 239.646C117.009 238.885 118.094 237.303 119.144 236.796C119.208 236.765 119.666 237.098 119.926 236.985C120.188 236.871 120.514 236.3 120.581 236.277C121.559 235.93 123.415 236.362 124.443 236.406C127.109 236.519 129.772 236.667 132.435 236.802C133.26 236.843 133.962 236.671 134.273 237.231C134.605 237.829 133.997 239.4 133.824 240.051C133.181 242.469 132.041 244.638 130.245 246.511C126.883 250.02 122.736 252.359 118.052 253.924C100.111 259.918 81.0234 262.318 63.0874 256.083C55.662 253.502 44.4792 248.889 45.8182 239.814Z" fill="#89C5CC"/>
<g opacity="0.6" clip-path="url(#clip1)">
<path fill-rule="evenodd" clip-rule="evenodd" d="M866.965 522.189C879.165 598.272 583.277 647.899 328.6 613.266C73.9223 578.633 -42.9117 443.387 78.6162 371.322C200.144 299.258 854.764 446.106 866.965 522.189Z" fill="#DDE3E9"/>
</g>
<rect x="217" y="67" width="159" height="302" rx="8" fill="#F2F2F2"/>
<path fill-rule="evenodd" clip-rule="evenodd" d="M296 350C304.284 350 311 343.284 311 335C311 326.716 304.284 320 296 320C287.716 320 281 326.716 281 335C281 343.284 287.716 350 296 350Z" fill="white"/>
<path fill-rule="evenodd" clip-rule="evenodd" d="M283 87C284.105 87 285 86.1046 285 85C285 83.8954 284.105 83 283 83C281.895 83 281 83.8954 281 85C281 86.1046 281.895 87 283 87Z" fill="white"/>
<rect x="290" y="83" width="21" height="4" rx="2" fill="white"/>
<rect x="231" y="95" width="131" height="54" rx="4" fill="white"/>
<g clip-path="url(#clip2)">
<rect x="270" y="111.2" width="73" height="8.1" rx="3" fill="#DDE3E9"/>
<rect x="270" y="124.7" width="49" height="8.1" rx="3" fill="#DDE3E9"/>
</g>
<path fill-rule="evenodd" clip-rule="evenodd" d="M252 134C258.627 134 264 128.627 264 122C264 115.373 258.627 110 252 110C245.373 110 240 115.373 240 122C240 128.627 245.373 134 252 134Z" fill="#C5CFD6"/>
<rect x="231" y="157" width="131" height="42" rx="4" fill="white"/>
<g clip-path="url(#clip3)">
<rect x="270" y="169.6" width="73" height="6.3" rx="3" fill="#DDE3E9"/>
<rect x="270" y="180.1" width="49" height="6.3" rx="3" fill="#DDE3E9"/>
</g>
<path fill-rule="evenodd" clip-rule="evenodd" d="M252 190C258.627 190 264 184.627 264 178C264 171.373 258.627 166 252 166C245.373 166 240 171.373 240 178C240 184.627 245.373 190 252 190Z" fill="#C5CFD6"/>
<rect x="231" y="207" width="131" height="42" rx="4" fill="white"/>
<g clip-path="url(#clip4)">
<rect x="270" y="219.6" width="73" height="6.3" rx="3" fill="#DDE3E9"/>
<rect x="270" y="230.1" width="49" height="6.3" rx="3" fill="#DDE3E9"/>
</g>
<path fill-rule="evenodd" clip-rule="evenodd" d="M252 240C258.627 240 264 234.627 264 228C264 221.373 258.627 216 252 216C245.373 216 240 221.373 240 228C240 234.627 245.373 240 252 240Z" fill="#AFB9C5"/>
<rect x="231" y="257" width="131" height="42" rx="4" fill="white"/>
<g clip-path="url(#clip5)">
<rect x="270" y="269.6" width="73" height="6.3" rx="3" fill="#DDE3E9"/>
<rect x="270" y="280.1" width="49" height="6.3" rx="3" fill="#DDE3E9"/>
</g>
<path fill-rule="evenodd" clip-rule="evenodd" d="M252 290C258.627 290 264 284.627 264 278C264 271.373 258.627 266 252 266C245.373 266 240 271.373 240 278C240 284.627 245.373 290 252 290Z" fill="#C5CFD6"/>
<path fill-rule="evenodd" clip-rule="evenodd" d="M247.14 311C245.815 311 244.494 311.027 243.171 311.095C242.162 311.148 240.621 310.939 239.768 311.568C238.881 312.221 238.942 313.557 239.081 314.501C239.813 319.493 241.6 323.919 245.339 327.456C251.096 332.901 257.695 335.668 265.504 336.9C270.99 337.766 276.054 336.564 280.092 332.663C283.043 338.139 285.281 344.199 286.404 350.315C286.958 353.333 287.127 356.315 287.03 359.388C286.967 361.356 286.859 363.32 286.648 365.279C286.556 366.13 286.122 367.418 286.455 368.223C286.846 369.167 288.165 369.259 288.757 368.453C289.25 367.783 289.16 366.466 289.261 365.673C289.429 364.355 289.584 363.036 289.695 361.712C289.876 359.569 290.009 357.42 290 355.268C289.977 350.435 288.902 345.583 287.432 340.995C284.612 332.192 280.037 324.369 272.921 318.231C268.545 314.457 263.537 312.929 257.856 312.108C254.318 311.597 250.723 311 247.14 311Z" fill="#89C5CC"/>
<path fill-rule="evenodd" clip-rule="evenodd" d="M267.571 346C253.272 346 243.642 357.524 239.089 369.502C237.372 374.016 236.97 378.974 236.308 383.714C236.096 385.236 236.175 387.554 235.557 388.909C235.333 389.401 234.819 389.577 235.065 390.247C235.214 390.652 235.505 390.901 235.944 390.981C236.843 391.147 238.115 390.167 238.886 389.781C245.282 386.573 249.484 381.613 252.912 375.545C255.038 371.784 257.194 367.879 258.456 363.75C259.227 361.227 259.676 358.571 259.94 355.954C260.044 354.923 260.144 353.868 260.138 352.832C260.132 351.803 259.653 351.259 259.309 350.364C264.08 348.558 269.466 348.066 274.299 349.937C278.769 351.668 282.482 355.013 284.561 359.216C285.101 360.308 285.518 361.46 285.821 362.636C286.02 363.406 286.029 364.404 286.398 365.1C287.29 366.788 289.168 365.66 288.988 364.089C288.485 359.708 285.979 355.309 282.775 352.263C278.734 348.421 273.258 346 267.571 346Z" fill="#89C5CC"/>
<rect x="283" y="93" width="159" height="302" rx="8" fill="#DDE3E9"/>
<path fill-rule="evenodd" clip-rule="evenodd" d="M362 376C370.284 376 377 369.284 377 361C377 352.716 370.284 346 362 346C353.716 346 347 352.716 347 361C347 369.284 353.716 376 362 376Z" fill="white"/>
<path fill-rule="evenodd" clip-rule="evenodd" d="M349 113C350.105 113 351 112.105 351 111C351 109.895 350.105 109 349 109C347.895 109 347 109.895 347 111C347 112.105 347.895 113 349 113Z" fill="white"/>
<rect x="356" y="109" width="21" height="4" rx="2" fill="white"/>
<rect x="297" y="121" width="131" height="54" rx="4" fill="white"/>
<g clip-path="url(#clip6)">
<rect x="306" y="137.2" width="73" height="8.1" rx="3" fill="#DDE3E9"/>
<rect x="306" y="150.7" width="49" height="8.1" rx="3" fill="#DDE3E9"/>
</g>
<path fill-rule="evenodd" clip-rule="evenodd" d="M414 155C417.866 155 421 151.866 421 148C421 144.134 417.866 141 414 141C410.134 141 407 144.134 407 148C407 151.866 410.134 155 414 155Z" fill="#DDE3E9"/>
<path fill-rule="evenodd" clip-rule="evenodd" d="M414 151C415.657 151 417 149.657 417 148C417 146.343 415.657 145 414 145C412.343 145 411 146.343 411 148C411 149.657 412.343 151 414 151Z" fill="#F2F2F2"/>
<rect x="297" y="183" width="131" height="42" rx="4" fill="white"/>
<g clip-path="url(#clip7)">
<rect x="336" y="195.6" width="73" height="6.3" rx="3" fill="#DDE3E9"/>
<rect x="336" y="206.1" width="49" height="6.3" rx="3" fill="#DDE3E9"/>
</g>
<path fill-rule="evenodd" clip-rule="evenodd" d="M318 216C324.627 216 330 210.627 330 204C330 197.373 324.627 192 318 192C311.373 192 306 197.373 306 204C306 210.627 311.373 216 318 216Z" fill="#C5CFD6"/>
<rect x="297" y="233" width="131" height="42" rx="4" fill="white"/>
<g clip-path="url(#clip8)">
<rect x="306" y="245.6" width="73" height="6.3" rx="3" fill="#DDE3E9"/>
<rect x="306" y="256.1" width="49" height="6.3" rx="3" fill="#AFB9C5"/>
</g>
<path fill-rule="evenodd" clip-rule="evenodd" d="M414 261C417.866 261 421 257.866 421 254C421 250.134 417.866 247 414 247C410.134 247 407 250.134 407 254C407 257.866 410.134 261 414 261Z" fill="#DDE3E9"/>
<path fill-rule="evenodd" clip-rule="evenodd" d="M414 257C415.657 257 417 255.657 417 254C417 252.343 415.657 251 414 251C412.343 251 411 252.343 411 254C411 255.657 412.343 257 414 257Z" fill="#F2F2F2"/>
<rect x="297" y="283" width="131" height="42" rx="4" fill="white"/>
<g clip-path="url(#clip9)">
<rect x="336" y="295.6" width="73" height="6.3" rx="3" fill="#DDE3E9"/>
<rect x="336" y="306.1" width="49" height="6.3" rx="3" fill="#DDE3E9"/>
</g>
<path fill-rule="evenodd" clip-rule="evenodd" d="M318 316C324.627 316 330 310.627 330 304C330 297.373 324.627 292 318 292C311.373 292 306 297.373 306 304C306 310.627 311.373 316 318 316Z" fill="#C5CFD6"/>
<rect x="349" y="118" width="335" height="346" rx="8" fill="#F2F2F2"/>
<rect x="598" y="161" width="70" height="81" rx="8" fill="white"/>
<path fill-rule="evenodd" clip-rule="evenodd" d="M633 208C641.837 208 649 200.837 649 192C649 183.163 641.837 176 633 176C624.163 176 617 183.163 617 192C617 200.837 624.163 208 633 208Z" fill="#DDE3E9"/>
<rect x="608" y="212" width="50" height="6" rx="3" fill="#DDE3E9"/>
<rect x="616" y="222" width="34" height="6" rx="3" fill="#DDE3E9"/>
<path d="M349 126C349 121.582 352.582 118 357 118H676C680.418 118 684 121.582 684 126V145H349V126Z" fill="#C5CFD6"/>
<path fill-rule="evenodd" clip-rule="evenodd" d="M362 136C364.209 136 366 134.209 366 132C366 129.791 364.209 128 362 128C359.791 128 358 129.791 358 132C358 134.209 359.791 136 362 136Z" fill="#F2F2F2"/>
<path fill-rule="evenodd" clip-rule="evenodd" d="M374 136C376.209 136 378 134.209 378 132C378 129.791 376.209 128 374 128C371.791 128 370 129.791 370 132C370 134.209 371.791 136 374 136Z" fill="#F2F2F2"/>
<path fill-rule="evenodd" clip-rule="evenodd" d="M386 136C388.209 136 390 134.209 390 132C390 129.791 388.209 128 386 128C383.791 128 382 129.791 382 132C382 134.209 383.791 136 386 136Z" fill="#F2F2F2"/>
<rect x="598" y="250" width="70" height="194" rx="8" fill="white"/>
<rect x="616" y="268" width="34" height="26" rx="4" fill="#DDE3E9"/>
<rect x="616" y="302" width="34" height="25" rx="4" fill="#AFB9C5"/>
<rect x="616" y="335" width="34" height="25" rx="4" fill="#DDE3E9"/>
<rect x="616" y="401" width="34" height="25" rx="4" fill="#DDE3E9"/>
<rect x="616" y="368" width="34" height="25" rx="4" fill="#C5CFD6"/>
<rect x="365" y="162" width="225" height="47" rx="4" fill="white"/>
<g clip-path="url(#clip10)">
<rect x="374" y="176.1" width="167" height="7.05" rx="3" fill="#DDE3E9"/>
<rect x="374" y="187.85" width="112.096" height="7.05" rx="3" fill="#DDE3E9"/>
</g>
<path fill-rule="evenodd" clip-rule="evenodd" d="M565.954 192.5C569.82 192.5 572.954 189.366 572.954 185.5C572.954 181.634 569.82 178.5 565.954 178.5C562.088 178.5 558.954 181.634 558.954 185.5C558.954 189.366 562.088 192.5 565.954 192.5Z" fill="#DDE3E9"/>
<path fill-rule="evenodd" clip-rule="evenodd" d="M565.954 188.5C567.611 188.5 568.954 187.157 568.954 185.5C568.954 183.843 567.611 182.5 565.954 182.5C564.297 182.5 562.954 183.843 562.954 185.5C562.954 187.157 564.297 188.5 565.954 188.5Z" fill="#F2F2F2"/>
<rect x="365" y="217" width="225" height="39" rx="4" fill="white"/>
<g clip-path="url(#clip11)">
<rect x="374" y="228.7" width="167" height="5.85" rx="2.925" fill="#DDE3E9"/>
<rect x="374" y="238.45" width="112.096" height="5.85" rx="2.925" fill="#DDE3E9"/>
</g>
<path fill-rule="evenodd" clip-rule="evenodd" d="M565.954 243.5C569.82 243.5 572.954 240.366 572.954 236.5C572.954 232.634 569.82 229.5 565.954 229.5C562.088 229.5 558.954 232.634 558.954 236.5C558.954 240.366 562.088 243.5 565.954 243.5Z" fill="#DDE3E9"/>
<path fill-rule="evenodd" clip-rule="evenodd" d="M565.954 239.5C567.611 239.5 568.954 238.157 568.954 236.5C568.954 234.843 567.611 233.5 565.954 233.5C564.297 233.5 562.954 234.843 562.954 236.5C562.954 238.157 564.297 239.5 565.954 239.5Z" fill="#F2F2F2"/>
<rect x="365" y="264" width="225" height="39" rx="4" fill="white"/>
<g clip-path="url(#clip12)">
<rect x="374" y="275.7" width="167" height="5.85" rx="2.925" fill="#DDE3E9"/>
<rect x="374" y="285.45" width="112.096" height="5.85" rx="2.925" fill="#DDE3E9"/>
</g>
<path fill-rule="evenodd" clip-rule="evenodd" d="M565.954 290.5C569.82 290.5 572.954 287.366 572.954 283.5C572.954 279.634 569.82 276.5 565.954 276.5C562.088 276.5 558.954 279.634 558.954 283.5C558.954 287.366 562.088 290.5 565.954 290.5Z" fill="#DDE3E9"/>
<path fill-rule="evenodd" clip-rule="evenodd" d="M565.954 286.5C567.611 286.5 568.954 285.157 568.954 283.5C568.954 281.843 567.611 280.5 565.954 280.5C564.297 280.5 562.954 281.843 562.954 283.5C562.954 285.157 564.297 286.5 565.954 286.5Z" fill="#AFB9C5"/>
<rect x="365" y="405" width="225" height="39" rx="4" fill="white"/>
<g clip-path="url(#clip13)">
<rect x="374" y="416.7" width="167" height="5.85" rx="2.925" fill="#DDE3E9"/>
<rect x="374" y="426.45" width="112.096" height="5.85" rx="2.925" fill="#DDE3E9"/>
</g>
<path fill-rule="evenodd" clip-rule="evenodd" d="M565.954 431.5C569.82 431.5 572.954 428.366 572.954 424.5C572.954 420.634 569.82 417.5 565.954 417.5C562.088 417.5 558.954 420.634 558.954 424.5C558.954 428.366 562.088 431.5 565.954 431.5Z" fill="#DDE3E9"/>
<path fill-rule="evenodd" clip-rule="evenodd" d="M565.954 427.5C567.611 427.5 568.954 426.157 568.954 424.5C568.954 422.843 567.611 421.5 565.954 421.5C564.297 421.5 562.954 422.843 562.954 424.5C562.954 426.157 564.297 427.5 565.954 427.5Z" fill="#F2F2F2"/>
<rect x="365" y="358" width="225" height="39" rx="4" fill="white"/>
<g clip-path="url(#clip14)">
<rect x="374" y="369.7" width="167" height="5.85" rx="2.925" fill="#DDE3E9"/>
<rect x="374" y="379.45" width="112.096" height="5.85" rx="2.925" fill="#DDE3E9"/>
</g>
<path fill-rule="evenodd" clip-rule="evenodd" d="M565.954 384.5C569.82 384.5 572.954 381.366 572.954 377.5C572.954 373.634 569.82 370.5 565.954 370.5C562.088 370.5 558.954 373.634 558.954 377.5C558.954 381.366 562.088 384.5 565.954 384.5Z" fill="#DDE3E9"/>
<path fill-rule="evenodd" clip-rule="evenodd" d="M565.954 380.5C567.611 380.5 568.954 379.157 568.954 377.5C568.954 375.843 567.611 374.5 565.954 374.5C564.297 374.5 562.954 375.843 562.954 377.5C562.954 379.157 564.297 380.5 565.954 380.5Z" fill="#F2F2F2"/>
<rect x="365" y="311" width="225" height="39" rx="4" fill="white"/>
<g clip-path="url(#clip15)">
<rect x="374" y="322.7" width="167" height="5.85" rx="2.925" fill="#DDE3E9"/>
<rect x="374" y="332.45" width="112.096" height="5.85" rx="2.925" fill="#DDE3E9"/>
</g>
<path fill-rule="evenodd" clip-rule="evenodd" d="M565.954 337.5C569.82 337.5 572.954 334.366 572.954 330.5C572.954 326.634 569.82 323.5 565.954 323.5C562.088 323.5 558.954 326.634 558.954 330.5C558.954 334.366 562.088 337.5 565.954 337.5Z" fill="#DDE3E9"/>
<path fill-rule="evenodd" clip-rule="evenodd" d="M565.954 333.5C567.611 333.5 568.954 332.157 568.954 330.5C568.954 328.843 567.611 327.5 565.954 327.5C564.297 327.5 562.954 328.843 562.954 330.5C562.954 332.157 564.297 333.5 565.954 333.5Z" fill="#F2F2F2"/>
<path fill-rule="evenodd" clip-rule="evenodd" d="M438.823 261.65C431.538 266.041 424.38 268.162 421.02 267.296C412.594 265.125 411.82 234.302 418.339 222.151C424.858 209.999 458.372 204.703 460.061 228.779C460.647 237.134 457.139 244.592 451.955 250.676L461.25 294H434.25L438.823 261.65Z" fill="#B28B67"/>
<path fill-rule="evenodd" clip-rule="evenodd" d="M429.979 223.767C433.785 225.777 436.442 229.681 439.657 234.84C440.421 234.54 441.254 234.375 442.125 234.375C445.853 234.375 448.875 237.397 448.875 241.125C448.875 243.017 448.096 244.728 446.842 245.954C448.403 248.158 450.154 250.461 452.16 252.838C459.695 248.317 465.286 235.083 457.919 222.369C455.883 216.141 451.273 212.815 445.829 211.27C441.419 209.425 436.841 209.217 432.976 210.323C425.401 210.973 418.636 213.283 416.719 214.655C416.719 221.827 418.109 223.955 429.979 223.767Z" fill="#191847"/>
<path fill-rule="evenodd" clip-rule="evenodd" d="M766.986 288.376C763.041 285.701 757.796 285 753.076 285C734.64 285 717.311 291.84 702.341 302.032C694.138 307.616 686.8 314.728 680.322 322.132C676.582 326.407 673.248 331.03 670.887 336.173C669.294 339.644 668.201 343.261 667.46 346.991C666.557 351.537 665.839 356.175 665.515 360.797C665.387 362.617 664.33 372.274 667.356 372.438C667.338 372.676 667.334 372.903 667.353 373.106C660.782 383.38 656.723 395.42 652.958 406.835C649.683 416.769 646.764 426.786 644.87 437.063C642.375 450.592 640.737 464.326 639.958 478.05C639.791 480.999 639.676 483.95 639.577 486.903C639.493 489.422 639.408 491.941 639.325 494.461C639.233 497.284 638.736 500.534 639.185 503.34C639.576 505.784 641.691 505.414 641.785 502.982C641.898 500.045 641.879 497.102 642.008 494.163C642.179 490.262 642.355 486.361 642.546 482.461C643.875 455.369 648.86 428.675 658.061 403.084C661.785 392.728 666.051 382.925 671.535 373.345C676.356 364.922 682.156 356.767 688.084 349.173C693.845 341.792 699.836 334.583 706.895 328.33C712.624 323.256 718.926 318.835 725.404 314.722C733.631 309.498 741.843 304.401 750.755 300.391C755.388 298.307 760.108 296.441 764.777 294.44C765.617 294.081 766.517 293.732 767.325 293.315C770.02 291.925 769.133 289.832 766.986 288.376Z" fill="#C1DEE2"/>
<path fill-rule="evenodd" clip-rule="evenodd" d="M383.951 377.492L356.711 412.659C348.078 417.859 341.161 423.234 335.96 428.783C334.865 430.556 333.856 433.801 339.87 431.567C345.885 429.333 352.311 427.254 353.761 429.104C355.21 430.955 352.207 434.525 354.733 436.858C356.417 438.414 360.464 432.144 366.874 418.048L396.977 394.123L383.951 377.492Z" fill="#B28B67"/>
<path fill-rule="evenodd" clip-rule="evenodd" d="M444.772 273.923L434.907 273.627C424.134 317.316 400.458 358.965 363.881 398.573L400.433 432.057C434.992 378.123 453.485 324.889 444.772 273.923Z" fill="#191847"/>
<path fill-rule="evenodd" clip-rule="evenodd" d="M476.5 400.923L417.968 400.923C417.968 400.923 437.61 324.38 430.502 273.806L455.837 266.321C480.762 296.111 464.905 347.557 476.5 400.923Z" fill="#DDE3E9"/>
<path fill-rule="evenodd" clip-rule="evenodd" d="M504.85 412.527C502.524 392.725 498.165 374.438 492.881 358.076C494.148 378.194 494.315 402.592 489.207 414.725L504.85 412.527Z" fill="black" fill-opacity="0.1"/>
<path fill-rule="evenodd" clip-rule="evenodd" d="M487.581 379.799L458.044 370.828L459.853 383.696L487.581 379.799Z" fill="white" fill-opacity="0.2"/>
<path fill-rule="evenodd" clip-rule="evenodd" d="M523.88 442.077C532.717 442.077 539.88 449.241 539.88 458.077V550.658C539.88 559.495 532.717 566.658 523.88 566.658H403C394.163 566.658 387 559.495 387 550.658V458.077C387 449.241 394.164 442.077 403 442.077H523.88ZM506.76 470.209C508.969 470.209 510.76 471.999 510.76 474.208V534.527C510.76 536.736 508.969 538.527 506.76 538.527H420.12C417.911 538.527 416.12 536.736 416.12 534.527V474.209C416.12 471.999 417.911 470.209 420.12 470.209H506.76Z" fill="#C5CFD6"/>
<path fill-rule="evenodd" clip-rule="evenodd" d="M524.637 362.139C524.637 362.139 544.811 425.013 549.004 431.166C551.055 434.174 564.247 442.333 573.232 446.792C576.839 448.581 575.882 451.654 574.747 452.594C565.515 460.24 557.825 453.814 548.506 450.981C538.296 447.877 540.872 460.332 532.797 458.006C534.396 452.458 538.486 441.979 535.012 435.965C532.696 431.955 501.369 365.503 501.369 365.503L524.637 362.139Z" fill="#B28B67"/>
<path fill-rule="evenodd" clip-rule="evenodd" d="M283.875 561.635C304.379 537.446 318.253 519.514 325.496 507.838C337.898 487.845 348.049 470.056 351.252 463.26C358.891 447.056 333.667 439.468 327.958 447.026C319.318 458.466 300.865 494.464 272.6 555.021L283.875 561.635Z" fill="#B28B67"/>
<path fill-rule="evenodd" clip-rule="evenodd" d="M325.892 554.602L364.052 461.806C372.214 444.89 332.8 433.771 326.801 441.643C313.184 459.516 280.817 530.021 276.76 535.346L325.892 554.602Z" fill="#69A1AC"/>
<path fill-rule="evenodd" clip-rule="evenodd" d="M427.526 535.992C420.092 525.517 393.054 490.276 378.327 475.695C374.096 471.505 369.966 467.483 366.061 463.736C354.452 452.596 331.335 471.319 342.923 481.466C371.779 506.734 413.883 540.845 417.401 543.886C422.331 548.149 432.197 542.575 427.526 535.992Z" fill="#B28B67"/>
<path fill-rule="evenodd" clip-rule="evenodd" d="M422.763 531.61C423.455 530.694 424.797 530.485 425.707 531.223C427.408 532.603 429.893 534.759 430.785 536.25C432.191 538.604 434.078 543.571 434.078 543.571C431.252 545.148 383.279 571.904 383.279 571.904C383.279 571.904 377.519 566.685 381.484 563.801C385.449 560.918 388.028 558.937 388.028 558.937L405.587 535.567C405.918 535.125 406.561 535.039 407.014 535.376L410.681 538.104C410.681 538.104 415.694 537.681 418.164 536.304C419.689 535.453 421.558 533.204 422.763 531.61Z" fill="#E4E4E4"/>
<path fill-rule="evenodd" clip-rule="evenodd" d="M289.931 556.846C290.988 556.393 292.234 556.859 292.639 557.936C293.399 559.952 294.44 563.029 294.44 564.755C294.44 567.473 293.503 572.686 293.503 572.686C290.239 572.686 234.845 572.686 234.845 572.686C234.845 572.686 232.558 565.384 237.485 564.802C242.411 564.219 245.669 563.75 245.669 563.75L272.989 551.985C273.497 551.766 274.087 552.002 274.304 552.511L276.07 556.65C276.07 556.65 280.631 558.706 283.482 558.706C285.255 558.706 288.061 557.647 289.931 556.846Z" fill="#E4E4E4"/>
<path fill-rule="evenodd" clip-rule="evenodd" d="M377.783 466.441C377.783 466.441 425.359 458.954 441.516 456.201C472.22 450.971 481.174 435.01 475.88 400.184L419.308 400.184C408.079 403.317 325.466 438.934 325.466 438.934C315.557 443.686 317.402 457.698 319.213 462.314C319.324 462.596 369.328 545.271 369.328 545.271L415.606 516.791L377.697 469.797C377.697 469.797 376.195 466.875 377.783 466.441Z" fill="#89C5CC"/>
<path fill-rule="evenodd" clip-rule="evenodd" d="M547.899 420.085C523.67 315.753 456.406 266.241 456.406 266.241L456.388 266.262C456.384 266.257 456.379 266.251 456.375 266.245L454.686 266.483C451.669 267.013 445.503 268.156 445.503 268.156L441.758 286.872C445.35 319.632 448.648 419.979 448.648 419.979L504.798 412.087C505.339 416.633 505.774 421.26 506.088 425.961L547.899 420.085Z" fill="#2F3676"/>
<path fill-rule="evenodd" clip-rule="evenodd" d="M692.818 383C700.295 383 706.949 383.972 713.838 386.943C719.785 389.508 725.205 392.903 730.467 396.599C737.868 401.798 743.698 407.848 747.779 415.865C750.217 420.654 752.006 427.431 750.368 432.655C748.44 438.807 743.144 443.939 736.169 442.855C731.856 442.185 727.903 439.33 724.625 436.643C720.703 433.428 717.564 429.563 714.972 425.27C710.744 418.267 708.26 410.351 704.668 403.033C702.964 399.56 701.317 396.063 699.275 392.762C698.265 391.128 697.189 389.509 695.656 388.294C694.836 387.644 691.378 386.52 692.7 385.061C673.31 385.315 656.132 400.207 652.409 418.641C652.063 420.359 651.792 422.091 651.505 423.82C651.325 424.911 651.398 428.937 650.422 429.634C648.27 431.172 649.174 426.499 649.267 425.826C649.506 424.087 649.76 422.35 650.027 420.615C651.481 411.181 655.681 402.411 662.685 395.683C670.694 387.99 681.501 383 692.818 383Z" fill="#89C5CC"/>
<path fill-rule="evenodd" clip-rule="evenodd" d="M55.9379 415.736C74.6043 447.052 96.3449 477.374 109.401 511.613C108.875 507.577 108.317 503.545 107.692 499.52C104.38 478.179 100.262 456.994 95.9359 435.835C93.7326 425.062 91.4023 414.327 89.0123 403.594C87.7268 397.829 86.4572 392.061 85.1452 386.302C84.8275 384.906 84.5544 382.469 84.1566 380C96.8449 421.637 109.081 463.305 118.031 505.942C119.205 511.538 120.205 517.124 121.024 522.7C121.304 521.428 121.58 520.156 121.881 518.887C125.503 503.68 130.935 488.594 137.403 474.374C140.495 467.575 144.046 460.924 148.228 454.726C150.836 450.863 156.986 446.271 159.364 442.314C146.355 466.176 141.657 496.032 134.145 521.973C132.312 528.304 130.467 534.624 128.659 540.955C139.987 518.237 157.563 499.571 182 491.483C152.42 511.027 134.678 545.254 122.722 580.26C122.683 580.675 122.636 581.09 122.595 581.506C126.114 574.829 130.545 568.789 136.551 564.56C149.407 555.504 163.667 558.142 176.137 565.91C166.35 559.689 148.663 565.354 140.428 571.677C134.533 576.203 129.495 582.275 125.12 588.2C124.072 589.62 122.641 591.277 121.13 593.044C119.012 606.795 115.56 620.452 110.672 634C111.479 630.111 110.896 623.892 111.12 620.993C111.144 620.68 111.164 620.365 111.188 620.053C110.445 623.019 109.727 625.951 109.036 628.837C110.41 623.331 111.156 617.583 111.739 611.776C111.889 609.281 112.036 606.785 112.19 604.29C112.141 599.553 111.946 594.799 111.616 590.036C110.447 585.408 109.137 581.042 108.056 577.411C104.159 564.31 98.4442 551.76 91.4108 540.051C84.9937 529.366 77.3124 519.688 68.4448 510.935C63.6643 506.217 58.6614 501.725 53.7289 497.17C51.9453 495.523 48.7572 491.474 46 489.363C66.0805 500.434 86.7489 512.41 101.398 530.248C99.6802 523.653 97.8149 517.151 95.8417 510.78C85.8311 478.454 73.1913 444.953 55.9379 415.736Z" fill="#DDE3E9"/>
<path fill-rule="evenodd" clip-rule="evenodd" d="M76 593C76 628.899 78.8428 658 117 658C155.157 658 158 628.899 158 593" fill="#C5CFD6"/>
<rect x="599" y="75" width="6" height="25" rx="3" fill="#DDE3E9"/>
<rect x="613" y="59" width="6" height="41" rx="3" fill="#DDE3E9"/>
<rect x="627" y="51" width="6" height="49" rx="3" fill="#DDE3E9"/>
<rect x="641" y="59" width="6" height="41" rx="3" fill="#DDE3E9"/>
<rect x="655" y="43" width="6" height="57" rx="3" fill="#C5CFD6"/>
<path fill-rule="evenodd" clip-rule="evenodd" d="M107 349.256C107 338.117 116.002 329 127 329V349.256L113.332 364C109.444 360.395 107 355.107 107 349.256Z" fill="#F2F2F2"/>
<path fill-rule="evenodd" clip-rule="evenodd" d="M126.471 349H146.668C146.668 354.221 144.538 359.113 141.171 362.668C137.468 366.556 132.195 369 126.471 369C121.198 369 116.372 366.891 112.668 363.557L126.471 349Z" fill="#AFB9C5"/>
<path fill-rule="evenodd" clip-rule="evenodd" d="M147 349C147 338.002 137.998 329 127 329V349H147ZM117 329L125 347L107 339C108.78 334.334 112.777 330.78 117 329Z" fill="#C5CFD6"/>
<path fill-rule="evenodd" clip-rule="evenodd" d="M757.766 358.179C755.845 360.219 753.123 361.5 750.095 361.5C744.278 361.5 739.562 356.799 739.562 351C739.562 345.201 744.278 340.5 750.095 340.5V321C733.546 321 720 334.503 720 351C720 367.497 733.546 381 750.095 381C758.788 381 766.645 377.334 772 371.502L757.766 358.179Z" fill="#F2F2F2"/>
<path fill-rule="evenodd" clip-rule="evenodd" d="M750 321V340.5C755.799 340.5 760.5 345.201 760.5 351H780C780 334.503 766.497 321 750 321Z" fill="#AFB9C5"/>
<path fill-rule="evenodd" clip-rule="evenodd" d="M760.097 351C760.097 354.407 758.492 357.435 756 359.391L768.262 375C775.399 369.412 780 360.749 780 351H760.097Z" fill="#C5CFD6"/>
<path fill-rule="evenodd" clip-rule="evenodd" d="M567.051 82.5039C565.573 84.0679 563.479 85.05 561.15 85.05C556.675 85.05 553.048 81.4459 553.048 77C553.048 72.5541 556.675 68.95 561.15 68.95V54C548.42 54 538 64.3523 538 77C538 89.6477 548.42 100 561.15 100C567.837 100 573.88 97.1894 578 92.7182L567.051 82.5039Z" fill="#F2F2F2"/>
<path fill-rule="evenodd" clip-rule="evenodd" d="M561 54V68.95C565.446 68.95 569.05 72.5541 569.05 77H584C584 64.3523 573.648 54 561 54Z" fill="#AFB9C5"/>
<path fill-rule="evenodd" clip-rule="evenodd" d="M569.073 77C569.073 79.5552 567.869 81.8266 566 83.2931L575.196 95C580.55 90.8088 584 84.312 584 77H569.073Z" fill="#C5CFD6"/>
<path fill-rule="evenodd" clip-rule="evenodd" d="M203.007 99.9863C203.003 99.9963 202.999 100.006 202.993 100.018C202.999 100.008 203.007 99.9683 203.007 99.9863Z" fill="#C5CFD6"/>
<path fill-rule="evenodd" clip-rule="evenodd" d="M202.998 100.001C202.998 100.003 202.996 100.007 202.996 100.011C202.996 100.001 203.014 99.9715 202.998 100.001Z" fill="#C5CFD6"/>
<path fill-rule="evenodd" clip-rule="evenodd" d="M203.067 99.8323C203.053 99.8723 203.035 99.9103 203.019 99.9503C203.027 99.9303 203.035 99.9143 203.043 99.8943C202.835 100.414 202.967 100.076 203.067 99.8323Z" fill="#C5CFD6"/>
<path fill-rule="evenodd" clip-rule="evenodd" d="M203.022 99.9528C203.014 99.9708 203.006 99.9907 202.998 100.009C202.94 100.121 203.022 99.9528 203.022 99.9528Z" fill="#C5CFD6"/>
<path fill-rule="evenodd" clip-rule="evenodd" d="M202.999 100.002C202.999 100 202.999 100 203.001 99.998C202.999 100 202.999 100 202.999 100.002Z" fill="#C5CFD6"/>
<path fill-rule="evenodd" clip-rule="evenodd" d="M202.99 100.016C202.978 100.04 203.046 99.9244 202.99 100.016V100.016Z" fill="#C5CFD6"/>
<path fill-rule="evenodd" clip-rule="evenodd" d="M202.998 100.002L203.002 99.998C203 100 203 100.002 202.998 100.002Z" fill="#C5CFD6"/>
<rect x="155" y="48" width="95" height="63" rx="4" fill="#DDE3E9"/>
<path fill-rule="evenodd" clip-rule="evenodd" d="M191 66L163 111H219L191 66Z" fill="#AFB9C5"/>
<path fill-rule="evenodd" clip-rule="evenodd" d="M218.5 78L194 111H243L218.5 78Z" fill="#C5CFD6"/>
<path fill-rule="evenodd" clip-rule="evenodd" d="M229 78C233.971 78 238 73.9706 238 69C238 64.0294 233.971 60 229 60C224.029 60 220 64.0294 220 69C220 73.9706 224.029 78 229 78Z" fill="white"/>
<path fill-rule="evenodd" clip-rule="evenodd" d="M679.993 526.986C679.997 526.996 680.001 527.006 680.007 527.018C680.001 527.008 679.993 526.968 679.993 526.986Z" fill="#C5CFD6"/>
<path fill-rule="evenodd" clip-rule="evenodd" d="M680.002 527.001C680.002 527.003 680.004 527.007 680.004 527.011C680.004 527.001 679.986 526.971 680.002 527.001Z" fill="#C5CFD6"/>
<path fill-rule="evenodd" clip-rule="evenodd" d="M679.933 526.832C679.947 526.872 679.965 526.91 679.981 526.95C679.973 526.93 679.965 526.914 679.957 526.894C680.165 527.414 680.033 527.076 679.933 526.832Z" fill="#C5CFD6"/>
<path fill-rule="evenodd" clip-rule="evenodd" d="M679.978 526.953C679.986 526.971 679.994 526.991 680.002 527.009C680.06 527.121 679.978 526.953 679.978 526.953Z" fill="#C5CFD6"/>
<path fill-rule="evenodd" clip-rule="evenodd" d="M680.001 527.002C680.001 527 680.001 527 679.999 526.998C680.001 527 680.001 527 680.001 527.002Z" fill="#C5CFD6"/>
<path fill-rule="evenodd" clip-rule="evenodd" d="M680.01 527.016C680.022 527.04 679.954 526.924 680.01 527.016V527.016Z" fill="#C5CFD6"/>
<path fill-rule="evenodd" clip-rule="evenodd" d="M680.002 527.002L679.998 526.998C680 527 680 527.002 680.002 527.002Z" fill="#C5CFD6"/>
<rect width="142" height="94" rx="4" transform="matrix(-1 0 0 1 751 450)" fill="#DDE3E9"/>
<path fill-rule="evenodd" clip-rule="evenodd" d="M698.274 477L739.329 544H657.219L698.274 477Z" fill="#AFB9C5"/>
<path fill-rule="evenodd" clip-rule="evenodd" d="M655.944 494.946L692.239 544H619.649L655.944 494.946Z" fill="#C5CFD6"/>
<path fill-rule="evenodd" clip-rule="evenodd" d="M640.5 495C633.044 495 627 488.956 627 481.5C627 474.044 633.044 468 640.5 468C647.956 468 654 474.044 654 481.5C654 488.956 647.956 495 640.5 495Z" fill="white"/>
</g>
<defs>
<clipPath id="clip0">
<rect width="885" height="687" fill="white"/>
</clipPath>
<clipPath id="clip1">
<rect width="837.341" height="272.541" fill="white" transform="translate(30.3297 351.965)"/>
</clipPath>
<clipPath id="clip2">
<rect width="73" height="21.6" fill="white" transform="translate(270 111.2)"/>
</clipPath>
<clipPath id="clip3">
<rect width="73" height="16.8" fill="white" transform="translate(270 169.6)"/>
</clipPath>
<clipPath id="clip4">
<rect width="73" height="16.8" fill="white" transform="translate(270 219.6)"/>
</clipPath>
<clipPath id="clip5">
<rect width="73" height="16.8" fill="white" transform="translate(270 269.6)"/>
</clipPath>
<clipPath id="clip6">
<rect width="73" height="21.6" fill="white" transform="translate(306 137.2)"/>
</clipPath>
<clipPath id="clip7">
<rect width="73" height="16.8" fill="white" transform="translate(336 195.6)"/>
</clipPath>
<clipPath id="clip8">
<rect width="73" height="16.8" fill="white" transform="translate(306 245.6)"/>
</clipPath>
<clipPath id="clip9">
<rect width="73" height="16.8" fill="white" transform="translate(336 295.6)"/>
</clipPath>
<clipPath id="clip10">
<rect width="167" height="18.8" fill="white" transform="translate(374 176.1)"/>
</clipPath>
<clipPath id="clip11">
<rect width="167" height="15.6" fill="white" transform="translate(374 228.7)"/>
</clipPath>
<clipPath id="clip12">
<rect width="167" height="15.6" fill="white" transform="translate(374 275.7)"/>
</clipPath>
<clipPath id="clip13">
<rect width="167" height="15.6" fill="white" transform="translate(374 416.7)"/>
</clipPath>
<clipPath id="clip14">
<rect width="167" height="15.6" fill="white" transform="translate(374 369.7)"/>
</clipPath>
<clipPath id="clip15">
<rect width="167" height="15.6" fill="white" transform="translate(374 322.7)"/>
</clipPath>
</defs>
</svg>
