<svg width="447" height="509" viewBox="0 0 447 509" fill="none" xmlns="http://www.w3.org/2000/svg">
<g clip-path="url(#clip0)">
<path fill-rule="evenodd" clip-rule="evenodd" d="M186.407 47.3127C192.274 47.3127 194.407 40.2144 197.74 36.319C200.125 33.5319 204.195 34.363 205.4 30.4612C208.43 20.6497 200.321 13.7441 189.743 13.7441C179.166 13.7441 172.033 19.8005 170.493 28.9048C168.953 38.0092 175.829 47.3127 186.407 47.3127Z" fill="#191847"/>
<path fill-rule="evenodd" clip-rule="evenodd" d="M193.047 46.035C196.371 48.0599 199.637 49.0383 201.171 48.6389C205.015 47.6374 205.369 33.4239 202.394 27.8205C199.419 22.2171 184.127 19.7748 183.356 30.8769C183.089 34.7301 184.689 38.1688 187.055 40.9747L182.813 60.953H195.133L193.047 46.035Z" fill="#B28B67"/>
<path fill-rule="evenodd" clip-rule="evenodd" d="M184.157 23.0822C174.72 32.4202 184.193 42.3454 186.788 42.3454C186.956 40.9981 187.467 39.6875 188.216 38.4402C187.818 37.9196 187.582 37.2721 187.582 36.5704C187.582 34.8514 188.997 33.4578 190.743 33.4578C191.288 33.4578 191.801 33.5937 192.248 33.8331C196.032 30.5723 200.777 28.2991 203.133 27.8521C207.231 27.0747 193.594 13.7441 184.157 23.0822Z" fill="#191847"/>
<path fill-rule="evenodd" clip-rule="evenodd" d="M178.707 104.012L198.024 167.834L207.381 222.111H214.719L204.831 104.012H178.707Z" fill="#997659"/>
<path fill-rule="evenodd" clip-rule="evenodd" d="M171.796 104.012C173.108 139.054 171.564 157.129 171.27 160.313C170.977 163.496 166.956 184.14 157.436 223.18L165.254 220.466C180.299 184.661 185.426 166.052 187.151 161.35C188.877 156.648 193.46 137.536 200.9 104.012H171.796Z" fill="#B28B67"/>
<path fill-rule="evenodd" clip-rule="evenodd" d="M159.911 220.258C158.81 219.84 157.523 220.309 157.166 221.431C156.886 222.312 156.634 223.28 156.634 223.905C156.634 225.308 157.096 228 157.096 228C158.707 228 186.049 228 186.049 228C186.049 228 187.178 224.229 184.746 223.929C182.315 223.628 180.706 223.386 180.706 223.386L167.712 217.532C167.196 217.299 166.589 217.541 166.375 218.066L165.701 219.72C165.701 219.72 163.45 220.781 162.042 220.781C161.462 220.781 160.657 220.54 159.911 220.258Z" fill="#E4E4E4"/>
<path fill-rule="evenodd" clip-rule="evenodd" d="M208.164 220.258C207.063 219.84 205.776 220.309 205.419 221.431C205.139 222.312 204.887 223.28 204.887 223.905C204.887 225.308 205.349 228 205.349 228C206.96 228 234.302 228 234.302 228C234.302 228 235.431 224.229 232.999 223.929C230.568 223.628 228.959 223.386 228.959 223.386L215.965 217.532C215.449 217.299 214.842 217.541 214.629 218.066L213.954 219.72C213.954 219.72 211.703 220.781 210.296 220.781C209.715 220.781 208.91 220.54 208.164 220.258Z" fill="#E4E4E4"/>
<path fill-rule="evenodd" clip-rule="evenodd" d="M176.14 104.012L184.353 136.529H209.44L205.7 104.012H176.14Z" fill="#69A1AC"/>
<path fill-rule="evenodd" clip-rule="evenodd" d="M171.52 104.012C167.466 116.292 169.98 136.529 169.98 136.529H195.58L202.62 104.012H171.52Z" fill="#89C5CC"/>
<path fill-rule="evenodd" clip-rule="evenodd" d="M238.445 110.111L223.903 95.7747L219.073 104.22L234.195 113.23C237.986 119.266 240.213 121.874 240.875 121.054C241.434 120.363 241.178 119.605 240.942 118.907C240.758 118.364 240.587 117.856 240.822 117.445C241.36 116.505 244.396 117.043 247.255 117.678C250.114 118.313 249.453 116.894 248.845 116.153C246.143 113.949 242.676 111.935 238.445 110.111ZM152.731 130.94C154.235 127.856 159.358 97.7965 159.358 97.7965L170.086 97.8392C170.086 97.8392 160.15 130.253 159.358 132.236C158.329 134.812 160.077 138.556 161.262 141.094C161.445 141.487 161.615 141.85 161.759 142.177C160.115 142.92 159.325 142.021 158.492 141.074C157.552 140.004 156.557 138.872 154.215 139.973C153.31 140.399 152.453 140.902 151.617 141.393C148.726 143.091 146.072 144.65 142.46 142.398C141.887 142.041 141.26 140.697 142.776 139.646C146.553 137.029 151.996 132.448 152.731 130.94Z" fill="#B28B67"/>
<path fill-rule="evenodd" clip-rule="evenodd" d="M189.844 52.3059L194.282 51.5365C201.925 70.83 215.267 88.3606 234.31 104.128L219.92 121.796C200.88 99.345 189.143 76.1816 189.844 52.3059Z" fill="#191847"/>
<path fill-rule="evenodd" clip-rule="evenodd" d="M170.493 108.681H210.02C210.02 108.681 196.284 74.9277 196.284 51.3352L184.361 49.5398C174.99 64.7703 172.344 83.5222 170.493 108.681Z" fill="#DDE3E9"/>
<path fill-rule="evenodd" clip-rule="evenodd" d="M152.527 125.8C156.849 76.5142 184.099 49.5398 184.099 49.5398L184.108 49.5483C184.11 49.5455 184.111 49.5426 184.113 49.5398H184.891C186.288 49.5884 189.147 49.715 189.147 49.715L192.028 58.0358C192.485 73.2533 197.367 119.371 197.367 119.371H171.494C171.538 121.485 171.636 123.629 171.792 125.8H152.527Z" fill="#2F3676"/>
<path fill-rule="evenodd" clip-rule="evenodd" d="M171.499 119.575C171.292 110.367 172.101 101.721 173.449 93.8965C174.154 103.181 175.628 114.353 178.707 119.575H171.499Z" fill="black" fill-opacity="0.1"/>
<path fill-rule="evenodd" clip-rule="evenodd" d="M177.224 103.493L190 97.4902V103.493H177.224Z" fill="white" fill-opacity="0.2"/>
<path fill-rule="evenodd" clip-rule="evenodd" d="M87.047 46.035C90.3712 48.0599 93.6373 49.0383 95.1705 48.6389C99.015 47.6374 99.3685 33.4239 96.3938 27.8205C93.4192 22.2171 78.1269 19.7748 77.3561 30.8769C77.0885 34.7301 78.6895 38.1688 81.0548 40.9747L76.8135 60.953H89.1335L87.047 46.035Z" fill="#B28B67"/>
<path fill-rule="evenodd" clip-rule="evenodd" d="M87.6629 32.1031C88.7285 30.4996 89.7516 29.2765 91.0824 28.5662C96.4986 28.6527 97.1328 27.6714 97.1328 24.364C96.258 23.7314 93.1713 22.6662 89.7145 22.3666C87.9511 21.8566 85.8622 21.9525 83.8498 22.8032C81.3657 23.5155 79.2622 25.0495 78.3331 27.9215C74.9716 33.7841 77.523 39.8868 80.9613 41.9716C81.8765 40.8757 82.6752 39.8138 83.3879 38.7972C82.8154 38.232 82.4601 37.4431 82.4601 36.5704C82.4601 34.8514 83.839 33.4578 85.5401 33.4578C85.6651 33.4578 85.7885 33.4653 85.9096 33.4799C85.9862 35.6292 86.3011 42.901 87.1286 45.4269C88.1041 48.4047 93.7964 49.1359 95.7817 49.1359C97.4965 49.1359 97.4381 47.4949 97.3962 46.3188C97.3901 46.1494 97.3845 45.9897 97.3845 45.8459C97.3845 45.5455 96.9978 45.5462 96.5609 45.5471C95.9936 45.5483 95.3417 45.5496 95.3417 44.8918C95.3417 44.1748 96.3221 43.6248 97.1995 43.1326C97.7469 42.8255 98.2541 42.541 98.4581 42.2524C99.1016 41.3421 99.3184 40.1143 98.3476 40.1143C97.8169 40.1143 97.0888 40.4235 96.2129 40.7955C94.8905 41.357 93.2312 42.0616 91.4053 42.0616C88.3879 42.0616 87.6712 32.2185 87.6629 32.1031Z" fill="#191847"/>
<path fill-rule="evenodd" clip-rule="evenodd" d="M72.7065 104.012L91.3174 170.014L104.896 218.662H114.8L100.371 104.012H72.7065Z" fill="#191847"/>
<path fill-rule="evenodd" clip-rule="evenodd" d="M67.7296 104.012C67.2992 138.03 65.8313 156.585 65.3793 159.676C64.9273 162.766 58.0933 182.428 44.8771 218.662H55.1367C71.9619 183.902 81.3542 164.24 83.3135 159.676C85.2728 155.111 91.3194 136.557 100.427 104.012H67.7296Z" fill="#2F3676"/>
<path fill-rule="evenodd" clip-rule="evenodd" d="M43.96 228L44.4733 217.106L55.2533 217.106C62.9206 222.553 75.2733 225.925 75.2733 225.925V228H55.7666L49.0933 226.963V228H43.96Z" fill="#191847"/>
<path fill-rule="evenodd" clip-rule="evenodd" d="M103.507 228L104.02 217.106L114.8 217.106C122.467 222.553 134.82 225.925 134.82 225.925V228H115.313L108.64 226.963V228H103.507Z" fill="#191847"/>
<path fill-rule="evenodd" clip-rule="evenodd" d="M32.8535 122.835C34.7679 119.992 45.8422 89.7639 45.8422 89.7639L54.9343 91.0983C54.9343 91.0983 40.295 123.197 39.2377 125.05C37.8643 127.457 39.0791 131.409 39.9029 134.089C40.0303 134.504 40.1484 134.888 40.2461 135.232C38.5157 135.737 37.8574 134.736 37.1633 133.68C36.3795 132.488 35.55 131.227 33.0787 131.988C32.1239 132.282 31.2066 132.66 30.3104 133.029C27.2146 134.304 24.3708 135.475 21.1044 132.737C20.5865 132.303 20.1503 130.883 21.7962 130.056C25.8969 127.995 31.9176 124.225 32.8535 122.835ZM131.507 108.786L116.011 95.5091L111.776 104.275L127.482 112.197C131.681 117.951 134.083 120.395 134.687 119.531C135.196 118.802 134.888 118.064 134.605 117.384C134.384 116.855 134.178 116.361 134.385 115.934C134.856 114.958 137.922 115.281 140.818 115.713C143.714 116.145 142.956 114.776 142.299 114.08C139.451 112.071 135.853 110.307 131.507 108.786Z" fill="#B28B67"/>
<path fill-rule="evenodd" clip-rule="evenodd" d="M83.8433 52.306L89.4771 50.4232C97.1194 69.7167 108.517 88.3841 127.56 104.152L122.851 112.362C106.115 102.399 90.272 94.6595 83.8433 79.7093C81.6856 74.6916 83.6672 58.3057 83.8433 52.306Z" fill="#C5CFD6"/>
<path fill-rule="evenodd" clip-rule="evenodd" d="M64.4934 106.606C64.4934 106.606 88.7009 109.199 102.601 106.606C103.749 106.391 103.931 104.449 103.398 103.13C95.1067 82.5987 89.421 64.6838 89.421 50.4231C87.139 51.5858 81.4334 50.7716 81.4334 50.7716C71.211 65.4677 66.5121 82.3299 64.4934 106.606Z" fill="#323337"/>
<path fill-rule="evenodd" clip-rule="evenodd" d="M78.5037 49.5399C78.7676 49.3602 78.907 49.2708 78.907 49.2708L78.892 49.5399H83.1521C83.3662 50.8122 83.6798 55.5281 84.137 62.4046C85.7985 87.3927 89.357 140.911 96.9311 161.392H44.6711C45.7738 138.107 54.2686 110.261 63.0684 86.6171C56.5749 93.1462 48.9913 104.091 42.8624 122.31L33.0735 119.771C43.0493 76.3286 72.2766 53.9243 77.9476 49.9257C78.003 49.7964 78.058 49.6678 78.1128 49.5399H78.5037Z" fill="#DDE3E9"/>
<path fill-rule="evenodd" clip-rule="evenodd" d="M368.518 310.6C364.719 313.121 360.986 314.339 359.234 313.842C354.84 312.595 354.436 294.899 357.836 287.922C361.236 280.946 378.712 277.905 379.593 291.728C379.899 296.525 378.069 300.806 375.366 304.3L380.213 329.173H366.133L368.518 310.6Z" fill="#B28B67"/>
<path fill-rule="evenodd" clip-rule="evenodd" d="M351.598 278.251C351.89 277.123 352.674 276.156 353.731 275.87C353.987 275.8 354.252 275.772 354.516 275.784C354.61 275.788 354.637 275.818 354.681 275.745C354.714 275.691 354.714 275.559 354.728 275.496C354.77 275.299 354.822 275.104 354.887 274.914C355.108 274.267 355.48 273.694 355.928 273.211C356.766 272.308 357.898 271.685 359.075 271.572C359.718 271.51 360.357 271.626 360.966 271.856C361.281 271.975 361.587 272.124 361.884 272.288C361.974 272.338 362.265 272.58 362.355 272.564C362.454 272.547 362.654 272.275 362.734 272.207C363.733 271.364 364.965 271.033 366.208 271.043C367.612 271.054 368.963 271.131 370.133 272.073C370.381 272.273 370.617 272.491 370.842 272.721C370.96 272.842 371.075 272.967 371.184 273.098C371.25 273.177 371.314 273.258 371.376 273.34C371.481 273.481 371.464 273.527 371.611 273.429C372.174 273.052 372.827 272.876 373.484 272.965C373.874 273.018 374.254 273.147 374.615 273.317C374.738 273.375 375.022 273.605 375.153 273.608C375.283 273.61 375.563 273.396 375.697 273.342C376.419 273.048 377.198 272.976 377.957 273.111C378.74 273.251 379.509 273.595 380.173 274.071C380.492 274.299 380.77 274.553 380.994 274.893C381.091 275.04 381.178 275.195 381.287 275.331C381.351 275.411 381.478 275.492 381.513 275.593C381.492 275.533 382.369 275.161 382.452 275.137C382.893 275.01 383.342 275.036 383.774 275.192C384.585 275.486 385.284 276.146 385.858 276.822C386.152 277.17 386.41 277.554 386.629 277.963C386.734 278.159 386.83 278.36 386.918 278.566C386.96 278.666 386.989 278.791 387.045 278.881C387.117 278.996 387.165 278.999 387.296 279.049C387.961 279.305 388.566 279.739 389.028 280.325C389.494 280.918 389.797 281.649 389.924 282.418C389.931 282.463 389.936 282.651 389.96 282.675C389.993 282.709 390.127 282.694 390.177 282.701C390.352 282.723 390.526 282.757 390.697 282.802C391.014 282.884 391.321 283.005 391.612 283.164C392.747 283.782 393.558 284.94 393.955 286.244C394.372 287.613 394.365 289.18 393.867 290.523C393.786 290.74 393.691 290.95 393.578 291.149C393.509 291.272 393.487 291.272 393.532 291.4C393.582 291.543 393.673 291.682 393.732 291.821C393.926 292.276 394.061 292.759 394.147 293.252C394.287 294.06 394.356 294.91 394.218 295.724C394.154 296.103 394.042 296.472 393.871 296.809C393.784 296.981 393.682 297.144 393.567 297.295C393.507 297.373 393.444 297.448 393.378 297.519C393.34 297.56 393.29 297.596 393.258 297.642C393.179 297.753 393.162 297.662 393.203 297.825C393.26 298.054 393.389 298.279 393.467 298.502C393.549 298.731 393.622 298.964 393.689 299.198C393.825 299.674 393.94 300.158 394.012 300.65C394.15 301.595 394.126 302.602 393.72 303.469C393.546 303.84 393.297 304.166 392.995 304.419C392.847 304.543 392.687 304.65 392.519 304.737C392.433 304.782 392.322 304.802 392.283 304.894C392.241 304.993 392.304 305.189 392.318 305.299C392.443 306.261 392.505 307.27 392.246 308.212C392.007 309.08 391.481 309.846 390.797 310.353C389.472 311.337 387.685 311.281 386.292 310.493C385.929 310.288 385.589 310.033 385.286 309.733C384.514 310.876 382.927 310.84 381.799 310.514C380.394 310.108 379.267 309.033 378.617 307.619C377.729 308.81 375.865 308.424 375.249 307.132C375.098 306.816 375.009 306.468 374.965 306.115C374.942 305.93 374.956 305.743 374.939 305.559C374.917 305.325 374.775 305.097 374.693 304.87C374.534 304.429 374.435 303.974 374.431 303.498C374.428 303.249 374.457 303.007 374.479 302.761C374.498 302.539 374.442 302.332 374.41 302.113C374.771 302.179 375.21 302.072 375.549 301.957C375.882 301.844 376.194 301.546 376.429 301.275C376.975 300.644 377.309 299.818 377.537 298.995C378.038 297.19 377.832 295.024 376.183 294.033C375.415 293.571 373.113 293.573 372.197 293.801C371.235 294.041 370.144 296.379 370.091 296.598C370.057 296.734 370.074 296.903 369.961 296.993C369.711 297.192 369.3 296.847 369.116 296.676C368.799 296.381 368.572 295.99 368.376 295.592C367.949 294.727 367.604 293.799 367.361 292.852C367.174 292.122 367.054 291.368 366.808 290.657C366.564 289.949 366.18 289.316 365.582 288.914C364.931 288.478 364.186 288.248 363.472 287.974C362.764 287.702 362.068 287.37 361.52 286.793C361.399 286.666 361.282 286.531 361.185 286.382C361.108 286.264 361.032 286.039 360.916 285.964C360.734 285.848 360.469 286.15 360.312 286.26C359.537 286.801 358.891 287.557 358.37 288.382C357.851 289.203 357.426 289.993 357.08 290.909C356.824 291.589 356.664 292.459 356.213 293.016C356.012 293.265 354.516 293.416 354.031 293.199C353.546 292.981 353.003 292.417 352.84 292.064C352.674 291.702 352.634 291.305 352.705 290.909C352.747 290.676 352.833 290.459 352.879 290.23C352.919 290.038 352.954 289.856 353.039 289.68C353.2 289.346 353.476 289.106 353.807 289.006C353.462 288.656 353.176 288.236 352.978 287.768C352.772 287.281 352.598 286.688 352.548 286.154C352.508 285.72 352.57 285.27 352.786 284.897C353.013 284.506 353.414 284.25 353.761 284.006C353.231 283.55 352.777 282.994 352.404 282.379C351.678 281.184 351.23 279.676 351.598 278.251Z" fill="#191847"/>
<path fill-rule="evenodd" clip-rule="evenodd" d="M412.907 409.909C421.743 409.909 428.907 417.073 428.907 425.909V474C428.907 482.836 421.743 490 412.907 490H358.667C349.83 490 342.667 482.836 342.667 474V425.909C342.667 417.073 349.83 409.909 358.667 409.909H412.907ZM408.48 427.994C410.689 427.994 412.48 429.785 412.48 431.994V467.915C412.48 470.124 410.689 471.915 408.48 471.915H363.093C360.884 471.915 359.093 470.124 359.093 467.915V431.994C359.093 429.785 360.884 427.994 363.093 427.994H408.48Z" fill="#C5CFD6"/>
<path fill-rule="evenodd" clip-rule="evenodd" d="M315.849 445.162C313.667 453.577 308.231 469.526 300.714 487.843L293.572 485.548C299.821 443.401 305.021 415.497 308 407.004C309.969 401.393 324.859 402.05 323.146 413.341C322.428 418.076 319.586 430.754 315.849 445.162ZM345.209 415.31C356.857 417.967 381.009 427.359 387.905 430.361C392.24 432.247 389.446 438.644 385.748 438.084C385.122 437.989 382.906 437.716 379.601 437.309C368.983 436.002 347.118 433.309 330.535 430.681C321.803 429.297 326.5 411.29 335.567 413.196C338.617 413.837 341.861 414.546 345.209 415.31Z" fill="#B28B67"/>
<path fill-rule="evenodd" clip-rule="evenodd" d="M307.543 402.248C308.734 397.969 362.87 382.782 362.87 382.782H367.306V387.333L330.002 408.24C330.052 408.915 330.021 409.628 329.901 410.38C330.17 425.879 324.145 437.458 318.18 448.922C314.278 456.419 310.403 463.867 308.33 472.329L294.625 470.078C295.024 468.954 295.655 463.885 296.518 456.955C298.695 439.482 302.345 410.173 307.466 402.419C307.484 402.392 307.502 402.365 307.521 402.338C307.528 402.308 307.535 402.278 307.543 402.248Z" fill="#1F28CF"/>
<path fill-rule="evenodd" clip-rule="evenodd" d="M364.207 420.657C367.62 419.905 370.764 419.234 373.453 418.714C390.826 415.359 395.893 405.121 392.897 382.782H360.887C355.659 384.435 328.484 396.982 314.385 403.655C305.054 408.071 307.995 423.992 313.28 428.136C313.308 428.39 313.403 428.563 313.573 428.64C333.608 437.782 350.693 437.1 361.664 436.662C366.26 436.479 369.782 436.338 372 436.98L375.474 424.912L364.207 420.657Z" fill="#2B44FF"/>
<path fill-rule="evenodd" clip-rule="evenodd" d="M384.21 430.466C384.281 429.304 385.18 428.395 386.277 428.55C387.428 428.713 388.785 428.974 389.514 429.366C390.94 430.132 393.445 432.124 393.445 432.124C392.638 433.946 378.94 464.867 378.94 464.867C378.94 464.867 374.542 464.085 375.454 461.172C376.367 458.258 376.926 456.307 376.926 456.307L377.495 438.126C377.513 437.566 377.952 437.144 378.482 437.181L380.718 437.336C380.718 437.336 382.924 435.37 383.629 433.778C383.981 432.984 384.14 431.627 384.21 430.466Z" fill="#E4E4E4"/>
<path fill-rule="evenodd" clip-rule="evenodd" d="M301.562 484.157C302.693 483.675 304.05 484.17 304.407 485.347C304.766 486.53 305.12 487.915 305.12 488.776C305.12 490.523 304.591 493.875 304.591 493.875C302.75 493.875 271.502 493.875 271.502 493.875C271.502 493.875 270.212 489.181 272.991 488.806C275.77 488.432 277.608 488.13 277.608 488.13L292.549 480.798C293.079 480.537 293.718 480.791 293.926 481.345L294.757 483.566C294.757 483.566 297.33 484.887 298.938 484.887C299.651 484.887 300.66 484.542 301.562 484.157Z" fill="#E4E4E4"/>
<path fill-rule="evenodd" clip-rule="evenodd" d="M316.635 390.376L333.254 372.527L338.774 383.042L321.492 394.26C317.159 401.775 314.614 405.022 313.857 404.001C313.219 403.14 313.512 402.197 313.781 401.328C313.991 400.651 314.187 400.019 313.918 399.507C313.304 398.337 309.834 399.007 306.566 399.798C303.298 400.588 304.054 398.821 304.749 397.899C307.837 395.155 311.799 392.647 316.635 390.376ZM414.593 416.309C412.874 412.469 407.019 375.044 407.019 375.044L394.76 375.097C394.76 375.097 406.114 415.453 407.019 417.922C408.195 421.13 406.198 425.79 404.844 428.951C404.634 429.44 404.44 429.892 404.276 430.299C406.155 431.224 407.057 430.105 408.009 428.926C409.084 427.594 410.221 426.184 412.898 427.555C413.932 428.085 414.911 428.711 415.867 429.323C419.17 431.437 422.204 433.379 426.332 430.575C426.986 430.13 427.703 428.456 425.971 427.148C421.654 423.89 415.434 418.187 414.593 416.309Z" fill="#B28B67"/>
<path fill-rule="evenodd" clip-rule="evenodd" d="M372.179 318.407L367.106 317.449C358.372 341.47 343.123 363.296 321.36 382.927L337.805 404.924C359.566 376.972 372.979 348.133 372.179 318.407Z" fill="#191847"/>
<path fill-rule="evenodd" clip-rule="evenodd" d="M394.293 388.595H349.12C349.12 388.595 364.818 346.572 364.818 317.199L378.445 314.963C389.154 333.926 392.178 357.272 394.293 388.595Z" fill="#DDE3E9"/>
<path fill-rule="evenodd" clip-rule="evenodd" d="M414.827 409.91C409.886 348.547 378.744 314.963 378.744 314.963L378.734 314.974C378.732 314.97 378.73 314.967 378.728 314.963H377.839C376.242 315.024 372.975 315.181 372.975 315.181L369.683 325.541C369.16 344.487 363.581 401.904 363.581 401.904H393.149C393.099 404.537 392.988 407.207 392.809 409.91H414.827Z" fill="#2F3676"/>
<path fill-rule="evenodd" clip-rule="evenodd" d="M393.144 402.159C393.38 390.695 392.457 379.93 390.915 370.189C390.109 381.748 388.425 395.657 384.907 402.159H393.144Z" fill="black" fill-opacity="0.1"/>
<path fill-rule="evenodd" clip-rule="evenodd" d="M386.602 382.136L372 374.663V382.136H386.602Z" fill="white" fill-opacity="0.2"/>
<path fill-rule="evenodd" clip-rule="evenodd" d="M245.518 310.6C241.719 313.121 237.986 314.339 236.234 313.842C231.84 312.595 231.436 294.899 234.836 287.922C238.235 280.946 255.712 277.905 256.593 291.728C256.899 296.525 255.069 300.806 252.366 304.299L257.213 329.173H243.133L245.518 310.6Z" fill="#B28B67"/>
<path fill-rule="evenodd" clip-rule="evenodd" d="M238.009 283.322C238.331 283.11 239.006 282.663 239.348 282.501C239.429 282.462 239.995 282.017 240.01 282.023C240.439 282.182 241.681 282.77 241.787 283.278C241.804 283.317 241.82 283.353 241.836 283.384C242.012 283.737 242.173 284.098 242.327 284.463C242.665 285.265 242.957 286.103 243.236 286.934C243.778 288.554 244.25 290.211 244.683 291.872C245.125 293.562 245.499 295.273 245.918 296.971C246.522 299.414 247.294 301.797 247.893 304.239C248.276 305.798 248.489 307.375 248.388 308.98C248.387 309 248.387 309.019 248.385 309.038C248.385 309.046 248.384 309.054 248.383 309.062C248.366 309.309 248.342 309.556 248.309 309.804C248.281 310.016 248.252 310.229 248.222 310.442C247.674 309.24 247.257 307.916 246.813 306.66C246.77 306.537 246.728 306.413 246.688 306.288C246.545 306.034 246.399 305.78 246.252 305.528C245.322 303.939 244.389 302.355 243.497 300.737C241.894 297.826 240.305 294.854 238.404 292.181C237.843 291.392 237.268 290.615 236.714 289.819C236.398 289.366 236.091 288.906 235.794 288.437C235.581 288.102 234.657 286.934 234.992 286.233C235.163 285.874 237.172 283.872 238.009 283.322Z" fill="#2C2C2C"/>
<path fill-rule="evenodd" clip-rule="evenodd" d="M239.246 282.56C238.932 282.676 239.085 281.957 239.389 281.704C240.796 280.533 246.176 280.108 250.858 281.178C253.995 281.895 257.643 283.679 260.148 285.973C262.407 288.041 263.96 291.355 264.76 294.558C265.599 297.921 265.726 301.427 265.259 304.875C265.156 305.633 264.935 306.355 264.812 307.096C264.674 307.931 264.602 308.735 264.355 309.547C264.204 310.044 263.947 310.532 263.818 311.032C263.671 311.603 263.761 312.131 263.868 312.711C264.043 313.657 264.26 314.602 264.569 315.505C265.032 316.862 265.594 318.133 265.947 319.541C266.416 321.414 268.377 327.511 266.944 329.173H239.653C240.34 327.109 242.403 324.68 242.82 322.471C243.066 321.17 243.183 318.327 243.209 318.224C243.824 313.557 245.025 311.328 245.777 310.519C246.529 309.71 247.531 309.461 247.582 308.76C247.796 305.858 246.748 303.077 245.979 300.369C245.063 297.141 244.392 293.833 243.447 290.616C243.029 289.191 240.874 281.957 239.246 282.56Z" fill="#8991DC"/>
<path fill-rule="evenodd" clip-rule="evenodd" d="M249.843 296.324C250.065 291.412 249.843 289.493 248.814 285.898H249.449C250.452 287.325 251.291 291.689 250.348 296.324H249.843ZM262.28 296.092C262.39 295.794 262.504 295.489 262.621 295.176L263.024 295.389C261.752 300.515 260.203 304.472 254.887 307.789L254.473 307.47C259.501 303.578 260.58 300.673 262.28 296.092ZM254.587 291.262L254.587 291.262C253.823 297.756 253.338 301.874 249.078 309.342L249.561 309.505C254.231 302.579 254.971 296.926 255.192 290.002L254.741 289.962C254.688 290.407 254.637 290.839 254.587 291.262ZM259.341 311.011L259.754 311.563C257.685 312.04 256.278 313.715 254.665 315.636C252.959 317.668 251.022 319.975 247.826 321.427L247.233 321.031C250.721 319.034 252.344 317.05 253.761 315.317C255.227 313.523 256.474 311.999 259.341 311.011Z" fill="black" fill-opacity="0.2"/>
<path fill-rule="evenodd" clip-rule="evenodd" d="M282.661 409.909H237.339L231.4 490H298.867L282.661 409.909Z" fill="#C5CFD6"/>
<path fill-rule="evenodd" clip-rule="evenodd" d="M282.661 409.909H268.722L260.379 490H298.867L282.661 409.909Z" fill="black" fill-opacity="0.1"/>
<path fill-rule="evenodd" clip-rule="evenodd" d="M212.437 425.776C217.53 437.668 225.488 466.536 225.488 466.536L218.732 469.934C218.732 469.934 201.589 439.59 191.112 418.846C191.6 423.516 192.097 428.773 192.558 434.3C193.65 447.392 192.559 475.678 191.972 483.849C191.603 488.984 185.265 487.909 184.673 483.836C184.573 483.146 184.164 480.724 183.555 477.111C180.567 459.392 172.747 413.021 172.733 401.667C172.728 397.098 180.835 392.993 185.667 396.188C188.987 392.289 195.268 390.041 198.877 396.482C201.172 400.577 206.623 412.202 212.437 425.776Z" fill="#B28B67"/>
<path fill-rule="evenodd" clip-rule="evenodd" d="M225.005 455.849L201.816 395.368C196.26 385.53 180.685 397.371 182.579 403.077C186.88 416.032 208.755 457.973 210.036 461.833L225.005 455.849Z" fill="#1F28CF"/>
<path fill-rule="evenodd" clip-rule="evenodd" d="M224.008 463.784C224.731 462.783 226.067 462.506 226.906 463.322C227.762 464.155 228.716 465.175 229.112 465.93C229.906 467.443 230.97 470.637 230.97 470.637C229.376 471.65 202.314 488.851 202.314 488.851C202.314 488.851 199.065 485.496 201.302 483.642C203.538 481.788 204.993 480.515 204.993 480.515L214.634 465.891C214.961 465.394 215.6 465.281 216.028 465.643L217.772 467.122C217.772 467.122 220.6 466.85 221.993 465.965C222.635 465.556 223.386 464.646 224.008 463.784Z" fill="#E4E4E4"/>
<path fill-rule="evenodd" clip-rule="evenodd" d="M190.882 480.281C192.013 479.799 193.37 480.295 193.727 481.471C194.086 482.654 194.44 484.04 194.44 484.901C194.44 486.648 193.911 490 193.911 490C192.07 490 160.822 490 160.822 490C160.822 490 159.532 485.305 162.311 484.931C165.09 484.557 166.928 484.255 166.928 484.255L181.869 476.922C182.399 476.662 183.039 476.916 183.246 477.469L184.078 479.69C184.078 479.69 186.65 481.012 188.258 481.012C188.971 481.012 189.98 480.666 190.882 480.281Z" fill="#E4E4E4"/>
<path fill-rule="evenodd" clip-rule="evenodd" d="M171.108 406.314C171.108 423.473 178.51 463.499 178.514 467.277L194.44 467.291C194.44 467.291 190.943 413.719 191.96 413.141C192.977 412.564 233.643 417.612 245.84 417.612C263.427 417.612 270.703 405.401 271.293 382.782H236.453C229.359 383.617 192.358 391.834 178.616 394.659C172.733 395.868 171.108 401.587 171.108 406.314Z" fill="#2B44FF"/>
<path fill-rule="evenodd" clip-rule="evenodd" d="M298.633 411.788C296.914 407.948 288.324 358.529 288.324 358.529L275.478 358.582C275.478 358.582 290.154 410.932 291.059 413.401C292.235 416.609 290.238 421.269 288.884 424.429C288.674 424.918 288.48 425.371 288.316 425.777C290.195 426.703 291.097 425.584 292.049 424.404C293.123 423.072 294.261 421.663 296.938 423.034C297.972 423.563 298.951 424.19 299.907 424.802C303.21 426.915 306.244 428.857 310.372 426.053C311.026 425.609 311.743 423.935 310.011 422.627C305.694 419.368 299.474 413.665 298.633 411.788ZM190.438 392.532L207.057 374.683L212.577 385.198L195.295 396.415C190.962 403.93 188.417 407.177 187.66 406.157C187.022 405.296 187.315 404.352 187.584 403.483C187.794 402.806 187.99 402.175 187.721 401.662C187.107 400.492 183.637 401.162 180.369 401.953C177.101 402.744 177.857 400.977 178.552 400.054C181.641 397.31 185.603 394.803 190.438 392.532Z" fill="#B28B67"/>
<path fill-rule="evenodd" clip-rule="evenodd" d="M249.179 318.407L244.106 317.449C236.114 348.55 195.054 369.75 192.534 381.376C191.609 385.64 194.396 387.795 192.957 389.094L199.551 394.408C200.667 392.974 203.05 395.597 208.026 393.762C213.002 391.927 249.179 355.233 249.179 318.407Z" fill="#DB2721"/>
<path fill-rule="evenodd" clip-rule="evenodd" d="M256.554 312.041C258.757 311.871 260.656 313.521 260.796 315.726L260.946 318.095C270.493 326.183 294.156 350.354 300.322 395.349C300.97 400.076 299.798 402.607 298.862 404.63C298.222 406.014 297.692 407.16 297.93 408.607L289.3 411.229C289.3 410.161 288.213 409.348 286.809 408.299C284.769 406.774 282.062 404.751 281.061 400.717C280.112 396.894 278.722 392.118 277.062 386.805C276.905 393.841 275.693 400.312 273.053 405.671C266.467 419.042 228.403 404.379 224.426 390.738C222.304 383.46 225.315 377.349 229.297 369.267C234.352 359.009 240.972 345.574 240.645 322.544L240.313 317.303C240.172 315.098 241.845 313.173 244.047 313.004L256.554 312.041Z" fill="#FF4133"/>
</g>
<defs>
<clipPath id="clip0">
<rect width="447" height="509" fill="white"/>
</clipPath>
</defs>
</svg>
