<svg width="493" height="445" viewBox="0 0 493 445" fill="none" xmlns="http://www.w3.org/2000/svg">
<g clip-path="url(#clip0)">
<path fill-rule="evenodd" clip-rule="evenodd" d="M218.27 286.581C215.291 288.583 212.364 289.55 210.99 289.155C207.545 288.165 207.228 274.117 209.894 268.579C212.56 263.04 226.263 260.626 226.954 271.6C227.194 275.408 225.759 278.807 223.639 281.58L227.44 301.326H216.4L218.27 286.581Z" fill="#915B3C"/>
<path fill-rule="evenodd" clip-rule="evenodd" d="M224.488 284.05C225.873 277.179 229.821 272.495 229.218 269.423C228.615 266.352 226.004 265.604 226.004 265.604C226.004 265.604 224.654 259.515 217.294 260.424C209.935 261.333 205.443 264.74 207.383 272.236C209.166 272.236 211.319 271.518 214.295 272.749C215.712 273.335 216.322 276.385 216.322 276.385H217.667C217.667 276.385 219.625 272.766 221.529 273.725C223.432 274.684 222.394 278.385 222.394 278.385L223.057 284.05H224.488Z" fill="#191847"/>
<path fill-rule="evenodd" clip-rule="evenodd" d="M249.62 365.419C258.456 365.419 265.62 372.583 265.62 381.419V413C265.62 421.836 258.456 429 249.62 429H214C205.163 429 198 421.837 198 413V381.419C198 372.583 205.163 365.419 214 365.419H249.62ZM248.74 379.776C250.949 379.776 252.74 381.567 252.74 383.776V410.643C252.74 412.852 250.949 414.643 248.74 414.643H214.88C212.671 414.643 210.88 412.852 210.88 410.643V383.776C210.88 381.567 212.671 379.776 214.88 379.776H248.74Z" fill="#C5CFD6"/>
<path fill-rule="evenodd" clip-rule="evenodd" d="M152.387 426.436C161.456 414.091 167.593 404.939 170.796 398.98C176.282 388.777 180.771 379.698 182.188 376.23C185.567 367.96 174.41 364.087 171.885 367.945C168.063 373.783 159.902 392.155 147.4 423.061L152.387 426.436Z" fill="#B28B67"/>
<path fill-rule="evenodd" clip-rule="evenodd" d="M170.972 422.847L187.85 375.488C191.46 366.855 174.027 361.18 171.374 365.198C165.351 374.319 151.035 410.302 149.24 413.02L170.972 422.847Z" fill="#2F3676"/>
<path fill-rule="evenodd" clip-rule="evenodd" d="M215.925 413.349C212.637 408.004 200.678 390.018 194.164 382.576C192.292 380.438 190.466 378.386 188.738 376.473C183.604 370.788 173.379 380.343 178.504 385.521C191.268 398.417 209.89 415.826 211.446 417.378C213.627 419.554 217.991 416.709 215.925 413.349Z" fill="#915B3C"/>
<path fill-rule="evenodd" clip-rule="evenodd" d="M213.065 412.184C213.817 411.198 215.149 410.903 215.967 411.743C216.539 412.329 217.106 412.979 217.366 413.481C217.988 414.682 218.823 417.218 218.823 417.218C217.573 418.022 196.354 431.678 196.354 431.678C196.354 431.678 193.806 429.014 195.56 427.542C197.314 426.07 198.454 425.06 198.454 425.06L205.883 413.651C206.21 413.148 206.848 413.032 207.273 413.397L208.474 414.427C208.474 414.427 210.692 414.212 211.784 413.509C212.188 413.248 212.647 412.732 213.065 412.184Z" fill="#E4E4E4"/>
<path fill-rule="evenodd" clip-rule="evenodd" d="M153.786 424.56C154.941 424.117 156.31 424.602 156.642 425.793C156.868 426.605 157.06 427.461 157.06 428.029C157.06 429.416 156.645 432.077 156.645 432.077C155.202 432.077 130.701 432.077 130.701 432.077C130.701 432.077 129.689 428.35 131.868 428.053C134.047 427.755 135.488 427.516 135.488 427.516L146.983 421.804C147.515 421.54 148.159 421.795 148.366 422.353L148.935 423.892C148.935 423.892 150.952 424.941 152.213 424.941C152.647 424.941 153.22 424.776 153.786 424.56Z" fill="#E4E4E4"/>
<path fill-rule="evenodd" clip-rule="evenodd" d="M193.924 377.853C193.924 377.853 214.966 374.032 222.113 372.628C235.694 369.958 239.654 361.812 237.312 344.039L212.29 344.039C207.323 345.638 170.783 363.815 170.783 363.815C166.4 366.24 167.216 373.391 168.018 375.747C168.067 375.891 190.184 418.085 190.184 418.085L210.653 403.55L193.885 379.566C193.885 379.566 193.221 378.075 193.924 377.853Z" fill="#5C63AB"/>
<path fill-rule="evenodd" clip-rule="evenodd" d="M177.447 349.337L192.121 337.327L195.364 346.264L180.834 352.981C176.724 358.361 174.427 360.604 173.94 359.71C173.53 358.956 173.851 358.25 174.146 357.599C174.376 357.093 174.591 356.62 174.433 356.184C174.072 355.19 171.311 355.294 168.695 355.519C166.08 355.743 166.842 354.445 167.473 353.805C170.143 352.023 173.468 350.534 177.447 349.337ZM254.397 370.5C253.049 367.451 248.459 337.741 248.459 337.741L238.846 337.783C238.846 337.783 247.749 369.82 248.459 371.78C249.38 374.327 247.814 378.027 246.753 380.535C246.588 380.923 246.436 381.283 246.307 381.605C247.78 382.34 248.488 381.452 249.234 380.516C250.077 379.458 250.969 378.339 253.068 379.427C253.879 379.848 254.646 380.345 255.396 380.831C257.986 382.509 260.365 384.05 263.601 381.824C264.114 381.472 264.677 380.143 263.318 379.104C259.933 376.518 255.056 371.99 254.397 370.5Z" fill="#915B3C"/>
<path fill-rule="evenodd" clip-rule="evenodd" d="M221.14 292.779L217.163 292.019C202.404 306.23 196.342 333.531 178.252 347.993L182.606 354.009C213.989 349.678 221.768 316.377 221.14 292.779Z" fill="#E87613"/>
<path fill-rule="evenodd" clip-rule="evenodd" d="M238.48 348.499C238.48 348.499 214.556 348.499 203.285 348.499C201.676 348.499 201.98 345.91 202.212 344.604C204.895 329.529 215.369 313.279 215.369 291.82L225.521 290.045C233.918 305.099 236.822 323.633 238.48 348.499Z" fill="#DDE3E9"/>
<path fill-rule="evenodd" clip-rule="evenodd" d="M237.132 304.665C238.979 304.518 240.646 303.657 241.7 301.537C245.411 294.073 244.071 289.965 240.105 288.614C237.925 287.871 235.874 288.378 233.419 288.985C231.41 289.482 229.129 290.045 226.286 290.045C226.01 290.045 225.759 290.066 225.532 290.105L222.163 290.32C222.163 290.32 208.486 341.989 214.619 359.266H242.437C244.019 363.501 245.57 367.196 247.032 370.034H254.58C255.392 340.766 245.451 318.245 237.132 304.665Z" fill="#FF9B21"/>
<path fill-rule="evenodd" clip-rule="evenodd" d="M242.438 359.266C240.362 353.71 238.234 347.225 236.186 340.528C235.423 347.903 234.154 355.311 232.04 359.266H242.438Z" fill="black" fill-opacity="0.1"/>
<path fill-rule="evenodd" clip-rule="evenodd" d="M312.789 286.581C309.832 288.583 306.926 289.55 305.562 289.155C302.142 288.165 301.828 274.117 304.474 268.579C307.12 263.04 320.725 260.626 321.41 271.6C321.648 275.408 320.224 278.807 318.12 281.58L321.893 301.326H310.933L312.789 286.581Z" fill="#B28B67"/>
<path fill-rule="evenodd" clip-rule="evenodd" d="M308.804 262.547C310.301 262.034 312.475 261.86 313.39 261.978C312.869 260.578 312.663 259.019 312.831 257.501C312.995 256.026 313.582 254.77 314.125 253.453C314.375 252.847 314.659 252.243 315.082 251.779C315.512 251.306 316.058 250.994 316.63 250.845C317.215 250.693 317.827 250.706 318.413 250.844C318.672 250.905 318.904 251.038 319.159 251.112C319.419 251.188 319.545 251.005 319.734 250.821C320.19 250.378 320.858 250.159 321.434 250.081C322.08 249.993 322.751 250.103 323.368 250.341C323.968 250.574 324.544 250.951 324.978 251.5C325.171 251.745 325.347 252.024 325.461 252.331C325.507 252.457 325.515 252.532 325.627 252.578C325.731 252.621 325.852 252.622 325.959 252.663C326.994 253.056 327.879 253.954 328.36 255.106C328.641 255.779 328.774 256.963 328.738 258.29C328.702 259.617 327.634 263.079 326.636 264.342C325.745 265.469 324.436 266.213 323.172 266.539C324.011 267.615 324.569 268.96 324.982 270.328C325.431 271.815 325.708 273.359 325.811 274.932C325.908 276.427 325.917 278.008 325.605 279.471C325.313 280.839 324.689 281.961 323.646 282.673C323.169 282.999 322.655 283.244 322.139 283.468C321.629 283.689 321.119 283.904 320.585 284.027C319.576 284.262 318.412 284.221 317.635 283.319C317.354 282.994 317.046 282.585 316.842 282.188C316.768 282.045 316.724 281.952 316.813 281.812C316.92 281.645 317.093 281.517 317.231 281.386C318.015 280.64 318.5 279.643 318.622 278.46C318.746 277.259 318.459 275.709 317.419 275.184C316.135 274.537 314.722 275.28 313.581 275.972C313.096 274.051 312.1 272.32 310.539 271.439C308.812 270.464 306.83 270.35 305.055 269.513C304.593 269.295 304.122 269.047 303.781 268.603C303.639 268.417 303.472 268.177 303.415 267.931C303.341 267.609 303.526 267.338 303.669 267.087C304.428 265.753 307.306 263.059 308.804 262.547Z" fill="#191847"/>
<path fill-rule="evenodd" clip-rule="evenodd" d="M271.565 382.171C272.415 392.601 271.566 415.02 271.108 421.487C270.821 425.552 265.888 424.488 265.427 421.235C265.349 420.684 265.031 418.748 264.557 415.859C262.231 401.694 256.144 364.622 256.133 355.608C256.128 351.475 264.324 348.169 267.603 353.162C270.299 351.036 274.125 350.466 276.484 354.76C278.27 358.011 282.513 367.239 287.039 378.016C291.003 387.456 297.198 410.373 297.198 410.373L291.939 413.071C291.939 413.071 278.948 389.619 270.768 373.176C271.04 376.005 271.31 379.034 271.565 382.171Z" fill="#B28B67"/>
<path fill-rule="evenodd" clip-rule="evenodd" d="M296.822 401.889L278.771 353.876C274.447 346.065 262.323 355.465 263.798 359.995C267.146 370.28 284.173 403.575 285.17 406.639L296.822 401.889Z" fill="#1F28CF"/>
<path fill-rule="evenodd" clip-rule="evenodd" d="M255.677 359.357C255.677 372.966 260.989 404.955 260.993 407.952L273.863 407.465C273.863 407.465 270.488 365.745 271.017 365.463C271.809 365.039 303.507 370.389 313.014 370.792C326.722 371.375 332.393 361.932 332.853 344.012H306.299C306.299 344.012 272.24 348.577 261.529 350.362C256.943 351.126 255.677 355.608 255.677 359.357Z" fill="#2B44FF"/>
<path fill-rule="evenodd" clip-rule="evenodd" d="M295.501 409.506C296.515 408.766 297.933 408.87 298.511 409.94C298.904 410.666 299.272 411.444 299.394 411.995C299.693 413.34 299.867 416.034 299.867 416.034C298.477 416.423 274.875 423.03 274.875 423.03C274.875 423.03 273.098 419.687 275.133 418.811C277.168 417.935 278.505 417.314 278.505 417.314L288.349 408.67C288.804 408.27 289.477 408.346 289.797 408.833L290.677 410.172C290.677 410.172 292.846 410.646 294.06 410.306C294.48 410.189 295 409.871 295.501 409.506Z" fill="#E4E4E4"/>
<path fill-rule="evenodd" clip-rule="evenodd" d="M269.297 413.801C270.457 413.358 271.832 413.843 272.162 415.04C272.385 415.847 272.573 416.696 272.573 417.261C272.573 418.648 272.162 421.309 272.162 421.309C270.729 421.309 246.405 421.309 246.405 421.309C246.405 421.309 245.401 417.582 247.564 417.285C249.727 416.988 251.158 416.748 251.158 416.748L262.558 411.042C263.091 410.775 263.739 411.031 263.944 411.591L264.507 413.125C264.507 413.125 266.51 414.174 267.761 414.174C268.185 414.174 268.744 414.013 269.297 413.801Z" fill="#E4E4E4"/>
<rect width="24.2033" height="3.58923" rx="1.79461" transform="matrix(-1 0 0 1 272.117 421.309)" fill="#2F3676"/>
<path d="M338.79 356.96C338.79 351.437 334.313 346.96 328.79 346.96H290.793C285.271 346.96 280.793 351.437 280.793 356.96V377.212H334.79C336.999 377.212 338.79 375.421 338.79 373.212V356.96Z" fill="#2F3676"/>
<path fill-rule="evenodd" clip-rule="evenodd" d="M285.36 346.96C282.558 346.96 280.18 349.016 279.774 351.789L269.833 419.77H274.713" fill="#2F3676"/>
<path fill-rule="evenodd" clip-rule="evenodd" d="M272.117 430.026C267.577 430.026 263.897 425.893 263.897 420.796C263.897 415.699 267.577 411.567 272.117 411.567C276.656 411.567 280.337 415.699 280.337 420.796C280.337 425.893 276.656 430.026 272.117 430.026Z" fill="#191847"/>
<path fill-rule="evenodd" clip-rule="evenodd" d="M298.147 390.031C298.147 411.553 313.685 429 332.853 429C352.021 429 367.56 411.553 367.56 390.031C367.56 368.509 352.021 351.062 332.853 351.062C313.685 351.062 298.147 368.509 298.147 390.031ZM304.54 390.031C304.54 407.588 317.216 421.821 332.853 421.821C348.491 421.821 361.167 407.588 361.167 390.031C361.167 372.474 348.491 358.241 332.853 358.241C317.216 358.241 304.54 372.474 304.54 390.031Z" fill="#191847"/>
<rect width="3.65334" height="67.6827" transform="matrix(-1 0 0 1 334.68 356.19)" fill="#191847"/>
<rect width="3.88414" height="64.0883" rx="1.94207" transform="matrix(-0.665088 0.746765 0.665088 0.746765 312.833 364.651)" fill="#191847"/>
<rect width="4.10199" height="60.28" rx="2" transform="matrix(0 1 1 0 302.713 387.98)" fill="#191847"/>
<rect width="3.88414" height="64.0883" rx="1.94207" transform="matrix(0.665088 0.746765 0.665088 -0.746765 310.25 412.51)" fill="#191847"/>
<path fill-rule="evenodd" clip-rule="evenodd" d="M269.212 285.411L286.522 291.246L282.102 299.512L268.644 290.619C262.361 290.199 259.393 289.503 259.739 288.532C260.03 287.713 260.724 287.573 261.363 287.445C261.861 287.345 262.325 287.251 262.541 286.848C263.032 285.929 261.309 283.534 259.586 281.34C257.864 279.147 259.242 279.045 260.075 279.221C262.937 280.525 265.983 282.589 269.212 285.411ZM273.484 337.522L288.051 325.511L291.271 334.449L276.846 341.165C272.767 346.546 270.485 348.789 270.002 347.894C269.595 347.14 269.914 346.434 270.207 345.784C270.435 345.277 270.648 344.804 270.491 344.369C270.133 343.374 267.393 343.479 264.796 343.703C262.199 343.927 262.956 342.63 263.582 341.989C266.233 340.208 269.533 338.719 273.484 337.522Z" fill="#B28B67"/>
<path fill-rule="evenodd" clip-rule="evenodd" d="M310.677 293.167C302.745 309.774 291.274 322.505 274.644 335.74L280.941 343.711C299.509 335.964 309.308 331.289 314.12 315.598C315.328 311.66 316.172 299.106 316.897 292.501L310.677 293.167Z" fill="#2026A2"/>
<path fill-rule="evenodd" clip-rule="evenodd" d="M332.853 348.499H297.69C297.69 348.499 309.638 307.586 309.897 292.338C309.905 291.82 310.758 290.907 311.135 291.026C315.272 292.338 319.988 290.045 319.988 290.045C328.324 305.099 331.207 323.633 332.853 348.499Z" fill="#F2F2F2"/>
<path fill-rule="evenodd" clip-rule="evenodd" d="M311.168 313.012C305.676 339.463 305.929 361.115 318.054 361.115H336.803C339.781 338.646 331.955 307.491 324.699 291.777C324.422 291.177 323.832 290.045 322.443 290.045H316.995C316.992 290.054 316.99 290.062 316.988 290.07C315.348 290.085 313.543 290.152 311.588 290.225C301.522 290.6 287.488 291.123 271.695 285.431L269.833 295.877C284.087 306.17 298.521 314.144 311.168 313.012Z" fill="#1F28CF"/>
<path fill-rule="evenodd" clip-rule="evenodd" d="M262.444 47.7281C265.11 49.5295 267.73 50.3999 268.96 50.0446C272.044 49.1536 272.328 36.5084 269.941 31.5233C267.555 26.5381 255.289 24.3653 254.67 34.2424C254.456 37.6705 255.74 40.7298 257.637 43.2261L254.235 60.9999H264.118L262.444 47.7281Z" fill="#B28B67"/>
<path fill-rule="evenodd" clip-rule="evenodd" d="M266.038 26.0939C264.687 25.6323 262.727 25.4758 261.903 25.5817C262.372 24.322 262.558 22.9185 262.406 21.5519C262.259 20.2241 261.729 19.0934 261.24 17.9087C261.014 17.3626 260.758 16.8195 260.377 16.4017C259.989 15.9762 259.497 15.6953 258.981 15.5613C258.454 15.4241 257.902 15.4355 257.374 15.56C257.14 15.6151 256.93 15.7349 256.701 15.8015C256.466 15.8697 256.352 15.705 256.182 15.5395C255.771 15.1406 255.169 14.9438 254.649 14.8733C254.067 14.7943 253.462 14.8928 252.906 15.1076C252.365 15.3167 251.845 15.6562 251.454 16.1509C251.279 16.3711 251.121 16.6217 251.019 16.8984C250.976 17.0119 250.969 17.0792 250.868 17.1208C250.775 17.1593 250.666 17.1604 250.569 17.197C249.636 17.5512 248.838 18.3593 248.404 19.3967C248.151 20.002 248.031 21.0676 248.063 22.262C248.096 23.4564 249.058 26.573 249.958 27.7098C250.762 28.7244 251.942 29.394 253.082 29.6871C252.326 30.6561 251.822 31.867 251.45 33.0985C251.045 34.4362 250.795 35.8262 250.703 37.2424C250.615 38.5879 250.607 40.0109 250.888 41.3277C251.151 42.5592 251.714 43.5694 252.654 44.2103C253.085 44.5039 253.548 44.7245 254.014 44.926C254.473 45.1247 254.934 45.3178 255.415 45.4293C256.325 45.6402 257.374 45.604 258.075 44.7918C258.328 44.4991 258.606 44.1312 258.79 43.7735C258.856 43.6449 258.896 43.5608 258.816 43.4351C258.719 43.2845 258.563 43.1691 258.439 43.0513C257.732 42.3798 257.295 41.4832 257.185 40.4177C257.073 39.3366 257.332 37.9412 258.269 37.4694C259.427 36.887 260.702 37.5555 261.731 38.1787C262.168 36.4489 263.066 34.8915 264.473 34.0981C266.03 33.2203 267.817 33.1175 269.417 32.3644C269.834 32.1681 270.259 31.9454 270.566 31.5455C270.695 31.3783 270.845 31.1616 270.896 30.9405C270.964 30.6502 270.797 30.4067 270.667 30.1804C269.983 28.9802 267.388 26.5554 266.038 26.0939Z" fill="#191847"/>
<path fill-rule="evenodd" clip-rule="evenodd" d="M251.867 99L282.085 156.695L304.739 205.472H309.619L271.661 99L251.867 99Z" fill="#997659"/>
<path fill-rule="evenodd" clip-rule="evenodd" d="M304.257 203.299C303.076 202.885 301.685 203.36 301.373 204.572C301.205 205.224 301.073 205.88 301.073 206.334C301.073 207.59 301.44 210 301.44 210C302.716 210 324.376 210 324.376 210C324.376 210 325.271 206.624 323.344 206.355C321.418 206.086 320.144 205.869 320.144 205.869L310.111 200.761C309.575 200.488 308.921 200.747 308.716 201.312L308.256 202.587C308.256 202.587 306.473 203.537 305.358 203.537C305.049 203.537 304.659 203.44 304.257 203.299Z" fill="#E4E4E4"/>
<path fill-rule="evenodd" clip-rule="evenodd" d="M298.448 197.661L307.858 194.41C307.858 194.41 301.674 173.296 292.698 147.94C283.723 122.583 273.42 99 273.42 99H246.842C246.842 99 258.297 128.831 271.129 153.211C283.961 177.591 298.448 197.661 298.448 197.661Z" fill="#DB2721"/>
<path fill-rule="evenodd" clip-rule="evenodd" d="M249.881 99C247.029 119.275 241.528 145.178 241.009 145.977C240.663 146.51 228.204 151.278 203.632 160.281L204.686 165.195C233.988 160.367 249.427 156.621 251.005 153.957C253.371 149.961 265.184 118.396 269.76 99H249.881Z" fill="#B28B67"/>
<path fill-rule="evenodd" clip-rule="evenodd" d="M212.269 156.033L214.126 163.948C236.042 166.143 249.471 164.557 254.411 159.189C259.352 153.821 264.983 133.758 271.305 99H245.961C241.956 127.462 239.717 142.291 239.244 143.486C238.771 144.681 229.779 148.863 212.269 156.033Z" fill="#FF4133"/>
<path fill-rule="evenodd" clip-rule="evenodd" d="M205.291 160.401C205.468 159.304 204.869 158.217 203.799 158.064C203.143 157.971 202.466 157.919 202.032 158.007C200.949 158.225 198.934 159.056 198.934 159.056C199.155 160.491 202.917 184.853 202.917 184.853C202.917 184.853 205.983 185.272 205.881 183.059C205.778 180.845 205.744 179.375 205.744 179.375L208.471 166.911C208.585 166.387 208.282 165.88 207.779 165.754L206.51 165.435C206.51 165.435 205.381 163.594 205.187 162.34C205.109 161.833 205.18 161.097 205.291 160.401Z" fill="#E4E4E4"/>
<path fill-rule="evenodd" clip-rule="evenodd" d="M286.548 61.8948L272.447 70.6376L277.654 76.9645L287.9 66.3445C293.298 64.6605 295.766 63.4286 295.305 62.6488C294.916 61.9913 294.29 62.0142 293.713 62.0352C293.263 62.0516 292.843 62.0669 292.59 61.7586C292.01 61.0546 293.116 58.593 294.253 56.3079C295.39 54.0227 294.174 54.2217 293.479 54.5503C291.203 56.2944 288.893 58.7426 286.548 61.8948ZM300.725 74.1623L294.531 78.0142L294.884 85.0507C294.884 85.0507 298.896 81.773 302.347 80.6836C306.747 79.2946 308.528 78.2339 310.678 75.1321C311.829 73.4726 312.805 70.1363 311.71 69.0498C311.29 68.6331 309.725 69.6177 308.128 70.6224C306.911 71.388 305.675 72.1653 304.914 72.3428C303.889 72.5816 304.009 71.0779 304.105 69.8762C304.173 69.014 304.23 68.3073 303.842 68.5116C302.029 68.5468 300.725 74.1623 300.725 74.1623Z" fill="#997659"/>
<path fill-rule="evenodd" clip-rule="evenodd" d="M265.58 68.6898C270.519 68.6308 277.105 67.4499 284.132 62.4L286.892 69.3674C282.045 74.8133 275.229 79.2877 269.269 79.0983C264.573 78.9489 262.172 72.5179 265.58 68.6898Z" fill="#2026A2"/>
<path fill-rule="evenodd" clip-rule="evenodd" d="M252.259 116.424C247.563 115.731 243.249 115.094 240.692 115.664C237.823 105.117 240.206 98.4766 242.405 92.3465C243.73 88.6519 244.989 85.1427 244.991 81.0754C244.999 69.2312 253.4 51 254.636 51H254.991H264.787H265.909C266.412 58.3295 268.563 66.2652 270.728 74.252C271.234 76.1172 271.74 77.9851 272.226 79.8488C280.418 81.9538 298.609 74.6263 298.609 74.6263C298.609 74.6263 303.201 85.381 302.854 89.9608C292.266 96.2218 283.192 99.0132 275.715 99.1975C275.953 104.219 275.413 108.998 273.599 113.364C271.168 119.215 261.047 117.721 252.259 116.424Z" fill="#1F28CF"/>
<path fill-rule="evenodd" clip-rule="evenodd" d="M178.357 47.7281C180.928 49.5295 183.454 50.3999 184.64 50.0446C187.614 49.1536 187.887 36.5084 185.586 31.5233C183.285 26.5381 171.457 24.3653 170.861 34.2424C170.654 37.6705 171.892 40.7298 173.722 43.2261L170.441 60.9999H179.971L178.357 47.7281Z" fill="#B28B67"/>
<path fill-rule="evenodd" clip-rule="evenodd" d="M180.155 25.7779C178.899 25.5385 175.517 25.3739 174.893 25.374C174.495 25.374 174.063 25.4798 173.827 25.0544C173.634 24.7061 173.705 24.117 173.647 23.7128C173.58 23.2432 173.485 22.7797 173.388 22.3173C173.115 21.0017 172.7 19.75 172.121 18.5749C171.034 16.3702 169.441 14.6432 167.43 13.6383C165.21 12.5287 162.697 12.2746 160.308 12.4997C157.752 12.7405 155.439 13.7213 153.025 14.6442C150.726 15.5238 148.317 15.87 145.912 15.4405C143.488 15.0078 141.657 13.481 139.613 12.0319C137.52 10.5484 135.129 9.57809 132.655 9.80113C130.346 10.0094 128.218 11.1177 126.308 12.5983C124.522 13.9835 123.048 15.6501 122.215 17.9958C121.32 20.519 121.321 23.2886 122.793 25.5185C124.927 28.7508 128.889 29.5866 132.185 29.5035C134.091 29.4556 135.964 29.0511 137.764 28.3152C140.164 27.3338 142.239 25.6703 144.484 24.3207C145.538 23.6874 146.627 23.1672 147.769 22.7925C148.877 22.4288 149.969 22.262 150.972 23.04C152.033 23.8631 152.984 24.6717 154.198 25.1869C155.363 25.6813 156.597 25.9578 157.838 25.9466C160.252 25.9249 162.632 25.0505 164.977 24.4648C166.889 23.9872 168.935 23.5113 170.885 23.9703C171.698 24.1619 172.886 24.5574 173.18 25.5402C168.235 26.582 166.293 33.6909 167.687 38.9095C168.439 41.7262 172.962 45.0189 174.721 43.5381C175.835 42.6 175.159 41.3684 174.721 40.5554C173.883 38.9985 173.596 36.9985 175.147 35.9145C176.485 34.9796 177.892 37.1998 177.918 37.1973C178.286 37.1636 181.464 35.0748 183.653 32.0266C185.813 32.1754 186.14 30.5201 185.625 29.1663C185.109 27.8126 181.89 26.1089 180.155 25.7779Z" fill="#191847"/>
<path fill-rule="evenodd" clip-rule="evenodd" d="M162.435 99C163.169 110.43 210.407 144.08 210.682 145.024C210.866 145.653 195.979 184.817 195.979 184.817L200.108 186.65C200.108 186.65 222.943 145.172 221.77 140.753C220.091 134.425 185.118 99.1215 185.118 99.1215L162.435 99Z" fill="#B28B67"/>
<path fill-rule="evenodd" clip-rule="evenodd" d="M197.066 178.921L203.807 181.724C218.023 163.405 223.596 148.291 222.58 140.59C221.564 132.889 186.055 99.0279 186.055 99.0279L161.952 99.0279C162.774 125.497 206.558 145.125 207.144 146.252C207.729 147.38 201.966 158.428 197.066 178.921Z" fill="#2F3676"/>
<path fill-rule="evenodd" clip-rule="evenodd" d="M196.72 184.911C195.771 184.075 194.367 184.001 193.711 185.013C193.351 185.568 193.024 186.144 192.886 186.576C192.509 187.757 192.132 190.165 192.132 190.165C193.331 190.663 213.686 199.124 213.686 199.124C213.686 199.124 215.537 196.301 213.807 195.296C212.078 194.291 210.945 193.589 210.945 193.589L203.02 184.84C202.609 184.387 201.94 184.383 201.58 184.833L200.758 185.861C200.758 185.861 198.797 186.058 197.75 185.622C197.44 185.494 197.077 185.225 196.72 184.911Z" fill="#E4E4E4"/>
<path fill-rule="evenodd" clip-rule="evenodd" d="M167.867 99L146.823 156.695L126.141 205.472H131.021L184.407 99H167.867Z" fill="#997659"/>
<path fill-rule="evenodd" clip-rule="evenodd" d="M128.351 203.299C127.17 202.885 125.779 203.36 125.467 204.572C125.298 205.224 125.167 205.88 125.167 206.334C125.167 207.59 125.533 210 125.533 210C126.809 210 148.47 210 148.47 210C148.47 210 149.364 206.624 147.438 206.355C145.511 206.086 144.237 205.869 144.237 205.869L134.204 200.761C133.668 200.488 133.014 200.747 132.81 201.312L132.35 202.587C132.35 202.587 130.567 203.537 129.452 203.537C129.142 203.537 128.753 203.44 128.351 203.299Z" fill="#E4E4E4"/>
<path fill-rule="evenodd" clip-rule="evenodd" d="M128.009 195.339L138.851 197.661C147.235 183.585 182.32 125.868 186.167 99H162.029C149.182 118.423 136 181.03 128.009 195.339Z" fill="#5C63AB"/>
<path fill-rule="evenodd" clip-rule="evenodd" d="M219.158 79.3773L204.437 86.6956L209.138 93.5122L220.162 83.9435C225.669 82.7985 228.223 81.8148 227.824 80.9925C227.487 80.2992 226.861 80.2601 226.285 80.2241C225.835 80.1961 225.416 80.1699 225.187 79.8377C224.664 79.0793 225.955 76.7362 227.264 74.5719C228.573 72.4077 227.346 72.4859 226.628 72.7447C224.226 74.2576 221.736 76.4684 219.158 79.3773ZM153.25 90.581L144.925 88.7112C139.279 105.557 135.914 114.788 134.828 116.405C134.031 117.591 129.12 120.645 125.796 122.276C124.461 122.931 124.748 124.207 125.139 124.615C127.608 127.191 129.902 126.288 132.401 125.306C133.124 125.021 133.864 124.73 134.63 124.514C136.614 123.957 137.218 125.112 137.788 126.203C138.293 127.169 138.772 128.086 140.16 127.72C140.097 127.412 140.02 127.066 139.936 126.693C139.395 124.283 138.597 120.729 139.781 118.664C140.388 117.604 144.878 108.243 153.25 90.581Z" fill="#B28B67"/>
<path fill-rule="evenodd" clip-rule="evenodd" d="M175.876 53.4521L179.389 52.77C187.04 61.1723 190.163 81.3586 195.262 84.0306C200.083 86.5569 206.917 84.1123 215.041 80.8114L217.528 87.1037C210.147 96.1433 194.423 103.78 188.049 99.4206C177.859 92.45 175.507 67.5532 175.876 53.4521Z" fill="#DB2721"/>
<path fill-rule="evenodd" clip-rule="evenodd" d="M160.562 103.428C160.562 103.428 181.691 103.428 191.645 103.428C193.066 103.428 192.798 101.106 192.593 99.9346C190.223 86.4135 180.973 71.8384 180.973 52.5916L172.007 51C164.591 64.5017 162.027 81.1251 160.562 103.428Z" fill="#DDE3E9"/>
<path fill-rule="evenodd" clip-rule="evenodd" d="M171.531 51H171.429C151.319 65.0288 139.166 86.7754 134.969 116.24L141.484 117.684C145.8 111.993 151.126 102.677 157.462 89.7383C155.518 97.5326 154.099 105.527 153.656 113.086H181.636C187.052 97.5897 174.979 51 174.979 51H173.047H171.531Z" fill="#FF4133"/>
<path fill-rule="evenodd" clip-rule="evenodd" d="M93.7184 25.4858C88.7064 25.4858 84.6434 29.5489 84.6434 34.5608V46.0071C84.6434 50.5534 87.9865 54.3189 92.3485 54.9794C92.3503 55.0169 92.3522 55.0546 92.3541 55.0924H104.051C105.858 53.0675 104.167 40.4009 102.791 34.3474C102.678 29.434 98.6591 25.4858 93.7184 25.4858Z" fill="#191847"/>
<path fill-rule="evenodd" clip-rule="evenodd" d="M93.894 47.7961C96.5058 49.6011 99.0721 50.4732 100.277 50.1172C103.297 49.2244 103.575 36.5545 101.238 31.5596C98.9006 26.5647 86.8852 24.3876 86.2796 34.2841C86.0694 37.7188 87.3273 40.7841 89.1859 43.2854L85.8534 61.094H95.5334L93.894 47.7961Z" fill="#B28B67"/>
<path fill-rule="evenodd" clip-rule="evenodd" d="M84.9988 34.342C85.2798 34.0234 85.5517 33.7151 85.8215 33.4391L85.8085 33.0797C85.8085 33.0797 88.8467 25.9485 93.5173 25.9485C98.1837 25.9485 99.6595 28.4358 100.914 30.5501L100.917 30.5558C100.261 33.1373 98.2836 34.1817 96.047 35.3628C95.0843 35.8713 94.0736 36.4051 93.0996 37.0977C92.7181 36.7423 92.2316 36.5293 91.7017 36.5293C90.4766 36.5293 89.4834 37.668 89.4834 39.0727C89.4834 40.4774 90.4766 41.6161 91.7017 41.6161C91.7355 41.6161 91.7691 41.6153 91.8025 41.6136C92.2485 47.1064 92.0698 53.3792 90.7407 54.8682H79.044C78.7082 48.1794 80.2174 46.2714 81.7595 44.3216C83.2105 42.487 84.6907 40.6155 84.6907 34.6899C84.7948 34.5733 84.8974 34.457 84.9988 34.342Z" fill="#191847"/>
<path fill-rule="evenodd" clip-rule="evenodd" d="M70.2878 144.836C70.2878 144.836 84.8014 149.491 95.3316 149.491C105.862 149.491 114.893 142.323 114.893 142.323C114.893 142.323 100.691 137.546 91.5 137.546C82.3095 137.546 70.2878 144.836 70.2878 144.836Z" fill="#1F28CF"/>
<path fill-rule="evenodd" clip-rule="evenodd" d="M103.708 153.963C103.614 153.803 103.536 153.628 103.473 153.438C102.18 149.517 81.4638 107.211 79.4 99.4766H102.723C104.292 105.357 111.355 142.262 112.349 149.624C115.485 161.239 121.942 198.853 122.766 201.459C123.633 204.2 118.754 207.056 117.454 203.686C115.385 198.323 110.456 183.486 108.261 174.426C106.204 165.933 104.528 158.292 103.708 153.963Z" fill="#997659"/>
<path fill-rule="evenodd" clip-rule="evenodd" d="M84.626 159.129C75.1551 161.873 40.5122 166.835 38.1349 167.613C35.6894 168.413 33.5451 162.634 36.5679 161.382C41.3777 159.39 54.631 154.787 62.6665 152.909C69.1297 151.398 75.0275 150.165 78.9872 149.443C78.6517 136.691 77.1183 106.086 78.1233 99.4766H98.76C97.7962 105.815 89.6488 152.064 88.1345 156.694C87.6539 158.346 86.22 159.077 84.626 159.129Z" fill="#B28B67"/>
<path fill-rule="evenodd" clip-rule="evenodd" d="M37.2393 162.005C37.4143 160.91 36.818 159.825 35.7506 159.673C35.1032 159.581 34.4358 159.53 34.0071 159.617C32.9327 159.834 30.9346 160.661 30.9346 160.661C31.1543 162.091 34.8848 186.348 34.8848 186.348C34.8848 186.348 37.9258 186.765 37.8243 184.562C37.7227 182.358 37.6888 180.894 37.6888 180.894L40.3926 168.485C40.5066 167.962 40.2049 167.456 39.703 167.33L38.4485 167.013C38.4485 167.013 37.3287 165.181 37.1367 163.932C37.0592 163.428 37.1287 162.697 37.2393 162.005Z" fill="#E4E4E4"/>
<path fill-rule="evenodd" clip-rule="evenodd" d="M118.479 203.336C117.294 202.924 115.9 203.398 115.589 204.613C115.425 205.257 115.297 205.902 115.297 206.349C115.297 207.6 115.66 210 115.66 210C116.926 210 138.409 210 138.409 210C138.409 210 139.296 206.639 137.385 206.371C135.475 206.103 134.211 205.887 134.211 205.887L124.27 200.806C123.734 200.532 123.078 200.791 122.874 201.358L122.421 202.619C122.421 202.619 120.652 203.565 119.547 203.565C119.246 203.565 118.869 203.472 118.479 203.336Z" fill="#E4E4E4"/>
<path fill-rule="evenodd" clip-rule="evenodd" d="M78.19 99.4766C78.19 99.4766 91.8308 95.0019 104.003 99.4766C106.827 114.246 113.687 120.108 114.893 142.751C101.18 150.564 84.24 137.18 70.1233 144.798C66.09 134.142 71.7366 108.478 78.19 99.4766Z" fill="#2B44FF"/>
<path fill-rule="evenodd" clip-rule="evenodd" d="M133.238 78.632L117.313 81.1225L120.171 89.3028L133.092 83.4292C138.662 84.0592 141.355 83.9075 141.172 82.9742C141.017 82.1872 140.425 81.9496 139.88 81.7308C139.455 81.5603 139.059 81.4012 138.919 81.0026C138.601 80.0924 140.412 78.2057 142.196 76.5002C143.981 74.7946 142.783 74.4808 142.03 74.506C139.354 75.2251 136.424 76.6004 133.238 78.632ZM55.7638 123.481C56.9458 120.732 67.2878 85.3489 67.2878 85.3489L76.1198 85.3869C76.1198 85.3869 61.5931 122.868 60.9709 124.636C60.1626 126.933 61.5355 130.269 62.4665 132.532C62.6105 132.882 62.744 133.206 62.8571 133.497C61.5654 134.16 60.9448 133.359 60.2907 132.514C59.5518 131.56 58.7699 130.551 56.9295 131.533C56.2184 131.912 55.5455 132.361 54.8881 132.799C52.6174 134.312 50.5313 135.702 47.6936 133.695C47.2437 133.376 46.7507 132.178 47.9418 131.242C50.9095 128.908 55.186 124.825 55.7638 123.481Z" fill="#997659"/>
<path fill-rule="evenodd" clip-rule="evenodd" d="M91.4795 53.2323L98.3947 53.7605C100.098 71.4263 109.374 82.5848 130.144 78.8072L132.903 101.557C113.491 104.433 96.4662 95.5225 92.9771 71.3963C92.0739 65.1508 91.3607 58.6511 91.4795 53.2323Z" fill="#AFB9C5"/>
<path fill-rule="evenodd" clip-rule="evenodd" d="M56.9753 118.899C61.7765 89.6098 71.9102 66.9502 87.3763 50.9202H88.0399H88.0625L88.068 50.9276L98.5452 53.6788C98.5452 68.1088 101.345 78.8907 104.037 89.2567C105.2 93.7331 106.342 98.132 107.23 102.714H78.9336C78.535 107.963 78.2902 113.358 78.1627 118.899H56.9753Z" fill="#C5CFD6"/>
<path fill-rule="evenodd" clip-rule="evenodd" d="M78.9336 102.713C79.7451 92.0268 81.1942 81.9454 83.5897 72.4692C83.0647 82.6032 82.919 95.1748 84.6846 102.713H78.9336Z" fill="black" fill-opacity="0.1"/>
<path fill-rule="evenodd" clip-rule="evenodd" d="M408.751 287.069C405.751 289.096 402.803 290.075 401.42 289.675C397.951 288.673 397.632 274.447 400.316 268.839C403 263.231 416.8 260.786 417.496 271.898C417.737 275.754 416.292 279.196 414.158 282.004L417.985 302H406.868L408.751 287.069Z" fill="#B28B67"/>
<path fill-rule="evenodd" clip-rule="evenodd" d="M413.816 269.288C407.401 269.34 402.937 269.037 400.382 268.25C400.499 265.813 402.759 263.058 408.72 263.058C415.353 263.058 418.912 267.391 418.912 272.404C418.912 276.984 416.281 282.561 414.279 282.788C413.76 282.661 413.318 281.961 412.877 280.996C413.702 280.546 414.279 279.486 414.279 278.115C414.279 276.798 413.242 275.519 411.963 275.519C411.496 275.519 411.062 275.689 410.699 275.969C409.858 274.452 408.805 273.319 407.331 273.442L408.257 270.327L413.816 269.808V269.288Z" fill="#191847"/>
<path fill-rule="evenodd" clip-rule="evenodd" d="M422.04 433.548C402.478 433.548 386.62 416.613 386.62 395.722C386.62 374.831 402.478 357.895 422.04 357.895C441.602 357.895 457.46 374.831 457.46 395.722C457.46 416.613 441.602 433.548 422.04 433.548Z" fill="#C5CFD6"/>
<path fill-rule="evenodd" clip-rule="evenodd" d="M366.973 393.704C365.262 400.409 360.999 413.117 355.106 427.712L349.505 425.883C354.405 392.3 358.483 370.067 360.818 363.3C362.362 358.829 374.037 359.353 372.694 368.349C372.131 372.122 369.902 382.224 366.973 393.704ZM389.993 369.918C399.126 372.035 418.064 379.519 423.471 381.91C426.87 383.413 424.679 388.51 421.78 388.064C421.289 387.989 419.552 387.771 416.96 387.447C408.635 386.405 391.491 384.259 378.488 382.166C371.641 381.063 375.324 366.715 382.433 368.234C384.825 368.744 387.368 369.31 389.993 369.918Z" fill="#B28B67"/>
<path fill-rule="evenodd" clip-rule="evenodd" d="M360.46 359.51C361.394 356.101 403.841 344 403.841 344H407.32V347.627L378.07 364.285C378.109 364.823 378.085 365.391 377.991 365.99C378.202 378.34 373.478 387.566 368.8 396.701C365.741 402.674 362.703 408.608 361.077 415.351L350.331 413.557C350.644 412.662 351.139 408.623 351.816 403.101C353.522 389.178 356.385 365.825 360.4 359.647C360.414 359.625 360.428 359.604 360.443 359.583C360.448 359.558 360.454 359.534 360.46 359.51Z" fill="#1F28CF"/>
<path fill-rule="evenodd" clip-rule="evenodd" d="M404.89 374.179C407.566 373.58 410.031 373.045 412.14 372.631C425.762 369.958 429.734 361.8 427.385 344H402.287C398.187 345.318 376.88 355.314 365.825 360.631C358.508 364.151 360.815 376.837 364.958 380.138C364.981 380.341 365.055 380.478 365.188 380.54C380.897 387.824 394.294 387.281 402.896 386.932C406.499 386.786 409.261 386.674 411 387.185L413.725 377.57L404.89 374.179Z" fill="#2B44FF"/>
<path fill-rule="evenodd" clip-rule="evenodd" d="M420.544 382.419C420.638 381.262 421.519 380.353 422.603 380.531C423.401 380.662 424.245 380.852 424.732 381.118C425.851 381.729 427.814 383.316 427.814 383.316C427.182 384.768 416.441 409.405 416.441 409.405C416.441 409.405 412.993 408.783 413.708 406.461C414.424 404.139 414.862 402.584 414.862 402.584L415.302 388.301C415.319 387.741 415.752 387.322 416.277 387.359L417.835 387.469C417.835 387.469 419.565 385.902 420.118 384.634C420.353 384.096 420.478 383.234 420.544 382.419Z" fill="#E4E4E4"/>
<path fill-rule="evenodd" clip-rule="evenodd" d="M355.281 424.976C356.438 424.532 357.81 425.018 358.142 426.211C358.368 427.027 358.56 427.886 358.56 428.456C358.56 429.848 358.145 432.519 358.145 432.519C356.702 432.519 332.201 432.519 332.201 432.519C332.201 432.519 331.189 428.778 333.368 428.48C335.547 428.182 336.988 427.942 336.988 427.942L348.481 422.21C349.014 421.944 349.659 422.2 349.865 422.759L350.435 424.305C350.435 424.305 352.452 425.357 353.713 425.357C354.146 425.357 354.717 425.193 355.281 424.976Z" fill="#E4E4E4"/>
<path fill-rule="evenodd" clip-rule="evenodd" d="M459.12 360.93C457.297 358.186 446.235 328.772 446.235 328.772L438.132 330.319C438.132 330.319 452.46 361.479 453.478 363.272C454.8 365.601 453.858 369.516 453.219 372.171C453.121 372.581 453.029 372.962 452.954 373.302C454.525 373.753 455.078 372.753 455.661 371.698C456.319 370.506 457.016 369.246 459.261 369.93C460.128 370.194 460.965 370.541 461.782 370.881C464.606 372.053 467.2 373.13 470.027 370.355C470.476 369.915 470.814 368.509 469.307 367.739C465.552 365.82 460.012 362.271 459.12 360.93ZM365.881 345.683L380.453 333.927L383.75 342.814L369.286 349.326C365.218 354.617 362.938 356.817 362.447 355.926C362.032 355.175 362.348 354.479 362.638 353.837C362.865 353.337 363.076 352.871 362.915 352.438C362.549 351.449 359.793 351.526 357.183 351.723C354.573 351.919 355.326 350.641 355.951 350.013C358.606 348.274 361.916 346.83 365.881 345.683Z" fill="#B28B67"/>
<path fill-rule="evenodd" clip-rule="evenodd" d="M406.808 291.045L411.697 293.299C411.646 294.733 411.652 296.773 411.659 299.11C411.68 306.445 411.71 316.708 410.024 320.349C404.184 332.964 392.185 339.531 378.821 346.845C377.029 347.825 375.213 348.819 373.384 349.843L369.703 341.407C370.121 341.075 370.535 340.741 370.945 340.405C370.37 340.176 369.891 339.664 369.681 338.964C369.318 337.755 369.896 336.444 370.973 336.037C373.159 335.209 375.198 334.86 377.073 335.011C390.777 322.049 399.997 306.869 406.808 291.045Z" fill="#69A1AC"/>
<path fill-rule="evenodd" clip-rule="evenodd" d="M428.867 348.478C428.867 348.478 407.315 351.137 394.939 348.478C393.917 348.258 393.962 343.308 394.436 341.957C401.818 320.906 406.674 305.495 406.674 290.874C408.705 292.066 413.785 291.231 413.785 291.231C422.886 306.299 427.07 323.588 428.867 348.478Z" fill="#191847"/>
<path fill-rule="evenodd" clip-rule="evenodd" d="M451.773 406.021C440.636 401.025 429.321 402.674 419.127 404.16C412.064 405.189 405.54 406.14 399.987 404.747C395.471 378.668 401.736 349.847 406.868 326.236C410.077 311.472 412.844 298.746 412.255 290H416.742L416.742 290L417.453 290C417.453 290 443.501 307.958 456.201 348.732C457.196 348.938 458.139 349.298 459.028 349.816C459.87 350.306 458.692 353.243 457.693 353.861C458.053 355.194 458.399 356.548 458.729 357.926L450.097 360.779C443.845 342.268 436.436 331.588 430.315 325.463C430.276 327.519 430.083 329.588 429.89 331.67C429.538 335.461 429.181 339.296 429.74 343.177C429.848 343.933 429.98 344.694 430.132 345.461C431.005 345.549 431.735 346.208 431.879 347.129L432.191 349.117C432.303 349.829 432.039 350.527 431.548 351.001C433.675 357.948 437.086 365.212 440.507 372.498C445.913 384.01 451.343 395.574 451.773 406.021Z" fill="#89C5CC"/>
<path fill-rule="evenodd" clip-rule="evenodd" d="M415.565 290.513L417.923 298.658L413.175 304.764L417.466 309.562L407.084 329.529L419.78 309.602L415.565 304.764L419.78 299.368L415.565 290.513Z" fill="black" fill-opacity="0.1"/>
<path fill-rule="evenodd" clip-rule="evenodd" d="M410.129 337.23C409.119 337.23 408.301 336.311 408.301 335.177C408.301 334.042 409.119 333.123 410.129 333.123C411.139 333.123 411.957 334.042 411.957 335.177C411.957 336.311 411.139 337.23 410.129 337.23ZM407.844 349.038C406.834 349.038 406.016 348.118 406.016 346.984C406.016 345.85 406.834 344.931 407.844 344.931C408.854 344.931 409.672 345.85 409.672 346.984C409.672 348.118 408.854 349.038 407.844 349.038ZM405.559 358.792C405.559 359.926 406.377 360.845 407.387 360.845C408.396 360.845 409.215 359.926 409.215 358.792C409.215 357.657 408.396 356.738 407.387 356.738C406.377 356.738 405.559 357.657 405.559 358.792Z" fill="black" fill-opacity="0.4"/>
</g>
<defs>
<clipPath id="clip0">
<rect width="493" height="445" fill="white"/>
</clipPath>
</defs>
</svg>
