<svg xmlns="http://www.w3.org/2000/svg" width="2404" height="541" fill="none" viewBox="0 0 2404 541"><g clip-path="url(#clip0)"><path fill="#191847" fill-rule="evenodd" d="M1007 135.707C1018.43 135.707 1022.59 122.024 1029.08 114.515C1033.72 109.143 1041.65 110.745 1044 103.224C1049.9 84.3111 1034.11 71 1013.5 71C992.894 71 979 82.6743 976 100.224C973 117.773 986.394 135.707 1007 135.707Z" clip-rule="evenodd"/><path fill="#B28B67" fill-rule="evenodd" d="M1019.94 133.244C1026.41 137.147 1032.77 139.033 1035.76 138.263C1043.25 136.333 1043.94 108.935 1038.14 98.1339C1032.35 87.3328 1002.56 82.625 1001.06 104.025C1000.54 111.453 1003.65 118.081 1008.26 123.49L1000 162H1024L1019.94 133.244Z" clip-rule="evenodd"/><path fill="#191847" fill-rule="evenodd" d="M1002.62 88.9999C984.234 107 1002.69 126.132 1007.74 126.132C1008.07 123.535 1009.07 121.008 1010.52 118.604C1009.75 117.6 1009.29 116.352 1009.29 115C1009.29 111.686 1012.05 109 1015.45 109C1016.51 109 1017.51 109.262 1018.38 109.723C1025.75 103.438 1034.99 99.0561 1039.58 98.1945C1047.57 96.6959 1021 70.9999 1002.62 88.9999Z" clip-rule="evenodd"/><path fill="#997659" fill-rule="evenodd" d="M992 245L1029.63 368.024L1047.86 472.648H1062.15L1042.89 245H992Z" clip-rule="evenodd"/><path fill="#B28B67" fill-rule="evenodd" d="M978.538 245C981.094 312.547 978.086 347.389 977.514 353.526C976.942 359.663 969.108 399.455 950.564 474.708L965.794 469.478C995.102 400.459 1005.09 364.589 1008.45 355.526C1011.81 346.463 1020.74 309.621 1035.23 245H978.538Z" clip-rule="evenodd"/><path fill="#E4E4E4" fill-rule="evenodd" d="M953.45 468.284C952.378 467.813 951.104 468.29 950.705 469.391C949.977 471.398 949 474.409 949 476.106C949 478.811 949.901 484 949.901 484C953.039 484 1006.3 484 1006.3 484C1006.3 484 1008.5 476.732 1003.76 476.152C999.028 475.573 995.895 475.106 995.895 475.106L969.68 463.419C969.165 463.189 968.563 463.43 968.348 463.951L966.663 468.039C966.663 468.039 962.278 470.085 959.537 470.085C957.868 470.085 955.246 469.074 953.45 468.284Z" clip-rule="evenodd"/><path fill="#E4E4E4" fill-rule="evenodd" d="M1047.45 468.284C1046.38 467.813 1045.1 468.29 1044.71 469.391C1043.98 471.398 1043 474.409 1043 476.106C1043 478.811 1043.9 484 1043.9 484C1047.04 484 1100.3 484 1100.3 484C1100.3 484 1102.5 476.732 1097.76 476.152C1093.03 475.573 1089.9 475.106 1089.9 475.106L1063.68 463.419C1063.17 463.189 1062.56 463.43 1062.35 463.951L1060.66 468.039C1060.66 468.039 1056.28 470.085 1053.54 470.085C1051.87 470.085 1049.25 469.074 1047.45 468.284Z" clip-rule="evenodd"/><path fill="#69A1AC" fill-rule="evenodd" d="M987 245L1003 307.68H1051.87L1044.58 245H987Z" clip-rule="evenodd"/><path fill="#89C5CC" fill-rule="evenodd" d="M978 245C970.103 268.671 975 307.68 975 307.68H1024.87L1038.58 245H978Z" clip-rule="evenodd"/><path fill="#B28B67" fill-rule="evenodd" d="M1108.37 256.758L1080.04 229.123L1070.64 245.403L1100.09 262.77C1107.48 274.405 1111.82 279.432 1113.11 277.852C1114.19 276.519 1113.7 275.058 1113.24 273.713C1112.88 272.665 1112.55 271.687 1113 270.894C1114.05 269.082 1119.96 270.12 1125.54 271.344C1131.11 272.568 1129.82 269.832 1128.63 268.404C1123.37 264.156 1116.61 260.273 1108.37 256.758ZM941.398 296.908C944.328 290.963 954.308 233.02 954.308 233.02L975.205 233.102C975.205 233.102 955.851 295.583 954.308 299.406C952.304 304.372 955.708 311.587 958.016 316.48C958.373 317.237 958.704 317.938 958.985 318.567C955.782 320 954.243 318.268 952.622 316.442C950.79 314.379 948.851 312.197 944.288 314.32C942.525 315.14 940.857 316.109 939.227 317.057C933.597 320.329 928.425 323.336 921.389 318.994C920.274 318.306 919.051 315.715 922.005 313.69C929.362 308.645 939.965 299.815 941.398 296.908Z" clip-rule="evenodd"/><path fill="#191847" fill-rule="evenodd" d="M1013.7 145.332L1022.34 143.849C1037.23 181.039 1063.22 214.831 1100.32 245.225L1072.29 279.281C1035.19 236.005 1012.33 191.355 1013.7 145.332Z" clip-rule="evenodd"/><path fill="#DDE3E9" fill-rule="evenodd" d="M976 254H1053C1053 254 1026.24 188.938 1026.24 143.461L1003.01 140C984.76 169.358 979.605 205.505 976 254Z" clip-rule="evenodd"/><path fill="#2F3676" fill-rule="evenodd" d="M941 287C949.421 191.996 1002.5 140 1002.5 140L1002.52 140.016C1002.53 140.011 1002.53 140.005 1002.53 140H1004.05C1006.77 140.094 1012.34 140.338 1012.34 140.338L1017.95 156.377C1018.84 185.71 1028.35 274.606 1028.35 274.606H977.95C978.036 278.682 978.225 282.815 978.531 287H941Z" clip-rule="evenodd"/><path fill="#000" fill-opacity=".1" fill-rule="evenodd" d="M977.959 275C977.556 257.25 979.131 240.584 981.758 225.502C983.132 243.399 986.003 264.933 992 275H977.959Z" clip-rule="evenodd"/><path fill="#fff" fill-opacity=".2" fill-rule="evenodd" d="M989.111 244L1014 232.429V244H989.111Z" clip-rule="evenodd"/><path fill="#915B3C" fill-rule="evenodd" d="M1384.06 206.244C1377.59 210.147 1371.23 212.033 1368.24 211.263C1360.75 209.333 1360.06 181.935 1365.86 171.134C1371.65 160.333 1401.44 155.625 1402.94 177.025C1403.46 184.453 1400.35 191.081 1395.74 196.49L1404 235H1380L1384.06 206.244Z" clip-rule="evenodd"/><path fill="#191847" fill-rule="evenodd" d="M1397.58 201.308C1400.59 187.906 1409.18 178.771 1407.86 172.782C1406.55 166.792 1400.88 165.332 1400.88 165.332C1400.88 165.332 1397.94 153.457 1381.94 155.23C1365.95 157.004 1356.18 163.648 1360.4 178.268C1364.27 178.268 1368.95 176.866 1375.42 179.268C1378.5 180.411 1379.83 186.358 1379.83 186.358H1382.75C1382.75 186.358 1387.01 179.301 1391.15 181.171C1395.29 183.042 1393.03 190.259 1393.03 190.259L1394.47 201.308H1397.58Z" clip-rule="evenodd"/><path fill="#C5CFD6" fill-rule="evenodd" d="M1471 360C1479.84 360 1487 367.163 1487 376V468C1487 476.837 1479.84 484 1471 484H1356C1347.16 484 1340 476.837 1340 468V376C1340 367.163 1347.16 360 1356 360H1471ZM1455 388C1457.21 388 1459 389.791 1459 392V452C1459 454.209 1457.21 456 1455 456H1372C1369.79 456 1368 454.209 1368 452V392C1368 389.791 1369.79 388 1372 388H1455Z" clip-rule="evenodd"/><path fill="#B28B67" fill-rule="evenodd" d="M1240.84 479C1260.56 454.924 1273.9 437.075 1280.86 425.454C1292.79 405.555 1302.55 387.848 1305.63 381.084C1312.97 364.955 1288.72 357.403 1283.23 364.926C1274.92 376.312 1257.18 412.143 1230 472.417L1240.84 479Z" clip-rule="evenodd"/><path fill="#2F3676" fill-rule="evenodd" d="M1281.24 472L1317.93 379.637C1325.78 362.8 1287.88 351.732 1282.12 359.568C1269.02 377.357 1237.9 447.534 1234 452.834L1281.24 472Z" clip-rule="evenodd"/><path fill="#915B3C" fill-rule="evenodd" d="M1378.97 453.477C1371.82 443.051 1345.82 407.974 1331.66 393.461C1327.59 389.291 1323.62 385.288 1319.87 381.557C1308.7 370.47 1286.48 389.106 1297.62 399.205C1325.36 424.355 1365.85 458.307 1369.23 461.334C1373.97 465.577 1383.46 460.029 1378.97 453.477Z" clip-rule="evenodd"/><path fill="#E4E4E4" fill-rule="evenodd" d="M1374.34 449.185C1375.03 448.241 1376.37 448.017 1377.27 448.771C1378.9 450.146 1381.25 452.264 1382.1 453.734C1383.45 456.076 1385.27 461.021 1385.27 461.021C1382.55 462.59 1336.42 489.222 1336.42 489.222C1336.42 489.222 1330.88 484.027 1334.7 481.156C1338.51 478.286 1340.99 476.315 1340.99 476.315L1357.85 453.087C1358.18 452.631 1358.82 452.538 1359.27 452.882L1362.77 455.579C1362.77 455.579 1367.59 455.158 1369.97 453.788C1371.41 452.953 1373.18 450.767 1374.34 449.185Z" clip-rule="evenodd"/><path fill="#E4E4E4" fill-rule="evenodd" d="M1246.55 474.284C1247.62 473.813 1248.9 474.29 1249.29 475.391C1250.02 477.398 1251 480.409 1251 482.106C1251 484.811 1250.1 490 1250.1 490C1246.96 490 1193.7 490 1193.7 490C1193.7 490 1191.5 482.732 1196.24 482.152C1200.97 481.573 1204.1 481.106 1204.1 481.106L1230.32 469.419C1230.83 469.189 1231.44 469.43 1231.65 469.951L1233.34 474.039C1233.34 474.039 1237.72 476.085 1240.46 476.085C1242.13 476.085 1244.75 475.074 1246.55 474.284Z" clip-rule="evenodd"/><path fill="#5C63AB" fill-rule="evenodd" d="M1331.14 384.25C1331.14 384.25 1376.88 376.798 1392.42 374.058C1421.94 368.852 1430.55 352.965 1425.46 318.302L1371.07 318.302C1360.27 321.42 1280.83 356.872 1280.83 356.872C1271.3 361.602 1273.08 375.548 1274.82 380.142C1274.93 380.423 1323.01 462.713 1323.01 462.713L1367.51 434.366L1331.05 387.59C1331.05 387.59 1329.61 384.682 1331.14 384.25Z" clip-rule="evenodd"/><path fill="#915B3C" fill-rule="evenodd" d="M1295.32 328.635L1327.22 305.211L1334.27 322.642L1302.68 335.741C1293.75 346.235 1288.75 350.61 1287.7 348.865C1286.8 347.394 1287.5 346.017 1288.14 344.748C1288.64 343.76 1289.11 342.838 1288.77 341.989C1287.98 340.049 1281.98 340.254 1276.29 340.691C1270.61 341.128 1272.27 338.598 1273.64 337.348C1279.44 333.874 1286.67 330.97 1295.32 328.635ZM1462.6 369.908C1459.67 363.963 1449.69 306.02 1449.69 306.02L1428.79 306.102C1428.79 306.102 1448.15 368.583 1449.69 372.406C1451.7 377.372 1448.29 384.587 1445.98 389.48C1445.63 390.237 1445.3 390.938 1445.02 391.567C1448.22 393 1449.76 391.268 1451.38 389.442C1453.21 387.379 1455.15 385.196 1459.71 387.319C1461.48 388.14 1463.14 389.109 1464.77 390.057C1470.4 393.329 1475.58 396.336 1482.61 391.994C1483.73 391.306 1484.95 388.715 1482 386.69C1474.64 381.644 1464.03 372.815 1462.6 369.908Z" clip-rule="evenodd"/><path fill="#E87613" fill-rule="evenodd" d="M1390.3 218.332L1381.66 216.849C1349.57 244.564 1336.4 297.809 1297.07 326.015L1306.54 337.748C1374.76 329.301 1391.67 264.355 1390.3 218.332Z" clip-rule="evenodd"/><path fill="#DDE3E9" fill-rule="evenodd" d="M1428 327C1428 327 1375.99 327 1351.49 327C1347.99 327 1348.65 321.952 1349.16 319.404C1354.99 290.004 1377.76 258.312 1377.76 216.461L1399.83 213C1418.08 242.358 1424.4 278.505 1428 327Z" clip-rule="evenodd"/><path fill="#FF9B21" fill-rule="evenodd" d="M1436.6 348C1440.04 356.259 1443.41 363.465 1446.59 369H1463C1464.77 311.919 1443.15 267.996 1425.07 241.513C1429.08 241.226 1432.71 239.545 1435 235.411C1443.07 220.856 1440.15 212.842 1431.53 210.208C1426.79 208.76 1422.33 209.748 1417 210.932C1412.63 211.9 1407.68 212.999 1401.5 213C1401.49 213 1401.49 213 1401.49 213C1400.89 213 1400.35 213.04 1399.85 213.117L1392.53 213.535C1392.53 213.535 1362.79 314.305 1376.13 348H1436.6Z" clip-rule="evenodd"/><path fill="#000" fill-opacity=".1" fill-rule="evenodd" d="M1436.6 348C1432.09 337.164 1427.46 324.516 1423.01 311.454C1421.36 325.839 1418.6 340.286 1414 348H1436.6Z" clip-rule="evenodd"/><path fill="#B28B67" fill-rule="evenodd" d="M1592.06 206.244C1585.59 210.147 1579.23 212.033 1576.24 211.263C1568.75 209.333 1568.06 181.935 1573.86 171.134C1579.65 160.333 1609.44 155.625 1610.94 177.025C1611.46 184.453 1608.35 191.081 1603.74 196.49L1612 235H1588L1592.06 206.244Z" clip-rule="evenodd"/><path fill="#191847" fill-rule="evenodd" d="M1583.34 159.37C1586.62 158.37 1591.38 158.031 1593.38 158.26C1592.24 155.531 1591.79 152.49 1592.16 149.529C1592.51 146.652 1593.8 144.202 1594.99 141.635C1595.54 140.452 1596.16 139.275 1597.08 138.37C1598.03 137.448 1599.22 136.84 1600.47 136.549C1601.76 136.252 1603.09 136.277 1604.38 136.547C1604.95 136.666 1605.46 136.925 1606.01 137.07C1606.58 137.218 1606.86 136.861 1607.27 136.502C1608.27 135.638 1609.73 135.211 1610.99 135.059C1612.41 134.887 1613.88 135.101 1615.23 135.566C1616.54 136.019 1617.81 136.755 1618.76 137.827C1619.18 138.304 1619.56 138.847 1619.81 139.446C1619.91 139.692 1619.93 139.838 1620.18 139.928C1620.4 140.012 1620.67 140.014 1620.9 140.094C1623.17 140.861 1625.11 142.612 1626.16 144.86C1626.78 146.171 1627.07 148.48 1626.99 151.068C1626.91 153.656 1624.57 160.408 1622.39 162.871C1620.44 165.07 1617.57 166.52 1614.8 167.155C1616.64 169.255 1617.86 171.878 1618.76 174.547C1619.75 177.445 1620.35 180.457 1620.58 183.525C1620.79 186.44 1620.81 189.524 1620.13 192.377C1619.49 195.045 1618.12 197.234 1615.84 198.622C1614.79 199.258 1613.67 199.736 1612.54 200.173C1611.42 200.603 1610.3 201.022 1609.14 201.263C1606.93 201.72 1604.38 201.642 1602.68 199.882C1602.06 199.248 1601.39 198.451 1600.94 197.676C1600.78 197.397 1600.68 197.215 1600.88 196.943C1601.11 196.616 1601.49 196.366 1601.79 196.111C1603.51 194.656 1604.57 192.713 1604.84 190.405C1605.11 188.063 1604.48 185.039 1602.2 184.017C1599.39 182.755 1596.3 184.204 1593.8 185.554C1592.74 181.806 1590.55 178.431 1587.14 176.712C1583.35 174.811 1579.02 174.588 1575.13 172.956C1574.12 172.531 1573.08 172.048 1572.34 171.182C1572.03 170.82 1571.66 170.35 1571.54 169.871C1571.37 169.242 1571.78 168.715 1572.09 168.224C1573.75 165.624 1580.06 160.37 1583.34 159.37Z" clip-rule="evenodd"/><path fill="#B28B67" fill-rule="evenodd" d="M1501.79 392.672C1503.65 413.013 1501.79 456.736 1500.79 469.348C1500.16 477.275 1489.36 475.2 1488.35 468.856C1488.18 467.781 1487.48 464.005 1486.45 458.372C1481.35 430.746 1468.02 358.446 1468 340.866C1467.99 332.804 1485.94 326.358 1493.12 336.096C1499.02 331.949 1507.4 330.838 1512.56 339.212C1516.47 345.552 1525.77 363.55 1535.68 384.566C1544.36 402.978 1557.92 447.672 1557.92 447.672L1546.41 452.934C1546.41 452.934 1517.96 407.195 1500.05 375.127C1500.64 380.645 1501.23 386.553 1501.79 392.672Z" clip-rule="evenodd"/><path fill="#1F28CF" fill-rule="evenodd" d="M1557.1 431.125L1517.57 337.487C1508.1 322.255 1481.55 340.587 1484.78 349.422C1492.11 369.479 1529.4 434.414 1531.58 440.39L1557.1 431.125Z" clip-rule="evenodd"/><path fill="#2B44FF" fill-rule="evenodd" d="M1467 348.177C1467 374.718 1478.63 437.106 1478.64 442.95L1506.82 442C1506.82 442 1499.43 360.636 1500.59 360.085C1502.33 359.258 1571.74 369.691 1592.56 370.479C1622.57 371.615 1634.99 353.199 1636 318.251L1577.85 318.251C1577.85 318.251 1503.27 327.153 1479.82 330.635C1469.77 332.125 1467 340.865 1467 348.177Z" clip-rule="evenodd"/><path fill="#E4E4E4" fill-rule="evenodd" d="M1556.52 444.322C1557.45 443.605 1558.8 443.76 1559.45 444.732C1560.65 446.504 1562.32 449.188 1562.73 450.835C1563.39 453.459 1563.77 458.713 1563.77 458.713C1560.72 459.472 1509.04 472.357 1509.04 472.357C1509.04 472.357 1505.15 465.837 1509.61 464.129C1514.06 462.421 1516.99 461.209 1516.99 461.209L1539.6 443.528C1540.04 443.181 1540.68 443.269 1541.02 443.722L1543.64 447.281C1543.64 447.281 1548.39 448.205 1551.05 447.542C1552.67 447.138 1554.97 445.523 1556.52 444.322Z" clip-rule="evenodd"/><path fill="#E4E4E4" fill-rule="evenodd" d="M1499.55 453.284C1500.62 452.813 1501.9 453.29 1502.29 454.391C1503.02 456.398 1504 459.409 1504 461.106C1504 463.811 1503.1 469 1503.1 469C1499.96 469 1446.7 469 1446.7 469C1446.7 469 1444.5 461.732 1449.24 461.152C1453.97 460.573 1457.1 460.106 1457.1 460.106L1483.32 448.419C1483.83 448.189 1484.44 448.43 1484.65 448.951L1486.34 453.039C1486.34 453.039 1490.72 455.085 1493.46 455.085C1495.13 455.085 1497.75 454.074 1499.55 453.284Z" clip-rule="evenodd"/><rect width="53" height="7" fill="#2F3676" rx="3.5" transform="matrix(-1 0 0 1 1503 469)"/><path fill="#2F3676" d="M1649 334C1649 328.477 1644.52 324 1639 324H1532C1526.48 324 1522 328.477 1522 334V383H1645C1647.21 383 1649 381.209 1649 379V334Z"/><path fill="#2F3676" fill-rule="evenodd" d="M1532 324H1529.81C1524.91 324 1520.73 327.547 1519.94 332.38L1498 466H1508.69" clip-rule="evenodd"/><path fill="#191847" fill-rule="evenodd" d="M1503 486C1493.06 486 1485 477.941 1485 468C1485 458.059 1493.06 450 1503 450C1512.94 450 1521 458.059 1521 468C1521 477.941 1512.94 486 1503 486Z" clip-rule="evenodd"/><path fill="#191847" fill-rule="evenodd" d="M1560 408C1560 449.974 1594.03 484 1636 484C1677.97 484 1712 449.974 1712 408C1712 366.026 1677.97 332 1636 332C1594.03 332 1560 366.026 1560 408ZM1574 408C1574 442.242 1601.76 470 1636 470C1670.24 470 1698 442.242 1698 408C1698 373.758 1670.24 346 1636 346C1601.76 346 1574 373.758 1574 408Z" clip-rule="evenodd"/><rect width="8" height="132" fill="#191847" transform="matrix(-1 0 0 1 1640 342)"/><rect width="8" height="132" fill="#191847" rx="2" transform="matrix(-0.707107 0.707107 0.707107 0.707107 1592.16 358.503)"/><rect width="8" height="132" fill="#191847" rx="2" transform="matrix(0 1 1 0 1570 404)"/><rect width="8" height="132" fill="#191847" rx="2" transform="matrix(0.707107 0.707107 0.707107 -0.707107 1586.5 451.841)"/><path fill="#B28B67" fill-rule="evenodd" d="M1496.64 203.962L1534.54 215.341L1524.87 231.463L1495.4 214.118C1481.64 213.299 1475.14 211.942 1475.9 210.048C1476.53 208.451 1478.05 208.179 1479.45 207.928C1480.54 207.733 1481.56 207.55 1482.03 206.765C1483.11 204.971 1479.33 200.301 1475.56 196.023C1471.79 191.745 1474.81 191.546 1476.63 191.889C1482.9 194.433 1489.57 198.458 1496.64 203.962ZM1505.99 305.592L1537.89 282.168L1544.94 299.599L1513.36 312.698C1504.42 323.192 1499.43 327.566 1498.37 325.822C1497.48 324.351 1498.18 322.974 1498.82 321.705C1499.32 320.717 1499.78 319.795 1499.44 318.946C1498.66 317.006 1492.66 317.21 1486.97 317.648C1481.28 318.085 1482.94 315.555 1484.31 314.305C1490.12 310.831 1497.34 307.926 1505.99 305.592Z" clip-rule="evenodd"/><path fill="#2026A2" fill-rule="evenodd" d="M1587.44 219.087C1570.07 251.476 1544.95 276.305 1508.53 302.116L1522.32 317.663C1562.98 302.553 1584.44 293.436 1594.98 262.835C1597.62 255.154 1599.47 230.671 1601.06 217.789L1587.44 219.087Z" clip-rule="evenodd"/><path fill="#F2F2F2" fill-rule="evenodd" d="M1636 327H1559C1559 327 1585.16 247.208 1585.73 217.472C1585.75 216.461 1587.62 214.68 1588.44 214.913C1597.5 217.472 1607.83 213 1607.83 213C1626.08 242.358 1632.4 278.505 1636 327Z" clip-rule="evenodd"/><path fill="#1F28CF" fill-rule="evenodd" d="M1588.51 257.791C1576.49 309.377 1577.04 351.606 1603.59 351.606H1644.65C1651.17 307.784 1634.03 247.024 1618.14 216.377C1617.54 215.206 1616.25 213 1613.2 213H1601.27C1601.27 213.016 1601.26 213.032 1601.26 213.047C1597.67 213.077 1593.71 213.208 1589.43 213.35C1567.39 214.082 1536.66 215.102 1502.08 204L1498 224.373C1529.21 244.448 1560.82 259.999 1588.51 257.791Z" clip-rule="evenodd"/><path fill="#B28B67" fill-rule="evenodd" d="M810.935 133.244C817.411 137.147 823.774 139.033 826.76 138.263C834.25 136.333 834.938 108.935 829.143 98.1339C823.349 87.3328 793.558 82.625 792.057 104.025C791.536 111.453 794.654 118.081 799.262 123.49L791 162H815L810.935 133.244Z" clip-rule="evenodd"/><path fill="#191847" fill-rule="evenodd" d="M812.135 106.389C814.211 103.298 816.204 100.94 818.797 99.571C829.348 99.7377 830.583 97.8462 830.583 91.471C828.879 90.2515 822.866 88.1982 816.132 87.6206C812.697 86.6375 808.627 86.8224 804.707 88.4622C799.868 89.8352 795.77 92.7923 793.96 98.3283C787.412 109.629 792.382 121.393 799.08 125.411C800.863 123.299 802.419 121.252 803.807 119.292C802.692 118.203 802 116.682 802 115C802 111.686 804.686 109 808 109C808.244 109 808.484 109.015 808.72 109.043C808.869 113.186 809.483 127.203 811.094 132.071C812.995 137.812 824.084 139.221 827.951 139.221C831.292 139.221 831.178 136.058 831.096 133.791C831.084 133.464 831.073 133.156 831.073 132.879C831.073 132.3 830.32 132.302 829.469 132.303C828.364 132.306 827.094 132.308 827.094 131.04C827.094 129.658 829.004 128.598 830.713 127.649C831.779 127.057 832.768 126.509 833.165 125.952C834.419 124.198 834.841 121.831 832.95 121.831C831.916 121.831 830.497 122.427 828.791 123.144C826.215 124.226 822.983 125.585 819.426 125.585C813.55 125.585 812.153 106.626 812.135 106.389Z" clip-rule="evenodd"/><path fill="#191847" fill-rule="evenodd" d="M783 245L819.255 372.227L845.707 466H865L836.891 245H783Z" clip-rule="evenodd"/><path fill="#2F3676" fill-rule="evenodd" d="M773.304 245C772.466 310.574 769.606 346.34 768.726 352.298C767.845 358.256 754.532 396.156 728.786 466H748.773C781.549 398.997 799.846 361.096 803.663 352.298C807.479 343.5 819.259 307.734 837 245H773.304Z" clip-rule="evenodd"/><path fill="#191847" fill-rule="evenodd" d="M727 484L728 463L749 463C763.936 473.5 788 480 788 480V484H750L737 482V484H727Z" clip-rule="evenodd"/><path fill="#191847" fill-rule="evenodd" d="M843 484L844 463L865 463C879.936 473.5 904 480 904 480V484H866L853 482V484H843Z" clip-rule="evenodd"/><path fill="#B28B67" fill-rule="evenodd" d="M705.364 281.284C709.094 275.804 730.667 217.536 730.667 217.536L748.379 220.108C748.379 220.108 719.861 281.982 717.801 285.554C715.126 290.193 717.492 297.812 719.097 302.978C719.345 303.777 719.575 304.518 719.766 305.179C716.395 306.153 715.112 304.223 713.76 302.189C712.233 299.892 710.617 297.461 705.803 298.928C703.943 299.495 702.156 300.223 700.41 300.934C694.38 303.391 688.84 305.648 682.476 300.37C681.468 299.533 680.618 296.797 683.824 295.203C691.813 291.231 703.541 283.963 705.364 281.284ZM897.545 254.202L867.359 228.61L859.109 245.507L889.706 260.777C897.885 271.868 902.564 276.581 903.74 274.914C904.732 273.509 904.133 272.087 903.581 270.776C903.151 269.756 902.75 268.803 903.152 267.98C904.07 266.1 910.042 266.722 915.684 267.555C921.326 268.388 919.85 265.748 918.569 264.406C913.021 260.536 906.013 257.134 897.545 254.202Z" clip-rule="evenodd"/><path fill="#C5CFD6" fill-rule="evenodd" d="M804.695 145.332L815.67 141.703C830.557 178.893 852.761 214.876 889.857 245.27L880.684 261.097C848.081 241.892 817.219 226.973 804.695 198.155C800.492 188.483 804.352 156.897 804.695 145.332Z" clip-rule="evenodd"/><path fill="#323337" fill-rule="evenodd" d="M767 250C767 250 814.157 255 841.236 250C843.473 249.587 843.826 245.842 842.788 243.301C826.636 203.724 815.56 169.192 815.56 141.703C811.115 143.944 800 142.374 800 142.374C780.086 170.703 770.933 203.206 767 250Z" clip-rule="evenodd"/><path fill="#DDE3E9" fill-rule="evenodd" d="M794.293 140C794.807 139.654 795.079 139.481 795.079 139.481L795.049 140H803.348C803.765 142.453 804.376 151.543 805.267 164.798C808.504 212.965 815.436 316.127 830.191 355.606H728.385C730.533 310.722 747.082 257.047 764.224 211.47C751.574 224.056 736.801 245.153 724.862 280.273L705.793 275.378C725.226 191.638 782.162 148.452 793.21 140.744C793.317 140.495 793.425 140.247 793.532 140H794.293Z" clip-rule="evenodd"/><path fill="#B28B67" fill-rule="evenodd" d="M602.935 133.244C609.411 137.147 615.774 139.033 618.76 138.263C626.25 136.333 626.938 108.935 621.143 98.1339C615.349 87.3328 585.558 82.625 584.057 104.025C583.536 111.453 586.654 118.081 591.262 123.49L583 162H607L602.935 133.244Z" clip-rule="evenodd"/><path fill="#191847" fill-rule="evenodd" d="M611.663 86.37C608.384 85.37 603.623 85.0308 601.621 85.2603C602.76 82.5308 603.212 79.4899 602.844 76.5291C602.485 73.6521 601.2 71.2024 600.011 68.6354C599.463 67.4522 598.842 66.2754 597.916 65.3704C596.972 64.4483 595.778 63.8397 594.526 63.5494C593.245 63.2522 591.905 63.2769 590.622 63.5466C590.054 63.6659 589.545 63.9255 588.988 64.0698C588.418 64.2176 588.141 63.8608 587.727 63.5021C586.73 62.638 585.268 62.2114 584.006 62.0587C582.59 61.8875 581.121 62.101 579.771 62.5664C578.457 63.0194 577.195 63.7551 576.245 64.8268C575.822 65.3039 575.438 65.8469 575.188 66.4464C575.086 66.6924 575.069 66.8381 574.823 66.9283C574.596 67.0117 574.331 67.0141 574.096 67.0935C571.831 67.8609 569.893 69.6117 568.838 71.8595C568.223 73.1709 567.932 75.4798 568.011 78.0677C568.091 80.6556 570.428 87.4081 572.613 89.8711C574.564 92.0695 577.432 93.5203 580.199 94.1553C578.362 96.2548 577.14 98.8784 576.235 101.547C575.253 104.445 574.645 107.457 574.421 110.525C574.208 113.44 574.188 116.524 574.871 119.377C575.511 122.045 576.878 124.234 579.161 125.622C580.206 126.258 581.331 126.736 582.463 127.173C583.578 127.603 584.696 128.022 585.864 128.263C588.075 128.72 590.622 128.642 592.325 126.882C592.939 126.248 593.614 125.451 594.061 124.676C594.222 124.397 594.32 124.215 594.124 123.943C593.89 123.616 593.511 123.366 593.21 123.111C591.493 121.656 590.43 119.713 590.163 117.405C589.891 115.063 590.52 112.039 592.797 111.017C595.608 109.755 598.704 111.204 601.203 112.554C602.265 108.806 604.445 105.431 607.863 103.712C611.645 101.811 615.985 101.588 619.871 99.9561C620.884 99.5309 621.915 99.0482 622.661 98.1818C622.973 97.8197 623.338 97.35 623.463 96.871C623.626 96.242 623.22 95.7145 622.907 95.2241C621.245 92.6236 614.943 87.37 611.663 86.37Z" clip-rule="evenodd"/><path fill="#997659" fill-rule="evenodd" d="M577 245L651.306 369.227L707.015 474.25H719.014L625.674 245L577 245Z" clip-rule="evenodd"/><path fill="#E4E4E4" fill-rule="evenodd" d="M702.45 468.284C701.378 467.813 700.104 468.29 699.705 469.391C698.977 471.398 698 474.409 698 476.106C698 478.811 698.901 484 698.901 484C702.039 484 755.303 484 755.303 484C755.303 484 757.502 476.732 752.765 476.152C748.028 475.573 744.895 475.106 744.895 475.106L718.68 463.419C718.165 463.189 717.563 463.43 717.348 463.951L715.663 468.039C715.663 468.039 711.278 470.085 708.537 470.085C706.868 470.085 704.246 469.074 702.45 468.284Z" clip-rule="evenodd"/><path fill="#DB2721" fill-rule="evenodd" d="M691.543 457.433L714.683 450.433C714.683 450.433 699.476 404.971 677.405 350.374C655.335 295.778 630 245 630 245H564.644C564.644 245 592.811 309.232 624.366 361.725C655.921 414.219 691.543 457.433 691.543 457.433Z" clip-rule="evenodd"/><path fill="#B28B67" fill-rule="evenodd" d="M572.117 245C565.104 288.654 551.577 344.427 550.301 346.149C549.45 347.296 518.813 357.562 458.39 376.947L460.982 387.528C533.036 377.132 571.002 369.066 574.881 363.331C580.699 354.728 609.749 286.763 621 245H572.117Z" clip-rule="evenodd"/><path fill="#FF4133" fill-rule="evenodd" d="M479.63 367.8L484.195 384.842C538.087 389.569 571.108 386.153 583.258 374.596C595.407 363.039 609.255 319.84 624.799 245H562.478C552.63 306.284 547.124 338.212 545.96 340.785C544.797 343.357 522.687 352.363 479.63 367.8Z" clip-rule="evenodd"/><path fill="#E4E4E4" fill-rule="evenodd" d="M462.931 375.074C463.209 373.937 462.518 372.765 461.365 372.563C459.261 372.195 456.127 371.756 454.456 372.05C451.792 372.52 446.838 374.309 446.838 374.309C447.383 377.399 456.632 429.854 456.632 429.854C456.632 429.854 464.171 430.757 463.92 425.991C463.668 421.226 463.584 418.059 463.584 418.059L470.541 390.213C470.677 389.667 470.336 389.115 469.785 388.994L465.467 388.044C465.467 388.044 462.691 384.081 462.215 381.381C461.925 379.738 462.465 376.98 462.931 375.074Z" clip-rule="evenodd"/><path fill="#997659" fill-rule="evenodd" d="M662.348 163.69L627.638 182.7L640.456 196.458L665.677 173.365C678.963 169.704 685.039 167.025 683.905 165.329C682.948 163.9 681.406 163.949 679.985 163.995C678.878 164.031 677.845 164.064 677.22 163.394C675.794 161.863 678.515 156.51 681.315 151.542C684.114 146.573 681.121 147.005 679.409 147.72C673.807 151.512 668.12 156.836 662.348 163.69ZM697.247 190.364L682 198.74L682.868 214.04C682.868 214.04 692.743 206.913 701.238 204.544C712.071 201.524 716.453 199.218 721.746 192.473C724.579 188.865 726.982 181.61 724.286 179.248C723.252 178.341 719.399 180.482 715.468 182.667C712.472 184.332 709.43 186.022 707.556 186.408C705.034 186.927 705.329 183.657 705.565 181.045C705.734 179.17 705.873 177.633 704.918 178.077C700.455 178.154 697.247 190.364 697.247 190.364Z" clip-rule="evenodd"/><path fill="#2026A2" fill-rule="evenodd" d="M610.734 178.465C622.892 178.337 639.104 175.769 656.402 164.789L663.196 179.939C651.264 191.78 634.486 201.51 619.816 201.098C608.255 200.773 602.347 186.789 610.734 178.465Z" clip-rule="evenodd"/><path fill="#1F28CF" fill-rule="evenodd" d="M577.945 282.259C566.387 280.752 555.766 279.367 549.473 280.606C542.411 257.673 548.275 243.234 553.688 229.905C556.95 221.871 560.049 214.241 560.056 205.397C560.075 179.642 580.754 140 583.797 140H584.67H608.783H611.544C612.784 155.937 618.079 173.193 623.407 190.56C624.652 194.615 625.898 198.677 627.095 202.729C647.26 207.307 692.036 191.373 692.036 191.373C692.036 191.373 703.34 214.759 702.487 224.717C676.424 238.331 654.087 244.401 635.683 244.802C636.268 255.721 634.939 266.112 630.474 275.606C624.491 288.327 599.576 285.079 577.945 282.259Z" clip-rule="evenodd"/><path fill="#B28B67" fill-rule="evenodd" d="M393.935 133.244C400.411 137.147 406.774 139.033 409.76 138.263C417.25 136.333 417.938 108.935 412.143 98.1339C406.349 87.3328 376.558 82.625 375.057 104.025C374.536 111.453 377.654 118.081 382.262 123.49L374 162H398L393.935 133.244Z" clip-rule="evenodd"/><path fill="#191847" fill-rule="evenodd" d="M398.464 85.6853C395.301 85.1665 386.784 84.8099 385.213 84.8101C384.21 84.8101 383.122 85.0394 382.527 84.1178C382.041 83.3631 382.219 82.0867 382.074 81.2109C381.905 80.1935 381.665 79.1892 381.423 78.1874C380.733 75.3369 379.69 72.625 378.231 70.0788C375.493 65.3019 371.481 61.5601 366.417 59.3828C360.824 56.9787 354.496 56.4282 348.48 56.9158C342.043 57.4375 336.216 59.5626 330.138 61.5624C324.346 63.4681 318.28 64.2182 312.222 63.2876C306.118 62.35 301.507 59.042 296.359 55.9023C291.089 52.688 285.066 50.5857 278.835 51.069C273.02 51.5203 267.659 53.9216 262.85 57.1295C258.351 60.1308 254.638 63.7418 252.542 68.824C250.287 74.2909 250.289 80.2918 253.997 85.1233C259.372 92.1265 269.35 93.9376 277.651 93.7575C282.453 93.6537 287.168 92.7772 291.701 91.1828C297.747 89.0564 302.971 85.4523 308.627 82.528C311.281 81.1558 314.025 80.0288 316.901 79.217C319.691 78.4289 322.44 78.0675 324.966 79.7533C327.639 81.5367 330.034 83.2885 333.092 84.4049C336.026 85.476 339.133 86.075 342.258 86.0509C348.339 86.0039 354.333 84.1093 360.239 82.8402C365.054 81.8056 370.207 80.7743 375.117 81.769C377.166 82.1841 380.159 83.041 380.899 85.1702C368.444 87.4274 363.553 102.83 367.064 114.137C368.959 120.24 380.35 127.374 384.779 124.166C387.585 122.133 385.881 119.465 384.779 117.703C382.668 114.33 381.945 109.997 385.852 107.648C389.222 105.622 392.765 110.433 392.832 110.427C393.758 110.354 401.76 105.829 407.274 99.2241C412.713 99.5466 413.539 95.96 412.24 93.0269C410.941 90.0938 402.834 86.4024 398.464 85.6853Z" clip-rule="evenodd"/><path fill="#B28B67" fill-rule="evenodd" d="M354.644 245C356.447 269.61 472.607 342.063 473.284 344.096C473.736 345.452 437.128 429.778 437.128 429.778L447.282 433.724C447.282 433.724 503.433 344.416 500.549 334.9C496.42 321.276 410.422 245.262 410.422 245.262L354.644 245Z" clip-rule="evenodd"/><path fill="#2F3676" fill-rule="evenodd" d="M439.8 417.082L456.379 423.117C491.336 383.674 505.039 351.131 502.54 334.549C500.042 317.968 412.724 245.06 412.724 245.06L353.455 245.06C355.478 302.052 463.143 344.313 464.583 346.742C466.023 349.171 451.851 372.957 439.8 417.082Z" clip-rule="evenodd"/><path fill="#E4E4E4" fill-rule="evenodd" d="M436.379 427.737C435.533 426.927 434.173 426.94 433.422 427.838C432.051 429.476 430.103 431.971 429.523 433.565C428.597 436.107 427.669 441.292 427.669 441.292C430.618 442.365 480.67 460.582 480.67 460.582C480.67 460.582 485.222 454.504 480.969 452.34C476.716 450.175 473.932 448.665 473.932 448.665L453.295 428.716C452.889 428.325 452.241 428.345 451.861 428.761L448.88 432.026C448.88 432.026 444.059 432.449 441.483 431.511C439.915 430.94 437.796 429.094 436.379 427.737Z" clip-rule="evenodd"/><path fill="#997659" fill-rule="evenodd" d="M368 245L316.254 369.227L265.396 474.25H277.395L408.674 245H368Z" clip-rule="evenodd"/><path fill="#E4E4E4" fill-rule="evenodd" d="M267.45 468.284C266.378 467.813 265.104 468.29 264.705 469.391C263.977 471.398 263 474.409 263 476.106C263 478.811 263.901 484 263.901 484C267.039 484 320.303 484 320.303 484C320.303 484 322.502 476.732 317.765 476.152C313.028 475.573 309.895 475.106 309.895 475.106L283.68 463.419C283.165 463.189 282.563 463.43 282.348 463.951L280.663 468.039C280.663 468.039 276.278 470.085 273.537 470.085C271.868 470.085 269.246 469.074 267.45 468.284Z" clip-rule="evenodd"/><path fill="#5C63AB" fill-rule="evenodd" d="M269.989 452.433L296.651 457.433C317.266 427.125 403.541 302.852 413 245H353.644C322.055 286.821 289.639 421.624 269.989 452.433Z" clip-rule="evenodd"/><path fill="#B28B67" fill-rule="evenodd" d="M494.235 201.704L458 217.617L469.57 232.439L496.707 211.633C510.262 209.143 516.549 207.004 515.566 205.216C514.738 203.709 513.197 203.624 511.778 203.545C510.672 203.484 509.64 203.427 509.076 202.705C507.789 201.056 510.966 195.961 514.188 191.255C517.41 186.549 514.39 186.719 512.623 187.282C506.711 190.572 500.582 195.379 494.235 201.704ZM332 226.066L311.508 222C297.611 258.63 289.326 278.702 286.652 282.218C284.692 284.796 272.603 291.437 264.42 294.984C261.135 296.407 261.841 299.183 262.804 300.071C268.88 305.672 274.529 303.709 280.678 301.572C282.459 300.953 284.281 300.32 286.167 299.851C291.05 298.639 292.536 301.15 293.94 303.523C295.184 305.624 296.363 307.616 299.779 306.821C299.624 306.151 299.433 305.4 299.227 304.589C297.895 299.349 295.931 291.62 298.845 287.13C300.34 284.826 311.392 264.471 332 226.066Z" clip-rule="evenodd"/><path fill="#DB2721" fill-rule="evenodd" d="M387.695 145.332L396.342 143.849C415.176 162.119 422.862 206.012 435.414 211.823C447.281 217.316 464.104 212 484.1 204.823L490.223 218.505C472.055 238.161 433.349 254.767 417.66 245.287C392.576 230.13 386.786 175.994 387.695 145.332Z" clip-rule="evenodd"/><path fill="#DDE3E9" fill-rule="evenodd" d="M350 254C350 254 402.008 254 426.511 254C430.008 254 429.349 248.952 428.843 246.404C423.011 217.004 400.241 185.312 400.241 143.461L378.172 140C359.917 169.358 353.605 205.505 350 254Z" clip-rule="evenodd"/><path fill="#FF4133" fill-rule="evenodd" d="M377 140H376.748C327.247 170.504 297.331 217.791 287 281.859L303.037 285C313.661 272.623 326.771 252.368 342.369 224.233C337.583 241.181 334.09 258.563 333 275H401.872C415.205 241.305 385.486 140 385.486 140H380.731H377Z" clip-rule="evenodd"/><path fill="#191847" fill-rule="evenodd" d="M184.5 85C172.626 85 163 94.6259 163 106.5V127.5C163 138.566 171.36 147.679 182.109 148.868C182.111 148.92 182.114 148.971 182.117 149.022H211.117C215.701 144.544 211.209 115.992 207.762 103.29C206.212 92.9385 197.283 85 186.5 85H184.5Z" clip-rule="evenodd"/><path fill="#B28B67" fill-rule="evenodd" d="M185.935 133.244C192.411 137.147 198.774 139.033 201.76 138.263C209.25 136.333 209.938 108.935 204.143 98.1339C198.349 87.3328 168.558 82.625 167.057 104.025C166.536 111.453 169.654 118.081 174.262 123.49L166 162H190L185.935 133.244Z" clip-rule="evenodd"/><path fill="#191847" fill-rule="evenodd" d="M163.881 104.15C164.578 103.461 165.252 102.795 165.921 102.198L165.889 101.421C165.889 101.421 173.421 86 185.001 86C196.571 86 200.23 91.3787 203.34 95.9508L203.349 95.9631C201.722 101.545 196.819 103.804 191.274 106.358C188.887 107.457 186.381 108.612 183.966 110.11C183.02 109.341 181.814 108.88 180.5 108.88C177.462 108.88 175 111.343 175 114.38C175 117.418 177.462 119.88 180.5 119.88C180.584 119.88 180.667 119.879 180.75 119.875C181.856 131.753 181.413 145.317 178.117 148.537H149.117C148.285 134.073 152.026 129.947 155.85 125.731C159.447 121.764 163.117 117.717 163.117 104.903C163.375 104.651 163.63 104.399 163.881 104.15L163.881 104.15Z" clip-rule="evenodd"/><path fill="#1F28CF" fill-rule="evenodd" d="M127.408 343.088C127.408 343.088 163.392 353.153 189.5 353.153C215.608 353.153 238 337.653 238 337.653C238 337.653 202.786 327.323 180 327.323C157.214 327.323 127.408 343.088 127.408 343.088Z" clip-rule="evenodd"/><path fill="#997659" fill-rule="evenodd" d="M210.267 362.824C210.036 362.477 209.84 362.098 209.685 361.689C206.479 353.208 155.117 261.726 150 245H207.826C211.717 257.717 229.227 337.52 231.691 353.442C239.467 378.557 255.475 459.895 257.519 465.53C259.669 471.458 247.572 477.633 244.349 470.346C239.22 458.75 226.999 426.665 221.557 407.074C216.456 388.708 212.302 372.185 210.267 362.824Z" clip-rule="evenodd"/><path fill="#B28B67" fill-rule="evenodd" d="M162.957 373.994C139.475 379.928 53.584 390.658 47.6898 392.341C41.6264 394.072 36.31 381.574 43.8046 378.867C55.7298 374.559 88.5891 364.606 108.512 360.544C124.536 357.277 139.159 354.611 148.976 353.05C148.145 325.473 144.343 259.294 146.835 245H198C195.61 258.707 175.41 358.718 171.656 368.729C170.464 372.302 166.909 373.882 162.957 373.994Z" clip-rule="evenodd"/><path fill="#E4E4E4" fill-rule="evenodd" d="M45.931 378.074C46.2093 376.937 45.5181 375.765 44.3647 375.563C42.261 375.195 39.1268 374.756 37.4556 375.05C34.7918 375.52 29.8377 377.309 29.8377 377.309C30.3826 380.399 39.6318 432.854 39.6318 432.854C39.6318 432.854 47.1714 433.757 46.9196 428.991C46.6678 424.226 46.5837 421.059 46.5837 421.059L53.5407 393.213C53.6773 392.667 53.3356 392.115 52.7853 391.994L48.4672 391.044C48.4672 391.044 45.6909 387.081 45.2149 384.381C44.925 382.738 45.4645 379.98 45.931 378.074Z" clip-rule="evenodd"/><path fill="#E4E4E4" fill-rule="evenodd" d="M243.45 468.284C242.378 467.813 241.104 468.29 240.705 469.391C239.977 471.398 239 474.409 239 476.106C239 478.811 239.901 484 239.901 484C243.039 484 296.303 484 296.303 484C296.303 484 298.502 476.732 293.765 476.152C289.028 475.573 285.895 475.106 285.895 475.106L259.68 463.419C259.165 463.189 258.563 463.43 258.348 463.951L256.663 468.039C256.663 468.039 252.278 470.085 249.537 470.085C247.868 470.085 245.246 469.074 243.45 468.284Z" clip-rule="evenodd"/><path fill="#2B44FF" fill-rule="evenodd" d="M147 245C147 245 180.82 235.324 211 245C218 276.938 235.009 289.614 238 338.579C204 355.473 162 326.531 127 343.005C117 319.961 131 264.465 147 245Z" clip-rule="evenodd"/><path fill="#997659" fill-rule="evenodd" d="M283.483 199.925L244 205.311L251.084 223L283.121 210.299C296.93 211.661 303.607 211.333 303.153 209.315C302.769 207.613 301.302 207.099 299.95 206.626C298.897 206.257 297.914 205.913 297.568 205.051C296.78 203.083 301.269 199.003 305.693 195.315C310.117 191.627 307.147 190.948 305.281 191.003C298.647 192.558 291.381 195.532 283.483 199.925ZM91.3979 296.908C94.3284 290.963 119.97 214.45 119.97 214.45L141.867 214.532C141.867 214.532 105.851 295.583 104.308 299.406C102.304 304.372 105.708 311.587 108.016 316.48C108.373 317.237 108.704 317.938 108.985 318.567C105.782 320 104.243 318.268 102.621 316.442C100.79 314.379 98.8511 312.197 94.2879 314.319C92.5249 315.14 90.8566 316.109 89.2267 317.057C83.5968 320.329 78.4248 323.336 71.389 318.994C70.2736 318.306 69.0512 315.715 72.0045 313.69C79.3623 308.645 89.9653 299.815 91.3979 296.908Z" clip-rule="evenodd"/><path fill="#AFB9C5" fill-rule="evenodd" d="M179.949 145L197.094 146.142C201.317 184.343 224.316 208.473 275.811 200.304L282.652 249.499C234.523 255.719 192.313 236.45 183.662 184.278C181.423 170.773 179.655 156.718 179.949 145Z" clip-rule="evenodd"/><path fill="#C5CFD6" fill-rule="evenodd" d="M94.4016 287C106.305 223.664 131.43 174.664 169.776 140H171.421H171.477L171.491 140.016L197.468 145.965C197.468 177.169 204.41 200.485 211.084 222.9C213.966 232.58 216.798 242.093 219 252H148.844C147.855 263.351 147.248 275.018 146.932 287H94.4016Z" clip-rule="evenodd"/><path fill="#000" fill-opacity=".1" fill-rule="evenodd" d="M148.844 252C150.856 228.891 154.449 207.09 160.388 186.598C159.086 208.512 158.725 235.698 163.102 252H148.844Z" clip-rule="evenodd"/><path fill="#B28B67" fill-rule="evenodd" d="M2217.06 206.244C2210.59 210.147 2204.23 212.033 2201.24 211.263C2193.75 209.333 2193.06 181.935 2198.86 171.134C2204.65 160.333 2234.44 155.625 2235.94 177.025C2236.46 184.453 2233.35 191.081 2228.74 196.49L2237 235H2213L2217.06 206.244Z" clip-rule="evenodd"/><path fill="#191847" fill-rule="evenodd" d="M2188.22 156.16C2188.72 154.413 2190.06 152.918 2191.86 152.474C2192.3 152.366 2192.75 152.323 2193.2 152.341C2193.36 152.347 2193.4 152.394 2193.48 152.281C2193.53 152.198 2193.54 151.993 2193.56 151.895C2193.63 151.59 2193.72 151.288 2193.83 150.994C2194.21 149.992 2194.84 149.105 2195.6 148.357C2197.03 146.959 2198.96 145.994 2200.97 145.82C2202.07 145.724 2203.16 145.903 2204.19 146.26C2204.73 146.444 2205.25 146.675 2205.76 146.929C2205.91 147.006 2206.41 147.381 2206.56 147.356C2206.73 147.33 2207.07 146.909 2207.21 146.803C2208.91 145.498 2211.01 144.985 2213.13 145C2215.52 145.018 2217.82 145.138 2219.82 146.596C2220.24 146.904 2220.64 147.242 2221.03 147.598C2221.23 147.786 2221.42 147.98 2221.61 148.183C2221.72 148.305 2221.83 148.43 2221.94 148.558C2222.12 148.776 2222.09 148.847 2222.34 148.695C2223.3 148.112 2224.41 147.839 2225.53 147.977C2226.2 148.059 2226.84 148.258 2227.46 148.521C2227.67 148.611 2228.15 148.968 2228.37 148.971C2228.6 148.975 2229.07 148.644 2229.3 148.56C2230.53 148.105 2231.86 147.993 2233.15 148.203C2234.49 148.42 2235.8 148.952 2236.93 149.688C2237.48 150.043 2237.95 150.435 2238.33 150.961C2238.5 151.188 2238.64 151.429 2238.83 151.64C2238.94 151.763 2239.16 151.89 2239.22 152.046C2239.18 151.952 2240.67 151.376 2240.82 151.339C2241.57 151.143 2242.33 151.183 2243.07 151.425C2244.45 151.88 2245.64 152.902 2246.62 153.949C2247.12 154.487 2247.56 155.081 2247.94 155.715C2248.12 156.018 2248.28 156.33 2248.43 156.649C2248.5 156.803 2248.55 156.996 2248.64 157.135C2248.77 157.315 2248.85 157.318 2249.07 157.396C2250.21 157.793 2251.24 158.465 2252.02 159.372C2252.82 160.29 2253.34 161.421 2253.55 162.612C2253.57 162.682 2253.57 162.972 2253.61 163.01C2253.67 163.063 2253.9 163.04 2253.98 163.05C2254.28 163.085 2254.58 163.137 2254.87 163.206C2255.41 163.333 2255.93 163.521 2256.43 163.767C2258.36 164.724 2259.75 166.517 2260.42 168.536C2261.13 170.655 2261.12 173.082 2260.27 175.161C2260.14 175.496 2259.97 175.822 2259.78 176.131C2259.66 176.32 2259.63 176.32 2259.7 176.519C2259.79 176.74 2259.94 176.954 2260.04 177.17C2260.37 177.875 2260.6 178.622 2260.75 179.385C2260.99 180.637 2261.11 181.952 2260.87 183.214C2260.76 183.799 2260.57 184.372 2260.28 184.893C2260.13 185.159 2259.96 185.412 2259.76 185.645C2259.66 185.766 2259.55 185.882 2259.44 185.993C2259.37 186.056 2259.29 186.111 2259.24 186.182C2259.1 186.355 2259.07 186.213 2259.14 186.466C2259.24 186.82 2259.46 187.169 2259.59 187.514C2259.73 187.869 2259.86 188.229 2259.97 188.592C2260.2 189.328 2260.4 190.077 2260.52 190.84C2260.76 192.303 2260.71 193.862 2260.02 195.205C2259.73 195.779 2259.3 196.283 2258.79 196.675C2258.54 196.867 2258.26 197.032 2257.98 197.168C2257.83 197.238 2257.64 197.268 2257.57 197.41C2257.5 197.563 2257.61 197.867 2257.63 198.038C2257.85 199.526 2257.95 201.089 2257.51 202.547C2257.1 203.891 2256.21 205.077 2255.04 205.862C2252.78 207.385 2249.74 207.299 2247.36 206.08C2246.74 205.762 2246.16 205.367 2245.65 204.902C2244.33 206.672 2241.63 206.616 2239.7 206.112C2237.31 205.483 2235.39 203.818 2234.28 201.63C2232.77 203.473 2229.59 202.875 2228.54 200.876C2228.28 200.386 2228.13 199.847 2228.05 199.301C2228.01 199.014 2228.04 198.725 2228.01 198.44C2227.97 198.077 2227.73 197.725 2227.59 197.374C2227.32 196.691 2227.15 195.985 2227.14 195.249C2227.14 194.864 2227.19 194.489 2227.22 194.108C2227.26 193.764 2227.16 193.444 2227.11 193.105C2227.72 193.206 2228.47 193.041 2229.05 192.863C2229.62 192.688 2230.15 192.228 2230.55 191.807C2231.48 190.831 2232.05 189.551 2232.44 188.278C2233.29 185.483 2232.94 182.129 2230.13 180.595C2228.82 179.88 2224.9 179.883 2223.34 180.236C2221.7 180.607 2219.84 184.226 2219.75 184.567C2219.69 184.777 2219.72 185.038 2219.52 185.178C2219.1 185.486 2218.4 184.951 2218.08 184.687C2217.54 184.231 2217.16 183.624 2216.82 183.009C2216.09 181.67 2215.51 180.233 2215.09 178.766C2214.77 177.636 2214.57 176.47 2214.15 175.368C2213.74 174.271 2213.08 173.291 2212.06 172.67C2210.95 171.994 2209.68 171.638 2208.46 171.214C2207.26 170.793 2206.07 170.279 2205.14 169.386C2204.93 169.189 2204.73 168.981 2204.57 168.75C2204.43 168.567 2204.31 168.218 2204.11 168.102C2203.8 167.922 2203.35 168.39 2203.08 168.56C2201.76 169.399 2200.66 170.568 2199.77 171.846C2198.88 173.117 2198.16 174.339 2197.57 175.758C2197.13 176.811 2196.86 178.159 2196.09 179.021C2195.75 179.406 2193.2 179.639 2192.37 179.303C2191.54 178.967 2190.62 178.094 2190.34 177.547C2190.06 176.987 2189.99 176.371 2190.11 175.758C2190.18 175.398 2190.33 175.061 2190.41 174.707C2190.48 174.409 2190.54 174.128 2190.68 173.855C2190.96 173.339 2191.42 172.967 2191.99 172.812C2191.4 172.269 2190.91 171.62 2190.58 170.895C2190.23 170.141 2189.93 169.224 2189.84 168.396C2189.78 167.724 2189.88 167.028 2190.25 166.45C2190.64 165.844 2191.32 165.449 2191.91 165.071C2191.01 164.364 2190.23 163.504 2189.6 162.552C2188.36 160.701 2187.6 158.368 2188.22 156.16Z" clip-rule="evenodd"/><path fill="#C5CFD6" fill-rule="evenodd" d="M2304 360C2312.84 360 2320 367.163 2320 376V468C2320 476.837 2312.84 484 2304 484H2189C2180.16 484 2173 476.837 2173 468V376C2173 367.163 2180.16 360 2189 360H2304ZM2288 388C2290.21 388 2292 389.791 2292 392V452C2292 454.209 2290.21 456 2288 456H2205C2202.79 456 2201 454.209 2201 452V392C2201 389.791 2202.79 388 2205 388H2288Z" clip-rule="evenodd"/><path fill="#B28B67" fill-rule="evenodd" d="M2127.29 414.58C2123.57 427.608 2114.3 452.302 2101.49 480.66L2089.32 477.107C2099.97 411.853 2108.83 368.651 2113.91 355.502C2117.26 346.814 2142.65 347.832 2139.73 365.313C2138.5 372.643 2133.66 392.273 2127.29 414.58ZM2177.33 368.361C2197.19 372.475 2238.36 387.017 2250.11 391.664C2257.5 394.584 2252.74 404.488 2246.43 403.622C2245.37 403.475 2241.59 403.052 2235.96 402.422C2217.86 400.397 2180.59 396.228 2152.32 392.16C2137.44 390.017 2145.44 362.138 2160.9 365.088C2166.1 366.081 2171.63 367.179 2177.33 368.361Z" clip-rule="evenodd"/><path fill="#1F28CF" fill-rule="evenodd" d="M2113.13 348.138C2115.16 341.514 2207.44 318 2207.44 318H2215V325.047L2151.41 357.416C2151.5 358.461 2151.45 359.565 2151.24 360.729C2151.7 384.726 2141.43 402.653 2131.26 420.402C2124.61 432.008 2118.01 443.539 2114.47 456.641L2091.11 453.156C2091.79 451.416 2092.87 443.568 2094.34 432.839C2098.05 405.785 2104.27 360.409 2113 348.403C2113.03 348.361 2113.06 348.32 2113.09 348.278C2113.1 348.231 2113.12 348.185 2113.13 348.138Z" clip-rule="evenodd"/><path fill="#2B44FF" fill-rule="evenodd" d="M2209.72 376.64C2215.53 375.476 2220.89 374.436 2225.48 373.632C2255.09 368.438 2263.73 352.586 2258.62 318H2204.06C2195.15 320.56 2148.83 339.985 2124.79 350.316C2108.89 357.154 2113.9 381.804 2122.91 388.219C2122.96 388.613 2123.12 388.88 2123.41 389C2157.56 403.154 2186.68 402.098 2205.38 401.42C2213.22 401.136 2219.22 400.918 2223 401.912L2228.92 383.228L2209.72 376.64Z" clip-rule="evenodd"/><path fill="#E4E4E4" fill-rule="evenodd" d="M2243.87 390.695C2243.92 389.525 2244.91 388.589 2246.07 388.713C2248.19 388.939 2251.33 389.38 2252.85 390.124C2255.28 391.31 2259.55 394.395 2259.55 394.395C2258.18 397.215 2234.83 445.088 2234.83 445.088C2234.83 445.088 2227.33 443.878 2228.89 439.367C2230.44 434.855 2231.4 431.835 2231.4 431.835L2232.38 403.15C2232.4 402.587 2232.88 402.151 2233.45 402.186L2237.86 402.463C2237.86 402.463 2241.62 399.419 2242.82 396.955C2243.55 395.455 2243.8 392.655 2243.87 390.695Z" clip-rule="evenodd"/><path fill="#E4E4E4" fill-rule="evenodd" d="M2104.55 474.284C2105.62 473.813 2106.9 474.29 2107.29 475.391C2108.02 477.398 2109 480.409 2109 482.106C2109 484.811 2108.1 490 2108.1 490C2104.96 490 2051.7 490 2051.7 490C2051.7 490 2049.5 482.732 2054.24 482.152C2058.97 481.573 2062.1 481.106 2062.1 481.106L2088.32 469.419C2088.83 469.189 2089.44 469.43 2089.65 469.951L2091.34 474.039C2091.34 474.039 2095.72 476.085 2098.46 476.085C2100.13 476.085 2102.75 475.074 2104.55 474.284Z" clip-rule="evenodd"/><path fill="#B28B67" fill-rule="evenodd" d="M2128.63 329.758L2156.96 302.123L2166.36 318.403L2136.91 335.77C2129.52 347.405 2125.18 352.432 2123.89 350.852C2122.81 349.519 2123.3 348.058 2123.76 346.713C2124.12 345.665 2124.45 344.687 2124 343.894C2122.95 342.082 2117.04 343.12 2111.46 344.344C2105.89 345.568 2107.18 342.832 2108.37 341.404C2113.63 337.156 2120.39 333.273 2128.63 329.758ZM2295.6 369.908C2292.67 363.963 2282.69 306.02 2282.69 306.02L2261.79 306.102C2261.79 306.102 2281.15 368.583 2282.69 372.406C2284.7 377.372 2281.29 384.587 2278.98 389.48C2278.63 390.237 2278.3 390.938 2278.02 391.567C2281.22 393 2282.76 391.268 2284.38 389.442C2286.21 387.379 2288.15 385.197 2292.71 387.32C2294.48 388.14 2296.14 389.109 2297.77 390.057C2303.4 393.329 2308.58 396.336 2315.61 391.994C2316.73 391.306 2317.95 388.715 2315 386.69C2307.64 381.645 2297.03 372.815 2295.6 369.908Z" clip-rule="evenodd"/><path fill="#191847" fill-rule="evenodd" d="M2223.3 218.332L2214.66 216.849C2199.77 254.039 2173.78 287.831 2136.68 318.225L2164.71 352.281C2201.81 309.005 2224.67 264.355 2223.3 218.332Z" clip-rule="evenodd"/><path fill="#DDE3E9" fill-rule="evenodd" d="M2261 327H2184C2184 327 2210.76 261.938 2210.76 216.461L2233.99 213C2252.24 242.358 2257.4 278.505 2261 327Z" clip-rule="evenodd"/><path fill="#2F3676" fill-rule="evenodd" d="M2296 360C2287.58 264.996 2234.5 213 2234.5 213L2234.48 213.016C2234.47 213.011 2234.47 213.005 2234.47 213H2232.95C2230.23 213.094 2224.66 213.338 2224.66 213.338L2219.05 229.377C2218.16 258.71 2208.65 347.606 2208.65 347.606H2259.05C2258.96 351.682 2258.77 355.815 2258.47 360H2296Z" clip-rule="evenodd"/><path fill="#000" fill-opacity=".1" fill-rule="evenodd" d="M2259.04 348C2259.44 330.25 2257.87 313.584 2255.24 298.502C2253.87 316.399 2251 337.933 2245 348H2259.04Z" clip-rule="evenodd"/><path fill="#fff" fill-opacity=".2" fill-rule="evenodd" d="M2247.89 317L2223 305.429V317H2247.89Z" clip-rule="evenodd"/><path fill="#B28B67" fill-rule="evenodd" d="M1801.06 206.244C1794.59 210.147 1788.23 212.033 1785.24 211.263C1777.75 209.333 1777.06 181.935 1782.86 171.134C1788.65 160.333 1818.44 155.625 1819.94 177.025C1820.46 184.453 1817.35 191.081 1812.74 196.49L1821 235H1797L1801.06 206.244Z" clip-rule="evenodd"/><path fill="#191847" fill-rule="evenodd" d="M1812 172C1798.15 172.099 1788.51 171.516 1783 170C1783.25 165.306 1788.13 160 1801 160C1815.32 160 1823 168.346 1823 178C1823 186.821 1817.32 197.563 1813 198C1811.88 197.755 1810.92 196.406 1809.97 194.547C1811.75 193.681 1813 191.64 1813 189C1813 186.462 1810.76 184 1808 184C1806.99 184 1806.06 184.328 1805.27 184.867C1803.46 181.945 1801.18 179.762 1798 180L1800 174L1812 173V172Z" clip-rule="evenodd"/><path fill="#C5CFD6" fill-rule="evenodd" d="M1831 492C1788.47 492 1754 459.093 1754 418.5C1754 377.907 1788.47 345 1831 345C1873.53 345 1908 377.907 1908 418.5C1908 459.093 1873.53 492 1831 492Z" clip-rule="evenodd"/><path fill="#B28B67" fill-rule="evenodd" d="M1711.29 414.58C1707.57 427.608 1698.3 452.302 1685.49 480.66L1673.32 477.107C1683.97 411.853 1692.83 368.651 1697.91 355.502C1701.26 346.814 1726.65 347.832 1723.73 365.313C1722.5 372.643 1717.66 392.273 1711.29 414.58ZM1761.33 368.361C1781.19 372.475 1822.36 387.017 1834.11 391.664C1841.5 394.584 1836.74 404.488 1830.43 403.622C1829.37 403.475 1825.59 403.052 1819.96 402.422C1801.86 400.397 1764.59 396.228 1736.32 392.16C1721.44 390.017 1729.44 362.138 1744.9 365.088C1750.1 366.081 1755.63 367.179 1761.33 368.361Z" clip-rule="evenodd"/><path fill="#1F28CF" fill-rule="evenodd" d="M1697.13 348.138C1699.16 341.514 1791.44 318 1791.44 318H1799V325.047L1735.41 357.416C1735.5 358.461 1735.45 359.565 1735.24 360.729C1735.7 384.726 1725.43 402.653 1715.26 420.402C1708.61 432.008 1702.01 443.539 1698.47 456.641L1675.11 453.156C1675.79 451.416 1676.87 443.568 1678.34 432.839C1682.05 405.785 1688.27 360.409 1697 348.403C1697.03 348.361 1697.06 348.32 1697.09 348.278C1697.1 348.231 1697.12 348.185 1697.13 348.138Z" clip-rule="evenodd"/><path fill="#2B44FF" fill-rule="evenodd" d="M1793.72 376.64C1799.53 375.476 1804.89 374.436 1809.48 373.632C1839.09 368.438 1847.73 352.586 1842.62 318H1788.06C1779.15 320.56 1732.83 339.985 1708.79 350.316C1692.89 357.154 1697.9 381.804 1706.91 388.219C1706.96 388.613 1707.12 388.88 1707.41 389C1741.56 403.154 1770.68 402.098 1789.38 401.42C1797.22 401.136 1803.22 400.918 1807 401.912L1812.92 383.228L1793.72 376.64Z" clip-rule="evenodd"/><path fill="#E4E4E4" fill-rule="evenodd" d="M1827.87 390.695C1827.92 389.525 1828.91 388.589 1830.07 388.713C1832.19 388.939 1835.33 389.38 1836.85 390.124C1839.28 391.31 1843.55 394.395 1843.55 394.395C1842.18 397.215 1818.83 445.088 1818.83 445.088C1818.83 445.088 1811.33 443.878 1812.89 439.367C1814.44 434.855 1815.4 431.835 1815.4 431.835L1816.38 403.15C1816.4 402.587 1816.88 402.151 1817.45 402.186L1821.86 402.463C1821.86 402.463 1825.62 399.419 1826.82 396.955C1827.55 395.455 1827.8 392.655 1827.87 390.695Z" clip-rule="evenodd"/><path fill="#E4E4E4" fill-rule="evenodd" d="M1688.55 474.284C1689.62 473.813 1690.9 474.29 1691.29 475.391C1692.02 477.398 1693 480.409 1693 482.106C1693 484.811 1692.1 490 1692.1 490C1688.96 490 1635.7 490 1635.7 490C1635.7 490 1633.5 482.732 1638.24 482.152C1642.97 481.573 1646.1 481.106 1646.1 481.106L1672.32 469.419C1672.83 469.189 1673.44 469.43 1673.65 469.951L1675.34 474.039C1675.34 474.039 1679.72 476.085 1682.46 476.085C1684.13 476.085 1686.75 475.074 1688.55 474.284Z" clip-rule="evenodd"/><path fill="#B28B67" fill-rule="evenodd" d="M1910.97 351.201C1907.05 345.855 1883.46 288.375 1883.46 288.375L1865.85 291.564C1865.85 291.564 1896.51 352.405 1898.69 355.902C1901.53 360.445 1899.43 368.142 1898.01 373.361C1897.79 374.169 1897.58 374.917 1897.41 375.585C1900.82 376.44 1902.03 374.467 1903.31 372.387C1904.76 370.037 1906.29 367.551 1911.15 368.85C1913.03 369.351 1914.84 370.017 1916.61 370.667C1922.72 372.912 1928.34 374.974 1934.51 369.477C1935.49 368.606 1936.25 365.841 1932.99 364.36C1924.86 360.669 1912.89 353.815 1910.97 351.201ZM1707.21 321.555L1739.11 298.131L1746.16 315.562L1714.57 328.661C1705.64 339.155 1700.65 343.53 1699.59 341.785C1698.7 340.314 1699.39 338.937 1700.04 337.669C1700.54 336.68 1701 335.758 1700.66 334.909C1699.87 332.969 1693.87 333.174 1688.19 333.611C1682.5 334.048 1684.16 331.518 1685.53 330.269C1691.33 326.794 1698.56 323.89 1707.21 321.555Z" clip-rule="evenodd"/><path fill="#69A1AC" fill-rule="evenodd" d="M1796.74 215.042L1807.43 219.428C1807.32 222.221 1807.33 226.195 1807.34 230.747C1807.38 245.036 1807.44 265.027 1803.75 272.122C1790.96 296.701 1764.7 309.505 1735.45 323.765C1731.53 325.676 1727.55 327.614 1723.55 329.61L1715.5 313.182C1716.44 312.521 1717.36 311.857 1718.28 311.188C1717.01 310.746 1715.96 309.745 1715.5 308.377C1714.7 306.022 1715.97 303.469 1718.32 302.676C1723.11 301.063 1727.58 300.383 1731.68 300.678C1761.65 275.423 1781.83 245.858 1796.74 215.042Z" clip-rule="evenodd"/><path fill="#191847" fill-rule="evenodd" d="M1845 326.91C1845 326.91 1797.84 332.09 1770.76 326.91C1768.53 326.482 1768.63 316.84 1769.66 314.207C1785.81 273.202 1796.44 243.184 1796.44 214.703C1800.89 217.025 1812 215.399 1812 215.399C1831.91 244.75 1841.07 278.427 1845 326.91Z" clip-rule="evenodd"/><path fill="#89C5CC" fill-rule="evenodd" d="M1904.81 327.406C1877.02 247.98 1820.02 213 1820.02 213H1818.47H1814.62H1808.65C1809.94 230.036 1803.89 254.826 1796.87 283.584C1785.64 329.577 1771.93 385.719 1781.81 436.518C1793.96 439.231 1808.23 437.379 1823.69 435.374C1845.99 432.479 1870.75 429.267 1895.12 439C1894.18 418.65 1882.3 396.124 1870.47 373.699C1862.97 359.484 1855.5 345.31 1850.84 331.758C1851.91 330.753 1852.47 329.247 1852.19 327.696L1851.67 324.741C1851.32 322.739 1849.69 321.281 1847.77 321.053C1847.44 319.553 1847.15 318.063 1846.91 316.583C1845.69 309.025 1846.47 301.555 1847.24 294.169L1847.24 294.169C1847.66 290.114 1848.08 286.084 1848.17 282.079C1861.56 294.01 1877.77 314.813 1891.45 350.871L1910.34 345.313C1909.62 342.63 1908.86 339.991 1908.07 337.396C1910.26 336.191 1912.83 330.47 1910.99 329.516C1909.05 328.508 1906.98 327.807 1904.81 327.406Z" clip-rule="evenodd"/><path fill="#000" fill-opacity=".1" fill-rule="evenodd" d="M1815.89 214L1821.05 229.865L1810.66 241.759L1820.05 251.106L1797.34 290L1825.12 251.183L1815.89 241.759L1825.12 231.248L1815.89 214Z" clip-rule="evenodd"/><path fill="#000" fill-opacity=".4" fill-rule="evenodd" d="M1804 305C1801.79 305 1800 303.209 1800 301C1800 298.791 1801.79 297 1804 297C1806.21 297 1808 298.791 1808 301C1808 303.209 1806.21 305 1804 305ZM1799 328C1796.79 328 1795 326.209 1795 324C1795 321.791 1796.79 320 1799 320C1801.21 320 1803 321.791 1803 324C1803 326.209 1801.21 328 1799 328ZM1794 347C1794 349.209 1795.79 351 1798 351C1800.21 351 1802 349.209 1802 347C1802 344.791 1800.21 343 1798 343C1795.79 343 1794 344.791 1794 347Z" clip-rule="evenodd"/><path fill="#B28B67" fill-rule="evenodd" d="M2009.06 206.244C2002.59 210.147 1996.23 212.033 1993.24 211.263C1985.75 209.333 1985.06 181.935 1990.86 171.134C1996.65 160.333 2026.44 155.625 2027.94 177.025C2028.46 184.453 2025.35 191.081 2020.74 196.49L2029 235H2005L2009.06 206.244Z" clip-rule="evenodd"/><path fill="#2C2C2C" fill-rule="evenodd" d="M1996.26 164.011C1996.81 163.683 1997.96 162.991 1998.55 162.74C1998.69 162.68 1999.65 161.991 1999.68 162C2000.41 162.247 2002.52 163.157 2002.71 163.944C2002.73 164.003 2002.76 164.059 2002.79 164.108C2003.09 164.654 2003.36 165.212 2003.63 165.778C2004.2 167.019 2004.7 168.317 2005.17 169.604C2006.1 172.112 2006.9 174.677 2007.64 177.249C2008.39 179.866 2009.03 182.515 2009.75 185.143C2010.78 188.925 2012.09 192.615 2013.11 196.396C2013.77 198.81 2014.13 201.252 2013.96 203.737C2013.96 203.767 2013.96 203.796 2013.95 203.827C2013.95 203.839 2013.95 203.851 2013.95 203.864C2013.92 204.246 2013.88 204.629 2013.82 205.013C2013.77 205.341 2013.73 205.67 2013.67 206C2012.74 204.14 2012.03 202.09 2011.27 200.144C2011.2 199.954 2011.13 199.762 2011.06 199.569C2010.82 199.175 2010.57 198.783 2010.32 198.393C2008.73 195.932 2007.14 193.48 2005.62 190.974C2002.89 186.468 2000.18 181.866 1996.94 177.728C1995.98 176.506 1995 175.303 1994.06 174.071C1993.52 173.37 1993 172.657 1992.49 171.931C1992.13 171.413 1990.55 169.604 1991.12 168.518C1991.41 167.962 1994.84 164.863 1996.26 164.011Z" clip-rule="evenodd"/><path fill="#8991DC" fill-rule="evenodd" d="M1998.37 162.831C1997.84 163.011 1998.1 161.898 1998.62 161.507C2001.02 159.693 2010.19 159.035 2018.17 160.692C2023.51 161.802 2029.73 164.564 2034 168.115C2037.85 171.317 2040.5 176.449 2041.86 181.408C2043.29 186.614 2043.51 192.042 2042.71 197.381C2042.54 198.554 2042.16 199.672 2041.95 200.82C2041.72 202.112 2041.6 203.357 2041.17 204.615C2040.92 205.385 2040.48 206.139 2040.26 206.914C2040.01 207.797 2040.16 208.615 2040.34 209.513C2040.64 210.978 2041.01 212.44 2041.54 213.839C2042.33 215.94 2043.29 217.907 2043.89 220.087C2044.69 222.988 2048.03 232.427 2045.59 235H1999.07C2000.24 231.805 2003.76 228.044 2004.47 224.624C2004.89 222.609 2005.09 218.209 2005.13 218.049C2006.18 210.822 2008.22 207.372 2009.51 206.119C2010.79 204.867 2012.5 204.482 2012.58 203.395C2012.95 198.902 2011.16 194.597 2009.85 190.404C2008.29 185.407 2007.15 180.285 2005.54 175.304C2004.82 173.099 2001.15 161.898 1998.37 162.831Z" clip-rule="evenodd"/><path fill="#000" fill-opacity=".2" fill-rule="evenodd" d="M2016.44 184.142C2016.82 176.537 2016.44 173.566 2014.68 168H2015.77C2017.48 170.209 2018.91 176.965 2017.3 184.142H2016.44ZM2037.64 183.784L2037.64 183.784L2037.64 183.783C2037.82 183.322 2038.02 182.849 2038.22 182.364L2038.91 182.695C2036.74 190.631 2034.1 196.757 2025.03 201.893L2024.33 201.399C2032.9 195.373 2034.74 190.876 2037.64 183.784ZM2024.79 174.292C2024.7 174.981 2024.61 175.651 2024.52 176.306V176.306C2023.22 186.359 2022.4 192.735 2015.13 204.298L2015.96 204.549C2023.92 193.826 2025.18 185.074 2025.55 174.354L2024.79 174.292ZM2032.63 206.88L2033.33 207.736C2029.8 208.474 2027.41 211.068 2024.66 214.042C2021.75 217.188 2018.45 220.759 2013 223.007L2011.99 222.394C2017.93 219.303 2020.7 216.23 2023.12 213.548C2025.62 210.771 2027.74 208.411 2032.63 206.88Z" clip-rule="evenodd"/><path fill="#C5CFD6" fill-rule="evenodd" d="M2072.38 360H1995.12L1985 484H2100L2072.38 360Z" clip-rule="evenodd"/><path fill="#000" fill-opacity=".1" fill-rule="evenodd" d="M2072.38 360H2048.62L2034.4 484H2100L2072.38 360Z" clip-rule="evenodd"/><path fill="#B28B67" fill-rule="evenodd" d="M1952.68 384.567C1961.36 402.978 1974.92 447.672 1974.92 447.672L1963.41 452.934C1963.41 452.934 1934.19 405.952 1916.33 373.836C1917.16 381.066 1918.01 389.206 1918.79 397.763C1920.65 418.033 1918.79 461.827 1917.79 474.477C1917.16 482.428 1906.36 480.762 1905.35 474.457C1905.18 473.389 1904.48 469.639 1903.45 464.045C1898.35 436.613 1885.02 364.818 1885 347.238C1884.99 340.165 1898.81 333.81 1907.05 338.756C1912.7 332.719 1923.41 329.24 1929.56 339.212C1933.47 345.552 1942.77 363.55 1952.68 384.567Z" clip-rule="evenodd"/><path fill="#1F28CF" fill-rule="evenodd" d="M1974.1 431.125L1934.57 337.487C1925.1 322.255 1898.55 340.587 1901.78 349.422C1909.11 369.479 1946.4 434.414 1948.58 440.39L1974.1 431.125Z" clip-rule="evenodd"/><path fill="#E4E4E4" fill-rule="evenodd" d="M1973.34 442.185C1974.03 441.241 1975.37 441.017 1976.27 441.771C1977.9 443.146 1980.25 445.264 1981.1 446.734C1982.45 449.076 1984.27 454.021 1984.27 454.021C1981.55 455.59 1935.42 482.222 1935.42 482.222C1935.42 482.222 1929.88 477.027 1933.7 474.156C1937.51 471.286 1939.99 469.315 1939.99 469.315L1956.85 446.087C1957.18 445.631 1957.82 445.538 1958.27 445.882L1961.77 448.579C1961.77 448.579 1966.59 448.158 1968.97 446.788C1970.41 445.953 1972.18 443.767 1973.34 442.185Z" clip-rule="evenodd"/><path fill="#E4E4E4" fill-rule="evenodd" d="M1917.55 468.284C1918.62 467.813 1919.9 468.29 1920.29 469.391C1921.02 471.398 1922 474.409 1922 476.106C1922 478.811 1921.1 484 1921.1 484C1917.96 484 1864.7 484 1864.7 484C1864.7 484 1862.5 476.732 1867.24 476.152C1871.97 475.573 1875.1 475.106 1875.1 475.106L1901.32 463.419C1901.83 463.189 1902.44 463.43 1902.65 463.951L1904.34 468.039C1904.34 468.039 1908.72 470.085 1911.46 470.085C1913.13 470.085 1915.75 469.074 1917.55 468.284Z" clip-rule="evenodd"/><path fill="#2B44FF" fill-rule="evenodd" d="M1882.23 354.433C1882.23 381 1894.85 442.97 1894.85 448.82L1922 448.841C1922 448.841 1916.04 365.898 1917.77 365.004C1919.51 364.111 1988.82 371.925 2009.61 371.925C2039.59 371.925 2051.99 353.02 2053 318H1993.61C1981.52 319.294 1918.45 332.015 1895.03 336.388C1885 338.261 1882.23 347.115 1882.23 354.433Z" clip-rule="evenodd"/><path fill="#B28B67" fill-rule="evenodd" d="M2099.6 362.908C2096.67 356.963 2082.03 280.45 2082.03 280.45L2060.13 280.532C2060.13 280.532 2085.15 361.583 2086.69 365.406C2088.7 370.372 2085.29 377.587 2082.98 382.48C2082.63 383.237 2082.3 383.938 2082.02 384.567C2085.22 386 2086.76 384.268 2088.38 382.442C2090.21 380.379 2092.15 378.197 2096.71 380.32C2098.48 381.14 2100.14 382.109 2101.77 383.057C2107.4 386.329 2112.58 389.336 2119.61 384.994C2120.73 384.306 2121.95 381.715 2119 379.69C2111.64 374.645 2101.03 365.815 2099.6 362.908ZM1915.18 333.095L1943.51 305.46L1952.92 321.74L1923.46 339.108C1916.07 350.743 1911.73 355.77 1910.44 354.19C1909.36 352.857 1909.86 351.396 1910.31 350.051C1910.67 349.003 1911.01 348.025 1910.55 347.231C1909.5 345.42 1903.59 346.457 1898.02 347.682C1892.45 348.906 1893.73 346.17 1894.92 344.742C1900.18 340.493 1906.94 336.611 1915.18 333.095Z" clip-rule="evenodd"/><path fill="#DB2721" fill-rule="evenodd" d="M2015.3 218.332L2006.66 216.849C1993.04 265.001 1923.05 297.823 1918.75 315.823C1917.18 322.425 1921.93 325.762 1919.47 327.772L1930.71 336C1932.61 333.779 1936.68 337.841 1945.16 335C1953.64 332.159 2015.3 275.348 2015.3 218.332Z" clip-rule="evenodd"/><path fill="#FF4133" fill-rule="evenodd" d="M2030.68 208.279C2032.89 208.125 2034.8 209.787 2034.95 211.99L2035.36 217.848C2051.64 230.371 2091.97 267.793 2102.48 337.457C2103.58 344.775 2101.59 348.694 2099.99 351.826C2098.9 353.969 2098 355.742 2098.4 357.983L2083.69 362.043C2083.69 360.389 2081.84 359.13 2079.45 357.507C2075.97 355.146 2071.36 352.013 2069.65 345.768C2068.03 339.848 2065.66 332.454 2062.83 324.229C2062.57 335.122 2060.5 345.14 2056 353.438C2044.77 374.139 1979.89 351.437 1973.11 330.318C1969.5 319.049 1974.63 309.588 1981.42 297.076C1990.03 281.192 2001.32 260.392 2000.76 224.734L2000.04 214.432C1999.88 212.228 2001.55 210.317 2003.75 210.162L2030.68 208.279Z" clip-rule="evenodd"/></g><defs><clipPath id="clip0"><rect width="2404" height="541" fill="#fff"/></clipPath></defs></svg>