<svg width="75" height="75" viewBox="0 0 75 75" fill="none" xmlns="http://www.w3.org/2000/svg">
<path d="M37.5 0C16.7906 0 0 16.7906 0 37.5C0 58.2094 16.7906 75 37.5 75C58.2094 75 75 58.2094 75 37.5C75 16.7906 58.2094 0 37.5 0ZM44.4313 58.175C43.325 58.3906 42.9688 57.7094 42.9688 57.125V51.1219C42.9688 49.0812 42.2531 47.75 41.4656 47.0719C46.3406 46.5312 51.4594 44.6813 51.4594 36.2781C51.4594 33.8875 50.6063 31.9375 49.2062 30.4062C49.4313 29.8531 50.1813 27.6281 48.9906 24.6156C48.9906 24.6156 47.1562 24.0281 42.9813 26.8562C41.2281 26.375 39.3594 26.1344 37.5 26.125C35.6406 26.1344 33.7719 26.375 32.0219 26.8594C27.8438 24.0312 26.0062 24.6187 26.0062 24.6187C24.8219 27.6312 25.5688 29.8562 25.7969 30.4062C24.3969 31.9375 23.5406 33.8875 23.5406 36.2781C23.5406 44.6594 28.6469 46.5344 33.5062 47.0875C32.8812 47.6344 32.3156 48.5969 32.1188 50.0125C30.8687 50.5719 27.7031 51.5375 25.7531 48.1937C25.7531 48.1937 24.5969 46.0938 22.4 45.9375C22.4 45.9375 20.2656 45.9094 22.25 47.2688C22.25 47.2688 23.6875 47.9406 24.6781 50.4688C24.6781 50.4688 25.9438 54.375 32.0312 53.05V57.1219C32.0312 57.7 31.6781 58.3781 30.5875 58.175C21.8937 55.2844 15.625 47.0844 15.625 37.4219C15.625 25.3375 25.4219 15.5469 37.5 15.5469C49.5781 15.5469 59.375 25.3375 59.375 37.4219C59.375 47.0813 53.1156 55.2812 44.4313 58.175Z" fill="#2F3676"/>
</svg>
