<svg xmlns="http://www.w3.org/2000/svg" width="75" height="75" fill="none" viewBox="0 0 75 75"><path fill="#2F3676" d="M45.7309 19.6938C43.455 19.5875 42.7704 19.5688 37.0066 19.5688C31.2428 19.5688 30.5613 19.5906 28.2854 19.6938C22.4291 19.9656 19.7029 22.775 19.4346 28.6625C19.3329 30.9688 19.3082 31.6594 19.3082 37.5C19.3082 43.3406 19.3329 44.0312 19.4346 46.3406C19.7029 52.2125 22.4167 55.0375 28.2854 55.3094C30.5582 55.4125 31.2428 55.4375 37.0066 55.4375C42.7734 55.4375 43.455 55.4156 45.7309 55.3094C51.5872 55.0406 54.3102 52.2219 54.5816 46.3406C54.6834 44.0344 54.705 43.3406 54.705 37.5C54.705 31.6594 54.6834 30.9688 54.5816 28.6625C54.3102 22.7781 51.581 19.9656 45.7309 19.6938ZM37.0066 48.7344C30.8851 48.7344 25.92 43.7062 25.92 37.5C25.92 31.2969 30.8851 26.2688 37.0066 26.2688C43.1281 26.2688 48.0931 31.2969 48.0931 37.5C48.0931 43.7031 43.1281 48.7344 37.0066 48.7344ZM48.531 28.45C47.1001 28.45 45.9406 27.275 45.9406 25.825C45.9406 24.375 47.1001 23.2 48.531 23.2C49.962 23.2 51.1215 24.375 51.1215 25.825C51.1215 27.2719 49.962 28.45 48.531 28.45ZM44.2013 37.5C44.2013 41.5281 40.9786 44.7906 37.0066 44.7906C33.0345 44.7906 29.8119 41.5281 29.8119 37.5C29.8119 33.4719 33.0345 30.2094 37.0066 30.2094C40.9786 30.2094 44.2013 33.4719 44.2013 37.5ZM37.0066 0C16.5697 0 0 16.7906 0 37.5C0 58.2094 16.5697 75 37.0066 75C57.4435 75 74.0132 58.2094 74.0132 37.5C74.0132 16.7906 57.4435 0 37.0066 0ZM58.4642 46.5187C58.1096 54.4719 53.7397 58.8781 45.9097 59.2438C43.6061 59.35 42.869 59.375 37.0066 59.375C31.1441 59.375 30.4102 59.35 28.1065 59.2438C20.2611 58.8781 15.9097 54.4656 15.5489 46.5187C15.4441 44.1875 15.4194 43.4406 15.4194 37.5C15.4194 31.5594 15.4441 30.8156 15.5489 28.4813C15.9097 20.5313 20.2642 16.1219 28.1065 15.7594C30.4102 15.65 31.1441 15.625 37.0066 15.625C42.869 15.625 43.6061 15.65 45.9097 15.7594C53.7582 16.125 58.1127 20.5469 58.4642 28.4813C58.5691 30.8156 58.5938 31.5594 58.5938 37.5C58.5938 43.4406 58.5691 44.1875 58.4642 46.5187Z"/></svg>