<svg width="316" height="404" viewBox="0 0 316 404" fill="none" xmlns="http://www.w3.org/2000/svg">
<g opacity="0.7">
<path fill-rule="evenodd" clip-rule="evenodd" d="M87.1777 164.741C98.9187 164.08 113.439 171.521 114.692 185.378C115.602 195.447 115.32 205.486 116.728 215.54C117.854 223.574 120.235 231.287 123.483 238.606C126.606 245.644 133.085 251.635 134.77 259.154C135.844 263.944 135.243 270.683 133.762 275.37C131.961 281.067 132.918 280.617 136.507 285.397C143.539 294.766 149.872 304.374 154.35 315.563C160.8 331.68 165.029 350.519 162.635 368.16C162.33 370.401 161.969 378.44 159.128 379.002C155.955 379.631 157.439 375.033 157.608 373.547C158.688 364.07 159.647 355.786 158.345 346.161C153.319 309.025 128.783 284.557 112.807 253.039C111.928 251.414 110.074 247.543 108.785 244.99C106.75 240.959 104.704 233.288 101.948 230.299C96.7593 224.667 101.53 235.988 102.541 238.149C103.819 240.883 105.226 243.789 106.536 246.184C112.53 257.288 119.221 269.409 125.411 280.856C98.6371 287.479 79.7808 252.53 72.5957 229.552C66.6758 210.621 59.5929 166.361 87.1777 164.741Z" fill="#69A1AC"/>
<path fill-rule="evenodd" clip-rule="evenodd" d="M244.542 129.586C224.915 131.277 212.314 145.339 206.449 165.008C203.288 175.607 202.925 186.496 201.169 197.389C198.526 213.777 192.84 226.197 181.727 237.872C178.285 241.488 175.749 245.201 173.946 249.173C170.366 253.139 167.251 257.627 164.962 263.114C162.037 270.121 161.21 278.528 164.586 285.514C165.494 287.392 167.758 291.162 170.105 292.875C161.319 313.194 156.487 335.447 157.032 357.672C157.361 371.088 157.964 384.51 158.668 397.909C158.857 401.507 159.936 407.448 161.557 401.414C163.041 395.895 161.18 387.231 161.008 381.465C160.171 353.377 159.455 327.838 170.104 301.595C171.22 298.844 172.404 296.116 173.638 293.409C173.71 293.364 173.777 293.309 173.845 293.255C173.892 293.295 173.935 293.337 173.982 293.376C174.061 293.223 174.168 293.041 174.294 292.839C174.648 292.442 174.957 291.942 175.25 291.383C176.195 289.962 177.264 288.292 177.27 287.378C177.27 287.371 177.266 287.36 177.266 287.353C183.858 275.668 191.409 264.628 199.122 253.803C199.064 253.882 207.487 241.429 206.185 248.316C205.557 251.634 199.361 257.955 196.859 261.47C191.323 269.291 184.822 279.2 179.421 288.782C178.694 289.236 177.667 291.463 176.924 293.122C176.514 293.962 176.131 294.809 175.755 295.548C194.896 302.414 209.785 288.583 219.938 272.496C219.95 272.477 219.961 272.457 219.973 272.438C223.063 267.993 226.227 263.579 230.181 260.065C236.778 254.202 243.843 253.167 251.621 250.282C272.831 242.413 281.849 212.566 284.713 190.42C287.945 165.435 272.138 127.123 244.542 129.586Z" fill="#89C5CC"/>
<path fill-rule="evenodd" clip-rule="evenodd" d="M205.771 59.6185C185.627 82.3826 175.895 113.957 168.189 143.64C159.582 176.793 153.897 210.457 153.679 244.926C153.536 267.572 152.968 290.36 154.186 312.979C154.618 321.013 155.355 329.06 156.528 337.007C156.624 337.661 159.248 355.405 161.759 351.27C163.186 348.919 159.069 332.863 158.758 330.189C157.008 315.126 156.601 299.953 156.687 284.782C156.827 259.803 156.149 234.953 158.48 210.066C158.828 206.35 159.103 202.447 159.916 198.812C160.779 194.948 159.68 196.635 162.491 195.105C165.223 193.618 168.598 193.83 171.433 191.964C182.675 184.562 188.426 165.549 192.902 153.074C198.021 138.808 201.133 123.596 203.618 108.583C205.443 97.5529 206.748 86.5897 207.486 75.4174C207.718 71.8963 207.732 68.2142 208.37 64.752C208.541 63.818 209.403 62.1659 209.372 61.3389C209.305 59.5885 208.332 58.559 208.253 57.0882C207.409 57.9122 206.581 58.7562 205.771 59.6185Z" fill="#89C5CC"/>
<path fill-rule="evenodd" clip-rule="evenodd" d="M201.734 303.233C217.271 301.989 234.623 315.599 242.118 329.762C248.159 341.182 247.142 356.177 243.41 368.309C240.911 376.432 235.457 388.012 226.361 388.125C214.982 388.266 214.433 372.996 214.213 364.068C213.921 352.2 212.54 341.861 203.926 333.771C202.863 332.772 201.747 331.838 200.631 330.903C199.641 330.073 198.651 329.244 197.697 328.37C197.545 328.23 197.391 328.09 197.238 327.95C194.192 325.171 190.993 322.251 190.604 317.67C190.039 311.03 193.491 309.836 198.761 311.069C198.931 311.109 199.393 311.299 200.021 311.557C202.713 312.665 208.456 315.029 207.369 312.203C206.96 311.139 205.466 310.295 203.58 309.663C198.7 309.087 192.881 308.418 191.207 308.818C173.151 313.119 166.121 340.275 164.254 357.529C164.053 359.392 163.89 361.26 163.747 363.131H160.43C160.66 358.612 160.964 354.101 161.66 349.633C164.321 332.542 172.642 307.44 190.891 304.666C191.565 304.563 194.041 304.546 197.041 304.737C198.463 303.874 200.056 303.352 201.734 303.233Z" fill="#69A1AC"/>
</g>
<path fill-rule="evenodd" clip-rule="evenodd" d="M162.442 112.574C160.337 105.441 155.395 99.8572 150.264 94.7414C140.277 84.7821 134.905 78.6244 131.346 64.0558C129.252 55.4877 127.122 46.4081 120.482 40.1918C115.648 35.665 107.327 31.8616 100.861 35.1032C90.9149 41.1349 88.2439 53.5129 89.2469 64.5966C90.4901 78.3342 96.8062 86.8047 108.94 91.8646C115.777 94.7144 120.322 98.4745 124.033 105.027C127.002 110.266 128.733 116.826 132.463 121.576C138.04 128.676 145.02 131.832 153.622 130.653C145.565 115.59 136.15 100.387 124.795 87.7048C123.732 86.4298 117.463 81.5498 118.727 79.3769C120.12 76.9844 126.556 85.9717 126.511 85.9174C129.811 89.7659 132.864 93.8555 135.863 97.9843C135.855 97.9884 135.846 97.9906 135.838 97.9948C138.925 102.232 141.988 106.531 144.992 110.884C146.207 112.725 147.39 114.59 148.522 116.502C150.183 119.307 152.82 127.268 155.538 128.993C156.12 129.362 156.658 129.568 157.161 129.653C159.015 132.739 160.82 135.849 162.537 138.996C167.019 147.216 170.867 155.894 172.633 165.174C173.148 167.883 172.783 178.014 174.603 179.97C177.93 183.546 176.956 176.659 176.757 174.58C175.104 157.366 169.021 142.7 160.189 128.228C162.903 124.628 163.294 115.465 162.442 112.574Z" fill="#F2F2F2"/>
<path fill-rule="evenodd" clip-rule="evenodd" d="M48.4881 120.892C51.9956 116.693 60.4275 115.981 65.5845 116.262C71.9656 116.609 78.5199 118.188 84.5908 120.096C94.5915 123.239 104.309 128.975 113.117 134.527C114.178 135.196 127.255 143.186 126.097 144.588C124.951 145.977 112.114 136.487 109.253 134.851C103.148 131.359 97.5484 127.23 90.8188 124.924C83.8507 122.537 76.4816 121.591 69.1543 121.656C68.2139 121.665 65.1464 120.999 65.0802 122.412C65.0155 123.795 70.0909 123.073 70.9861 123.082C74.6826 123.116 78.402 123.47 82.0462 124.12C88.8738 125.34 95.2927 127.796 101.14 131.564C99.5088 135.418 95.5973 137.196 91.4941 136.231C87.9478 135.397 84.4907 133.341 81.0182 132.746C78.6266 132.337 76.2319 132.58 73.9128 133.265C67.7954 135.071 64.2673 138.771 57.5414 136.197C52.2687 134.179 43.4506 126.93 48.4881 120.892Z" fill="#F2F2F2"/>
<path fill-rule="evenodd" clip-rule="evenodd" d="M33.4041 53.2352C25.6158 52.6581 16.9182 58.9733 13.1614 65.5451C10.1329 70.8438 10.643 77.8016 12.5136 83.431C13.7663 87.1997 16.5001 92.5731 21.0592 92.6254C26.7632 92.691 27.0382 85.6054 27.1486 81.4631C27.2952 75.9561 27.9875 71.1587 32.3049 67.405C32.838 66.9417 33.3973 66.508 33.9566 66.0743C34.4531 65.6893 34.9495 65.3043 35.4274 64.8988C35.5038 64.834 35.5806 64.7692 35.6576 64.7041C37.1843 63.4144 38.7877 62.0599 38.9828 59.9341C39.2659 56.8534 37.5357 56.299 34.894 56.8714C34.8088 56.8898 34.5773 56.978 34.2624 57.098C32.9134 57.6119 30.0346 58.7086 30.5791 57.3976C30.7842 56.9036 31.5331 56.5121 32.4784 56.2188C34.9245 55.9515 37.8416 55.6414 38.6806 55.8266C47.7313 57.8223 51.2551 70.4231 52.191 78.4289C52.2969 79.3354 52.3816 80.2451 52.4553 81.1561H54.1146C53.9984 79.0165 53.847 76.8805 53.4911 74.7649C52.1572 66.8348 47.9864 55.1877 38.8388 53.9005C38.5013 53.8526 37.2599 53.8445 35.7562 53.9331C35.0435 53.5329 34.2452 53.2908 33.4041 53.2352Z" fill="#F2F2F2"/>
</svg>
