<svg width="419" height="368" viewBox="0 0 419 368" fill="none" xmlns="http://www.w3.org/2000/svg">
<g clip-path="url(#clip0)">
<path fill-rule="evenodd" clip-rule="evenodd" d="M348.342 209.57C345.324 205.997 340.103 207.182 336.672 208.495C335.349 209.001 331.934 210.745 329.333 212.897C329.79 211.199 330.214 209.481 330.603 207.743C332.203 200.597 333.498 193.264 334.427 185.918C334.669 184.003 334.727 181.83 334.787 179.628L334.787 179.628L334.787 179.625C334.807 178.88 334.827 178.132 334.854 177.39C335 177.235 335.108 177.008 335.171 176.687C335.174 176.825 335.173 176.934 335.173 177.018C335.172 177.157 335.171 177.225 335.19 177.231C335.207 177.236 335.242 177.184 335.31 177.081C335.337 177.04 335.37 176.991 335.408 176.935C338.195 172.83 340.639 168.097 341.363 162.595C341.977 157.928 339.554 148.551 334.617 154.031C332.409 156.479 331.378 175.878 334.269 177.519C332.959 183.799 331.444 190.037 329.682 196.155C329.497 196.085 329.305 196.052 329.113 196.055C329.257 194.489 329.396 192.777 329.391 192.181C329.349 187.042 326.737 176.221 321.107 177.384C316.78 178.278 318.85 184.995 320.059 187.981C322.005 192.789 324.456 195.117 327.569 197.938C327.558 198.906 328.015 199.539 328.592 199.81C325.566 209.663 321.868 219.159 317.318 227.966L317.265 227.353L317.265 227.353C317.011 224.43 316.715 221.022 316.415 220.27C314.846 216.334 311.082 211.243 307.109 212.823C298.764 216.148 306.381 230.534 313.062 232.994C313.305 233.518 313.573 233.951 313.873 234.221C312.326 236.853 310.693 239.413 308.967 241.885C306.377 245.605 303.619 249.287 300.745 252.926C300.919 249.762 300.472 242.583 300.246 241.784C298.871 236.934 294.227 231.45 289.892 234.084C285.016 237.055 288.615 244.628 290.977 248.167C291.945 249.618 296.865 255.145 298.732 255.452C291.808 264.013 284.257 272.313 276.619 280.257C277.514 276.315 279.152 265.331 279.167 264.087C279.247 257.663 276.672 246.976 269.796 248.433C263.126 249.843 265.146 260.846 266.96 266.22C268.059 269.473 269.668 272.854 271.737 275.322C272.11 275.767 272.613 276.16 273.114 276.553C273.718 277.026 274.322 277.499 274.696 278.059C275.029 278.558 275.102 279.085 275.174 279.606C275.249 280.157 275.325 280.703 275.706 281.208C271.58 285.481 267.436 289.648 263.356 293.692C261.431 295.601 259.478 297.463 257.509 299.295C256.564 298.641 255.107 299.089 255.042 300.819C255.033 301.071 255.063 301.293 255.11 301.501C253.62 302.857 252.123 304.2 250.616 305.526C250.684 305.083 250.725 304.45 250.732 303.569C251.588 305.468 251.75 302.917 251.873 300.972L251.874 300.972C251.917 300.285 251.956 299.673 252.019 299.361C252.265 298.137 252.553 296.931 252.841 295.728C253.456 293.156 254.069 290.594 254.266 287.873C254.685 282.099 252.497 271.978 245.988 274.46C240.003 276.736 241.404 285.603 243.137 291.292C244.234 294.893 245.865 298.207 247.591 301.406C247.898 301.976 248.23 302.736 248.558 303.489C249.045 304.605 249.525 305.706 249.909 306.147C244.116 311.216 238.211 316.093 232.306 320.971L232.306 320.971C229.66 323.156 227.015 325.341 224.38 327.543C224.319 326.962 224.277 326.389 224.244 325.854C224.379 326.088 224.577 326.219 224.844 326.24C224.949 325.818 225.098 325.258 225.276 324.586C227.452 316.38 234.079 291.387 221.308 294.475C211.95 296.748 216.557 320.097 222.691 328.956C218.238 332.698 213.82 336.502 209.486 340.453C206.35 343.311 203.29 346.296 200.327 349.41C202.08 345.059 203.86 339.351 203.379 334.519C202.678 327.486 197.342 320.132 191.316 323.152C183.802 326.937 188.749 334.431 193.389 341.459C195.757 345.047 198.046 348.514 198.554 351.304C189.106 361.561 180.802 373.292 174.769 387.178C168.208 402.279 161.587 422.906 162.876 441.119C163.002 433.217 165.933 423.717 167.991 417.046L167.991 417.045C168.271 416.137 168.535 415.282 168.774 414.489C171.893 404.131 175.94 394.208 180.956 385.108C188.989 370.533 199.01 358.649 210.318 348.198C212.592 349.571 215 351.836 216.995 353.712C218.218 354.863 219.285 355.867 220.071 356.43C223.86 359.141 231.218 363.321 234.27 357.072C237.272 350.928 231.236 346.312 227.432 344.25C223.755 342.26 220.324 341.908 216.696 342.524C222.651 337.373 228.724 332.432 234.796 327.492C235.913 326.583 237.03 325.675 238.146 324.765C239.456 326.424 240.863 328.749 242.358 331.217L242.358 331.217C247.101 339.051 252.72 348.332 258.878 342.392C268.171 333.429 252.804 320.526 245.836 320.285C244.98 320.254 244.143 320.349 243.319 320.527C250.949 314.231 258.482 307.767 265.681 300.717C266.837 301.161 268.538 303.583 270.582 306.491C275.176 313.028 281.5 322.028 287.242 316.581C291.388 312.649 290.654 305.426 287.318 300.85C283.969 296.255 278.645 295.447 274.011 296.115C272.008 296.4 270.114 297.24 268.323 298.342C268.251 298.336 268.182 298.33 268.113 298.324C275.204 291.302 282.349 284.107 289.277 276.596C289.382 276.655 289.491 276.717 289.599 276.779C289.931 277.408 290.547 277.714 291.137 277.676C291.445 277.86 291.761 278.049 292.082 278.242C296.864 281.106 303.01 284.788 308.038 284.374C311.738 284.069 315.325 280.93 312.61 275.976C310.403 271.948 303.581 271.435 300.205 271.794C298.558 271.969 296.703 272.923 294.842 273.881C294.06 274.283 293.277 274.686 292.508 275.032C292.356 274.529 292.048 274.174 291.682 273.971C298.535 266.406 305.129 258.504 311.206 250.135C312.798 250.691 314.521 251.841 316.298 253.028C320.574 255.882 325.163 258.946 328.994 254.444C334.648 247.796 325.478 242.01 320.898 242.023C319.351 242.027 317.802 242.331 316.291 242.814C320.784 235.847 324.4 228.217 327.165 220.047C327.184 220.063 327.202 220.078 327.219 220.094C327.247 220.119 327.275 220.144 327.309 220.169C327.28 220.143 327.254 220.117 327.228 220.091C327.209 220.072 327.19 220.052 327.169 220.033C327.446 219.216 327.714 218.393 327.972 217.566C328.345 217.378 328.69 217.249 328.854 217.2C326.658 218.634 335.261 220.815 336.873 221.224C340.435 222.126 345.234 222.993 348.158 219.767C350.614 217.057 350.846 212.534 348.342 209.57ZM162.489 441.085C162.435 443.688 162.623 446.108 163.173 448.163C162.821 445.865 162.6 443.498 162.489 441.085Z" fill="#F2F2F2"/>
<g opacity="0.5">
<path fill-rule="evenodd" clip-rule="evenodd" d="M205.454 104.482C208.271 100.369 213.498 89.9259 217.462 88.4565C220.015 87.5101 219.271 97.3001 219.302 99.1669C219.425 106.389 218.739 113.565 217.89 120.727C216.363 133.643 211.367 145.145 204.515 156.138C200.989 161.794 196.854 167.519 191.126 171.049C188.489 172.674 185.317 172.946 182.713 174.347C179.681 175.977 181.332 174.659 179.965 177.894C178.068 182.387 177.461 188.182 176.582 192.975C172.551 214.979 162.79 331.295 164.482 353.677C164.632 355.661 161.93 356.135 161.796 353.714C161.079 340.872 167.282 251.947 170.411 222.865C173.541 193.784 176.708 168.092 179.883 158.031C183.735 145.825 190.693 131.146 196.484 119.763C199.174 114.474 202.107 109.368 205.454 104.482Z" fill="#69A1AC"/>
<path fill-rule="evenodd" clip-rule="evenodd" d="M226.36 247.112C233.689 241.603 241.622 252.001 234.99 257.511C231.324 260.557 227.491 259.473 225.333 256.935C223.932 258.683 222.621 260.511 221.361 262.056C217.523 266.761 213.895 271.578 210.428 276.508C203.225 286.749 197.053 297.569 190.599 308.191C184.231 318.674 177.913 329.211 172.14 339.96C167.25 349.067 160.732 359.781 159.057 369.765C161.598 348.591 171.237 328.238 182.716 309.572C194.101 291.059 207.167 270.84 224.796 256.23C223.002 253.528 222.952 249.672 226.36 247.112Z" fill="#C1DEE2"/>
<path fill-rule="evenodd" clip-rule="evenodd" d="M87.2823 195.472C91.3838 196.293 98.0854 205.793 101.466 209.413C105.484 213.714 109.129 218.299 112.565 223.102C119.962 233.442 126.578 244.434 132.203 255.898C141.374 274.586 148.721 293.77 154.053 314.12C157.317 326.577 159.43 339.488 160.682 352.309C160.919 354.727 163.395 373.37 159.827 373.872C156.618 374.325 157.609 359.717 157.455 357.73C155.705 335.312 150.463 313.5 143.171 292.371C141.583 287.768 140.108 282.13 137.568 277.988C135.739 275.005 137.555 276.045 134.34 274.916C131.58 273.946 128.436 274.183 125.609 272.996C119.469 270.417 114.553 265.412 110.244 260.378C101.869 250.594 95.232 240.01 91.7726 227.473C89.8536 220.522 88.0901 213.53 87.1114 206.364C86.8583 204.512 84.6406 194.943 87.2823 195.472Z" fill="#69A1AC"/>
<path fill-rule="evenodd" clip-rule="evenodd" d="M103.468 37.413C118.917 64.8464 131.612 94.9812 139.81 125.503C144.777 143.996 148.25 162.973 151.701 181.812C157.045 210.983 162.099 240.151 163.537 269.84C164.983 299.701 167.843 334.141 158.294 362.902C163.064 333.702 158.522 302.621 157.718 273.24C157.334 259.214 156.221 245.325 154.76 231.381C153.342 217.855 151.027 204.392 148.87 190.972C147.82 184.436 146.716 177.91 145.593 171.388C145.258 169.442 145.116 163.667 143.911 162.338C142.697 161 136.506 160.454 134.563 159.473C130.649 157.495 126.967 154.686 123.709 151.718C117.463 146.028 112.029 138.594 107.74 131.265C97.8169 114.308 93.8497 93.6147 94.0502 73.9764C94.0887 70.1635 100.078 29.1049 97.6723 28.5395C97.8171 28.3658 97.9541 28.1865 98.0833 28C99.9042 31.1217 101.691 34.2646 103.468 37.413Z" fill="#89C5CC"/>
<path fill-rule="evenodd" clip-rule="evenodd" d="M270.216 136.354C270.454 136.002 272.006 133.554 271.224 133.71C272.815 133.391 269.037 136.41 273 134.558C271.118 136.378 272.204 138.742 272.229 141.191C272.27 145.167 271.62 149.111 270.889 153.002C269.733 159.153 268.011 165.133 265.512 170.854C260.065 183.322 250.816 195.323 239.835 203.118C234.414 206.966 229.101 208.276 222.919 210.048C219.013 211.167 218.704 213.236 216.631 217.116C212.315 225.197 208.077 233.25 204.271 241.604C199.726 251.58 195.314 261.566 191.153 271.718C177.134 305.912 165.723 341.338 159.731 378C159.584 356.395 164.465 334.144 170.623 313.551C175.108 298.547 180.947 284.084 187.174 269.767C188.683 266.299 190.97 261.837 191.611 258.008C192.06 255.325 190.688 252.745 190.06 249.919C187.611 238.913 187.786 226.582 189.937 215.517C192.308 203.316 199.165 197.653 210.764 195.925C215.006 195.293 220.398 195.524 224.288 193.672C228.525 191.656 230.274 185.027 232.683 180.771C239.156 169.341 246.847 158.378 255.677 148.746C258.122 146.079 260.752 143.619 263.542 141.338C265.301 139.899 269.017 138.127 270.216 136.354Z" fill="#89C5CC"/>
</g>
</g>
<defs>
<clipPath id="clip0">
<rect width="419" height="368" fill="white"/>
</clipPath>
</defs>
</svg>
