<svg xmlns="http://www.w3.org/2000/svg" width="208" height="61" fill="none" viewBox="0 0 208 61"><g clip-path="url(#clip0)"><g opacity=".7"><path fill="#69A1AC" fill-rule="evenodd" d="M115.224 32.1179C119.896 31.933 125.675 34.0131 126.173 37.8867C126.535 40.7012 126.423 43.5076 126.983 46.318C127.432 48.564 128.379 50.7201 129.672 52.766C130.915 54.7333 133.493 56.408 134.164 58.5098C134.591 59.849 134.352 61.7328 133.762 63.0428C133.045 64.6354 133.426 64.5096 134.855 65.8459C137.653 68.4649 140.173 71.1505 141.955 74.2784C144.522 78.7836 146.205 84.0498 145.253 88.9814C145.131 89.6077 144.988 91.855 143.857 92.0121C142.594 92.1878 143.185 90.9024 143.252 90.4872C143.682 87.8381 144.064 85.5224 143.545 82.8319C141.545 72.4508 131.781 65.6111 125.423 56.8005C125.073 56.3461 124.336 55.2642 123.823 54.5504C123.013 53.4235 122.198 51.2793 121.102 50.4437C119.037 48.8695 120.935 52.0342 121.338 52.6383C121.846 53.4025 122.406 54.2147 122.927 54.8844C125.313 57.9884 127.976 61.3766 130.439 64.5763C119.784 66.4279 112.28 56.6581 109.421 50.235C107.065 44.9432 104.246 32.5707 115.224 32.1179" clip-rule="evenodd"/><path fill="#89C5CC" fill-rule="evenodd" d="M177.848 22.2906C170.037 22.7633 165.023 26.6943 162.689 32.1924C161.43 35.1554 161.286 38.1992 160.587 41.2442C159.535 45.8254 157.273 49.2971 152.85 52.5609C151.481 53.5717 150.471 54.6095 149.754 55.7199C148.329 56.8285 147.089 58.083 146.178 59.6168C145.015 61.5755 144.685 63.9257 146.029 65.8785C146.39 66.4035 147.291 67.4574 148.225 67.9362C144.729 73.616 142.806 79.8367 143.023 86.0494C143.154 89.7998 143.394 93.5516 143.674 97.2973C143.749 98.3031 144.179 99.9639 144.824 98.2772C145.414 96.7343 144.674 94.3124 144.605 92.7006C144.272 84.8488 143.987 77.7096 148.225 70.3738C148.669 69.6049 149.14 68.8422 149.631 68.0856C149.66 68.0728 149.687 68.0575 149.714 68.0425C149.732 68.0535 149.749 68.0654 149.768 68.0761C149.799 68.0335 149.842 67.9828 149.892 67.9261C150.033 67.8153 150.156 67.6753 150.273 67.5191C150.649 67.1218 151.074 66.6551 151.076 66.3995C151.076 66.3975 151.075 66.3945 151.075 66.3925C153.698 63.1263 156.703 60.04 159.773 57.0141C159.75 57.0361 163.102 53.555 162.583 55.4801C162.334 56.4079 159.868 58.1746 158.872 59.1573C156.669 61.3435 154.082 64.1135 151.932 66.7922C151.643 66.919 151.234 67.5415 150.939 68.0052C150.776 68.2401 150.623 68.477 150.474 68.6833C158.091 70.6027 164.016 66.7364 168.057 62.2394C168.062 62.2341 168.066 62.2286 168.07 62.2233C169.3 60.9807 170.56 59.7468 172.133 58.7646C174.758 57.1256 177.57 56.8364 180.665 56.0297C189.106 53.8301 192.695 45.4867 193.834 39.296C195.12 32.3117 188.83 21.602 177.848 22.2906" clip-rule="evenodd"/><path fill="#89C5CC" fill-rule="evenodd" d="M162.419 2.73198C154.402 9.09544 150.529 17.9217 147.463 26.2192C144.037 35.4867 141.775 44.8972 141.688 54.5326C141.631 60.8631 141.406 67.2331 141.89 73.5562C142.062 75.8019 142.355 78.0514 142.822 80.273C142.861 80.4555 143.905 85.4158 144.904 84.2599C145.472 83.6026 143.833 79.1144 143.71 78.3668C143.013 74.1564 142.851 69.9149 142.885 65.6739C142.941 58.6914 142.671 51.7447 143.599 44.7879C143.737 43.7492 143.847 42.6582 144.17 41.6421C144.514 40.5618 144.076 41.0334 145.195 40.6057C146.282 40.1899 147.626 40.2493 148.754 39.7277C153.228 37.6586 155.516 32.3438 157.297 28.8565C159.335 24.8686 160.573 20.6162 161.562 16.4195C162.288 13.3361 162.807 10.2715 163.101 7.1484C163.194 6.16411 163.199 5.1348 163.453 4.16698C163.521 3.90591 163.864 3.44408 163.852 3.21289C163.825 2.72358 163.438 2.43581 163.406 2.02465C163.071 2.25499 162.741 2.49093 162.419 2.73198" clip-rule="evenodd"/><path fill="#F2F2F2" fill-rule="evenodd" d="M93.4954 58.7351C92.2933 54.0046 89.4704 50.3022 86.5402 46.9098C80.8359 40.3057 77.7679 36.2223 75.7349 26.5617C74.5393 20.88 73.3224 14.8592 69.5302 10.737C66.769 7.73522 62.0166 5.21316 58.324 7.3627C52.643 11.3624 51.1175 19.5705 51.6903 26.9203C52.4004 36.0299 56.0078 41.6469 62.938 45.0022C66.8428 46.8919 69.4386 49.3853 71.5582 53.7301C73.2538 57.2043 74.2424 61.5548 76.3731 64.7043C79.5585 69.4124 83.5447 71.5053 88.4581 70.7233C83.856 60.7352 78.479 50.6533 71.9935 42.2437C71.3864 41.3983 67.8056 38.1623 68.5278 36.7214C69.3234 35.1349 72.9994 41.0945 72.9733 41.0584C74.8581 43.6105 76.6021 46.3223 78.3147 49.0603C78.3104 49.0629 78.3053 49.0644 78.3006 49.0672C80.0638 51.8767 81.8131 54.7275 83.529 57.6142C84.2229 58.8352 84.8983 60.0718 85.545 61.3394C86.4938 63.1995 87.9997 68.4788 89.5524 69.6226C89.8846 69.8672 90.1918 70.0038 90.4789 70.0602C91.5383 72.1064 92.5691 74.1689 93.5495 76.2558C96.1097 81.7063 98.3072 87.4613 99.3158 93.615C99.6101 95.411 99.4019 102.13 100.441 103.426C102.342 105.798 101.785 101.231 101.671 99.8523C100.727 88.4371 97.2532 78.712 92.2089 69.1153C93.7585 66.728 93.9823 60.6518 93.4954 58.7351" clip-rule="evenodd"/><path fill="#F2F2F2" fill-rule="evenodd" d="M28.4112 64.2506C30.4145 61.4663 35.2303 60.9939 38.1757 61.1802C41.8202 61.4108 45.5637 62.4574 49.0311 63.7228C54.7429 65.8071 60.2931 69.6108 65.3235 73.2924C65.9297 73.736 73.3985 79.0341 72.7374 79.9639C72.0825 80.8852 64.7505 74.5918 63.1165 73.5071C59.6296 71.1918 56.4317 68.4537 52.5881 66.9247C48.6084 65.3413 44.3995 64.7143 40.2146 64.7576C39.6775 64.7632 37.9255 64.3215 37.8877 65.2588C37.8507 66.1755 40.7495 65.6972 41.2608 65.7027C43.372 65.7256 45.4964 65.96 47.5777 66.3916C51.4773 67.2001 55.1434 68.829 58.4833 71.3274C57.5514 73.8833 55.3173 75.0619 52.9738 74.4223C50.9484 73.8691 48.9739 72.5056 46.9906 72.1112C45.6246 71.8398 44.2569 72.0013 42.9323 72.4552C39.4385 73.653 37.4234 76.1067 33.5819 74.3999C30.5704 73.0619 25.534 68.2548 28.4112 64.2506" clip-rule="evenodd"/><path fill="#F2F2F2" fill-rule="evenodd" d="M19.796 19.3863C15.3478 19.0036 10.3802 23.1914 8.2345 27.5493C6.50478 31.0629 6.79618 35.6768 7.86456 39.4097C8.57999 41.9088 10.1414 45.472 12.7453 45.5067C16.0031 45.5502 16.1602 40.8516 16.2232 38.1048C16.3069 34.453 16.7024 31.2717 19.1683 28.7826C19.4727 28.4754 19.7922 28.1878 20.1116 27.9002C20.3952 27.6449 20.6787 27.3896 20.9517 27.1207C20.9953 27.0777 21.0391 27.0347 21.0831 26.9916C21.9551 26.1364 22.8708 25.2382 22.9823 23.8285C23.144 21.7857 22.1558 21.418 20.647 21.7976C20.5983 21.8098 20.4661 21.8683 20.2863 21.9478C19.5158 22.2886 17.8715 23.0159 18.1826 22.1465C18.2997 21.8189 18.7274 21.5593 19.2673 21.3648C20.6644 21.1876 22.3305 20.9819 22.8097 21.1048C27.9789 22.4282 29.9916 30.7839 30.5261 36.0927C30.5866 36.6939 30.6349 37.2971 30.677 37.9012H31.6248C31.5584 36.4824 31.4719 35.0659 31.2686 33.6631C30.5068 28.4045 28.1246 20.6811 22.9 19.8275C22.7073 19.7957 21.9983 19.7904 21.1394 19.8492C20.7324 19.5837 20.2764 19.4232 19.796 19.3863Z" clip-rule="evenodd"/></g></g><defs><clipPath id="clip0"><rect width="208" height="61" fill="#fff"/></clipPath></defs></svg>