<svg xmlns="http://www.w3.org/2000/svg" width="192" height="314" fill="none" viewBox="0 0 192 314"><path fill="#F2F2F2" fill-rule="evenodd" d="M186.342 65.5701C183.324 61.9967 178.103 63.1821 174.672 64.4946C173.349 65.001 169.934 66.7446 167.333 68.8969C167.79 67.1993 168.214 65.4812 168.603 63.7431C170.203 56.5968 171.498 49.2638 172.427 41.9184C172.669 40.0026 172.727 37.8297 172.787 35.6282L172.787 35.628L172.787 35.6254C172.807 34.8805 172.827 34.1322 172.854 33.3896C173 33.2352 173.108 33.0078 173.171 32.6871C173.174 32.8246 173.173 32.9343 173.173 33.0183C173.172 33.1574 173.171 33.2255 173.19 33.2309C173.207 33.2362 173.242 33.1838 173.31 33.0811C173.337 33.0403 173.37 32.9915 173.408 32.9352C176.195 28.8297 178.639 24.0971 179.363 18.5948C179.977 13.9281 177.554 4.5507 172.617 10.0314C170.409 12.4786 169.378 31.8781 172.269 33.5186C170.959 39.7987 169.444 46.0368 167.682 52.1549C167.497 52.0851 167.305 52.0521 167.113 52.055C167.257 50.489 167.396 48.7774 167.391 48.1808C167.349 43.0416 164.737 32.2214 159.107 33.384C154.78 34.2777 156.85 40.9948 158.059 43.9811C160.005 48.789 162.456 51.1166 165.569 53.938C165.558 54.9057 166.015 55.539 166.592 55.8104C163.566 65.6633 159.868 75.1587 155.318 83.9664L155.265 83.3534L155.265 83.3532C155.011 80.4301 154.715 77.0224 154.415 76.2702C152.846 72.3335 149.082 67.2428 145.109 68.8231C136.764 72.1479 144.381 86.5342 151.062 88.9936C151.305 89.518 151.573 89.9507 151.873 90.2212C150.326 92.8533 148.693 95.4126 146.967 97.8852C144.377 101.605 141.619 105.287 138.745 108.926C138.919 105.762 138.472 98.5829 138.246 97.7844C136.871 92.9342 132.227 87.4502 127.892 90.0839C123.016 93.055 126.615 100.628 128.977 104.167C129.945 105.618 134.865 111.145 136.732 111.452C129.808 120.013 122.257 128.313 114.619 136.257C115.514 132.315 117.152 121.331 117.167 120.087C117.247 113.663 114.672 102.976 107.796 104.433C101.126 105.843 103.146 116.846 104.96 122.22C106.059 125.473 107.668 128.854 109.737 131.322C110.11 131.767 110.613 132.16 111.114 132.553C111.718 133.026 112.322 133.499 112.696 134.059C113.029 134.558 113.102 135.085 113.174 135.606C113.249 136.157 113.325 136.703 113.706 137.208C109.58 141.481 105.436 145.648 101.356 149.692C99.431 151.601 97.4776 153.463 95.5087 155.295C94.5642 154.641 93.1069 155.089 93.0423 156.819C93.0329 157.071 93.0625 157.293 93.1098 157.501C91.6204 158.857 90.1231 160.2 88.6165 161.526C88.6839 161.083 88.7253 160.45 88.7315 159.569C89.5878 161.468 89.7499 158.917 89.8735 156.972L89.8735 156.972C89.9172 156.285 89.956 155.673 90.019 155.361C90.2653 154.137 90.5535 152.931 90.8413 151.728C91.4561 149.156 92.069 146.594 92.2664 143.873C92.6849 138.099 90.4967 127.978 83.9876 130.46C78.0029 132.736 79.4039 141.603 81.1371 147.292C82.2345 150.893 83.8651 154.207 85.5907 157.406C85.8983 157.976 86.2297 158.736 86.5577 159.489C87.0447 160.605 87.5245 161.706 87.9091 162.147C82.1158 167.216 76.2112 172.093 70.3061 176.971L70.3055 176.971C67.6604 179.156 65.0153 181.341 62.38 183.543C62.3194 182.962 62.2769 182.389 62.2436 181.854C62.3786 182.088 62.5774 182.219 62.8441 182.24C62.9495 181.818 63.0978 181.258 63.2761 180.586C65.4518 172.38 72.0788 147.387 59.3079 150.475C49.9502 152.748 54.5568 176.097 60.6907 184.956C56.2381 188.698 51.8199 192.502 47.4862 196.453C44.3504 199.311 41.2903 202.296 38.3272 205.41C40.0799 201.059 41.8601 195.351 41.3787 190.519C40.6775 183.486 35.3422 176.132 29.3161 179.152C21.8022 182.937 26.7494 190.431 31.3886 197.459C33.7575 201.047 36.046 204.514 36.5543 207.304C27.1065 217.561 18.8022 229.292 12.7691 243.178C6.20758 258.279 -0.412673 278.906 0.876326 297.119C1.00189 289.217 3.93252 279.717 5.99063 273.046L5.99085 273.045C6.27102 272.137 6.53503 271.282 6.77358 270.489C9.89272 260.131 13.9403 250.208 18.9556 241.108C26.989 226.533 37.01 214.649 48.3176 204.198C50.592 205.571 53.0001 207.836 54.9946 209.712C56.2178 210.863 57.2855 211.867 58.0712 212.43C61.8604 215.141 69.2176 219.321 72.2705 213.072C75.2721 206.928 69.2361 202.312 65.4316 200.25C61.7545 198.26 58.3241 197.908 54.6961 198.524C60.6509 193.373 66.7242 188.432 72.7963 183.492C73.9131 182.583 75.0299 181.675 76.1458 180.765C77.4557 182.424 78.8632 184.749 80.3576 187.217L80.3577 187.217C85.1007 195.051 90.7199 204.332 96.8778 198.392C106.171 189.429 90.8037 176.526 83.8357 176.285C82.9804 176.254 82.1429 176.349 81.3195 176.527C88.9492 170.231 96.4823 163.767 103.681 156.717C104.837 157.161 106.538 159.583 108.582 162.491C113.176 169.028 119.5 178.028 125.242 172.581C129.388 168.649 128.654 161.426 125.318 156.85C121.969 152.255 116.645 151.447 112.011 152.115C110.008 152.4 108.114 153.24 106.323 154.342C106.251 154.336 106.182 154.33 106.113 154.324C113.204 147.302 120.349 140.107 127.277 132.596C127.382 132.655 127.491 132.717 127.599 132.779C127.931 133.408 128.547 133.714 129.137 133.676C129.445 133.86 129.761 134.049 130.082 134.242C134.864 137.106 141.01 140.788 146.038 140.374C149.738 140.069 153.325 136.93 150.61 131.976C148.403 127.948 141.581 127.435 138.205 127.794C136.558 127.969 134.703 128.923 132.842 129.881C132.06 130.283 131.277 130.686 130.508 131.032C130.356 130.529 130.048 130.174 129.682 129.971C136.535 122.406 143.129 114.504 149.206 106.135C150.798 106.691 152.521 107.841 154.298 109.028C158.574 111.882 163.163 114.946 166.994 110.444C172.648 103.796 163.478 98.0095 158.898 98.023C157.351 98.0272 155.802 98.3312 154.291 98.8144C158.784 91.8465 162.4 84.2173 165.165 76.047C165.184 76.0627 165.202 76.0784 165.219 76.0943C165.247 76.119 165.275 76.144 165.309 76.1689C165.28 76.1432 165.254 76.117 165.228 76.091C165.209 76.0717 165.19 76.0524 165.169 76.0334C165.446 75.2159 165.714 74.3933 165.972 73.5662C166.345 73.3775 166.69 73.2494 166.854 73.2C164.658 74.6343 173.261 76.8152 174.873 77.2236C178.435 78.1259 183.234 78.9932 186.158 75.7671C188.614 73.0572 188.846 68.5344 186.342 65.5701ZM0.488941 297.085C0.434802 299.688 0.623407 302.108 1.17287 304.163C0.821456 301.865 0.600185 299.498 0.488941 297.085Z" clip-rule="evenodd"/></svg>