<svg width="187" height="350" viewBox="0 0 187 350" fill="none" xmlns="http://www.w3.org/2000/svg">
<g opacity="0.5">
<path fill-rule="evenodd" clip-rule="evenodd" d="M119.454 76.4815C122.271 72.3694 127.498 61.9258 131.462 60.4564C134.015 59.51 133.271 69.3001 133.302 71.1668C133.425 78.389 132.739 85.5654 131.89 92.7269C130.363 105.643 125.367 117.145 118.515 128.138C114.989 133.794 110.854 139.519 105.126 143.049C102.489 144.674 99.3169 144.946 96.7131 146.346C93.6806 147.977 95.3321 146.659 93.9655 149.894C92.0676 154.386 91.4606 160.182 90.5824 164.975C86.5506 186.979 76.7896 303.295 78.4817 325.677C78.632 327.661 75.9304 328.135 75.7956 325.714C75.0787 312.872 81.2817 223.947 84.4112 194.865C87.5406 165.784 90.7075 140.092 93.883 130.031C97.7353 117.825 104.693 103.146 110.484 91.7627C113.174 86.4744 116.107 81.3683 119.454 76.4815Z" fill="#69A1AC"/>
<path fill-rule="evenodd" clip-rule="evenodd" d="M140.36 219.112C147.689 213.603 155.622 224.001 148.99 229.511C145.324 232.557 141.491 231.473 139.333 228.935C137.932 230.683 136.621 232.512 135.361 234.056C131.523 238.761 127.895 243.578 124.428 248.508C117.225 258.749 111.053 269.569 104.599 280.191C98.2306 290.674 91.9126 301.211 86.1399 311.96C81.2496 321.067 74.7315 331.781 73.0573 341.765C75.5976 320.591 85.237 300.239 96.7158 281.572C108.101 263.059 121.167 242.84 138.796 228.23C137.002 225.528 136.952 221.672 140.36 219.112Z" fill="#C1DEE2"/>
<path fill-rule="evenodd" clip-rule="evenodd" d="M1.28232 167.472C5.38375 168.293 12.0854 177.793 15.4662 181.413C19.4841 185.714 23.1293 190.299 26.5653 195.102C33.9624 205.442 40.5777 216.434 46.203 227.898C55.3737 246.586 62.7207 265.77 68.0527 286.12C71.3166 298.577 73.4298 311.488 74.6823 324.309C74.9188 326.727 77.3947 345.37 73.827 345.872C70.6184 346.325 71.6094 331.717 71.4546 329.73C69.7048 307.312 64.4629 285.5 57.1714 264.371C55.5832 259.768 54.1077 254.13 51.5679 249.988C49.7388 247.005 51.5547 248.045 48.3404 246.916C45.5804 245.946 42.4357 246.183 39.6093 244.996C33.4694 242.417 28.5531 237.412 24.2436 232.378C15.8687 222.594 9.23204 212.01 5.77263 199.473C3.85359 192.522 2.09008 185.53 1.11145 178.364C0.858293 176.512 -1.35938 166.943 1.28232 167.472Z" fill="#69A1AC"/>
<path fill-rule="evenodd" clip-rule="evenodd" d="M17.4676 9.41296C32.9168 36.8464 45.6124 66.9812 53.81 97.5033C58.7768 115.996 62.2502 134.973 65.7013 153.812C71.0447 182.983 76.099 212.151 77.5367 241.84C78.9831 271.701 81.8433 306.141 72.2938 334.902C77.0638 305.702 72.5224 274.621 71.7183 245.24C71.3341 231.214 70.2206 217.325 68.7598 203.381C67.3424 189.855 65.0266 176.392 62.8701 162.972C61.8196 156.436 60.7164 149.91 59.5932 143.388C59.2578 141.442 59.1162 135.667 57.9106 134.338C56.6972 133 50.5062 132.454 48.5626 131.473C44.6487 129.495 40.9671 126.686 37.7089 123.718C31.4627 118.028 26.0289 110.594 21.7401 103.265C11.8169 86.3084 7.84966 65.6147 8.05018 45.9764C8.08871 42.1635 14.0775 1.10487 11.6723 0.539457C11.8171 0.365804 11.9541 0.186503 12.0833 0C13.9042 3.12172 15.6911 6.26459 17.4676 9.41296Z" fill="#89C5CC"/>
<path fill-rule="evenodd" clip-rule="evenodd" d="M184.216 108.354C184.454 108.002 186.006 105.554 185.224 105.71C186.815 105.391 183.037 108.41 187 106.558C185.118 108.378 186.204 110.742 186.229 113.191C186.27 117.167 185.62 121.111 184.889 125.002C183.733 131.153 182.011 137.133 179.512 142.854C174.065 155.322 164.816 167.323 153.835 175.118C148.414 178.966 143.101 180.276 136.919 182.048C133.013 183.167 132.704 185.236 130.631 189.116C126.315 197.197 122.077 205.25 118.271 213.604C113.726 223.58 109.314 233.566 105.153 243.718C91.1336 277.912 79.7232 313.338 73.7308 350C73.584 328.395 78.4653 306.144 84.6225 285.551C89.1077 270.547 94.9466 256.084 101.174 241.767C102.683 238.299 104.97 233.837 105.611 230.008C106.06 227.325 104.688 224.745 104.06 221.919C101.611 210.913 101.786 198.582 103.937 187.517C106.308 175.316 113.165 169.653 124.764 167.925C129.006 167.293 134.398 167.524 138.288 165.672C142.525 163.656 144.274 157.027 146.683 152.771C153.156 141.341 160.847 130.378 169.677 120.746C172.122 118.079 174.752 115.619 177.542 113.338C179.301 111.899 183.017 110.127 184.216 108.354Z" fill="#89C5CC"/>
</g>
</svg>
