<svg width="173" height="173" viewBox="0 0 173 173" fill="none" xmlns="http://www.w3.org/2000/svg">
<path fill-rule="evenodd" clip-rule="evenodd" d="M151.442 88.5743C149.337 81.4406 144.395 75.8572 139.264 70.7414C129.277 60.7821 123.905 54.6244 120.346 40.0558C118.252 31.4877 116.122 22.4081 109.482 16.1918C104.648 11.665 96.3268 7.86162 89.8614 11.1032C79.9149 17.1349 77.2439 29.5129 78.2468 40.5966C79.4901 54.3342 85.8062 62.8047 97.94 67.8646C104.777 70.7144 109.322 74.4745 113.033 81.0266C116.002 86.2659 117.732 92.8265 121.463 97.576C127.04 104.676 134.02 107.832 142.622 106.653C134.565 91.5905 125.15 76.3866 113.795 63.7048C112.732 62.4298 106.463 57.5498 107.727 55.3769C109.12 52.9844 115.556 61.9717 115.511 61.9174C118.81 65.7659 121.864 69.8555 124.863 73.9843C124.855 73.9884 124.846 73.9906 124.838 73.9948C127.925 78.2316 130.988 82.5307 133.992 86.8839C135.207 88.7252 136.39 90.5901 137.522 92.5017C139.183 95.3068 141.82 103.268 144.538 104.993C145.12 105.362 145.658 105.568 146.16 105.653C148.015 108.739 149.82 111.849 151.537 114.996C156.019 123.216 159.867 131.894 161.633 141.174C162.148 143.883 161.783 154.014 163.603 155.97C166.93 159.546 165.956 152.659 165.757 150.58C164.104 133.366 158.021 118.7 149.189 104.228C151.903 100.628 152.294 91.4647 151.442 88.5743Z" fill="#F2F2F2"/>
<path fill-rule="evenodd" clip-rule="evenodd" d="M37.4881 96.8918C40.9957 92.693 49.4276 91.9806 54.5845 92.2616C60.9656 92.6094 67.5199 94.1876 73.5908 96.0959C83.5915 99.2391 93.3091 104.975 102.117 110.527C103.178 111.196 116.255 119.186 115.097 120.588C113.951 121.977 101.114 112.487 98.2526 110.851C92.1475 107.359 86.5485 103.23 79.8188 100.924C72.8508 98.5366 65.4816 97.5911 58.1543 97.6563C57.2139 97.6648 54.1465 96.9987 54.0803 98.4122C54.0155 99.7946 59.091 99.0733 59.9861 99.0816C63.6826 99.1161 67.4021 99.4696 71.0462 100.12C77.8739 101.34 84.2927 103.796 90.1404 107.564C88.5088 111.418 84.5973 113.196 80.4941 112.231C76.9478 111.397 73.4907 109.341 70.0182 108.746C67.6266 108.337 65.2319 108.58 62.9128 109.265C56.7955 111.071 53.2673 114.771 46.5414 112.197C41.2687 110.179 32.4507 102.93 37.4881 96.8918Z" fill="#F2F2F2"/>
<path fill-rule="evenodd" clip-rule="evenodd" d="M22.4041 29.2352C14.6158 28.6581 5.91819 34.9733 2.1614 41.5451C-0.867119 46.8438 -0.356922 53.8016 1.51367 59.431C2.7663 63.1997 5.50016 68.5731 10.0593 68.6254C15.7632 68.691 16.0383 61.6054 16.1486 57.4631C16.2952 51.9561 16.9875 47.1587 21.305 43.405C21.838 42.9417 22.3974 42.508 22.9567 42.0743C23.4531 41.6893 23.9495 41.3043 24.4275 40.8988C24.5039 40.834 24.5807 40.7692 24.6576 40.7041C26.1843 39.4144 27.7877 38.0599 27.9829 35.9341C28.2659 32.8534 26.5357 32.299 23.8941 32.8714C23.8088 32.8898 23.5773 32.978 23.2624 33.098C21.9134 33.6119 19.0346 34.7086 19.5792 33.3976C19.7842 32.9036 20.5331 32.5121 21.4784 32.2188C23.9245 31.9515 26.8416 31.6414 27.6806 31.8266C36.7313 33.8223 40.2551 46.4231 41.191 54.4289C41.2969 55.3354 41.3816 56.2451 41.4553 57.1561H43.1147C42.9984 55.0165 42.847 52.8805 42.4911 50.7649C41.1572 42.8348 36.9864 31.1877 27.8388 29.9005C27.5013 29.8526 26.26 29.8445 24.7562 29.9331C24.0436 29.5329 23.2452 29.2908 22.4041 29.2352Z" fill="#F2F2F2"/>
</svg>
